<?xml version="1.0" encoding="UTF-8"?><svg xmlns="http://www.w3.org/2000/svg" xmlns:xlink="http://www.w3.org/1999/xlink" viewBox="0 0 668.03 444.91"><defs><style>.i{fill:#b7b7b7;}.j{fill:#f77f00;}.k{fill:#fff;font-family:Poppins-ExtraLight, Poppins;font-size:15px;}.l{stroke:#666;}.l,.m,.n,.o{fill:none;stroke-miterlimit:10;}.p{fill:#4d4d4d;}.m{stroke:#d2d2d2;}.q{fill:url(#f);}.r{fill:#333;}.s,.t{opacity:.58;}.u{fill:#e6e6e6;}.v,.t{fill:gray;}.w{fill:url(#g);}.n{stroke:#fff;stroke-width:.5px;}.x{fill:#fcbf49;}.y{fill:url(#h);}.a`{fill:url(#e);}.aa{fill:#999;}.o{stroke:gray;}.ab{fill:#ccc;}.ac{fill:#b3b3b3;}.ad{fill:#d62828;}.ae{fill:#d2d2d2;}.af{fill:#666;}.ag{fill:#f2f2f2;}.ah{opacity:.56;}</style><radialGradient id="e" cx="332.96" cy="221.63" fx="332.96" fy="221.63" r="104.07" gradientTransform="matrix(1, 0, 0, 1, 0, 0)" gradientUnits="userSpaceOnUse"><stop offset="0" stop-color="#a4a4a4"/><stop offset="1" stop-color="#2b2b2b"/></radialGradient><radialGradient id="f" cx="332.96" cy="221.63" fx="332.96" fy="221.63" r="104.07" xlink:href="#e"/><radialGradient id="g" cx="161.24" cy="219.02" fx="161.24" fy="219.02" r="29.24" xlink:href="#e"/><radialGradient id="h" cx="83.2" cy="219.23" fx="83.2" fy="219.23" r="6.17" gradientTransform="matrix(1, 0, 0, 1, 0, 0)" gradientUnits="userSpaceOnUse"><stop offset="0" stop-color="#a4a4a4"/><stop offset=".99" stop-color="#000"/></radialGradient></defs><g id="a"/><g id="b"><g id="c"><text class="k" transform="translate(470.69 12.77)"><tspan x="0" y="0">Sistema de </tspan><tspan x="0" y="18">comunicaciones</tspan></text><text class="k" transform="translate(356.44 22.87)"><tspan x="0" y="0">Ventana</tspan></text><text class="k" transform="translate(269.06 40.76)"><tspan x="0" y="0">Escotilla </tspan><tspan x="0" y="18">lateral</tspan></text><text class="k" transform="translate(148.03 77.89)"><tspan x="0" y="0">Panel de </tspan><tspan x="0" y="18">instrumentos</tspan></text><text class="k" transform="translate(132.32 353.88)"><tspan x="0" y="0">Paracaídas </tspan><tspan x="0" y="18">principal y de </tspan><tspan x="0" y="36">reserva</tspan></text><text class="k" transform="translate(0 332.78)"><tspan x="0" y="0">Vendas de </tspan><tspan x="0" y="18">recuperación</tspan></text><text class="k" transform="translate(0 121.08)"><tspan x="0" y="0">Escáners de </tspan><tspan x="0" y="18">horizonte</tspan></text><text class="k" transform="translate(272.97 416.57)"><tspan x="0" y="0">Periscopio</tspan></text><text class="k" transform="translate(484.37 102.69)"><tspan x="0" y="0">Escudo de </tspan><tspan x="0" y="18">protección térmica</tspan></text><text class="k" transform="translate(506.92 208.01)"><tspan x="0" y="0">Control de altitud</tspan></text><text class="k" transform="translate(484.37 288)"><tspan x="0" y="0">Asiento </tspan><tspan x="0" y="18">acolchonado</tspan></text><text class="k" transform="translate(470.7 401.57)"><tspan x="0" y="0">Sistema de control </tspan><tspan x="0" y="18">medioambiental</tspan></text></g><g id="d"><g><path class="aa" d="M283.26,314.22l3.32-11.06c.46-1.52,2.1-2.34,3.58-1.79l11.89,4.39c1.33,.49,2.07,1.92,1.7,3.29l-2.65,9.95"/><g><g><rect class="i" x="253.11" y="213.41" width="278.32" height="14.18" rx="7.09" ry="7.09" transform="translate(171.76 612.77) rotate(-90)"/><path class="ae" d="M392.27,356.17V84.83s43.98,35.48,43.98,135.67c0,105.45-43.98,135.67-43.98,135.67Z"/><polygon class="ae" points="193.72 256.79 193.72 182.33 392.27 84.83 392.27 356.17 193.72 256.79"/><rect class="ae" x="126.53" y="189.33" width="74.45" height="58.5" transform="translate(-54.82 382.34) rotate(-90)"/><rect class="aa" x="89.11" y="211.49" width="63.82" height="14.18" transform="translate(-97.57 339.59) rotate(-90)"/><polyline class="i" points="186.63 176.16 200.81 176.16 200.81 263.02 186.63 263.02"/><polygon class="v" points="136.16 179.49 136.16 257.67 127.3 252.09 127.3 185.07 136.16 179.49"/><path class="aa" d="M71.38,234.58v-29.98s-15.95,3.92-15.95,14.99c0,11.65,15.95,14.99,15.95,14.99Z"/><polygon class="v" points="113.92 188.44 113.92 248.72 71.38 239.85 71.38 197.31 113.92 188.44"/><path class="ac" d="M126.06,190.4c0,.81-.55,1.54-1.37,1.73l-46.93,10.88,45.47,14.9c.93,.3,1.44,1.31,1.13,2.24-.3,.93-1.31,1.44-2.24,1.13l-51.5-16.87c-.75-.25-1.25-.97-1.22-1.76,.04-.79,.6-1.47,1.37-1.65l53.11-12.32c.95-.22,1.91,.37,2.13,1.33,.03,.13,.05,.27,.05,.4Z"/><g class="ah"><g class="s"><path class="t" d="M246.57,208.84v9.06c0,2.18,1.77,3.95,3.95,3.95h1.43v-16.96h-1.43c-2.18,0-3.95,1.77-3.95,3.95Z"/><path class="t" d="M239.25,210.09v8.01c0,2.09,1.7,3.79,3.79,3.79h1.6v-15.58h-1.6c-2.09,0-3.79,1.7-3.79,3.79Z"/><path class="t" d="M231.93,211.34v6.96c0,2,1.62,3.63,3.63,3.63h1.76v-14.21h-1.76c-2,0-3.63,1.62-3.63,3.63Z"/><path class="t" d="M224.61,212.59v5.91c0,1.91,1.55,3.46,3.46,3.46h1.92v-12.83h-1.92c-1.91,0-3.46,1.55-3.46,3.46Z"/><path class="t" d="M217.29,213.85v4.86c0,1.82,1.48,3.3,3.3,3.3h2.08v-11.46h-2.08c-1.82,0-3.3,1.48-3.3,3.3Z"/><path class="t" d="M209.97,215.1v3.81c0,1.73,1.4,3.14,3.14,3.14h2.25v-10.09h-2.25c-1.73,0-3.14,1.4-3.14,3.14Z"/><path class="t" d="M202.65,216.35v2.76c0,1.64,1.33,2.98,2.98,2.98h2.41v-8.71h-2.41c-1.64,0-2.98,1.33-2.98,2.98Z"/></g><g class="s"><path class="t" d="M258.42,186.24v7.19c0,2.02,1.64,3.65,3.65,3.65h1.73v-14.49h-1.73c-2.02,0-3.65,1.64-3.65,3.65Z"/><path class="t" d="M251.45,188.27v6.63c0,1.97,1.6,3.57,3.57,3.57h1.82v-13.77h-1.82c-1.97,0-3.57,1.6-3.57,3.57Z"/><path class="t" d="M244.48,190.3v6.08c0,1.92,1.56,3.48,3.48,3.48h1.9v-13.05h-1.9c-1.92,0-3.48,1.56-3.48,3.48Z"/><path class="t" d="M237.51,192.34v5.53c0,1.88,1.52,3.4,3.4,3.4h1.99v-12.32h-1.99c-1.88,0-3.4,1.52-3.4,3.4Z"/><path class="t" d="M230.54,194.37v4.97c0,1.83,1.48,3.31,3.31,3.31h2.07v-11.6h-2.07c-1.83,0-3.31,1.48-3.31,3.31Z"/><path class="t" d="M223.56,196.4v4.42c0,1.78,1.45,3.23,3.23,3.23h2.16v-10.88h-2.16c-1.78,0-3.23,1.45-3.23,3.23Z"/><path class="t" d="M216.59,198.44v3.87c0,1.74,1.41,3.14,3.14,3.14h2.24v-10.16h-2.24c-1.74,0-3.14,1.41-3.14,3.14Z"/><path class="t" d="M209.62,200.47v3.31c0,1.69,1.37,3.06,3.06,3.06h2.33v-9.43h-2.33c-1.69,0-3.06,1.37-3.06,3.06Z"/><path class="t" d="M202.65,202.5v2.76c0,1.64,1.33,2.98,2.98,2.98h2.41v-8.71h-2.41c-1.64,0-2.98,1.33-2.98,2.98Z"/></g><g class="s"><path class="t" d="M258.42,167.83v7.19c0,2.02,1.64,3.65,3.65,3.65h1.73v-14.49h-1.73c-2.02,0-3.65,1.64-3.65,3.65Z"/><path class="t" d="M251.45,170.82v6.49c0,1.95,1.58,3.53,3.53,3.53h1.86v-13.55h-1.86c-1.95,0-3.53,1.58-3.53,3.53Z"/><path class="t" d="M244.48,173.8v5.8c0,1.88,1.52,3.4,3.4,3.4h1.98v-12.6h-1.98c-1.88,0-3.4,1.52-3.4,3.4Z"/><path class="t" d="M237.51,176.78v5.1c0,1.81,1.47,3.28,3.28,3.28h2.11v-11.66h-2.11c-1.81,0-3.28,1.47-3.28,3.28Z"/><path class="t" d="M230.54,179.76v4.41c0,1.74,1.41,3.15,3.15,3.15h2.23v-10.71h-2.23c-1.74,0-3.15,1.41-3.15,3.15Z"/><path class="t" d="M223.56,182.74v3.71c0,1.67,1.36,3.03,3.03,3.03h2.36v-9.77h-2.36c-1.67,0-3.03,1.36-3.03,3.03Z"/><path class="t" d="M216.59,185.72v3.02c0,1.6,1.3,2.9,2.9,2.9h2.48v-8.82h-2.48c-1.6,0-2.9,1.3-2.9,2.9Z"/><path class="t" d="M209.62,188.71v2.32c0,1.54,1.24,2.78,2.78,2.78h2.61v-7.88h-2.61c-1.54,0-2.78,1.24-2.78,2.78Z"/><path class="t" d="M202.65,191.69v1.63c0,1.47,1.19,2.65,2.65,2.65h2.73v-6.94h-2.73c-1.47,0-2.65,1.19-2.65,2.65Z"/></g><g class="s"><path class="t" d="M258.42,154.88v4.38c0,1.73,1.4,3.13,3.13,3.13h2.26v-10.64h-2.26c-1.73,0-3.13,1.4-3.13,3.13Z"/><path class="t" d="M251.45,158.2v4.04c0,1.7,1.37,3.07,3.07,3.07h2.32v-10.18h-2.32c-1.7,0-3.07,1.37-3.07,3.07Z"/><path class="t" d="M244.48,161.51v3.69c0,1.66,1.35,3.01,3.01,3.01h2.37v-9.71h-2.37c-1.66,0-3.01,1.35-3.01,3.01Z"/><path class="t" d="M237.51,164.83v3.35c0,1.63,1.32,2.95,2.95,2.95h2.43v-9.25h-2.43c-1.63,0-2.95,1.32-2.95,2.95Z"/><path class="t" d="M230.54,168.14v3c0,1.6,1.29,2.89,2.89,2.89h2.49v-8.79h-2.49c-1.6,0-2.89,1.29-2.89,2.89Z"/><path class="t" d="M223.56,171.46v2.66c0,1.56,1.27,2.83,2.83,2.83h2.55v-8.33h-2.55c-1.56,0-2.83,1.27-2.83,2.83Z"/><path class="t" d="M216.59,174.77v2.32c0,1.53,1.24,2.77,2.77,2.77h2.61v-7.86h-2.61c-1.53,0-2.77,1.24-2.77,2.77Z"/><path class="t" d="M209.62,178.09v1.97c0,1.5,1.22,2.71,2.71,2.71h2.67v-7.4h-2.67c-1.5,0-2.71,1.22-2.71,2.71Z"/><path class="t" d="M202.65,181.4v1.63c0,1.47,1.19,2.65,2.65,2.65h2.73v-6.94h-2.73c-1.47,0-2.65,1.19-2.65,2.65Z"/></g><g class="s"><path class="t" d="M246.57,227.52v9.06c0,2.18,1.77,3.95,3.95,3.95h1.43v-16.96h-1.43c-2.18,0-3.95,1.77-3.95,3.95Z"/><path class="t" d="M239.25,227.61v8.01c0,2.09,1.7,3.79,3.79,3.79h1.6v-15.58h-1.6c-2.09,0-3.79,1.7-3.79,3.79Z"/><path class="t" d="M231.93,227.7v6.96c0,2,1.62,3.63,3.63,3.63h1.76v-14.21h-1.76c-2,0-3.63,1.62-3.63,3.63Z"/><path class="t" d="M224.61,227.79v5.91c0,1.91,1.55,3.46,3.46,3.46h1.92v-12.83h-1.92c-1.91,0-3.46,1.55-3.46,3.46Z"/><path class="t" d="M217.29,227.88v4.86c0,1.82,1.48,3.3,3.3,3.3h2.08v-11.46h-2.08c-1.82,0-3.3,1.48-3.3,3.3Z"/><path class="t" d="M209.97,227.97v3.81c0,1.73,1.4,3.14,3.14,3.14h2.25v-10.09h-2.25c-1.73,0-3.14,1.4-3.14,3.14Z"/><path class="t" d="M202.65,228.06v2.76c0,1.64,1.33,2.98,2.98,2.98h2.41v-8.71h-2.41c-1.64,0-2.98,1.33-2.98,2.98Z"/></g><g class="s"><path class="t" d="M246.57,245.51v5.53c0,1.85,1.5,3.36,3.36,3.36h2.03v-12.24h-2.03c-1.85,0-3.36,1.5-3.36,3.36Z"/><path class="t" d="M239.25,244.62v5.07c0,1.82,1.47,3.29,3.29,3.29h2.09v-11.66h-2.09c-1.82,0-3.29,1.47-3.29,3.29Z"/><path class="t" d="M231.93,243.73v4.61c0,1.78,1.45,3.23,3.23,3.23h2.16v-11.07h-2.16c-1.78,0-3.23,1.45-3.23,3.23Z"/><path class="t" d="M224.61,242.84v4.15c0,1.75,1.42,3.17,3.17,3.17h2.22v-10.48h-2.22c-1.75,0-3.17,1.42-3.17,3.17Z"/><path class="t" d="M217.29,241.95v3.68c0,1.71,1.39,3.1,3.1,3.1h2.28v-9.89h-2.28c-1.71,0-3.1,1.39-3.1,3.1Z"/><path class="t" d="M209.97,241.06v3.22c0,1.68,1.36,3.04,3.04,3.04h2.35v-9.3h-2.35c-1.68,0-3.04,1.36-3.04,3.04Z"/><path class="t" d="M202.65,240.17v2.76c0,1.64,1.33,2.98,2.98,2.98h2.41v-8.71h-2.41c-1.64,0-2.98,1.33-2.98,2.98Z"/></g><g class="s"><path class="t" d="M246.57,259.73v5.53c0,1.85,1.5,3.36,3.36,3.36h2.03v-12.24h-2.03c-1.85,0-3.36,1.5-3.36,3.36Z"/><path class="t" d="M239.25,258.45v4.72c0,1.76,1.43,3.18,3.18,3.18h2.2v-11.08h-2.2c-1.76,0-3.18,1.43-3.18,3.18Z"/><path class="t" d="M231.93,257.16v3.9c0,1.66,1.35,3.01,3.01,3.01h2.37v-9.93h-2.37c-1.66,0-3.01,1.35-3.01,3.01Z"/><path class="t" d="M224.61,255.88v3.09c0,1.57,1.27,2.84,2.84,2.84h2.55v-8.77h-2.55c-1.57,0-2.84,1.27-2.84,2.84Z"/><path class="t" d="M217.29,254.59v2.28c0,1.47,1.19,2.66,2.66,2.66h2.72v-7.61h-2.72c-1.47,0-2.66,1.19-2.66,2.66Z"/><path class="t" d="M209.97,253.31v1.46c0,1.38,1.12,2.49,2.49,2.49h2.89v-6.45h-2.89c-1.38,0-2.49,1.12-2.49,2.49Z"/><path class="t" d="M202.65,252.02v.65c0,1.28,1.04,2.32,2.32,2.32h3.07v-5.29h-3.07c-1.28,0-2.32,1.04-2.32,2.32Z"/></g><g class="s"><path class="t" d="M246.57,274.14v5.53c0,1.85,1.5,3.36,3.36,3.36h2.03v-12.24h-2.03c-1.85,0-3.36,1.5-3.36,3.36Z"/><path class="t" d="M239.25,271.66v4.61c0,1.7,1.38,3.08,3.08,3.08h2.31v-10.76h-2.31c-1.7,0-3.08,1.38-3.08,3.08Z"/><path class="t" d="M231.93,269.18v3.69c0,1.54,1.25,2.8,2.8,2.8h2.59v-9.28h-2.59c-1.54,0-2.8,1.25-2.8,2.8Z"/><path class="t" d="M224.61,266.7v2.76c0,1.39,1.13,2.52,2.52,2.52h2.87v-7.8h-2.87c-1.39,0-2.52,1.13-2.52,2.52Z"/><path class="t" d="M217.29,264.21v1.84c0,1.24,1,2.24,2.24,2.24h3.15v-6.32h-3.15c-1.24,0-2.24,1-2.24,2.24Z"/><path class="t" d="M209.97,261.73v.92c0,1.08,.88,1.96,1.96,1.96h3.43v-4.84h-3.43c-1.08,0-1.96,.88-1.96,1.96Z"/><path class="t" d="M202.65,259.25h0c0,.93,.75,1.68,1.68,1.68h3.71v-3.35h-3.71c-.93,0-1.68,.75-1.68,1.68Z"/></g><g class="s"><g><path class="t" d="M382.19,292.65v10.1c0,2.42,1.96,4.38,4.38,4.38h1.01v-18.85h-1.01c-2.42,0-4.38,1.96-4.38,4.38Z"/><path class="t" d="M374.06,290.81v9.63c0,2.37,1.92,4.29,4.29,4.29h1.09v-18.21h-1.09c-2.37,0-4.29,1.92-4.29,4.29Z"/><path class="t" d="M365.93,288.96v9.17c0,2.32,1.88,4.21,4.21,4.21h1.18v-17.58h-1.18c-2.32,0-4.21,1.88-4.21,4.21Z"/><path class="t" d="M357.8,287.12v8.7c0,2.28,1.84,4.12,4.12,4.12h1.27v-16.95h-1.27c-2.28,0-4.12,1.84-4.12,4.12Z"/><path class="t" d="M349.67,285.27v8.24c0,2.23,1.81,4.04,4.04,4.04h1.35v-16.31h-1.35c-2.23,0-4.04,1.81-4.04,4.04Z"/><path class="t" d="M341.53,283.43v7.78c0,2.18,1.77,3.95,3.95,3.95h1.44v-15.68h-1.44c-2.18,0-3.95,1.77-3.95,3.95Z"/><path class="t" d="M333.4,281.58v7.31c0,2.13,1.73,3.86,3.86,3.86h1.52v-15.04h-1.52c-2.13,0-3.86,1.73-3.86,3.86Z"/><path class="t" d="M325.27,279.74v6.85c0,2.09,1.69,3.78,3.78,3.78h1.61v-14.41h-1.61c-2.09,0-3.78,1.69-3.78,3.78Z"/><path class="t" d="M317.14,277.89v6.38c0,2.04,1.65,3.69,3.69,3.69h1.69v-13.77h-1.69c-2.04,0-3.69,1.65-3.69,3.69Z"/><path class="t" d="M309.01,276.05v5.92c0,1.99,1.62,3.61,3.61,3.61h1.78v-13.14h-1.78c-1.99,0-3.61,1.62-3.61,3.61Z"/><path class="t" d="M300.88,274.2v5.46c0,1.95,1.58,3.52,3.52,3.52h1.86v-12.5h-1.86c-1.95,0-3.52,1.58-3.52,3.52Z"/><path class="t" d="M292.75,272.36v4.99c0,1.9,1.54,3.44,3.44,3.44h1.95v-11.87h-1.95c-1.9,0-3.44,1.54-3.44,3.44Z"/><path class="t" d="M284.62,270.51v4.53c0,1.85,1.5,3.35,3.35,3.35h2.03v-11.23h-2.03c-1.85,0-3.35,1.5-3.35,3.35Z"/><path class="t" d="M276.48,268.67v4.06c0,1.8,1.46,3.27,3.27,3.27h2.12v-10.6h-2.12c-1.8,0-3.27,1.46-3.27,3.27Z"/><path class="t" d="M268.35,266.82v3.6c0,1.76,1.42,3.18,3.18,3.18h2.2v-9.96h-2.2c-1.76,0-3.18,1.42-3.18,3.18Z"/></g><path class="t" d="M382.19,317.49v10.1c0,2.42,1.96,4.38,4.38,4.38h1.01v-18.85h-1.01c-2.42,0-4.38,1.96-4.38,4.38Z"/><g><path class="t" d="M382.19,265.11v13.88c0,2.71,2.2,4.91,4.91,4.91h.48v-23.7h-.48c-2.71,0-4.91,2.2-4.91,4.91Z"/><path class="t" d="M374.06,264.07v13.43c0,2.67,2.17,4.84,4.84,4.84h.54v-23.12h-.54c-2.67,0-4.84,2.17-4.84,4.84Z"/><path class="t" d="M365.93,263.04v12.99c0,2.64,2.14,4.77,4.77,4.77h.61v-22.54h-.61c-2.64,0-4.77,2.14-4.77,4.77Z"/><path class="t" d="M357.8,262v12.54c0,2.6,2.11,4.71,4.71,4.71h.68v-21.95h-.68c-2.6,0-4.71,2.11-4.71,4.71Z"/><path class="t" d="M349.67,260.96v12.09c0,2.56,2.08,4.64,4.64,4.64h.74v-21.37h-.74c-2.56,0-4.64,2.08-4.64,4.64Z"/><path class="t" d="M341.53,259.92v11.64c0,2.53,2.05,4.57,4.57,4.57h.81v-20.79h-.81c-2.53,0-4.57,2.05-4.57,4.57Z"/><path class="t" d="M333.4,258.89v11.2c0,2.49,2.02,4.51,4.51,4.51h.88v-20.21h-.88c-2.49,0-4.51,2.02-4.51,4.51Z"/><path class="t" d="M325.27,257.85v10.75c0,2.45,1.99,4.44,4.44,4.44h.94v-19.63h-.94c-2.45,0-4.44,1.99-4.44,4.44Z"/><path class="t" d="M317.14,256.81v10.3c0,2.42,1.96,4.38,4.38,4.38h1.01v-19.05h-1.01c-2.42,0-4.38,1.96-4.38,4.38Z"/><path class="t" d="M309.01,255.77v9.85c0,2.38,1.93,4.31,4.31,4.31h1.08v-18.47h-1.08c-2.38,0-4.31,1.93-4.31,4.31Z"/><path class="t" d="M300.88,254.74v9.4c0,2.34,1.9,4.24,4.24,4.24h1.14v-17.89h-1.14c-2.34,0-4.24,1.9-4.24,4.24Z"/><path class="t" d="M292.75,253.7v8.96c0,2.31,1.87,4.18,4.18,4.18h1.21v-17.31h-1.21c-2.31,0-4.18,1.87-4.18,4.18Z"/><path class="t" d="M284.62,252.66v8.51c0,2.27,1.84,4.11,4.11,4.11h1.28v-16.73h-1.28c-2.27,0-4.11,1.84-4.11,4.11Z"/><path class="t" d="M276.48,251.62v8.06c0,2.23,1.81,4.04,4.04,4.04h1.34v-16.15h-1.34c-2.23,0-4.04,1.81-4.04,4.04Z"/><path class="t" d="M268.35,250.59v7.61c0,2.2,1.78,3.98,3.98,3.98h1.41v-15.57h-1.41c-2.2,0-3.98,1.78-3.98,3.98Z"/></g><g><path class="t" d="M382.19,226.88v20.73c0,2.97,2.41,5.39,5.39,5.39h0v-31.51h0c-2.97,0-5.39,2.41-5.39,5.39Z"/><path class="t" d="M374.06,226.92v19.93c0,2.93,2.38,5.31,5.31,5.31h.08v-30.55h-.08c-2.93,0-5.31,2.38-5.31,5.31Z"/><path class="t" d="M365.93,226.96v19.13c0,2.89,2.34,5.23,5.23,5.23h.16v-29.59h-.16c-2.89,0-5.23,2.34-5.23,5.23Z"/><path class="t" d="M357.8,226.99v18.33c0,2.84,2.31,5.15,5.15,5.15h.23v-28.63h-.23c-2.84,0-5.15,2.31-5.15,5.15Z"/><path class="t" d="M349.67,227.03v17.53c0,2.8,2.27,5.07,5.07,5.07h.31v-27.68h-.31c-2.8,0-5.07,2.27-5.07,5.07Z"/><path class="t" d="M341.53,227.07v16.73c0,2.76,2.24,4.99,4.99,4.99h.39v-26.72h-.39c-2.76,0-4.99,2.24-4.99,4.99Z"/><path class="t" d="M333.4,227.1v15.93c0,2.71,2.2,4.92,4.92,4.92h.47v-25.76h-.47c-2.71,0-4.92,2.2-4.92,4.92Z"/><path class="t" d="M325.27,227.14v15.13c0,2.67,2.17,4.84,4.84,4.84h.55v-24.8h-.55c-2.67,0-4.84,2.17-4.84,4.84Z"/><path class="t" d="M317.14,227.18v14.33c0,2.63,2.13,4.76,4.76,4.76h.63v-23.85h-.63c-2.63,0-4.76,2.13-4.76,4.76Z"/><path class="t" d="M309.01,227.22v13.53c0,2.59,2.1,4.68,4.68,4.68h.7v-22.89h-.7c-2.59,0-4.68,2.1-4.68,4.68Z"/><path class="t" d="M300.88,227.25v12.73c0,2.54,2.06,4.6,4.6,4.6h.78v-21.93h-.78c-2.54,0-4.6,2.06-4.6,4.6Z"/><path class="t" d="M292.75,227.29v11.93c0,2.5,2.03,4.52,4.52,4.52h.86v-20.98h-.86c-2.5,0-4.52,2.03-4.52,4.52Z"/><path class="t" d="M284.62,227.33v11.13c0,2.46,1.99,4.45,4.45,4.45h.94v-20.02h-.94c-2.46,0-4.45,1.99-4.45,4.45Z"/><path class="t" d="M276.48,227.36v10.33c0,2.41,1.96,4.37,4.37,4.37h1.02v-19.06h-1.02c-2.41,0-4.37,1.96-4.37,4.37Z"/><path class="t" d="M268.35,227.4v9.53c0,2.37,1.92,4.29,4.29,4.29h1.1v-18.1h-1.1c-2.37,0-4.29,1.92-4.29,4.29Z"/></g><g><path class="t" d="M382.19,188.81v20.73c0,2.97,2.41,5.39,5.39,5.39h0v-31.51h0c-2.97,0-5.39,2.41-5.39,5.39Z"/><path class="t" d="M374.06,190.07v19.93c0,2.93,2.38,5.31,5.31,5.31h.08v-30.55h-.08c-2.93,0-5.31,2.38-5.31,5.31Z"/><path class="t" d="M365.93,191.33v19.13c0,2.89,2.34,5.23,5.23,5.23h.16v-29.59h-.16c-2.89,0-5.23,2.34-5.23,5.23Z"/><path class="t" d="M357.8,192.59v18.33c0,2.84,2.31,5.15,5.15,5.15h.23v-28.63h-.23c-2.84,0-5.15,2.31-5.15,5.15Z"/><path class="t" d="M349.67,193.85v17.53c0,2.8,2.27,5.07,5.07,5.07h.31v-27.68h-.31c-2.8,0-5.07,2.27-5.07,5.07Z"/><path class="t" d="M341.53,195.11v16.73c0,2.76,2.24,4.99,4.99,4.99h.39v-26.72h-.39c-2.76,0-4.99,2.24-4.99,4.99Z"/><path class="t" d="M333.4,196.37v15.93c0,2.71,2.2,4.92,4.92,4.92h.47v-25.76h-.47c-2.71,0-4.92,2.2-4.92,4.92Z"/><path class="t" d="M325.27,197.62v15.13c0,2.67,2.17,4.84,4.84,4.84h.55v-24.8h-.55c-2.67,0-4.84,2.17-4.84,4.84Z"/><path class="t" d="M317.14,198.88v14.33c0,2.63,2.13,4.76,4.76,4.76h.63v-23.85h-.63c-2.63,0-4.76,2.13-4.76,4.76Z"/><path class="t" d="M309.01,200.14v13.53c0,2.59,2.1,4.68,4.68,4.68h.7v-22.89h-.7c-2.59,0-4.68,2.1-4.68,4.68Z"/><path class="t" d="M300.88,201.4v12.73c0,2.54,2.06,4.6,4.6,4.6h.78v-21.93h-.78c-2.54,0-4.6,2.06-4.6,4.6Z"/><path class="t" d="M292.75,202.66v11.93c0,2.5,2.03,4.52,4.52,4.52h.86v-20.98h-.86c-2.5,0-4.52,2.03-4.52,4.52Z"/><path class="t" d="M284.62,203.92v11.13c0,2.46,1.99,4.45,4.45,4.45h.94v-20.02h-.94c-2.46,0-4.45,1.99-4.45,4.45Z"/><path class="t" d="M276.48,205.18v10.33c0,2.41,1.96,4.37,4.37,4.37h1.02v-19.06h-1.02c-2.41,0-4.37,1.96-4.37,4.37Z"/><path class="t" d="M268.35,206.43v9.53c0,2.37,1.92,4.29,4.29,4.29h1.1v-18.1h-1.1c-2.37,0-4.29,1.92-4.29,4.29Z"/></g><g><path class="t" d="M382.19,153.88v20.73c0,2.97,2.41,5.39,5.39,5.39h0v-31.51h0c-2.97,0-5.39,2.41-5.39,5.39Z"/><path class="t" d="M374.06,156v19.77c0,2.92,2.36,5.28,5.28,5.28h.1v-30.34h-.1c-2.92,0-5.28,2.36-5.28,5.28Z"/><path class="t" d="M365.93,158.12v18.82c0,2.86,2.32,5.18,5.18,5.18h.21v-29.17h-.21c-2.86,0-5.18,2.32-5.18,5.18Z"/><path class="t" d="M357.8,160.25v17.86c0,2.8,2.27,5.07,5.07,5.07h.31v-28h-.31c-2.8,0-5.07,2.27-5.07,5.07Z"/><path class="t" d="M349.67,162.37v16.9c0,2.74,2.22,4.97,4.97,4.97h.42v-26.83h-.42c-2.74,0-4.97,2.22-4.97,4.97Z"/><path class="t" d="M341.53,164.5v15.94c0,2.69,2.18,4.86,4.86,4.86h.52v-25.66h-.52c-2.69,0-4.86,2.18-4.86,4.86Z"/><path class="t" d="M333.4,166.62v14.98c0,2.63,2.13,4.76,4.76,4.76h.63v-24.49h-.63c-2.63,0-4.76,2.13-4.76,4.76Z"/><path class="t" d="M325.27,168.74v14.02c0,2.57,2.08,4.65,4.65,4.65h.73v-23.33h-.73c-2.57,0-4.65,2.08-4.65,4.65Z"/><path class="t" d="M317.14,170.87v13.06c0,2.51,2.04,4.55,4.55,4.55h.84v-22.16h-.84c-2.51,0-4.55,2.04-4.55,4.55Z"/><path class="t" d="M309.01,172.99v12.1c0,2.46,1.99,4.45,4.45,4.45h.94v-20.99h-.94c-2.46,0-4.45,1.99-4.45,4.45Z"/><path class="t" d="M300.88,175.12v11.14c0,2.4,1.94,4.34,4.34,4.34h1.04v-19.82h-1.04c-2.4,0-4.34,1.94-4.34,4.34Z"/><path class="t" d="M292.75,177.24v10.18c0,2.34,1.9,4.24,4.24,4.24h1.15v-18.65h-1.15c-2.34,0-4.24,1.9-4.24,4.24Z"/><path class="t" d="M284.62,179.37v9.22c0,2.28,1.85,4.13,4.13,4.13h1.25v-17.48h-1.25c-2.28,0-4.13,1.85-4.13,4.13Z"/><path class="t" d="M276.48,181.49v8.26c0,2.22,1.8,4.03,4.03,4.03h1.36v-16.32h-1.36c-2.22,0-4.03,1.8-4.03,4.03Z"/><path class="t" d="M268.35,183.61v7.3c0,2.17,1.76,3.92,3.92,3.92h1.46v-15.15h-1.46c-2.17,0-3.92,1.76-3.92,3.92Z"/></g><g><path class="t" d="M382.19,120.25v20.73c0,2.97,2.41,5.39,5.39,5.39h0v-31.51h0c-2.97,0-5.39,2.41-5.39,5.39Z"/><path class="t" d="M374.06,123.28v19.77c0,2.92,2.36,5.28,5.28,5.28h.1v-30.34h-.1c-2.92,0-5.28,2.36-5.28,5.28Z"/><path class="t" d="M365.93,126.31v18.82c0,2.86,2.32,5.18,5.18,5.18h.21v-29.17h-.21c-2.86,0-5.18,2.32-5.18,5.18Z"/><path class="t" d="M357.8,129.33v17.86c0,2.8,2.27,5.07,5.07,5.07h.31v-28h-.31c-2.8,0-5.07,2.27-5.07,5.07Z"/><path class="t" d="M349.67,132.36v16.9c0,2.74,2.22,4.97,4.97,4.97h.42v-26.83h-.42c-2.74,0-4.97,2.22-4.97,4.97Z"/><path class="t" d="M341.53,135.39v15.94c0,2.69,2.18,4.86,4.86,4.86h.52v-25.66h-.52c-2.69,0-4.86,2.18-4.86,4.86Z"/><path class="t" d="M333.4,138.42v14.98c0,2.63,2.13,4.76,4.76,4.76h.63v-24.49h-.63c-2.63,0-4.76,2.13-4.76,4.76Z"/><path class="t" d="M325.27,141.45v14.02c0,2.57,2.08,4.65,4.65,4.65h.73v-23.33h-.73c-2.57,0-4.65,2.08-4.65,4.65Z"/><path class="t" d="M317.14,144.48v13.06c0,2.51,2.04,4.55,4.55,4.55h.84v-22.16h-.84c-2.51,0-4.55,2.04-4.55,4.55Z"/><path class="t" d="M309.01,147.5v12.1c0,2.46,1.99,4.45,4.45,4.45h.94v-20.99h-.94c-2.46,0-4.45,1.99-4.45,4.45Z"/><path class="t" d="M300.88,150.53v11.14c0,2.4,1.94,4.34,4.34,4.34h1.04v-19.82h-1.04c-2.4,0-4.34,1.94-4.34,4.34Z"/><path class="t" d="M292.75,153.56v10.18c0,2.34,1.9,4.24,4.24,4.24h1.15v-18.65h-1.15c-2.34,0-4.24,1.9-4.24,4.24Z"/><path class="t" d="M284.62,156.59v9.22c0,2.28,1.85,4.13,4.13,4.13h1.25v-17.48h-1.25c-2.28,0-4.13,1.85-4.13,4.13Z"/><path class="t" d="M276.48,159.62v8.26c0,2.22,1.8,4.03,4.03,4.03h1.36v-16.32h-1.36c-2.22,0-4.03,1.8-4.03,4.03Z"/><path class="t" d="M268.35,162.65v7.3c0,2.17,1.76,3.92,3.92,3.92h1.46v-15.15h-1.46c-2.17,0-3.92,1.76-3.92,3.92Z"/></g></g></g><rect class="i" x="213.78" y="241.36" width="93.86" height="10.5" rx="3.41" ry="3.41" transform="translate(14.1 507.32) rotate(-90)"/><rect class="v" x="137.32" y="217.36" width="12.82" height="5.76" rx="1.64" ry="1.64" transform="translate(-76.51 363.96) rotate(-90)"/><rect class="af" x="74.61" y="217.02" width="34.02" height="5.76" rx="2.67" ry="2.67"/></g><g class="ah"><g class="s"><path class="t" d="M246.57,208.84v9.06c0,2.18,1.77,3.95,3.95,3.95h1.43v-16.96h-1.43c-2.18,0-3.95,1.77-3.95,3.95Z"/><path class="t" d="M239.25,210.09v8.01c0,2.09,1.7,3.79,3.79,3.79h1.6v-15.58h-1.6c-2.09,0-3.79,1.7-3.79,3.79Z"/><path class="t" d="M231.93,211.34v6.96c0,2,1.62,3.63,3.63,3.63h1.76v-14.21h-1.76c-2,0-3.63,1.62-3.63,3.63Z"/><path class="t" d="M224.61,212.59v5.91c0,1.91,1.55,3.46,3.46,3.46h1.92v-12.83h-1.92c-1.91,0-3.46,1.55-3.46,3.46Z"/><path class="t" d="M217.29,213.85v4.86c0,1.82,1.48,3.3,3.3,3.3h2.08v-11.46h-2.08c-1.82,0-3.3,1.48-3.3,3.3Z"/><path class="t" d="M209.97,215.1v3.81c0,1.73,1.4,3.14,3.14,3.14h2.25v-10.09h-2.25c-1.73,0-3.14,1.4-3.14,3.14Z"/><path class="t" d="M202.65,216.35v2.76c0,1.64,1.33,2.98,2.98,2.98h2.41v-8.71h-2.41c-1.64,0-2.98,1.33-2.98,2.98Z"/></g><g class="s"><path class="t" d="M258.42,186.24v7.19c0,2.02,1.64,3.65,3.65,3.65h1.73v-14.49h-1.73c-2.02,0-3.65,1.64-3.65,3.65Z"/><path class="t" d="M251.45,188.27v6.63c0,1.97,1.6,3.57,3.57,3.57h1.82v-13.77h-1.82c-1.97,0-3.57,1.6-3.57,3.57Z"/><path class="t" d="M244.48,190.3v6.08c0,1.92,1.56,3.48,3.48,3.48h1.9v-13.05h-1.9c-1.92,0-3.48,1.56-3.48,3.48Z"/><path class="t" d="M237.51,192.34v5.53c0,1.88,1.52,3.4,3.4,3.4h1.99v-12.32h-1.99c-1.88,0-3.4,1.52-3.4,3.4Z"/><path class="t" d="M230.54,194.37v4.97c0,1.83,1.48,3.31,3.31,3.31h2.07v-11.6h-2.07c-1.83,0-3.31,1.48-3.31,3.31Z"/><path class="t" d="M223.56,196.4v4.42c0,1.78,1.45,3.23,3.23,3.23h2.16v-10.88h-2.16c-1.78,0-3.23,1.45-3.23,3.23Z"/><path class="t" d="M216.59,198.44v3.87c0,1.74,1.41,3.14,3.14,3.14h2.24v-10.16h-2.24c-1.74,0-3.14,1.41-3.14,3.14Z"/><path class="t" d="M209.62,200.47v3.31c0,1.69,1.37,3.06,3.06,3.06h2.33v-9.43h-2.33c-1.69,0-3.06,1.37-3.06,3.06Z"/><path class="t" d="M202.65,202.5v2.76c0,1.64,1.33,2.98,2.98,2.98h2.41v-8.71h-2.41c-1.64,0-2.98,1.33-2.98,2.98Z"/></g><g class="s"><path class="t" d="M258.42,167.83v7.19c0,2.02,1.64,3.65,3.65,3.65h1.73v-14.49h-1.73c-2.02,0-3.65,1.64-3.65,3.65Z"/><path class="t" d="M251.45,170.82v6.49c0,1.95,1.58,3.53,3.53,3.53h1.86v-13.55h-1.86c-1.95,0-3.53,1.58-3.53,3.53Z"/><path class="t" d="M244.48,173.8v5.8c0,1.88,1.52,3.4,3.4,3.4h1.98v-12.6h-1.98c-1.88,0-3.4,1.52-3.4,3.4Z"/><path class="t" d="M237.51,176.78v5.1c0,1.81,1.47,3.28,3.28,3.28h2.11v-11.66h-2.11c-1.81,0-3.28,1.47-3.28,3.28Z"/><path class="t" d="M230.54,179.76v4.41c0,1.74,1.41,3.15,3.15,3.15h2.23v-10.71h-2.23c-1.74,0-3.15,1.41-3.15,3.15Z"/><path class="t" d="M223.56,182.74v3.71c0,1.67,1.36,3.03,3.03,3.03h2.36v-9.77h-2.36c-1.67,0-3.03,1.36-3.03,3.03Z"/><path class="t" d="M216.59,185.72v3.02c0,1.6,1.3,2.9,2.9,2.9h2.48v-8.82h-2.48c-1.6,0-2.9,1.3-2.9,2.9Z"/><path class="t" d="M209.62,188.71v2.32c0,1.54,1.24,2.78,2.78,2.78h2.61v-7.88h-2.61c-1.54,0-2.78,1.24-2.78,2.78Z"/><path class="t" d="M202.65,191.69v1.63c0,1.47,1.19,2.65,2.65,2.65h2.73v-6.94h-2.73c-1.47,0-2.65,1.19-2.65,2.65Z"/></g><g class="s"><path class="t" d="M258.42,154.88v4.38c0,1.73,1.4,3.13,3.13,3.13h2.26v-10.64h-2.26c-1.73,0-3.13,1.4-3.13,3.13Z"/><path class="t" d="M251.45,158.2v4.04c0,1.7,1.37,3.07,3.07,3.07h2.32v-10.18h-2.32c-1.7,0-3.07,1.37-3.07,3.07Z"/><path class="t" d="M244.48,161.51v3.69c0,1.66,1.35,3.01,3.01,3.01h2.37v-9.71h-2.37c-1.66,0-3.01,1.35-3.01,3.01Z"/><path class="t" d="M237.51,164.83v3.35c0,1.63,1.32,2.95,2.95,2.95h2.43v-9.25h-2.43c-1.63,0-2.95,1.32-2.95,2.95Z"/><path class="t" d="M230.54,168.14v3c0,1.6,1.29,2.89,2.89,2.89h2.49v-8.79h-2.49c-1.6,0-2.89,1.29-2.89,2.89Z"/><path class="t" d="M223.56,171.46v2.66c0,1.56,1.27,2.83,2.83,2.83h2.55v-8.33h-2.55c-1.56,0-2.83,1.27-2.83,2.83Z"/><path class="t" d="M216.59,174.77v2.32c0,1.53,1.24,2.77,2.77,2.77h2.61v-7.86h-2.61c-1.53,0-2.77,1.24-2.77,2.77Z"/><path class="t" d="M209.62,178.09v1.97c0,1.5,1.22,2.71,2.71,2.71h2.67v-7.4h-2.67c-1.5,0-2.71,1.22-2.71,2.71Z"/><path class="t" d="M202.65,181.4v1.63c0,1.47,1.19,2.65,2.65,2.65h2.73v-6.94h-2.73c-1.47,0-2.65,1.19-2.65,2.65Z"/></g><g class="s"><path class="t" d="M246.57,227.52v9.06c0,2.18,1.77,3.95,3.95,3.95h1.43v-16.96h-1.43c-2.18,0-3.95,1.77-3.95,3.95Z"/><path class="t" d="M239.25,227.61v8.01c0,2.09,1.7,3.79,3.79,3.79h1.6v-15.58h-1.6c-2.09,0-3.79,1.7-3.79,3.79Z"/><path class="t" d="M231.93,227.7v6.96c0,2,1.62,3.63,3.63,3.63h1.76v-14.21h-1.76c-2,0-3.63,1.62-3.63,3.63Z"/><path class="t" d="M224.61,227.79v5.91c0,1.91,1.55,3.46,3.46,3.46h1.92v-12.83h-1.92c-1.91,0-3.46,1.55-3.46,3.46Z"/><path class="t" d="M217.29,227.88v4.86c0,1.82,1.48,3.3,3.3,3.3h2.08v-11.46h-2.08c-1.82,0-3.3,1.48-3.3,3.3Z"/><path class="t" d="M209.97,227.97v3.81c0,1.73,1.4,3.14,3.14,3.14h2.25v-10.09h-2.25c-1.73,0-3.14,1.4-3.14,3.14Z"/><path class="t" d="M202.65,228.06v2.76c0,1.64,1.33,2.98,2.98,2.98h2.41v-8.71h-2.41c-1.64,0-2.98,1.33-2.98,2.98Z"/></g><g class="s"><path class="t" d="M246.57,245.51v5.53c0,1.85,1.5,3.36,3.36,3.36h2.03v-12.24h-2.03c-1.85,0-3.36,1.5-3.36,3.36Z"/><path class="t" d="M239.25,244.62v5.07c0,1.82,1.47,3.29,3.29,3.29h2.09v-11.66h-2.09c-1.82,0-3.29,1.47-3.29,3.29Z"/><path class="t" d="M231.93,243.73v4.61c0,1.78,1.45,3.23,3.23,3.23h2.16v-11.07h-2.16c-1.78,0-3.23,1.45-3.23,3.23Z"/><path class="t" d="M224.61,242.84v4.15c0,1.75,1.42,3.17,3.17,3.17h2.22v-10.48h-2.22c-1.75,0-3.17,1.42-3.17,3.17Z"/><path class="t" d="M217.29,241.95v3.68c0,1.71,1.39,3.1,3.1,3.1h2.28v-9.89h-2.28c-1.71,0-3.1,1.39-3.1,3.1Z"/><path class="t" d="M209.97,241.06v3.22c0,1.68,1.36,3.04,3.04,3.04h2.35v-9.3h-2.35c-1.68,0-3.04,1.36-3.04,3.04Z"/><path class="t" d="M202.65,240.17v2.76c0,1.64,1.33,2.98,2.98,2.98h2.41v-8.71h-2.41c-1.64,0-2.98,1.33-2.98,2.98Z"/></g><g class="s"><path class="t" d="M246.57,259.73v5.53c0,1.85,1.5,3.36,3.36,3.36h2.03v-12.24h-2.03c-1.85,0-3.36,1.5-3.36,3.36Z"/><path class="t" d="M239.25,258.45v4.72c0,1.76,1.43,3.18,3.18,3.18h2.2v-11.08h-2.2c-1.76,0-3.18,1.43-3.18,3.18Z"/><path class="t" d="M231.93,257.16v3.9c0,1.66,1.35,3.01,3.01,3.01h2.37v-9.93h-2.37c-1.66,0-3.01,1.35-3.01,3.01Z"/><path class="t" d="M224.61,255.88v3.09c0,1.57,1.27,2.84,2.84,2.84h2.55v-8.77h-2.55c-1.57,0-2.84,1.27-2.84,2.84Z"/><path class="t" d="M217.29,254.59v2.28c0,1.47,1.19,2.66,2.66,2.66h2.72v-7.61h-2.72c-1.47,0-2.66,1.19-2.66,2.66Z"/><path class="t" d="M209.97,253.31v1.46c0,1.38,1.12,2.49,2.49,2.49h2.89v-6.45h-2.89c-1.38,0-2.49,1.12-2.49,2.49Z"/><path class="t" d="M202.65,252.02v.65c0,1.28,1.04,2.32,2.32,2.32h3.07v-5.29h-3.07c-1.28,0-2.32,1.04-2.32,2.32Z"/></g><g class="s"><path class="t" d="M246.57,274.14v5.53c0,1.85,1.5,3.36,3.36,3.36h2.03v-12.24h-2.03c-1.85,0-3.36,1.5-3.36,3.36Z"/><path class="t" d="M239.25,271.66v4.61c0,1.7,1.38,3.08,3.08,3.08h2.31v-10.76h-2.31c-1.7,0-3.08,1.38-3.08,3.08Z"/><path class="t" d="M231.93,269.18v3.69c0,1.54,1.25,2.8,2.8,2.8h2.59v-9.28h-2.59c-1.54,0-2.8,1.25-2.8,2.8Z"/><path class="t" d="M224.61,266.7v2.76c0,1.39,1.13,2.52,2.52,2.52h2.87v-7.8h-2.87c-1.39,0-2.52,1.13-2.52,2.52Z"/><path class="t" d="M217.29,264.21v1.84c0,1.24,1,2.24,2.24,2.24h3.15v-6.32h-3.15c-1.24,0-2.24,1-2.24,2.24Z"/><path class="t" d="M209.97,261.73v.92c0,1.08,.88,1.96,1.96,1.96h3.43v-4.84h-3.43c-1.08,0-1.96,.88-1.96,1.96Z"/><path class="t" d="M202.65,259.25h0c0,.93,.75,1.68,1.68,1.68h3.71v-3.35h-3.71c-.93,0-1.68,.75-1.68,1.68Z"/></g><g class="s"><g><path class="t" d="M382.19,292.65v10.1c0,2.42,1.96,4.38,4.38,4.38h1.01v-18.85h-1.01c-2.42,0-4.38,1.96-4.38,4.38Z"/><path class="t" d="M374.06,290.81v9.63c0,2.37,1.92,4.29,4.29,4.29h1.09v-18.21h-1.09c-2.37,0-4.29,1.92-4.29,4.29Z"/><path class="t" d="M365.93,288.96v9.17c0,2.32,1.88,4.21,4.21,4.21h1.18v-17.58h-1.18c-2.32,0-4.21,1.88-4.21,4.21Z"/><path class="t" d="M357.8,287.12v8.7c0,2.28,1.84,4.12,4.12,4.12h1.27v-16.95h-1.27c-2.28,0-4.12,1.84-4.12,4.12Z"/><path class="t" d="M349.67,285.27v8.24c0,2.23,1.81,4.04,4.04,4.04h1.35v-16.31h-1.35c-2.23,0-4.04,1.81-4.04,4.04Z"/><path class="t" d="M341.53,283.43v7.78c0,2.18,1.77,3.95,3.95,3.95h1.44v-15.68h-1.44c-2.18,0-3.95,1.77-3.95,3.95Z"/><path class="t" d="M333.4,281.58v7.31c0,2.13,1.73,3.86,3.86,3.86h1.52v-15.04h-1.52c-2.13,0-3.86,1.73-3.86,3.86Z"/><path class="t" d="M325.27,279.74v6.85c0,2.09,1.69,3.78,3.78,3.78h1.61v-14.41h-1.61c-2.09,0-3.78,1.69-3.78,3.78Z"/><path class="t" d="M317.14,277.89v6.38c0,2.04,1.65,3.69,3.69,3.69h1.69v-13.77h-1.69c-2.04,0-3.69,1.65-3.69,3.69Z"/><path class="t" d="M309.01,276.05v5.92c0,1.99,1.62,3.61,3.61,3.61h1.78v-13.14h-1.78c-1.99,0-3.61,1.62-3.61,3.61Z"/><path class="t" d="M300.88,274.2v5.46c0,1.95,1.58,3.52,3.52,3.52h1.86v-12.5h-1.86c-1.95,0-3.52,1.58-3.52,3.52Z"/><path class="t" d="M292.75,272.36v4.99c0,1.9,1.54,3.44,3.44,3.44h1.95v-11.87h-1.95c-1.9,0-3.44,1.54-3.44,3.44Z"/><path class="t" d="M284.62,270.51v4.53c0,1.85,1.5,3.35,3.35,3.35h2.03v-11.23h-2.03c-1.85,0-3.35,1.5-3.35,3.35Z"/><path class="t" d="M276.48,268.67v4.06c0,1.8,1.46,3.27,3.27,3.27h2.12v-10.6h-2.12c-1.8,0-3.27,1.46-3.27,3.27Z"/><path class="t" d="M268.35,266.82v3.6c0,1.76,1.42,3.18,3.18,3.18h2.2v-9.96h-2.2c-1.76,0-3.18,1.42-3.18,3.18Z"/></g><path class="t" d="M382.19,317.49v10.1c0,2.42,1.96,4.38,4.38,4.38h1.01v-18.85h-1.01c-2.42,0-4.38,1.96-4.38,4.38Z"/><g><path class="t" d="M382.19,265.11v13.88c0,2.71,2.2,4.91,4.91,4.91h.48v-23.7h-.48c-2.71,0-4.91,2.2-4.91,4.91Z"/><path class="t" d="M374.06,264.07v13.43c0,2.67,2.17,4.84,4.84,4.84h.54v-23.12h-.54c-2.67,0-4.84,2.17-4.84,4.84Z"/><path class="t" d="M365.93,263.04v12.99c0,2.64,2.14,4.77,4.77,4.77h.61v-22.54h-.61c-2.64,0-4.77,2.14-4.77,4.77Z"/><path class="t" d="M357.8,262v12.54c0,2.6,2.11,4.71,4.71,4.71h.68v-21.95h-.68c-2.6,0-4.71,2.11-4.71,4.71Z"/><path class="t" d="M349.67,260.96v12.09c0,2.56,2.08,4.64,4.64,4.64h.74v-21.37h-.74c-2.56,0-4.64,2.08-4.64,4.64Z"/><path class="t" d="M341.53,259.92v11.64c0,2.53,2.05,4.57,4.57,4.57h.81v-20.79h-.81c-2.53,0-4.57,2.05-4.57,4.57Z"/><path class="t" d="M333.4,258.89v11.2c0,2.49,2.02,4.51,4.51,4.51h.88v-20.21h-.88c-2.49,0-4.51,2.02-4.51,4.51Z"/><path class="t" d="M325.27,257.85v10.75c0,2.45,1.99,4.44,4.44,4.44h.94v-19.63h-.94c-2.45,0-4.44,1.99-4.44,4.44Z"/><path class="t" d="M317.14,256.81v10.3c0,2.42,1.96,4.38,4.38,4.38h1.01v-19.05h-1.01c-2.42,0-4.38,1.96-4.38,4.38Z"/><path class="t" d="M309.01,255.77v9.85c0,2.38,1.93,4.31,4.31,4.31h1.08v-18.47h-1.08c-2.38,0-4.31,1.93-4.31,4.31Z"/><path class="t" d="M300.88,254.74v9.4c0,2.34,1.9,4.24,4.24,4.24h1.14v-17.89h-1.14c-2.34,0-4.24,1.9-4.24,4.24Z"/><path class="t" d="M292.75,253.7v8.96c0,2.31,1.87,4.18,4.18,4.18h1.21v-17.31h-1.21c-2.31,0-4.18,1.87-4.18,4.18Z"/><path class="t" d="M284.62,252.66v8.51c0,2.27,1.84,4.11,4.11,4.11h1.28v-16.73h-1.28c-2.27,0-4.11,1.84-4.11,4.11Z"/><path class="t" d="M276.48,251.62v8.06c0,2.23,1.81,4.04,4.04,4.04h1.34v-16.15h-1.34c-2.23,0-4.04,1.81-4.04,4.04Z"/><path class="t" d="M268.35,250.59v7.61c0,2.2,1.78,3.98,3.98,3.98h1.41v-15.57h-1.41c-2.2,0-3.98,1.78-3.98,3.98Z"/></g><g><path class="t" d="M382.19,226.88v20.73c0,2.97,2.41,5.39,5.39,5.39h0v-31.51h0c-2.97,0-5.39,2.41-5.39,5.39Z"/><path class="t" d="M374.06,226.92v19.93c0,2.93,2.38,5.31,5.31,5.31h.08v-30.55h-.08c-2.93,0-5.31,2.38-5.31,5.31Z"/><path class="t" d="M365.93,226.96v19.13c0,2.89,2.34,5.23,5.23,5.23h.16v-29.59h-.16c-2.89,0-5.23,2.34-5.23,5.23Z"/><path class="t" d="M357.8,226.99v18.33c0,2.84,2.31,5.15,5.15,5.15h.23v-28.63h-.23c-2.84,0-5.15,2.31-5.15,5.15Z"/><path class="t" d="M349.67,227.03v17.53c0,2.8,2.27,5.07,5.07,5.07h.31v-27.68h-.31c-2.8,0-5.07,2.27-5.07,5.07Z"/><path class="t" d="M341.53,227.07v16.73c0,2.76,2.24,4.99,4.99,4.99h.39v-26.72h-.39c-2.76,0-4.99,2.24-4.99,4.99Z"/><path class="t" d="M333.4,227.1v15.93c0,2.71,2.2,4.92,4.92,4.92h.47v-25.76h-.47c-2.71,0-4.92,2.2-4.92,4.92Z"/><path class="t" d="M325.27,227.14v15.13c0,2.67,2.17,4.84,4.84,4.84h.55v-24.8h-.55c-2.67,0-4.84,2.17-4.84,4.84Z"/><path class="t" d="M317.14,227.18v14.33c0,2.63,2.13,4.76,4.76,4.76h.63v-23.85h-.63c-2.63,0-4.76,2.13-4.76,4.76Z"/><path class="t" d="M309.01,227.22v13.53c0,2.59,2.1,4.68,4.68,4.68h.7v-22.89h-.7c-2.59,0-4.68,2.1-4.68,4.68Z"/><path class="t" d="M300.88,227.25v12.73c0,2.54,2.06,4.6,4.6,4.6h.78v-21.93h-.78c-2.54,0-4.6,2.06-4.6,4.6Z"/><path class="t" d="M292.75,227.29v11.93c0,2.5,2.03,4.52,4.52,4.52h.86v-20.98h-.86c-2.5,0-4.52,2.03-4.52,4.52Z"/><path class="t" d="M284.62,227.33v11.13c0,2.46,1.99,4.45,4.45,4.45h.94v-20.02h-.94c-2.46,0-4.45,1.99-4.45,4.45Z"/><path class="t" d="M276.48,227.36v10.33c0,2.41,1.96,4.37,4.37,4.37h1.02v-19.06h-1.02c-2.41,0-4.37,1.96-4.37,4.37Z"/><path class="t" d="M268.35,227.4v9.53c0,2.37,1.92,4.29,4.29,4.29h1.1v-18.1h-1.1c-2.37,0-4.29,1.92-4.29,4.29Z"/></g><g><path class="t" d="M382.19,188.81v20.73c0,2.97,2.41,5.39,5.39,5.39h0v-31.51h0c-2.97,0-5.39,2.41-5.39,5.39Z"/><path class="t" d="M374.06,190.07v19.93c0,2.93,2.38,5.31,5.31,5.31h.08v-30.55h-.08c-2.93,0-5.31,2.38-5.31,5.31Z"/><path class="t" d="M365.93,191.33v19.13c0,2.89,2.34,5.23,5.23,5.23h.16v-29.59h-.16c-2.89,0-5.23,2.34-5.23,5.23Z"/><path class="t" d="M357.8,192.59v18.33c0,2.84,2.31,5.15,5.15,5.15h.23v-28.63h-.23c-2.84,0-5.15,2.31-5.15,5.15Z"/><path class="t" d="M349.67,193.85v17.53c0,2.8,2.27,5.07,5.07,5.07h.31v-27.68h-.31c-2.8,0-5.07,2.27-5.07,5.07Z"/><path class="t" d="M341.53,195.11v16.73c0,2.76,2.24,4.99,4.99,4.99h.39v-26.72h-.39c-2.76,0-4.99,2.24-4.99,4.99Z"/><path class="t" d="M333.4,196.37v15.93c0,2.71,2.2,4.92,4.92,4.92h.47v-25.76h-.47c-2.71,0-4.92,2.2-4.92,4.92Z"/><path class="t" d="M325.27,197.62v15.13c0,2.67,2.17,4.84,4.84,4.84h.55v-24.8h-.55c-2.67,0-4.84,2.17-4.84,4.84Z"/><path class="t" d="M317.14,198.88v14.33c0,2.63,2.13,4.76,4.76,4.76h.63v-23.85h-.63c-2.63,0-4.76,2.13-4.76,4.76Z"/><path class="t" d="M309.01,200.14v13.53c0,2.59,2.1,4.68,4.68,4.68h.7v-22.89h-.7c-2.59,0-4.68,2.1-4.68,4.68Z"/><path class="t" d="M300.88,201.4v12.73c0,2.54,2.06,4.6,4.6,4.6h.78v-21.93h-.78c-2.54,0-4.6,2.06-4.6,4.6Z"/><path class="t" d="M292.75,202.66v11.93c0,2.5,2.03,4.52,4.52,4.52h.86v-20.98h-.86c-2.5,0-4.52,2.03-4.52,4.52Z"/><path class="t" d="M284.62,203.92v11.13c0,2.46,1.99,4.45,4.45,4.45h.94v-20.02h-.94c-2.46,0-4.45,1.99-4.45,4.45Z"/><path class="t" d="M276.48,205.18v10.33c0,2.41,1.96,4.37,4.37,4.37h1.02v-19.06h-1.02c-2.41,0-4.37,1.96-4.37,4.37Z"/><path class="t" d="M268.35,206.43v9.53c0,2.37,1.92,4.29,4.29,4.29h1.1v-18.1h-1.1c-2.37,0-4.29,1.92-4.29,4.29Z"/></g><g><path class="t" d="M382.19,153.88v20.73c0,2.97,2.41,5.39,5.39,5.39h0v-31.51h0c-2.97,0-5.39,2.41-5.39,5.39Z"/><path class="t" d="M374.06,156v19.77c0,2.92,2.36,5.28,5.28,5.28h.1v-30.34h-.1c-2.92,0-5.28,2.36-5.28,5.28Z"/><path class="t" d="M365.93,158.12v18.82c0,2.86,2.32,5.18,5.18,5.18h.21v-29.17h-.21c-2.86,0-5.18,2.32-5.18,5.18Z"/><path class="t" d="M357.8,160.25v17.86c0,2.8,2.27,5.07,5.07,5.07h.31v-28h-.31c-2.8,0-5.07,2.27-5.07,5.07Z"/><path class="t" d="M349.67,162.37v16.9c0,2.74,2.22,4.97,4.97,4.97h.42v-26.83h-.42c-2.74,0-4.97,2.22-4.97,4.97Z"/><path class="t" d="M341.53,164.5v15.94c0,2.69,2.18,4.86,4.86,4.86h.52v-25.66h-.52c-2.69,0-4.86,2.18-4.86,4.86Z"/><path class="t" d="M333.4,166.62v14.98c0,2.63,2.13,4.76,4.76,4.76h.63v-24.49h-.63c-2.63,0-4.76,2.13-4.76,4.76Z"/><path class="t" d="M325.27,168.74v14.02c0,2.57,2.08,4.65,4.65,4.65h.73v-23.33h-.73c-2.57,0-4.65,2.08-4.65,4.65Z"/><path class="t" d="M317.14,170.87v13.06c0,2.51,2.04,4.55,4.55,4.55h.84v-22.16h-.84c-2.51,0-4.55,2.04-4.55,4.55Z"/><path class="t" d="M309.01,172.99v12.1c0,2.46,1.99,4.45,4.45,4.45h.94v-20.99h-.94c-2.46,0-4.45,1.99-4.45,4.45Z"/><path class="t" d="M300.88,175.12v11.14c0,2.4,1.94,4.34,4.34,4.34h1.04v-19.82h-1.04c-2.4,0-4.34,1.94-4.34,4.34Z"/><path class="t" d="M292.75,177.24v10.18c0,2.34,1.9,4.24,4.24,4.24h1.15v-18.65h-1.15c-2.34,0-4.24,1.9-4.24,4.24Z"/><path class="t" d="M284.62,179.37v9.22c0,2.28,1.85,4.13,4.13,4.13h1.25v-17.48h-1.25c-2.28,0-4.13,1.85-4.13,4.13Z"/><path class="t" d="M276.48,181.49v8.26c0,2.22,1.8,4.03,4.03,4.03h1.36v-16.32h-1.36c-2.22,0-4.03,1.8-4.03,4.03Z"/><path class="t" d="M268.35,183.61v7.3c0,2.17,1.76,3.92,3.92,3.92h1.46v-15.15h-1.46c-2.17,0-3.92,1.76-3.92,3.92Z"/></g><g><path class="t" d="M382.19,120.25v20.73c0,2.97,2.41,5.39,5.39,5.39h0v-31.51h0c-2.97,0-5.39,2.41-5.39,5.39Z"/><path class="t" d="M374.06,123.28v19.77c0,2.92,2.36,5.28,5.28,5.28h.1v-30.34h-.1c-2.92,0-5.28,2.36-5.28,5.28Z"/><path class="t" d="M365.93,126.31v18.82c0,2.86,2.32,5.18,5.18,5.18h.21v-29.17h-.21c-2.86,0-5.18,2.32-5.18,5.18Z"/><path class="t" d="M357.8,129.33v17.86c0,2.8,2.27,5.07,5.07,5.07h.31v-28h-.31c-2.8,0-5.07,2.27-5.07,5.07Z"/><path class="t" d="M349.67,132.36v16.9c0,2.74,2.22,4.97,4.97,4.97h.42v-26.83h-.42c-2.74,0-4.97,2.22-4.97,4.97Z"/><path class="t" d="M341.53,135.39v15.94c0,2.69,2.18,4.86,4.86,4.86h.52v-25.66h-.52c-2.69,0-4.86,2.18-4.86,4.86Z"/><path class="t" d="M333.4,138.42v14.98c0,2.63,2.13,4.76,4.76,4.76h.63v-24.49h-.63c-2.63,0-4.76,2.13-4.76,4.76Z"/><path class="t" d="M325.27,141.45v14.02c0,2.57,2.08,4.65,4.65,4.65h.73v-23.33h-.73c-2.57,0-4.65,2.08-4.65,4.65Z"/><path class="t" d="M317.14,144.48v13.06c0,2.51,2.04,4.55,4.55,4.55h.84v-22.16h-.84c-2.51,0-4.55,2.04-4.55,4.55Z"/><path class="t" d="M309.01,147.5v12.1c0,2.46,1.99,4.45,4.45,4.45h.94v-20.99h-.94c-2.46,0-4.45,1.99-4.45,4.45Z"/><path class="t" d="M300.88,150.53v11.14c0,2.4,1.94,4.34,4.34,4.34h1.04v-19.82h-1.04c-2.4,0-4.34,1.94-4.34,4.34Z"/><path class="t" d="M292.75,153.56v10.18c0,2.34,1.9,4.24,4.24,4.24h1.15v-18.65h-1.15c-2.34,0-4.24,1.9-4.24,4.24Z"/><path class="t" d="M284.62,156.59v9.22c0,2.28,1.85,4.13,4.13,4.13h1.25v-17.48h-1.25c-2.28,0-4.13,1.85-4.13,4.13Z"/><path class="t" d="M276.48,159.62v8.26c0,2.22,1.8,4.03,4.03,4.03h1.36v-16.32h-1.36c-2.22,0-4.03,1.8-4.03,4.03Z"/><path class="t" d="M268.35,162.65v7.3c0,2.17,1.76,3.92,3.92,3.92h1.46v-15.15h-1.46c-2.17,0-3.92,1.76-3.92,3.92Z"/></g></g></g></g><g><path class="ae" d="M416.01,251.03c-.58,.32-1.24,.5-1.95,.5l-42.85-.26c-1.09,0-2.13,.43-2.9,1.2l-.74,.75c-.74,.75-1.15,1.76-1.16,2.81l-.26,58.95c-.01,2.22-1.81,4.01-4.03,4.01h-25.64c-.62,0-1.23-.14-1.78-.41l-50.29-24.73h0c32.67,16.07,65.34,32.14,98.02,48.21,12.52-18.99,28.59-50.3,33.58-91.03Z"/><path class="a`" d="M283.7,293.47l-4.12-3.76c2.02,1.97,3.5,3.24,4.12,3.76Z"/><path class="q" d="M279.91,279.66h18.53c2.23,0,4.03,1.81,4.03,4.03s1.81,4.03,4.03,4.03h22.47c2.05,0,3.77-1.54,4.01-3.57l5.33-46.61c.25-2.15,2.14-3.72,4.3-3.56l41.28,3c2.09,.15,3.94-1.32,4.27-3.39l5.7-35.74c.11-.66,.04-1.34-.18-1.97l-22.89-65.08c-.71-2.02,.29-4.25,2.27-5.07l13.68-5.63c.72-.3,1.48-.37,2.21-.24-4.13-7.12-8.28-13.37-12.14-18.67l-93.01,45.17c-5.24,4.27-31.52,26.58-35.05,64.76-3.67,39.67,19.88,67.72,30.4,78.14-2.36-2.66-2.72-9.6,.78-9.6Z"/><path class="aa" d="M391.06,94.27l-11.17,5.42c16.88,23.33,39.05,64.02,40.93,118.58,1.98,57.4-19.41,101.05-35.32,125.3,2.26,1.11,4.51,2.22,6.76,3.33,20.15-24.35,36.64-62.1,36.87-124.51,.24-64.76-19.81-110.62-38.07-128.11Z"/><path class="af" d="M279.24,289.39l.34,.31c-.15-.14-.3-.29-.45-.44,.04,.04,.07,.09,.11,.13Z"/><path class="af" d="M283.7,293.47h0c.32,.34,.3,.18,.72,.39-.21-.1-.42-.21-.64-.31l-.09-.07Z"/><path class="af" d="M334.71,318.59c.55,.27,1.16,.41,1.78,.41h25.64c2.22,0,4.02-1.79,4.03-4.01l.26-58.95c0-1.05,.42-2.06,1.16-2.81l.74-.75c.76-.78,1.81-1.21,2.9-1.2l42.85,.26c.7,0,1.36-.18,1.95-.5,1.26-10.3,1.82-21.18,1.43-32.64-1.44-41.55-14.82-74.91-28.5-98.52-.72-.12-1.48-.05-2.21,.24l-13.68,5.63c-1.98,.82-2.98,3.04-2.27,5.07l22.89,65.08c.22,.63,.28,1.31,.18,1.97l-5.7,35.74c-.33,2.07-2.19,3.54-4.27,3.39l-41.28-3c-2.16-.16-4.05,1.42-4.3,3.56l-5.33,46.61c-.23,2.04-1.96,3.57-4.01,3.57h-22.47c-2.23,0-4.03-1.81-4.03-4.03s-1.81-4.03-4.03-4.03h-18.53c-3.5,0-3.14,6.94-.78,9.6,.15,.15,.3,.3,.45,.44l4.12,3.76,.09,.07c.21,.1,.42,.21,.64,.31h0l50.29,24.73Z"/></g><path class="ad" d="M334.09,195.37c-1.54,.42-3.03-.12-3.32-1.19s.73-2.28,2.27-2.7,3.03,.12,3.32,1.19-.73,2.28-2.27,2.7Z"/><path class="o" d="M294.85,164.24l-.99-2.95c-.48-1.42,.29-2.95,1.7-3.43l37.68-12.63c1.22-.41,2.5,.42,2.63,1.7,3.09,8.74,6.31,20.56,7.6,34.8,1.21,13.32,.37,24.81-.91,33.61,.02,.23,.14,1.66-.94,2.84-.67,.74-1.65,1.21-2.74,1.21h-22.68"/><path class="r" d="M268.89,161.65h28.66l21.03,51.72v10.2h-8.94s-11.58,14.04-11.58,18.58,22.25,39.92,22.25,39.92l1.8,8.08h-42.08c-4.5-4.19-34-32.63-31.54-75.72,1.53-26.78,14.62-45.45,20.4-52.77Z"/><path class="r" d="M317.49,211.42l15.31,.77-.58-13.11s-2.57-2.59-2.96-3.93,9.49-3.65,9.49-3.65v22.64s-2.09,3.36-5.24,3.36-15.76,.49-15.76,.49l-.26-6.59Z"/><rect class="v" x="388.23" y="127.58" width="22.96" height="32.61" rx="1.01" ry="1.01"/><rect class="l" x="392.35" y="134.39" width="14.73" height="19" rx=".62" ry=".62"/><rect class="v" x="375.11" y="271.97" width="35.44" height="44.56" rx="1.47" ry="1.47"/><rect class="aa" x="381.46" y="276.9" width="22.73" height="34.62" rx="1.04" ry="1.04"/><rect class="m" x="384.37" y="280.25" width="16.91" height="27.92" rx=".8" ry=".8"/><circle class="o" cx="337.13" cy="181.54" r="4.15"/><g><path class="ab" d="M369.3,132.08c-6.92,0-12.83,4.3-15.23,10.37,1.64-.58,3.85-1.16,6.5-1.3,6.14-.32,15.21,1.74,16.34,6.56,.73,3.13-2.14,6.31-5.85,10.42-3.03,3.35-5.35,4.41-7.57,5.62,1.81,.69,3.76,1.08,5.81,1.08,9.04,0,16.38-7.33,16.38-16.38s-7.33-16.38-16.38-16.38Z"/><path class="r" d="M366.45,155.42c.34-3.17-.61-8.19-4.68-10.01-3.58-1.6-7.23,.34-7.76,.64-.31,0-.6-.11-.86-.26-.14,.87-.24,1.76-.24,2.67,0,6.09,3.33,11.39,8.27,14.22,.62-.28,4.66-1.61,5.26-7.26Z"/><path class="u" d="M352.92,142.89c-.57,.47-.8,1.24-.57,1.93,.14,.42,.44,.74,.8,.96,.19-1.15,.49-2.27,.91-3.33-.42,.15-.81,.3-1.15,.44Z"/><path class="u" d="M361.14,162.69c-.01,.09-.08,.61,.29,1.06,.45,.54,1.13,.49,1.19,.48,.29-.17,.58-.33,.87-.49-.8-.3-1.57-.66-2.3-1.08-.02,0-.04,.02-.05,.02Z"/><path class="u" d="M371.06,158.13c3.71-4.1,6.59-7.29,5.85-10.42-1.13-4.82-10.19-6.88-16.34-6.56-2.65,.14-4.87,.72-6.5,1.3-.42,1.06-.72,2.17-.91,3.33,.26,.15,.54,.25,.86,.26,.53-.29,4.17-2.23,7.76-.64,4.07,1.81,5.02,6.84,4.68,10.01-.6,5.65-4.64,6.98-5.26,7.26,.73,.42,1.5,.78,2.3,1.08,2.22-1.21,4.54-2.27,7.57-5.62Z"/></g><path class="ab" d="M371,170.94s-3.62,7.6-4.18,10.32c-1.18,5.7-.51,23.26-.51,23.26,0,0,.59,2.7,.99,5.78,.78,6.03,.59,7.31-.16,8.13-1.15,1.27-3.18,1.14-4.23,1.09-4.15-.2-9.87-.1-18.37,.61-2.66-.12-6.4,.15-9.65,2.39-1.77,1.21-4.79,3.96-8.78,24.99,0,0-.71,3.75-2.96,17.3h0l1.22,2.38s11.62,5.67,13.12,2.06c2.77-6.69,8.06-15.27,10.42-31.96,.77-5.47,23.99,5.27,38.04,2.25,4.07-.88,11.23-4.24,12.32-11.19,1.8-11.45,.11-46.36,.11-46.36l-11.93-20.33-15.45,9.29Z"/><path class="r" d="M373.71,177.7c-2.81,9.36-3.21,17.69-2.96,23.76-1.32,.29-2.64,.59-3.96,.88-.18-5.85,.37-15.42,5.13-25.71,1.98-4.27,4.27-7.78,6.42-10.56-1.65,3.27-3.29,7.15-4.63,11.62Z"/><path class="ac" d="M362.62,164.24c.21,.81,.56,1.79,1.18,2.78,2,3.2,5.29,4.28,6.42,4.59,6.18-3.03,12.36-6.07,18.54-9.1-.78-.76-2.15-2.3-2.99-4.66-.91-2.54-.75-4.74-.6-5.83-4.26,1.74-8.93,3.93-13.82,6.72-3.19,1.82-6.1,3.67-8.73,5.49Z"/><path class="ac" d="M323.4,267.48c1.31-.76,3.02,2.32,6.68,2.91,3.38,.55,6.02-1.41,6.64-.47,.29,.44-.15,1.1-.58,1.99-.52,1.1-1.94,4.57-1.35,7.76,.19,1.02,.32,.57,1.16,3.19,.4,1.25,.84,2.64,1.11,4.49,.19,1.29,.24,2.37,.24,3.14h-34.49c.05-1.3,.32-3.43,1.74-5.26,3.57-4.6,9.95-1.5,14.13-6.27,3.62-4.13,4-8.59,4-8.59,.11-1.29,0-2.47,.72-2.88Z"/><path class="r" d="M380.9,253.77c.11,.37,1.33,4.57-1.48,8.1-2.41,3.03-5.95,3.26-6.5,3.28-6.4-8.02-12.61-14.02-17.48-18.24-12.98-11.27-19.46-12.6-24.03-12.53-1.44,.02-2.63,.19-3.45,.33-.1-.35-.29-1.19,0-2.2,.25-.84,.71-1.38,.96-1.64,3.08,1.22,6.58,.38,8.68-2.06,1.91-2.22,2.35-5.4,1.13-8.13,.35-.25,.93-.58,1.7-.75,1.33-.29,2.42,.08,2.86,.26,3.19,7.03,10.99,21.31,27.04,29.52,3.68,1.88,7.25,3.17,10.55,4.05Z"/><path class="r" d="M370.35,217.78c4.21,1.63,9.08,3.87,14.25,6.98,6.09,3.67,10.97,7.56,14.73,11,2.51,.22,5.43,.65,8.62,1.45,3.42,.85,6.38,1.93,8.81,2.99,.67,4.69-1.2,9.35-4.89,12.09-4.78,3.56-10.26,2.15-10.93,1.96-.8-1.21-1.59-2.56-2.35-4.05-2.06-4.07-3.16-7.91-3.76-11.06-3.02-2.84-6.74-5.95-11.22-8.97-5.82-3.92-11.34-6.63-15.98-8.52,.91-1.29,1.82-2.57,2.73-3.86Z"/><path class="ac" d="M301.1,319l-.62,2.31c-.39,1.48-1.92,2.35-3.39,1.94l-12.57-3.5c-1.48-.41-2.34-1.96-1.89-3.44l.63-2.09"/><path class="aa" d="M340.64,110.18l.93,1.9c.74,1.52,.11,3.36-1.41,4.1l-35.74,17.46c-1.52,.74-3.36,.11-4.1-1.41l-.88-1.81"/><rect class="w" x="140.85" y="183.04" width="40.77" height="71.95" rx="1.6" ry="1.6"/><rect class="x" x="143.73" y="214.16" width="35.55" height="10.86" rx="5.43" ry="5.43"/><g><rect class="j" x="140.85" y="188.78" width="40.77" height="9.4"/><path class="ad" d="M151.23,198.18c-.31,.2-1.44,.86-3.14,.89-1.8,.02-3.01-.7-3.31-.89-.64-1.26-2.19-2.53-3.93-3.79v-5.58c1.6,3.12,8.82,6.25,10.38,9.37Z"/><path class="ad" d="M160.78,198.18c-.31,.2-1.44,.87-3.14,.89-1.81,.02-3.01-.7-3.31-.89-1.57-3.13-8.82-6.26-10.39-9.39,.3-.21,1.33-.87,2.92-.95,1.97-.1,3.3,.78,3.53,.95,1.57,3.13,8.82,6.26,10.39,9.39Z"/><path class="ad" d="M170.32,198.18c-.31,.2-1.44,.87-3.14,.89-1.81,.02-3.01-.7-3.31-.89-1.57-3.13-8.82-6.26-10.39-9.39,.3-.21,1.33-.87,2.92-.95,1.97-.1,3.3,.78,3.53,.95,1.57,3.13,8.82,6.26,10.39,9.39Z"/><path class="ad" d="M179.86,198.18c-.31,.2-1.44,.87-3.14,.89-1.81,.02-3.01-.7-3.31-.89-1.57-3.13-8.82-6.26-10.39-9.39,.3-.21,1.33-.87,2.92-.95,1.97-.1,3.3,.78,3.53,.95,1.57,3.13,8.82,6.26,10.39,9.39Z"/><path class="ad" d="M181.62,191.58v4.91c-2.66-2.57-7.78-5.14-9.07-7.71,.3-.21,1.33-.87,2.92-.94,1.97-.09,3.3,.78,3.54,.94,.46,.94,1.44,1.87,2.61,2.8Z"/></g><g><rect class="j" x="140.85" y="200.94" width="40.77" height="9.4"/><path class="ad" d="M151.23,210.33c-.31,.2-1.44,.86-3.14,.89-1.8,.02-3.01-.7-3.31-.89-.64-1.26-2.19-2.53-3.93-3.79v-5.58c1.6,3.12,8.82,6.25,10.38,9.37Z"/><path class="ad" d="M160.78,210.33c-.31,.2-1.44,.87-3.14,.89-1.81,.02-3.01-.7-3.31-.89-1.57-3.13-8.82-6.26-10.39-9.39,.3-.21,1.33-.87,2.92-.95,1.97-.1,3.3,.78,3.53,.95,1.57,3.13,8.82,6.26,10.39,9.39Z"/><path class="ad" d="M170.32,210.33c-.31,.2-1.44,.87-3.14,.89-1.81,.02-3.01-.7-3.31-.89-1.57-3.13-8.82-6.26-10.39-9.39,.3-.21,1.33-.87,2.92-.95,1.97-.1,3.3,.78,3.53,.95,1.57,3.13,8.82,6.26,10.39,9.39Z"/><path class="ad" d="M179.86,210.33c-.31,.2-1.44,.87-3.14,.89-1.81,.02-3.01-.7-3.31-.89-1.57-3.13-8.82-6.26-10.39-9.39,.3-.21,1.33-.87,2.92-.95,1.97-.1,3.3,.78,3.53,.95,1.57,3.13,8.82,6.26,10.39,9.39Z"/><path class="ad" d="M181.62,203.74v4.91c-2.66-2.57-7.78-5.14-9.07-7.71,.3-.21,1.33-.87,2.92-.94,1.97-.09,3.3,.78,3.54,.94,.46,.94,1.44,1.87,2.61,2.8Z"/></g><g><rect class="j" x="140.85" y="228.05" width="40.77" height="9.4"/><path class="ad" d="M151.23,237.45c-.31,.2-1.44,.86-3.14,.89-1.8,.02-3.01-.7-3.31-.89-.64-1.26-2.19-2.53-3.93-3.79v-5.58c1.6,3.12,8.82,6.25,10.38,9.37Z"/><path class="ad" d="M160.78,237.44c-.31,.2-1.44,.87-3.14,.89-1.81,.02-3.01-.7-3.31-.89-1.57-3.13-8.82-6.26-10.39-9.39,.3-.21,1.33-.87,2.92-.95,1.97-.1,3.3,.78,3.53,.95,1.57,3.13,8.82,6.26,10.39,9.39Z"/><path class="ad" d="M170.32,237.44c-.31,.2-1.44,.87-3.14,.89-1.81,.02-3.01-.7-3.31-.89-1.57-3.13-8.82-6.26-10.39-9.39,.3-.21,1.33-.87,2.92-.95,1.97-.1,3.3,.78,3.53,.95,1.57,3.13,8.82,6.26,10.39,9.39Z"/><path class="ad" d="M179.86,237.44c-.31,.2-1.44,.87-3.14,.89-1.81,.02-3.01-.7-3.31-.89-1.57-3.13-8.82-6.26-10.39-9.39,.3-.21,1.33-.87,2.92-.95,1.97-.1,3.3,.78,3.53,.95,1.57,3.13,8.82,6.26,10.39,9.39Z"/><path class="ad" d="M181.62,230.85v4.91c-2.66-2.57-7.78-5.14-9.07-7.71,.3-.21,1.33-.87,2.92-.94,1.97-.09,3.3,.78,3.54,.94,.46,.94,1.44,1.87,2.61,2.8Z"/></g><g><rect class="j" x="140.85" y="240.21" width="40.77" height="9.4"/><path class="ad" d="M151.23,249.6c-.31,.2-1.44,.86-3.14,.89-1.8,.02-3.01-.7-3.31-.89-.64-1.26-2.19-2.53-3.93-3.79v-5.58c1.6,3.12,8.82,6.25,10.38,9.37Z"/><path class="ad" d="M160.78,249.6c-.31,.2-1.44,.87-3.14,.89-1.81,.02-3.01-.7-3.31-.89-1.57-3.13-8.82-6.26-10.39-9.39,.3-.21,1.33-.87,2.92-.95,1.97-.1,3.3,.78,3.53,.95,1.57,3.13,8.82,6.26,10.39,9.39Z"/><path class="ad" d="M170.32,249.6c-.31,.2-1.44,.87-3.14,.89-1.81,.02-3.01-.7-3.31-.89-1.57-3.13-8.82-6.26-10.39-9.39,.3-.21,1.33-.87,2.92-.95,1.97-.1,3.3,.78,3.53,.95,1.57,3.13,8.82,6.26,10.39,9.39Z"/><path class="ad" d="M179.86,249.6c-.31,.2-1.44,.87-3.14,.89-1.81,.02-3.01-.7-3.31-.89-1.57-3.13-8.82-6.26-10.39-9.39,.3-.21,1.33-.87,2.92-.95,1.97-.1,3.3,.78,3.53,.95,1.57,3.13,8.82,6.26,10.39,9.39Z"/><path class="ad" d="M181.62,243.01v4.91c-2.66-2.57-7.78-5.14-9.07-7.71,.3-.21,1.33-.87,2.92-.94,1.97-.09,3.3,.78,3.54,.94,.46,.94,1.44,1.87,2.61,2.8Z"/></g><circle class="p" cx="83.2" cy="219.23" r="9.45"/><circle class="y" cx="83.2" cy="219.23" r="6.17"/><path class="ag" d="M86.86,218.34c-.05-.27-.23-1.09-.96-1.73-1.06-.93-2.38-.72-2.56-.68,.66-.96,2-1.21,2.96-.55s1.21,2,.55,2.96Z"/><path class="u" d="M397.94,178.62c0-9.04-5.01-16.38-11.19-16.38s-11.19,7.33-11.19,16.38c0,1.19,.09,2.34,.25,3.46-.59,.62-1.02,1.43-1.16,2.37l-2.04,13.09c-.34,2.16-2.2,3.75-4.39,3.75h-20.42c-1,0-1.97-.34-2.75-.95l-3.94-3.11c-1.07-.85-2.48-1.15-3.81-.83l-2.42,.59c-.89,.22-1.68,.7-2.28,1.39l-.22,.25c-.75,.86-1.14,1.98-1.09,3.12l.26,5.73c.08,1.84,1.3,3.44,3.05,4.02l1.67,.55c.85,.28,1.76,.29,2.61,.05l2.17-.63c.63-.18,1.29-.22,1.93-.12l15.98,2.55c.08,.01,.16,.03,.24,.05l16.41,3.56c1.43,.31,2.91-.1,3.98-1.1l4.94-4.63c.42-.39,.75-.86,.99-1.37l8.5-18.34c.23-.5,.35-1.03,.39-1.55,2.16-2.99,3.52-7.21,3.52-11.9Z"/><path class="p" d="M362.33,215.92l-1.42,3.29c-.22,.5,.03,1.08,.54,1.28l6.48,2.41c.44,.17,.94-.02,1.17-.43l2.34-4.24c.31-.57-.02-1.28-.65-1.4l-7.41-1.46c-.44-.09-.89,.15-1.06,.56Z"/></g><line class="n" x1="35.34" y1="153.65" x2="78.48" y2="213.06"/><line class="n" x1="63.4" y1="308.17" x2="151.23" y2="219.02"/><line class="n" x1="172.55" y1="330.46" x2="156.22" y2="245.36"/><line class="n" x1="193.72" y1="109.75" x2="299.43" y2="185.69"/><line class="n" x1="299.43" y1="70.26" x2="337.13" y2="177.39"/><line class="n" x1="303.85" y1="393.8" x2="292.99" y2="311.52"/><line class="n" x1="528.7" y1="380.13" x2="392.83" y2="294.21"/><line class="n" x1="474.02" y1="291.59" x2="407.08" y2="222.08"/><line class="n" x1="494.07" y1="202.35" x2="333.04" y2="191.48"/><line class="n" x1="474.02" y1="112.18" x2="429.14" y2="173.87"/><line class="n" x1="460.77" y1="17.32" x2="401.29" y2="143.03"/><line class="n" x1="379.89" y1="32.97" x2="331.29" y2="116.74"/></g></g></svg>