<?xml version="1.0" encoding="UTF-8"?><svg xmlns="http://www.w3.org/2000/svg" xmlns:xlink="http://www.w3.org/1999/xlink" viewBox="0 0 594.09 458.79"><defs><style>.g{fill:#b7b7b7;}.h{fill:#003049;mix-blend-mode:multiply;opacity:.25;}.i,.j{fill:#fff;}.j{font-family:Poppins-ExtraLight, Poppins;font-size:15px;}.k{isolation:isolate;}.l,.m{opacity:.58;}.n,.m{fill:gray;}.o{stroke-dasharray:0 0 6.52 6.52;}.o,.p,.q,.r{fill:none;}.o,.p,.r{stroke:#fff;stroke-miterlimit:10;stroke-width:.5px;}.s{fill:#fcbf49;}.t{clip-path:url(#d);}.u{fill:#999;}.v{fill:#b3b3b3;}.r{stroke-dasharray:0 0 7.75 7.75;}.w{opacity:.67;}.x{fill:#d62828;}.y{fill:#d2d2d2;}.a`{fill:#666;}.aa{opacity:.56;}.ab{fill:#b21010;}</style><clipPath id="d"><path class="q" d="M315.51,399.66l-51.07-104.01h1.52v-8h-2.93v-28.47h1.05l-3.15-5h-.9v-7.54h-1l-5-24h-2l-.08-.34c-.07-.29-.26-.51-.5-.64l-.45-92.53c7.1-1.89,12.52-5.93,13.5-7.46-4.57-5.97-8.68-10.4-13.14-16.01h.6v-4h-1.5v-7.57h1.5v-4h-1.5v-13.01h1.5v-4h-1.5v-16.05h1.5v-4h-1.5v-9.37h-8V7.63h-4V43.65h-8v9.37h-1.5v4h1.5v16.05h-1.5v4h1.5v13.01h-1.5v4h1.5v7.57h-2v4h.95l-.34,13.78-3.61,7.22c-1.76,3.83-.31,8.29,3.08,10.2,.03,.02,.07,.03,.1,.05l-2.58,104.78-1.03,4.96h-1v7.54h-.9l-3.15,5h1.05v28.47h-4.07v8h1.51l-15.43,30.83h-1.37c-1.06,0-1.92,.86-1.92,1.92v2.08c0,.55,.23,1.04,.6,1.39l-33.93,67.78c-2.19,.02-3.97,1.8-3.97,4s1.79,4,4,4h1.69c.06,.07,.12,.14,.2,.2l.54,.45c.46,.4,.97,.83,1.51,1.26l38.08,31.84v1.61h1.92l2.88,2.41c.79,2.24,2.42,5.38,5.76,7.61,4.56,3.04,11.08,3.58,15.95,.34,.84-.56,1.55-1.18,2.16-1.82,1.22,.06,2.48,.09,3.81,.09,2.36,0,4.56-.11,6.61-.31,2.27,1.52,5.51,2.79,10.07,2.79,3.85,0,6.28-1.18,7.81-2.7,2.43-2.41,2.59-5.62,2.61-6.62,1-.67,1.77-1.28,2.36-1.79h3.03v-17.7c21.49-4.49,34-12.74,39.89-17.67h2.13c2.21,0,4-1.79,4-4s-1.75-3.95-3.93-3.99ZM244.09,110.68l.33,1.67-3.54,7.1c.36-2.67,.71-5.34,1.07-8.01,.8-.17,1.52-.43,2.15-.76Zm-10.05,26.96c2.35-.44,4.39-1.79,4.92-3.75,.18-.67,.26-1.34,.27-2l.84-6.34,.15-.3,8.22,16.33h-16.37l1.97-3.95Zm-3.6,7.17l8.21,16.54-9.03,16.5,.81-33.04Zm1.63-1.22h16.31l-8.55,15.63-7.76-15.63Zm17.01,2.88l.15,31.7-8.32-16.77,8.17-14.94Zm-9.34,17.08l8.71,17.54h-18.31l9.6-17.54Zm-2.18,37.89l-8.89,15.16,.75-30.54,8.14,15.37Zm-7.45-18.35h18.2l-9.56,16.32-8.64-16.32Zm19.15,2.33l.17,34.18-9.58-18.11,9.42-16.07Zm-.23-47.07l-7.71-15.32,3.72-7.45,2.78,14.22c.4-.06,.79-.14,1.18-.21l.04,8.76Zm-17.69-30.67l1.8,3.58-1.99,3.98,.19-7.56Zm.38,30.11l-1.18,2.37,.06-2.53c.37,.08,.74,.13,1.12,.15Zm-3.17,82.95l10.09-17.21,5.77,10.91c-.87-.48-1.86-.77-2.98-.77-6.57,0-8.46,9-8.46,9h-2.98l-1.7,8.15,.25-10.07Zm-42.47,198.09c5.94,2.58,13.31,4.99,22.35,6.75v11.94l-22.35-18.69Z"/></clipPath></defs><g class="k"><g id="a"/><g id="b"><g id="c"><g><g><path class="u" d="M247.82,129.79l-4.48-22.94c.02-1.47,.83-2.82,2.12-3.54,1.3-.72,2.88-.68,4.14,.1,5.16,6.74,9.73,11.51,14.88,18.25-1.12,1.74-8.05,6.8-16.67,8.13Z"/><path class="x" d="M227.93,246.67l-2-.05,3.52-142.99,1.89-.43,19.61,38.94-.02,.93-21.42,39.15-1.59,64.45Zm3.42-139l-1.73,70.19,19.3-35.28-17.58-34.9Z"/><path class="y" d="M210.09,441.65h61.69s-8.07,10-30.85,10c-23.98,0-30.85-10-30.85-10Z"/><path class="y" d="M164.4,403.65h153.06s-20.02,24.81-76.53,24.81c-59.48,0-76.53-24.81-76.53-24.81Z"/><polygon class="y" points="220.47 291.65 262.47 291.65 317.47 403.65 164.4 403.65 220.47 291.65"/><rect class="g" x="208.45" y="425.02" width="64.97" height="18"/><rect class="y" x="221.02" y="258.26" width="42" height="33"/><rect class="x" x="230.45" y="43.65" width="20" height="59"/><rect class="u" x="224.02" y="246.64" width="36" height="8"/><path class="u" d="M242.96,446.24c3.78,.36,8.23,.53,13.2,.21,4.47-.29,8.46-.91,11.88-1.63-.02,1-.18,4.21-2.61,6.62-1.53,1.52-3.96,2.7-7.81,2.7-11.39,0-14.66-7.9-14.66-7.9Z"/><path class="u" d="M212.58,442.9c3.21-.86,9.03-1.96,16.06-.63,5.1,.96,9.01,2.86,11.54,4.35-.54,1.45-1.95,4.58-5.22,6.76-4.87,3.24-11.39,2.7-15.95-.34-5.11-3.42-6.23-8.97-6.44-10.14Z"/><path class="x" d="M248.39,105.65h-16.91s2.21,6,8.46,6c6.57,0,8.46-6,8.46-6Z"/><rect class="ab" x="228.95" y="90.09" width="23" height="4"/><rect class="ab" x="228.95" y="73.07" width="23" height="4"/><g class="w"><rect class="n" x="256.92" y="258.65" width="2" height="32.23"/></g><g class="w"><rect class="n" x="245.98" y="258.65" width="2" height="32.23"/></g><g class="w"><rect class="n" x="233.45" y="258.65" width="2" height="32.23"/></g><g class="w"><rect class="n" x="222.45" y="258.65" width="2" height="32.23"/></g><rect class="ab" x="228.95" y="53.02" width="23" height="4"/><rect class="ab" x="238.45" y="7.63" width="4" height="37.02"/><polygon class="x" points="249.16 182.53 228.84 141.59 250.06 141.59 250.06 143.59 232.06 143.59 250.95 181.64 249.16 182.53"/><path class="x" d="M249.57,224.12l-10.91-20.61-10.35,17.65-1.72-1.01,10.97-18.72-9.99-18.88,.88-1.47h20.79l-.36-73.23-17.54,35.18-1.79-.89,19.42-38.94,1.89,.44,.58,120-1.88,.47Zm-9.72-22.64l9.58,18.11-.17-34.18-9.42,16.07Zm-9.74-18.4l8.64,16.32,9.56-16.32h-18.2Z"/><path class="n" d="M239.2,450.64c-.41,0-.82-.17-1.12-.5-.55-.62-.5-1.57,.12-2.12l49.1-43.87c.62-.55,1.57-.5,2.12,.12,.55,.62,.5,1.57-.12,2.12l-49.1,43.87c-.29,.26-.64,.38-1,.38Z"/><path class="n" d="M214.86,446.31c-.34,0-.68-.11-.96-.35l-45.57-38.11c-.64-.53-.72-1.48-.19-2.11,.53-.64,1.48-.72,2.11-.19l45.57,38.11c.64,.53,.72,1.48,.19,2.11-.3,.36-.72,.54-1.15,.54Z"/><rect class="g" x="216.95" y="287.65" width="49" height="8"/><polygon class="n" points="264.07 259.19 219.97 259.19 223.12 254.19 260.92 254.19 264.07 259.19"/><path class="u" d="M233,222.64h16.91s-2.21-9-8.46-9c-6.57,0-8.46,9-8.46,9Z"/><polygon class="n" points="259.02 246.64 225.02 246.64 230.02 222.64 254.02 222.64 259.02 246.64"/><path class="v" d="M257.92,253.49c-.46,0-.87-.31-.97-.77l-6.14-26.47-8.4,25.65c-.17,.52-.74,.81-1.26,.64-.52-.17-.81-.74-.64-1.26l9.52-29.05c.14-.43,.55-.7,.99-.69,.45,.02,.83,.34,.93,.77l6.95,29.96c.12,.54-.21,1.08-.75,1.2-.08,.02-.15,.03-.23,.03Z"/><rect class="ab" x="228.45" y="101.65" width="23.5" height="4"/><path class="u" d="M225.45,126.65l10-20c1.06-1.02,2.59-1.41,4-1,1.42,.41,2.52,1.56,2.86,3-1.12,8.41-2.24,16.83-3.36,25.24-.62-1.97-1.86-4.56-4.5-6.24-.07-.04-.24-.15-.47-.28-1.21-.67-3.88-1.75-8.53-.72Z"/><path class="n" d="M238.95,133.9c-.94,3.5-6.72,5.05-10.42,2.96-3.38-1.91-4.84-6.37-3.08-10.2,2.29-2.29,5.48-3.21,8.28-2.33,3.88,1.22,6.35,5.35,5.22,9.57Z"/><g class="aa"><g class="l"><path class="m" d="M247.51,321.47h-5.11c-1.23,0-2.23,1-2.23,2.23v.81h9.57v-.81c0-1.23-1-2.23-2.23-2.23Z"/><path class="m" d="M246.81,317.34h-4.52c-1.18,0-2.14,.96-2.14,2.14v.9h8.79v-.9c0-1.18-.96-2.14-2.14-2.14Z"/><path class="m" d="M246.1,313.21h-3.92c-1.13,0-2.05,.92-2.05,2.05v.99h8.02v-.99c0-1.13-.92-2.05-2.05-2.05Z"/><path class="m" d="M245.4,309.08h-3.33c-1.08,0-1.95,.87-1.95,1.95v1.08h7.24v-1.08c0-1.08-.87-1.95-1.95-1.95Z"/><path class="m" d="M244.69,304.95h-2.74c-1.03,0-1.86,.83-1.86,1.86v1.18h6.46v-1.18c0-1.03-.83-1.86-1.86-1.86Z"/><path class="m" d="M243.99,300.82h-2.15c-.98,0-1.77,.79-1.77,1.77v1.27h5.69v-1.27c0-.98-.79-1.77-1.77-1.77Z"/><path class="m" d="M243.28,296.69h-1.56c-.93,0-1.68,.75-1.68,1.68v1.36h4.91v-1.36c0-.93-.75-1.68-1.68-1.68Z"/></g><g class="l"><path class="m" d="M260.26,328.15h-4.05c-1.14,0-2.06,.92-2.06,2.06v.98h8.17v-.98c0-1.14-.92-2.06-2.06-2.06Z"/><path class="m" d="M259.12,324.22h-3.74c-1.11,0-2.01,.9-2.01,2.01v1.03h7.77v-1.03c0-1.11-.9-2.01-2.01-2.01Z"/><path class="m" d="M257.97,320.29h-3.43c-1.09,0-1.96,.88-1.96,1.96v1.07h7.36v-1.07c0-1.09-.88-1.96-1.96-1.96Z"/><path class="m" d="M256.82,316.36h-3.12c-1.06,0-1.92,.86-1.92,1.92v1.12h6.95v-1.12c0-1.06-.86-1.92-1.92-1.92Z"/><path class="m" d="M255.68,312.42h-2.81c-1.03,0-1.87,.84-1.87,1.87v1.17h6.54v-1.17c0-1.03-.84-1.87-1.87-1.87Z"/><path class="m" d="M254.53,308.49h-2.49c-1.01,0-1.82,.82-1.82,1.82v1.22h6.14v-1.22c0-1.01-.82-1.82-1.82-1.82Z"/><path class="m" d="M253.38,304.56h-2.18c-.98,0-1.77,.79-1.77,1.77v1.26h5.73v-1.26c0-.98-.79-1.77-1.77-1.77Z"/><path class="m" d="M252.24,300.63h-1.87c-.95,0-1.73,.77-1.73,1.73v1.31h5.32v-1.31c0-.95-.77-1.73-1.73-1.73Z"/><path class="m" d="M251.09,296.69h-1.56c-.93,0-1.68,.75-1.68,1.68v1.36h4.91v-1.36c0-.93-.75-1.68-1.68-1.68Z"/></g><g class="l"><path class="m" d="M270.65,328.15h-4.05c-1.14,0-2.06,.92-2.06,2.06v.98h8.17v-.98c0-1.14-.92-2.06-2.06-2.06Z"/><path class="m" d="M268.97,324.22h-3.66c-1.1,0-1.99,.89-1.99,1.99v1.05h7.64v-1.05c0-1.1-.89-1.99-1.99-1.99Z"/><path class="m" d="M267.28,320.29h-3.27c-1.06,0-1.92,.86-1.92,1.92v1.12h7.11v-1.12c0-1.06-.86-1.92-1.92-1.92Z"/><path class="m" d="M265.6,316.36h-2.88c-1.02,0-1.85,.83-1.85,1.85v1.19h6.58v-1.19c0-1.02-.83-1.85-1.85-1.85Z"/><path class="m" d="M263.92,312.42h-2.49c-.98,0-1.78,.8-1.78,1.78v1.26h6.04v-1.26c0-.98-.8-1.78-1.78-1.78Z"/><path class="m" d="M262.24,308.49h-2.09c-.94,0-1.71,.76-1.71,1.71v1.33h5.51v-1.33c0-.94-.76-1.71-1.71-1.71Z"/><path class="m" d="M260.56,304.56h-1.7c-.9,0-1.64,.73-1.64,1.64v1.4h4.98v-1.4c0-.9-.73-1.64-1.64-1.64Z"/><path class="m" d="M258.87,300.63h-1.31c-.87,0-1.57,.7-1.57,1.57v1.47h4.45v-1.47c0-.87-.7-1.57-1.57-1.57Z"/><path class="m" d="M257.19,296.69h-.92c-.83,0-1.5,.67-1.5,1.5v1.54h3.91v-1.54c0-.83-.67-1.5-1.5-1.5Z"/></g><g class="l"><path class="m" d="M277.95,328.15h-2.47c-.98,0-1.77,.79-1.77,1.77v1.27h6v-1.27c0-.98-.79-1.77-1.77-1.77Z"/><path class="m" d="M276.08,324.22h-2.28c-.96,0-1.73,.78-1.73,1.73v1.31h5.74v-1.31c0-.96-.78-1.73-1.73-1.73Z"/><path class="m" d="M274.21,320.29h-2.08c-.94,0-1.7,.76-1.7,1.7v1.34h5.48v-1.34c0-.94-.76-1.7-1.7-1.7Z"/><path class="m" d="M272.34,316.36h-1.89c-.92,0-1.67,.75-1.67,1.67v1.37h5.22v-1.37c0-.92-.75-1.67-1.67-1.67Z"/><path class="m" d="M270.47,312.42h-1.69c-.9,0-1.63,.73-1.63,1.63v1.41h4.96v-1.41c0-.9-.73-1.63-1.63-1.63Z"/><path class="m" d="M268.6,308.49h-1.5c-.88,0-1.6,.72-1.6,1.6v1.44h4.7v-1.44c0-.88-.72-1.6-1.6-1.6Z"/><path class="m" d="M266.73,304.56h-1.31c-.86,0-1.56,.7-1.56,1.56v1.47h4.44v-1.47c0-.86-.7-1.56-1.56-1.56Z"/><path class="m" d="M264.86,300.63h-1.11c-.85,0-1.53,.69-1.53,1.53v1.51h4.17v-1.51c0-.85-.69-1.53-1.53-1.53Z"/><path class="m" d="M262.99,296.69h-.92c-.83,0-1.5,.67-1.5,1.5v1.54h3.91v-1.54c0-.83-.67-1.5-1.5-1.5Z"/></g><g class="l"><path class="m" d="M236.98,321.47h-5.11c-1.23,0-2.23,1-2.23,2.23v.81h9.57v-.81c0-1.23-1-2.23-2.23-2.23Z"/><path class="m" d="M236.93,317.34h-4.52c-1.18,0-2.14,.96-2.14,2.14v.9h8.79v-.9c0-1.18-.96-2.14-2.14-2.14Z"/><path class="m" d="M236.88,313.21h-3.92c-1.13,0-2.05,.92-2.05,2.05v.99h8.02v-.99c0-1.13-.92-2.05-2.05-2.05Z"/><path class="m" d="M236.83,309.08h-3.33c-1.08,0-1.95,.87-1.95,1.95v1.08h7.24v-1.08c0-1.08-.87-1.95-1.95-1.95Z"/><path class="m" d="M236.78,304.95h-2.74c-1.03,0-1.86,.83-1.86,1.86v1.18h6.46v-1.18c0-1.03-.83-1.86-1.86-1.86Z"/><path class="m" d="M236.73,300.82h-2.15c-.98,0-1.77,.79-1.77,1.77v1.27h5.69v-1.27c0-.98-.79-1.77-1.77-1.77Z"/><path class="m" d="M236.68,296.69h-1.56c-.93,0-1.68,.75-1.68,1.68v1.36h4.91v-1.36c0-.93-.75-1.68-1.68-1.68Z"/></g><g class="l"><path class="m" d="M226.83,321.47h-3.12c-1.05,0-1.89,.85-1.89,1.89v1.14h6.91v-1.14c0-1.05-.85-1.89-1.89-1.89Z"/><path class="m" d="M227.33,317.34h-2.86c-1.03,0-1.86,.83-1.86,1.86v1.18h6.57v-1.18c0-1.03-.83-1.86-1.86-1.86Z"/><path class="m" d="M227.83,313.21h-2.6c-1.01,0-1.82,.82-1.82,1.82v1.22h6.24v-1.22c0-1.01-.82-1.82-1.82-1.82Z"/><path class="m" d="M228.34,309.08h-2.34c-.99,0-1.79,.8-1.79,1.79v1.25h5.91v-1.25c0-.99-.8-1.79-1.79-1.79Z"/><path class="m" d="M228.84,304.95h-2.08c-.97,0-1.75,.78-1.75,1.75v1.29h5.58v-1.29c0-.97-.78-1.75-1.75-1.75Z"/><path class="m" d="M229.34,300.82h-1.82c-.95,0-1.71,.77-1.71,1.71v1.32h5.25v-1.32c0-.95-.77-1.71-1.71-1.71Z"/><path class="m" d="M229.84,296.69h-1.56c-.93,0-1.68,.75-1.68,1.68v1.36h4.91v-1.36c0-.93-.75-1.68-1.68-1.68Z"/></g><g class="l"><path class="m" d="M218.81,321.47h-3.12c-1.05,0-1.89,.85-1.89,1.89v1.14h6.91v-1.14c0-1.05-.85-1.89-1.89-1.89Z"/><path class="m" d="M219.53,317.34h-2.66c-.99,0-1.8,.8-1.8,1.8v1.24h6.25v-1.24c0-.99-.8-1.8-1.8-1.8Z"/><path class="m" d="M220.26,313.21h-2.2c-.94,0-1.7,.76-1.7,1.7v1.34h5.6v-1.34c0-.94-.76-1.7-1.7-1.7Z"/><path class="m" d="M220.98,309.08h-1.74c-.88,0-1.6,.72-1.6,1.6v1.44h4.94v-1.44c0-.88-.72-1.6-1.6-1.6Z"/><path class="m" d="M221.71,304.95h-1.28c-.83,0-1.5,.67-1.5,1.5v1.53h4.29v-1.53c0-.83-.67-1.5-1.5-1.5Z"/><path class="m" d="M222.43,300.82h-.83c-.78,0-1.41,.63-1.41,1.41v1.63h3.64v-1.63c0-.78-.63-1.41-1.41-1.41Z"/><path class="m" d="M223.16,296.69h-.37c-.72,0-1.31,.59-1.31,1.31v1.73h2.98v-1.73c0-.72-.59-1.31-1.31-1.31Z"/></g><g class="l"><path class="m" d="M210.68,321.47h-3.12c-1.05,0-1.89,.85-1.89,1.89v1.14h6.91v-1.14c0-1.05-.85-1.89-1.89-1.89Z"/><path class="m" d="M212.08,317.34h-2.6c-.96,0-1.74,.78-1.74,1.74v1.3h6.07v-1.3c0-.96-.78-1.74-1.74-1.74Z"/><path class="m" d="M213.48,313.21h-2.08c-.87,0-1.58,.71-1.58,1.58v1.46h5.24v-1.46c0-.87-.71-1.58-1.58-1.58Z"/><path class="m" d="M214.88,309.08h-1.56c-.78,0-1.42,.64-1.42,1.42v1.62h4.4v-1.62c0-.78-.64-1.42-1.42-1.42Z"/><path class="m" d="M216.28,304.95h-1.04c-.7,0-1.26,.57-1.26,1.26v1.78h3.56v-1.78c0-.7-.57-1.26-1.26-1.26Z"/><path class="m" d="M217.68,300.82h-.52c-.61,0-1.1,.49-1.1,1.1v1.93h2.73v-1.93c0-.61-.49-1.1-1.1-1.1Z"/><path class="m" d="M219.08,296.69h0c-.52,0-.95,.42-.95,.95v2.09h1.89v-2.09c0-.52-.42-.95-.95-.95Z"/></g><g class="l"><g><path class="m" d="M200.24,397.97h-5.7c-1.36,0-2.47,1.11-2.47,2.47v.57h10.63v-.57c0-1.36-1.11-2.47-2.47-2.47Z"/><path class="m" d="M201.28,393.38h-5.43c-1.34,0-2.42,1.08-2.42,2.42v.62h10.27v-.62c0-1.34-1.08-2.42-2.42-2.42Z"/><path class="m" d="M202.32,388.8h-5.17c-1.31,0-2.37,1.06-2.37,2.37v.67h9.92v-.67c0-1.31-1.06-2.37-2.37-2.37Z"/><path class="m" d="M203.36,384.21h-4.91c-1.28,0-2.32,1.04-2.32,2.32v.71h9.56v-.71c0-1.28-1.04-2.32-2.32-2.32Z"/><path class="m" d="M204.4,379.62h-4.65c-1.26,0-2.28,1.02-2.28,2.28v.76h9.2v-.76c0-1.26-1.02-2.28-2.28-2.28Z"/><path class="m" d="M205.44,375.04h-4.39c-1.23,0-2.23,1-2.23,2.23v.81h8.84v-.81c0-1.23-1-2.23-2.23-2.23Z"/><path class="m" d="M206.48,370.45h-4.12c-1.2,0-2.18,.98-2.18,2.18v.86h8.48v-.86c0-1.2-.98-2.18-2.18-2.18Z"/><path class="m" d="M207.52,365.86h-3.86c-1.18,0-2.13,.95-2.13,2.13v.91h8.13v-.91c0-1.18-.95-2.13-2.13-2.13Z"/><path class="m" d="M208.56,361.28h-3.6c-1.15,0-2.08,.93-2.08,2.08v.95h7.77v-.95c0-1.15-.93-2.08-2.08-2.08Z"/><path class="m" d="M209.6,356.69h-3.34c-1.12,0-2.04,.91-2.04,2.04v1h7.41v-1c0-1.12-.91-2.04-2.04-2.04Z"/><path class="m" d="M210.64,352.1h-3.08c-1.1,0-1.99,.89-1.99,1.99v1.05h7.05v-1.05c0-1.1-.89-1.99-1.99-1.99Z"/><path class="m" d="M211.69,347.52h-2.82c-1.07,0-1.94,.87-1.94,1.94v1.1h6.69v-1.1c0-1.07-.87-1.94-1.94-1.94Z"/><path class="m" d="M212.73,342.93h-2.55c-1.04,0-1.89,.85-1.89,1.89v1.15h6.34v-1.15c0-1.04-.85-1.89-1.89-1.89Z"/><path class="m" d="M213.77,338.34h-2.29c-1.02,0-1.84,.83-1.84,1.84v1.19h5.98v-1.19c0-1.02-.83-1.84-1.84-1.84Z"/><path class="m" d="M214.81,333.76h-2.03c-.99,0-1.79,.8-1.79,1.79v1.24h5.62v-1.24c0-.99-.8-1.79-1.79-1.79Z"/></g><g><path class="m" d="M186.22,397.97h-5.7c-1.36,0-2.47,1.11-2.47,2.47v.57h10.63v-.57c0-1.36-1.11-2.47-2.47-2.47Z"/><path class="m" d="M187.82,393.38h-5.43c-1.34,0-2.42,1.08-2.42,2.42v.62h10.27v-.62c0-1.34-1.08-2.42-2.42-2.42Z"/><path class="m" d="M189.42,388.8h-5.17c-1.31,0-2.37,1.06-2.37,2.37v.67h9.92v-.67c0-1.31-1.06-2.37-2.37-2.37Z"/><path class="m" d="M191.01,384.21h-4.91c-1.28,0-2.32,1.04-2.32,2.32v.71h9.56v-.71c0-1.28-1.04-2.32-2.32-2.32Z"/><path class="m" d="M192.61,379.62h-4.65c-1.26,0-2.28,1.02-2.28,2.28v.76h9.2v-.76c0-1.26-1.02-2.28-2.28-2.28Z"/><path class="m" d="M194.21,375.04h-4.39c-1.23,0-2.23,1-2.23,2.23v.81h8.84v-.81c0-1.23-1-2.23-2.23-2.23Z"/><path class="m" d="M195.81,370.45h-4.12c-1.2,0-2.18,.98-2.18,2.18v.86h8.48v-.86c0-1.2-.98-2.18-2.18-2.18Z"/><path class="m" d="M197.4,365.86h-3.86c-1.18,0-2.13,.95-2.13,2.13v.91h8.13v-.91c0-1.18-.95-2.13-2.13-2.13Z"/><path class="m" d="M199,361.28h-3.6c-1.15,0-2.08,.93-2.08,2.08v.95h7.77v-.95c0-1.15-.93-2.08-2.08-2.08Z"/><path class="m" d="M200.6,356.69h-3.34c-1.12,0-2.04,.91-2.04,2.04v1h7.41v-1c0-1.12-.91-2.04-2.04-2.04Z"/><path class="m" d="M202.19,352.1h-3.08c-1.1,0-1.99,.89-1.99,1.99v1.05h7.05v-1.05c0-1.1-.89-1.99-1.99-1.99Z"/><path class="m" d="M203.79,347.52h-2.82c-1.07,0-1.94,.87-1.94,1.94v1.1h6.69v-1.1c0-1.07-.87-1.94-1.94-1.94Z"/><path class="m" d="M205.39,342.93h-2.55c-1.04,0-1.89,.85-1.89,1.89v1.15h6.34v-1.15c0-1.04-.85-1.89-1.89-1.89Z"/><path class="m" d="M206.98,338.34h-2.29c-1.02,0-1.84,.83-1.84,1.84v1.19h5.98v-1.19c0-1.02-.83-1.84-1.84-1.84Z"/><path class="m" d="M208.58,333.76h-2.03c-.99,0-1.79,.8-1.79,1.79v1.24h5.62v-1.24c0-.99-.8-1.79-1.79-1.79Z"/></g><g><path class="m" d="M174,397.97h-3.42c-1.15,0-2.09,.93-2.09,2.09v.95h7.59v-.95c0-1.15-.93-2.09-2.09-2.09Z"/><path class="m" d="M176.01,393.38h-3.26c-1.13,0-2.05,.92-2.05,2.05v.99h7.36v-.99c0-1.13-.92-2.05-2.05-2.05Z"/><path class="m" d="M178.03,388.8h-3.1c-1.11,0-2.01,.9-2.01,2.01v1.03h7.12v-1.03c0-1.11-.9-2.01-2.01-2.01Z"/><path class="m" d="M180.05,384.21h-2.94c-1.09,0-1.98,.88-1.98,1.98v1.06h6.89v-1.06c0-1.09-.88-1.98-1.98-1.98Z"/><path class="m" d="M182.06,379.62h-2.77c-1.07,0-1.94,.87-1.94,1.94v1.1h6.65v-1.1c0-1.07-.87-1.94-1.94-1.94Z"/><path class="m" d="M184.08,375.04h-2.61c-1.05,0-1.9,.85-1.9,1.9v1.14h6.42v-1.14c0-1.05-.85-1.9-1.9-1.9Z"/><path class="m" d="M186.1,370.45h-2.45c-1.03,0-1.86,.83-1.86,1.86v1.17h6.18v-1.17c0-1.03-.83-1.86-1.86-1.86Z"/><path class="m" d="M188.11,365.86h-2.29c-1.01,0-1.83,.82-1.83,1.83v1.21h5.94v-1.21c0-1.01-.82-1.83-1.83-1.83Z"/><path class="m" d="M190.13,361.28h-2.13c-.99,0-1.79,.8-1.79,1.79v1.25h5.71v-1.25c0-.99-.8-1.79-1.79-1.79Z"/><path class="m" d="M192.15,356.69h-1.96c-.97,0-1.75,.79-1.75,1.75v1.28h5.47v-1.28c0-.97-.79-1.75-1.75-1.75Z"/><path class="m" d="M194.16,352.1h-1.8c-.95,0-1.72,.77-1.72,1.72v1.32h5.24v-1.32c0-.95-.77-1.72-1.72-1.72Z"/><path class="m" d="M196.18,347.52h-1.64c-.93,0-1.68,.75-1.68,1.68v1.36h5v-1.36c0-.93-.75-1.68-1.68-1.68Z"/><path class="m" d="M198.2,342.93h-1.48c-.91,0-1.64,.74-1.64,1.64v1.4h4.76v-1.4c0-.91-.74-1.64-1.64-1.64Z"/><path class="m" d="M200.21,338.34h-1.32c-.89,0-1.61,.72-1.61,1.61v1.43h4.53v-1.43c0-.89-.72-1.61-1.61-1.61Z"/><path class="m" d="M202.23,333.76h-1.15c-.87,0-1.57,.7-1.57,1.57v1.47h4.29v-1.47c0-.87-.7-1.57-1.57-1.57Z"/></g><g><path class="m" d="M215.77,397.97h-7.83c-1.53,0-2.77,1.24-2.77,2.77v.27h13.37v-.27c0-1.53-1.24-2.77-2.77-2.77Z"/><path class="m" d="M216.36,393.38h-7.58c-1.51,0-2.73,1.22-2.73,2.73v.31h13.04v-.31c0-1.51-1.22-2.73-2.73-2.73Z"/><path class="m" d="M216.94,388.8h-7.33c-1.49,0-2.69,1.21-2.69,2.69v.34h12.71v-.34c0-1.49-1.21-2.69-2.69-2.69Z"/><path class="m" d="M217.53,384.21h-7.07c-1.47,0-2.66,1.19-2.66,2.66v.38h12.38v-.38c0-1.47-1.19-2.66-2.66-2.66Z"/><path class="m" d="M218.11,379.62h-6.82c-1.45,0-2.62,1.17-2.62,2.62v.42h12.06v-.42c0-1.45-1.17-2.62-2.62-2.62Z"/><path class="m" d="M218.7,375.04h-6.57c-1.43,0-2.58,1.16-2.58,2.58v.46h11.73v-.46c0-1.43-1.16-2.58-2.58-2.58Z"/><path class="m" d="M219.28,370.45h-6.32c-1.4,0-2.54,1.14-2.54,2.54v.49h11.4v-.49c0-1.4-1.14-2.54-2.54-2.54Z"/><path class="m" d="M219.87,365.86h-6.06c-1.38,0-2.51,1.12-2.51,2.51v.53h11.07v-.53c0-1.38-1.12-2.51-2.51-2.51Z"/><path class="m" d="M220.45,361.28h-5.81c-1.36,0-2.47,1.11-2.47,2.47v.57h10.75v-.57c0-1.36-1.11-2.47-2.47-2.47Z"/><path class="m" d="M221.04,356.69h-5.56c-1.34,0-2.43,1.09-2.43,2.43v.61h10.42v-.61c0-1.34-1.09-2.43-2.43-2.43Z"/><path class="m" d="M221.62,352.1h-5.31c-1.32,0-2.39,1.07-2.39,2.39v.64h10.09v-.64c0-1.32-1.07-2.39-2.39-2.39Z"/><path class="m" d="M222.21,347.52h-5.05c-1.3,0-2.36,1.05-2.36,2.36v.68h9.76v-.68c0-1.3-1.05-2.36-2.36-2.36Z"/><path class="m" d="M222.8,342.93h-4.8c-1.28,0-2.32,1.04-2.32,2.32v.72h9.44v-.72c0-1.28-1.04-2.32-2.32-2.32Z"/><path class="m" d="M223.38,338.34h-4.55c-1.26,0-2.28,1.02-2.28,2.28v.76h9.11v-.76c0-1.26-1.02-2.28-2.28-2.28Z"/><path class="m" d="M223.97,333.76h-4.29c-1.24,0-2.24,1-2.24,2.24v.79h8.78v-.79c0-1.24-1-2.24-2.24-2.24Z"/></g><g><path class="m" d="M237.34,397.97h-11.7c-1.68,0-3.04,1.36-3.04,3.04h17.77c0-1.68-1.36-3.04-3.04-3.04Z"/><path class="m" d="M237.32,393.38h-11.24c-1.65,0-2.99,1.34-2.99,2.99v.04h17.23v-.04c0-1.65-1.34-2.99-2.99-2.99Z"/><path class="m" d="M237.3,388.8h-10.79c-1.63,0-2.95,1.32-2.95,2.95v.09h16.69v-.09c0-1.63-1.32-2.95-2.95-2.95Z"/><path class="m" d="M237.27,384.21h-10.34c-1.6,0-2.91,1.3-2.91,2.91v.13h16.15v-.13c0-1.6-1.3-2.91-2.91-2.91Z"/><path class="m" d="M237.25,379.62h-9.89c-1.58,0-2.86,1.28-2.86,2.86v.18h15.61v-.18c0-1.58-1.28-2.86-2.86-2.86Z"/><path class="m" d="M237.23,375.04h-9.44c-1.56,0-2.82,1.26-2.82,2.82v.22h15.07v-.22c0-1.56-1.26-2.82-2.82-2.82Z"/><path class="m" d="M237.21,370.45h-8.99c-1.53,0-2.77,1.24-2.77,2.77v.27h14.53v-.27c0-1.53-1.24-2.77-2.77-2.77Z"/><path class="m" d="M237.19,365.86h-8.53c-1.51,0-2.73,1.22-2.73,2.73v.31h13.99v-.31c0-1.51-1.22-2.73-2.73-2.73Z"/><path class="m" d="M237.17,361.28h-8.08c-1.48,0-2.68,1.2-2.68,2.68v.35h13.45v-.35c0-1.48-1.2-2.68-2.68-2.68Z"/><path class="m" d="M237.15,356.69h-7.63c-1.46,0-2.64,1.18-2.64,2.64v.4h12.91v-.4c0-1.46-1.18-2.64-2.64-2.64Z"/><path class="m" d="M237.13,352.1h-7.18c-1.43,0-2.6,1.16-2.6,2.6v.44h12.37v-.44c0-1.43-1.16-2.6-2.6-2.6Z"/><path class="m" d="M237.11,347.52h-6.73c-1.41,0-2.55,1.14-2.55,2.55v.49h11.83v-.49c0-1.41-1.14-2.55-2.55-2.55Z"/><path class="m" d="M237.09,342.93h-6.28c-1.39,0-2.51,1.12-2.51,2.51v.53h11.29v-.53c0-1.39-1.12-2.51-2.51-2.51Z"/><path class="m" d="M237.07,338.34h-5.82c-1.36,0-2.46,1.1-2.46,2.46v.57h10.75v-.57c0-1.36-1.1-2.46-2.46-2.46Z"/><path class="m" d="M237.04,333.76h-5.37c-1.34,0-2.42,1.08-2.42,2.42v.62h10.21v-.62c0-1.34-1.08-2.42-2.42-2.42Z"/></g><g><path class="m" d="M258.81,397.97h-11.7c-1.68,0-3.04,1.36-3.04,3.04h17.77c0-1.68-1.36-3.04-3.04-3.04Z"/><path class="m" d="M258.1,393.38h-11.24c-1.65,0-2.99,1.34-2.99,2.99v.04h17.23v-.04c0-1.65-1.34-2.99-2.99-2.99Z"/><path class="m" d="M257.39,388.8h-10.79c-1.63,0-2.95,1.32-2.95,2.95v.09h16.69v-.09c0-1.63-1.32-2.95-2.95-2.95Z"/><path class="m" d="M256.68,384.21h-10.34c-1.6,0-2.91,1.3-2.91,2.91v.13h16.15v-.13c0-1.6-1.3-2.91-2.91-2.91Z"/><path class="m" d="M255.97,379.62h-9.89c-1.58,0-2.86,1.28-2.86,2.86v.18h15.61v-.18c0-1.58-1.28-2.86-2.86-2.86Z"/><path class="m" d="M255.26,375.04h-9.44c-1.56,0-2.82,1.26-2.82,2.82v.22h15.07v-.22c0-1.56-1.26-2.82-2.82-2.82Z"/><path class="m" d="M254.55,370.45h-8.99c-1.53,0-2.77,1.24-2.77,2.77v.27h14.53v-.27c0-1.53-1.24-2.77-2.77-2.77Z"/><path class="m" d="M253.84,365.86h-8.53c-1.51,0-2.73,1.22-2.73,2.73v.31h13.99v-.31c0-1.51-1.22-2.73-2.73-2.73Z"/><path class="m" d="M253.13,361.28h-8.08c-1.48,0-2.68,1.2-2.68,2.68v.35h13.45v-.35c0-1.48-1.2-2.68-2.68-2.68Z"/><path class="m" d="M252.42,356.69h-7.63c-1.46,0-2.64,1.18-2.64,2.64v.4h12.91v-.4c0-1.46-1.18-2.64-2.64-2.64Z"/><path class="m" d="M251.71,352.1h-7.18c-1.43,0-2.6,1.16-2.6,2.6v.44h12.37v-.44c0-1.43-1.16-2.6-2.6-2.6Z"/><path class="m" d="M251,347.52h-6.73c-1.41,0-2.55,1.14-2.55,2.55v.49h11.83v-.49c0-1.41-1.14-2.55-2.55-2.55Z"/><path class="m" d="M250.29,342.93h-6.28c-1.39,0-2.51,1.12-2.51,2.51v.53h11.29v-.53c0-1.39-1.12-2.51-2.51-2.51Z"/><path class="m" d="M249.58,338.34h-5.82c-1.36,0-2.46,1.1-2.46,2.46v.57h10.75v-.57c0-1.36-1.1-2.46-2.46-2.46Z"/><path class="m" d="M248.87,333.76h-5.37c-1.34,0-2.42,1.08-2.42,2.42v.62h10.21v-.62c0-1.34-1.08-2.42-2.42-2.42Z"/></g><g><path class="m" d="M278.52,397.97h-11.7c-1.68,0-3.04,1.36-3.04,3.04h17.77c0-1.68-1.36-3.04-3.04-3.04Z"/><path class="m" d="M277.32,393.38h-11.15c-1.65,0-2.98,1.33-2.98,2.98v.06h17.11v-.06c0-1.65-1.33-2.98-2.98-2.98Z"/><path class="m" d="M276.12,388.8h-10.61c-1.61,0-2.92,1.31-2.92,2.92v.12h16.45v-.12c0-1.61-1.31-2.92-2.92-2.92Z"/><path class="m" d="M274.93,384.21h-10.07c-1.58,0-2.86,1.28-2.86,2.86v.18h15.79v-.18c0-1.58-1.28-2.86-2.86-2.86Z"/><path class="m" d="M273.73,379.62h-9.53c-1.55,0-2.8,1.25-2.8,2.8v.24h15.14v-.24c0-1.55-1.25-2.8-2.8-2.8Z"/><path class="m" d="M272.53,375.04h-8.99c-1.52,0-2.74,1.23-2.74,2.74v.29h14.48v-.29c0-1.52-1.23-2.74-2.74-2.74Z"/><path class="m" d="M271.33,370.45h-8.45c-1.48,0-2.68,1.2-2.68,2.68v.35h13.82v-.35c0-1.48-1.2-2.68-2.68-2.68Z"/><path class="m" d="M270.13,365.86h-7.91c-1.45,0-2.63,1.18-2.63,2.63v.41h13.16v-.41c0-1.45-1.18-2.63-2.63-2.63Z"/><path class="m" d="M268.93,361.28h-7.37c-1.42,0-2.57,1.15-2.57,2.57v.47h12.5v-.47c0-1.42-1.15-2.57-2.57-2.57Z"/><path class="m" d="M267.74,356.69h-6.82c-1.38,0-2.51,1.12-2.51,2.51v.53h11.84v-.53c0-1.38-1.12-2.51-2.51-2.51Z"/><path class="m" d="M266.54,352.1h-6.28c-1.35,0-2.45,1.1-2.45,2.45v.59h11.18v-.59c0-1.35-1.1-2.45-2.45-2.45Z"/><path class="m" d="M265.34,347.52h-5.74c-1.32,0-2.39,1.07-2.39,2.39v.65h10.52v-.65c0-1.32-1.07-2.39-2.39-2.39Z"/><path class="m" d="M264.14,342.93h-5.2c-1.29,0-2.33,1.04-2.33,2.33v.71h9.86v-.71c0-1.29-1.04-2.33-2.33-2.33Z"/><path class="m" d="M262.94,338.34h-4.66c-1.25,0-2.27,1.02-2.27,2.27v.77h9.2v-.77c0-1.25-1.02-2.27-2.27-2.27Z"/><path class="m" d="M261.74,333.76h-4.12c-1.22,0-2.21,.99-2.21,2.21v.82h8.54v-.82c0-1.22-.99-2.21-2.21-2.21Z"/></g><g><path class="m" d="M297.49,397.97h-11.7c-1.68,0-3.04,1.36-3.04,3.04h17.77c0-1.68-1.36-3.04-3.04-3.04Z"/><path class="m" d="M295.78,393.38h-11.15c-1.65,0-2.98,1.33-2.98,2.98v.06h17.11v-.06c0-1.65-1.33-2.98-2.98-2.98Z"/><path class="m" d="M294.07,388.8h-10.61c-1.61,0-2.92,1.31-2.92,2.92v.12h16.45v-.12c0-1.61-1.31-2.92-2.92-2.92Z"/><path class="m" d="M292.36,384.21h-10.07c-1.58,0-2.86,1.28-2.86,2.86v.18h15.79v-.18c0-1.58-1.28-2.86-2.86-2.86Z"/><path class="m" d="M290.66,379.62h-9.53c-1.55,0-2.8,1.25-2.8,2.8v.24h15.14v-.24c0-1.55-1.25-2.8-2.8-2.8Z"/><path class="m" d="M288.95,375.04h-8.99c-1.52,0-2.74,1.23-2.74,2.74v.29h14.48v-.29c0-1.52-1.23-2.74-2.74-2.74Z"/><path class="m" d="M287.24,370.45h-8.45c-1.48,0-2.68,1.2-2.68,2.68v.35h13.82v-.35c0-1.48-1.2-2.68-2.68-2.68Z"/><path class="m" d="M285.53,365.86h-7.91c-1.45,0-2.63,1.18-2.63,2.63v.41h13.16v-.41c0-1.45-1.18-2.63-2.63-2.63Z"/><path class="m" d="M283.82,361.28h-7.37c-1.42,0-2.57,1.15-2.57,2.57v.47h12.5v-.47c0-1.42-1.15-2.57-2.57-2.57Z"/><path class="m" d="M282.12,356.69h-6.82c-1.38,0-2.51,1.12-2.51,2.51v.53h11.84v-.53c0-1.38-1.12-2.51-2.51-2.51Z"/><path class="m" d="M280.41,352.1h-6.28c-1.35,0-2.45,1.1-2.45,2.45v.59h11.18v-.59c0-1.35-1.1-2.45-2.45-2.45Z"/><path class="m" d="M278.7,347.52h-5.74c-1.32,0-2.39,1.07-2.39,2.39v.65h10.52v-.65c0-1.32-1.07-2.39-2.39-2.39Z"/><path class="m" d="M276.99,342.93h-5.2c-1.29,0-2.33,1.04-2.33,2.33v.71h9.86v-.71c0-1.29-1.04-2.33-2.33-2.33Z"/><path class="m" d="M275.28,338.34h-4.66c-1.25,0-2.27,1.02-2.27,2.27v.77h9.2v-.77c0-1.25-1.02-2.27-2.27-2.27Z"/><path class="m" d="M273.57,333.76h-4.12c-1.22,0-2.21,.99-2.21,2.21v.82h8.54v-.82c0-1.22-.99-2.21-2.21-2.21Z"/></g><g><path class="m" d="M311.23,397.97h-5.99c-1.3,0-2.36,1.06-2.36,2.36v.68h10.71v-.68c0-1.3-1.06-2.36-2.36-2.36Z"/><path class="m" d="M309.08,393.38h-5.69c-1.28,0-2.31,1.04-2.31,2.31v.72h10.32v-.72c0-1.28-1.04-2.31-2.31-2.31Z"/><path class="m" d="M306.92,388.8h-5.4c-1.25,0-2.27,1.02-2.27,2.27v.77h9.94v-.77c0-1.25-1.02-2.27-2.27-2.27Z"/><path class="m" d="M304.76,384.21h-5.1c-1.23,0-2.23,1-2.23,2.23v.81h9.55v-.81c0-1.23-1-2.23-2.23-2.23Z"/><path class="m" d="M302.6,379.62h-4.8c-1.21,0-2.18,.98-2.18,2.18v.85h9.17v-.85c0-1.21-.98-2.18-2.18-2.18Z"/><path class="m" d="M300.45,375.04h-4.5c-1.18,0-2.14,.96-2.14,2.14v.9h8.78v-.9c0-1.18-.96-2.14-2.14-2.14Z"/><path class="m" d="M298.29,370.45h-4.21c-1.16,0-2.1,.94-2.1,2.1v.94h8.4v-.94c0-1.16-.94-2.1-2.1-2.1Z"/><path class="m" d="M296.13,365.86h-3.91c-1.13,0-2.05,.92-2.05,2.05v.99h8.01v-.99c0-1.13-.92-2.05-2.05-2.05Z"/><path class="m" d="M293.97,361.28h-3.61c-1.11,0-2.01,.9-2.01,2.01v1.03h7.63v-1.03c0-1.11-.9-2.01-2.01-2.01Z"/><path class="m" d="M291.82,356.69h-3.31c-1.08,0-1.96,.88-1.96,1.96v1.07h7.24v-1.07c0-1.08-.88-1.96-1.96-1.96Z"/><path class="m" d="M289.66,352.1h-3.02c-1.06,0-1.92,.86-1.92,1.92v1.12h6.86v-1.12c0-1.06-.86-1.92-1.92-1.92Z"/><path class="m" d="M287.5,347.52h-2.72c-1.04,0-1.88,.84-1.88,1.88v1.16h6.47v-1.16c0-1.04-.84-1.88-1.88-1.88Z"/><path class="m" d="M285.34,342.93h-2.42c-1.01,0-1.83,.82-1.83,1.83v1.2h6.09v-1.2c0-1.01-.82-1.83-1.83-1.83Z"/><path class="m" d="M283.19,338.34h-2.12c-.99,0-1.79,.8-1.79,1.79v1.25h5.7v-1.25c0-.99-.8-1.79-1.79-1.79Z"/><path class="m" d="M281.03,333.76h-1.83c-.96,0-1.75,.78-1.75,1.75v1.29h5.32v-1.29c0-.96-.78-1.75-1.75-1.75Z"/></g></g></g><rect class="g" x="199.74" y="326.48" width="52.95" height="5.92" rx="1.92" ry="1.92"/><rect class="n" x="237.47" y="261.83" width="7.23" height="3.25" rx=".93" ry=".93"/><rect class="a`" x="231.68" y="232.44" width="19.19" height="3.25" rx="1.51" ry="1.51" transform="translate(475.34 -7.22) rotate(90)"/><rect class="g" x="162.44" y="399.65" width="157" height="8" rx="4" ry="4"/></g><g class="aa"><g class="l"><path class="m" d="M247.51,321.47h-5.11c-1.23,0-2.23,1-2.23,2.23v.81h9.57v-.81c0-1.23-1-2.23-2.23-2.23Z"/><path class="m" d="M246.81,317.34h-4.52c-1.18,0-2.14,.96-2.14,2.14v.9h8.79v-.9c0-1.18-.96-2.14-2.14-2.14Z"/><path class="m" d="M246.1,313.21h-3.92c-1.13,0-2.05,.92-2.05,2.05v.99h8.02v-.99c0-1.13-.92-2.05-2.05-2.05Z"/><path class="m" d="M245.4,309.08h-3.33c-1.08,0-1.95,.87-1.95,1.95v1.08h7.24v-1.08c0-1.08-.87-1.95-1.95-1.95Z"/><path class="m" d="M244.69,304.95h-2.74c-1.03,0-1.86,.83-1.86,1.86v1.18h6.46v-1.18c0-1.03-.83-1.86-1.86-1.86Z"/><path class="m" d="M243.99,300.82h-2.15c-.98,0-1.77,.79-1.77,1.77v1.27h5.69v-1.27c0-.98-.79-1.77-1.77-1.77Z"/><path class="m" d="M243.28,296.69h-1.56c-.93,0-1.68,.75-1.68,1.68v1.36h4.91v-1.36c0-.93-.75-1.68-1.68-1.68Z"/></g><g class="l"><path class="m" d="M260.26,328.15h-4.05c-1.14,0-2.06,.92-2.06,2.06v.98h8.17v-.98c0-1.14-.92-2.06-2.06-2.06Z"/><path class="m" d="M259.12,324.22h-3.74c-1.11,0-2.01,.9-2.01,2.01v1.03h7.77v-1.03c0-1.11-.9-2.01-2.01-2.01Z"/><path class="m" d="M257.97,320.29h-3.43c-1.09,0-1.96,.88-1.96,1.96v1.07h7.36v-1.07c0-1.09-.88-1.96-1.96-1.96Z"/><path class="m" d="M256.82,316.36h-3.12c-1.06,0-1.92,.86-1.92,1.92v1.12h6.95v-1.12c0-1.06-.86-1.92-1.92-1.92Z"/><path class="m" d="M255.68,312.42h-2.81c-1.03,0-1.87,.84-1.87,1.87v1.17h6.54v-1.17c0-1.03-.84-1.87-1.87-1.87Z"/><path class="m" d="M254.53,308.49h-2.49c-1.01,0-1.82,.82-1.82,1.82v1.22h6.14v-1.22c0-1.01-.82-1.82-1.82-1.82Z"/><path class="m" d="M253.38,304.56h-2.18c-.98,0-1.77,.79-1.77,1.77v1.26h5.73v-1.26c0-.98-.79-1.77-1.77-1.77Z"/><path class="m" d="M252.24,300.63h-1.87c-.95,0-1.73,.77-1.73,1.73v1.31h5.32v-1.31c0-.95-.77-1.73-1.73-1.73Z"/><path class="m" d="M251.09,296.69h-1.56c-.93,0-1.68,.75-1.68,1.68v1.36h4.91v-1.36c0-.93-.75-1.68-1.68-1.68Z"/></g><g class="l"><path class="m" d="M270.65,328.15h-4.05c-1.14,0-2.06,.92-2.06,2.06v.98h8.17v-.98c0-1.14-.92-2.06-2.06-2.06Z"/><path class="m" d="M268.97,324.22h-3.66c-1.1,0-1.99,.89-1.99,1.99v1.05h7.64v-1.05c0-1.1-.89-1.99-1.99-1.99Z"/><path class="m" d="M267.28,320.29h-3.27c-1.06,0-1.92,.86-1.92,1.92v1.12h7.11v-1.12c0-1.06-.86-1.92-1.92-1.92Z"/><path class="m" d="M265.6,316.36h-2.88c-1.02,0-1.85,.83-1.85,1.85v1.19h6.58v-1.19c0-1.02-.83-1.85-1.85-1.85Z"/><path class="m" d="M263.92,312.42h-2.49c-.98,0-1.78,.8-1.78,1.78v1.26h6.04v-1.26c0-.98-.8-1.78-1.78-1.78Z"/><path class="m" d="M262.24,308.49h-2.09c-.94,0-1.71,.76-1.71,1.71v1.33h5.51v-1.33c0-.94-.76-1.71-1.71-1.71Z"/><path class="m" d="M260.56,304.56h-1.7c-.9,0-1.64,.73-1.64,1.64v1.4h4.98v-1.4c0-.9-.73-1.64-1.64-1.64Z"/><path class="m" d="M258.87,300.63h-1.31c-.87,0-1.57,.7-1.57,1.57v1.47h4.45v-1.47c0-.87-.7-1.57-1.57-1.57Z"/><path class="m" d="M257.19,296.69h-.92c-.83,0-1.5,.67-1.5,1.5v1.54h3.91v-1.54c0-.83-.67-1.5-1.5-1.5Z"/></g><g class="l"><path class="m" d="M277.95,328.15h-2.47c-.98,0-1.77,.79-1.77,1.77v1.27h6v-1.27c0-.98-.79-1.77-1.77-1.77Z"/><path class="m" d="M276.08,324.22h-2.28c-.96,0-1.73,.78-1.73,1.73v1.31h5.74v-1.31c0-.96-.78-1.73-1.73-1.73Z"/><path class="m" d="M274.21,320.29h-2.08c-.94,0-1.7,.76-1.7,1.7v1.34h5.48v-1.34c0-.94-.76-1.7-1.7-1.7Z"/><path class="m" d="M272.34,316.36h-1.89c-.92,0-1.67,.75-1.67,1.67v1.37h5.22v-1.37c0-.92-.75-1.67-1.67-1.67Z"/><path class="m" d="M270.47,312.42h-1.69c-.9,0-1.63,.73-1.63,1.63v1.41h4.96v-1.41c0-.9-.73-1.63-1.63-1.63Z"/><path class="m" d="M268.6,308.49h-1.5c-.88,0-1.6,.72-1.6,1.6v1.44h4.7v-1.44c0-.88-.72-1.6-1.6-1.6Z"/><path class="m" d="M266.73,304.56h-1.31c-.86,0-1.56,.7-1.56,1.56v1.47h4.44v-1.47c0-.86-.7-1.56-1.56-1.56Z"/><path class="m" d="M264.86,300.63h-1.11c-.85,0-1.53,.69-1.53,1.53v1.51h4.17v-1.51c0-.85-.69-1.53-1.53-1.53Z"/><path class="m" d="M262.99,296.69h-.92c-.83,0-1.5,.67-1.5,1.5v1.54h3.91v-1.54c0-.83-.67-1.5-1.5-1.5Z"/></g><g class="l"><path class="m" d="M236.98,321.47h-5.11c-1.23,0-2.23,1-2.23,2.23v.81h9.57v-.81c0-1.23-1-2.23-2.23-2.23Z"/><path class="m" d="M236.93,317.34h-4.52c-1.18,0-2.14,.96-2.14,2.14v.9h8.79v-.9c0-1.18-.96-2.14-2.14-2.14Z"/><path class="m" d="M236.88,313.21h-3.92c-1.13,0-2.05,.92-2.05,2.05v.99h8.02v-.99c0-1.13-.92-2.05-2.05-2.05Z"/><path class="m" d="M236.83,309.08h-3.33c-1.08,0-1.95,.87-1.95,1.95v1.08h7.24v-1.08c0-1.08-.87-1.95-1.95-1.95Z"/><path class="m" d="M236.78,304.95h-2.74c-1.03,0-1.86,.83-1.86,1.86v1.18h6.46v-1.18c0-1.03-.83-1.86-1.86-1.86Z"/><path class="m" d="M236.73,300.82h-2.15c-.98,0-1.77,.79-1.77,1.77v1.27h5.69v-1.27c0-.98-.79-1.77-1.77-1.77Z"/><path class="m" d="M236.68,296.69h-1.56c-.93,0-1.68,.75-1.68,1.68v1.36h4.91v-1.36c0-.93-.75-1.68-1.68-1.68Z"/></g><g class="l"><path class="m" d="M226.83,321.47h-3.12c-1.05,0-1.89,.85-1.89,1.89v1.14h6.91v-1.14c0-1.05-.85-1.89-1.89-1.89Z"/><path class="m" d="M227.33,317.34h-2.86c-1.03,0-1.86,.83-1.86,1.86v1.18h6.57v-1.18c0-1.03-.83-1.86-1.86-1.86Z"/><path class="m" d="M227.83,313.21h-2.6c-1.01,0-1.82,.82-1.82,1.82v1.22h6.24v-1.22c0-1.01-.82-1.82-1.82-1.82Z"/><path class="m" d="M228.34,309.08h-2.34c-.99,0-1.79,.8-1.79,1.79v1.25h5.91v-1.25c0-.99-.8-1.79-1.79-1.79Z"/><path class="m" d="M228.84,304.95h-2.08c-.97,0-1.75,.78-1.75,1.75v1.29h5.58v-1.29c0-.97-.78-1.75-1.75-1.75Z"/><path class="m" d="M229.34,300.82h-1.82c-.95,0-1.71,.77-1.71,1.71v1.32h5.25v-1.32c0-.95-.77-1.71-1.71-1.71Z"/><path class="m" d="M229.84,296.69h-1.56c-.93,0-1.68,.75-1.68,1.68v1.36h4.91v-1.36c0-.93-.75-1.68-1.68-1.68Z"/></g><g class="l"><path class="m" d="M218.81,321.47h-3.12c-1.05,0-1.89,.85-1.89,1.89v1.14h6.91v-1.14c0-1.05-.85-1.89-1.89-1.89Z"/><path class="m" d="M219.53,317.34h-2.66c-.99,0-1.8,.8-1.8,1.8v1.24h6.25v-1.24c0-.99-.8-1.8-1.8-1.8Z"/><path class="m" d="M220.26,313.21h-2.2c-.94,0-1.7,.76-1.7,1.7v1.34h5.6v-1.34c0-.94-.76-1.7-1.7-1.7Z"/><path class="m" d="M220.98,309.08h-1.74c-.88,0-1.6,.72-1.6,1.6v1.44h4.94v-1.44c0-.88-.72-1.6-1.6-1.6Z"/><path class="m" d="M221.71,304.95h-1.28c-.83,0-1.5,.67-1.5,1.5v1.53h4.29v-1.53c0-.83-.67-1.5-1.5-1.5Z"/><path class="m" d="M222.43,300.82h-.83c-.78,0-1.41,.63-1.41,1.41v1.63h3.64v-1.63c0-.78-.63-1.41-1.41-1.41Z"/><path class="m" d="M223.16,296.69h-.37c-.72,0-1.31,.59-1.31,1.31v1.73h2.98v-1.73c0-.72-.59-1.31-1.31-1.31Z"/></g><g class="l"><path class="m" d="M210.68,321.47h-3.12c-1.05,0-1.89,.85-1.89,1.89v1.14h6.91v-1.14c0-1.05-.85-1.89-1.89-1.89Z"/><path class="m" d="M212.08,317.34h-2.6c-.96,0-1.74,.78-1.74,1.74v1.3h6.07v-1.3c0-.96-.78-1.74-1.74-1.74Z"/><path class="m" d="M213.48,313.21h-2.08c-.87,0-1.58,.71-1.58,1.58v1.46h5.24v-1.46c0-.87-.71-1.58-1.58-1.58Z"/><path class="m" d="M214.88,309.08h-1.56c-.78,0-1.42,.64-1.42,1.42v1.62h4.4v-1.62c0-.78-.64-1.42-1.42-1.42Z"/><path class="m" d="M216.28,304.95h-1.04c-.7,0-1.26,.57-1.26,1.26v1.78h3.56v-1.78c0-.7-.57-1.26-1.26-1.26Z"/><path class="m" d="M217.68,300.82h-.52c-.61,0-1.1,.49-1.1,1.1v1.93h2.73v-1.93c0-.61-.49-1.1-1.1-1.1Z"/><path class="m" d="M219.08,296.69h0c-.52,0-.95,.42-.95,.95v2.09h1.89v-2.09c0-.52-.42-.95-.95-.95Z"/></g><g class="l"><g><path class="m" d="M200.24,397.97h-5.7c-1.36,0-2.47,1.11-2.47,2.47v.57h10.63v-.57c0-1.36-1.11-2.47-2.47-2.47Z"/><path class="m" d="M201.28,393.38h-5.43c-1.34,0-2.42,1.08-2.42,2.42v.62h10.27v-.62c0-1.34-1.08-2.42-2.42-2.42Z"/><path class="m" d="M202.32,388.8h-5.17c-1.31,0-2.37,1.06-2.37,2.37v.67h9.92v-.67c0-1.31-1.06-2.37-2.37-2.37Z"/><path class="m" d="M203.36,384.21h-4.91c-1.28,0-2.32,1.04-2.32,2.32v.71h9.56v-.71c0-1.28-1.04-2.32-2.32-2.32Z"/><path class="m" d="M204.4,379.62h-4.65c-1.26,0-2.28,1.02-2.28,2.28v.76h9.2v-.76c0-1.26-1.02-2.28-2.28-2.28Z"/><path class="m" d="M205.44,375.04h-4.39c-1.23,0-2.23,1-2.23,2.23v.81h8.84v-.81c0-1.23-1-2.23-2.23-2.23Z"/><path class="m" d="M206.48,370.45h-4.12c-1.2,0-2.18,.98-2.18,2.18v.86h8.48v-.86c0-1.2-.98-2.18-2.18-2.18Z"/><path class="m" d="M207.52,365.86h-3.86c-1.18,0-2.13,.95-2.13,2.13v.91h8.13v-.91c0-1.18-.95-2.13-2.13-2.13Z"/><path class="m" d="M208.56,361.28h-3.6c-1.15,0-2.08,.93-2.08,2.08v.95h7.77v-.95c0-1.15-.93-2.08-2.08-2.08Z"/><path class="m" d="M209.6,356.69h-3.34c-1.12,0-2.04,.91-2.04,2.04v1h7.41v-1c0-1.12-.91-2.04-2.04-2.04Z"/><path class="m" d="M210.64,352.1h-3.08c-1.1,0-1.99,.89-1.99,1.99v1.05h7.05v-1.05c0-1.1-.89-1.99-1.99-1.99Z"/><path class="m" d="M211.69,347.52h-2.82c-1.07,0-1.94,.87-1.94,1.94v1.1h6.69v-1.1c0-1.07-.87-1.94-1.94-1.94Z"/><path class="m" d="M212.73,342.93h-2.55c-1.04,0-1.89,.85-1.89,1.89v1.15h6.34v-1.15c0-1.04-.85-1.89-1.89-1.89Z"/><path class="m" d="M213.77,338.34h-2.29c-1.02,0-1.84,.83-1.84,1.84v1.19h5.98v-1.19c0-1.02-.83-1.84-1.84-1.84Z"/><path class="m" d="M214.81,333.76h-2.03c-.99,0-1.79,.8-1.79,1.79v1.24h5.62v-1.24c0-.99-.8-1.79-1.79-1.79Z"/></g><g><path class="m" d="M186.22,397.97h-5.7c-1.36,0-2.47,1.11-2.47,2.47v.57h10.63v-.57c0-1.36-1.11-2.47-2.47-2.47Z"/><path class="m" d="M187.82,393.38h-5.43c-1.34,0-2.42,1.08-2.42,2.42v.62h10.27v-.62c0-1.34-1.08-2.42-2.42-2.42Z"/><path class="m" d="M189.42,388.8h-5.17c-1.31,0-2.37,1.06-2.37,2.37v.67h9.92v-.67c0-1.31-1.06-2.37-2.37-2.37Z"/><path class="m" d="M191.01,384.21h-4.91c-1.28,0-2.32,1.04-2.32,2.32v.71h9.56v-.71c0-1.28-1.04-2.32-2.32-2.32Z"/><path class="m" d="M192.61,379.62h-4.65c-1.26,0-2.28,1.02-2.28,2.28v.76h9.2v-.76c0-1.26-1.02-2.28-2.28-2.28Z"/><path class="m" d="M194.21,375.04h-4.39c-1.23,0-2.23,1-2.23,2.23v.81h8.84v-.81c0-1.23-1-2.23-2.23-2.23Z"/><path class="m" d="M195.81,370.45h-4.12c-1.2,0-2.18,.98-2.18,2.18v.86h8.48v-.86c0-1.2-.98-2.18-2.18-2.18Z"/><path class="m" d="M197.4,365.86h-3.86c-1.18,0-2.13,.95-2.13,2.13v.91h8.13v-.91c0-1.18-.95-2.13-2.13-2.13Z"/><path class="m" d="M199,361.28h-3.6c-1.15,0-2.08,.93-2.08,2.08v.95h7.77v-.95c0-1.15-.93-2.08-2.08-2.08Z"/><path class="m" d="M200.6,356.69h-3.34c-1.12,0-2.04,.91-2.04,2.04v1h7.41v-1c0-1.12-.91-2.04-2.04-2.04Z"/><path class="m" d="M202.19,352.1h-3.08c-1.1,0-1.99,.89-1.99,1.99v1.05h7.05v-1.05c0-1.1-.89-1.99-1.99-1.99Z"/><path class="m" d="M203.79,347.52h-2.82c-1.07,0-1.94,.87-1.94,1.94v1.1h6.69v-1.1c0-1.07-.87-1.94-1.94-1.94Z"/><path class="m" d="M205.39,342.93h-2.55c-1.04,0-1.89,.85-1.89,1.89v1.15h6.34v-1.15c0-1.04-.85-1.89-1.89-1.89Z"/><path class="m" d="M206.98,338.34h-2.29c-1.02,0-1.84,.83-1.84,1.84v1.19h5.98v-1.19c0-1.02-.83-1.84-1.84-1.84Z"/><path class="m" d="M208.58,333.76h-2.03c-.99,0-1.79,.8-1.79,1.79v1.24h5.62v-1.24c0-.99-.8-1.79-1.79-1.79Z"/></g><g><path class="m" d="M174,397.97h-3.42c-1.15,0-2.09,.93-2.09,2.09v.95h7.59v-.95c0-1.15-.93-2.09-2.09-2.09Z"/><path class="m" d="M176.01,393.38h-3.26c-1.13,0-2.05,.92-2.05,2.05v.99h7.36v-.99c0-1.13-.92-2.05-2.05-2.05Z"/><path class="m" d="M178.03,388.8h-3.1c-1.11,0-2.01,.9-2.01,2.01v1.03h7.12v-1.03c0-1.11-.9-2.01-2.01-2.01Z"/><path class="m" d="M180.05,384.21h-2.94c-1.09,0-1.98,.88-1.98,1.98v1.06h6.89v-1.06c0-1.09-.88-1.98-1.98-1.98Z"/><path class="m" d="M182.06,379.62h-2.77c-1.07,0-1.94,.87-1.94,1.94v1.1h6.65v-1.1c0-1.07-.87-1.94-1.94-1.94Z"/><path class="m" d="M184.08,375.04h-2.61c-1.05,0-1.9,.85-1.9,1.9v1.14h6.42v-1.14c0-1.05-.85-1.9-1.9-1.9Z"/><path class="m" d="M186.1,370.45h-2.45c-1.03,0-1.86,.83-1.86,1.86v1.17h6.18v-1.17c0-1.03-.83-1.86-1.86-1.86Z"/><path class="m" d="M188.11,365.86h-2.29c-1.01,0-1.83,.82-1.83,1.83v1.21h5.94v-1.21c0-1.01-.82-1.83-1.83-1.83Z"/><path class="m" d="M190.13,361.28h-2.13c-.99,0-1.79,.8-1.79,1.79v1.25h5.71v-1.25c0-.99-.8-1.79-1.79-1.79Z"/><path class="m" d="M192.15,356.69h-1.96c-.97,0-1.75,.79-1.75,1.75v1.28h5.47v-1.28c0-.97-.79-1.75-1.75-1.75Z"/><path class="m" d="M194.16,352.1h-1.8c-.95,0-1.72,.77-1.72,1.72v1.32h5.24v-1.32c0-.95-.77-1.72-1.72-1.72Z"/><path class="m" d="M196.18,347.52h-1.64c-.93,0-1.68,.75-1.68,1.68v1.36h5v-1.36c0-.93-.75-1.68-1.68-1.68Z"/><path class="m" d="M198.2,342.93h-1.48c-.91,0-1.64,.74-1.64,1.64v1.4h4.76v-1.4c0-.91-.74-1.64-1.64-1.64Z"/><path class="m" d="M200.21,338.34h-1.32c-.89,0-1.61,.72-1.61,1.61v1.43h4.53v-1.43c0-.89-.72-1.61-1.61-1.61Z"/><path class="m" d="M202.23,333.76h-1.15c-.87,0-1.57,.7-1.57,1.57v1.47h4.29v-1.47c0-.87-.7-1.57-1.57-1.57Z"/></g><g><path class="m" d="M215.77,397.97h-7.83c-1.53,0-2.77,1.24-2.77,2.77v.27h13.37v-.27c0-1.53-1.24-2.77-2.77-2.77Z"/><path class="m" d="M216.36,393.38h-7.58c-1.51,0-2.73,1.22-2.73,2.73v.31h13.04v-.31c0-1.51-1.22-2.73-2.73-2.73Z"/><path class="m" d="M216.94,388.8h-7.33c-1.49,0-2.69,1.21-2.69,2.69v.34h12.71v-.34c0-1.49-1.21-2.69-2.69-2.69Z"/><path class="m" d="M217.53,384.21h-7.07c-1.47,0-2.66,1.19-2.66,2.66v.38h12.38v-.38c0-1.47-1.19-2.66-2.66-2.66Z"/><path class="m" d="M218.11,379.62h-6.82c-1.45,0-2.62,1.17-2.62,2.62v.42h12.06v-.42c0-1.45-1.17-2.62-2.62-2.62Z"/><path class="m" d="M218.7,375.04h-6.57c-1.43,0-2.58,1.16-2.58,2.58v.46h11.73v-.46c0-1.43-1.16-2.58-2.58-2.58Z"/><path class="m" d="M219.28,370.45h-6.32c-1.4,0-2.54,1.14-2.54,2.54v.49h11.4v-.49c0-1.4-1.14-2.54-2.54-2.54Z"/><path class="m" d="M219.87,365.86h-6.06c-1.38,0-2.51,1.12-2.51,2.51v.53h11.07v-.53c0-1.38-1.12-2.51-2.51-2.51Z"/><path class="m" d="M220.45,361.28h-5.81c-1.36,0-2.47,1.11-2.47,2.47v.57h10.75v-.57c0-1.36-1.11-2.47-2.47-2.47Z"/><path class="m" d="M221.04,356.69h-5.56c-1.34,0-2.43,1.09-2.43,2.43v.61h10.42v-.61c0-1.34-1.09-2.43-2.43-2.43Z"/><path class="m" d="M221.62,352.1h-5.31c-1.32,0-2.39,1.07-2.39,2.39v.64h10.09v-.64c0-1.32-1.07-2.39-2.39-2.39Z"/><path class="m" d="M222.21,347.52h-5.05c-1.3,0-2.36,1.05-2.36,2.36v.68h9.76v-.68c0-1.3-1.05-2.36-2.36-2.36Z"/><path class="m" d="M222.8,342.93h-4.8c-1.28,0-2.32,1.04-2.32,2.32v.72h9.44v-.72c0-1.28-1.04-2.32-2.32-2.32Z"/><path class="m" d="M223.38,338.34h-4.55c-1.26,0-2.28,1.02-2.28,2.28v.76h9.11v-.76c0-1.26-1.02-2.28-2.28-2.28Z"/><path class="m" d="M223.97,333.76h-4.29c-1.24,0-2.24,1-2.24,2.24v.79h8.78v-.79c0-1.24-1-2.24-2.24-2.24Z"/></g><g><path class="m" d="M237.34,397.97h-11.7c-1.68,0-3.04,1.36-3.04,3.04h17.77c0-1.68-1.36-3.04-3.04-3.04Z"/><path class="m" d="M237.32,393.38h-11.24c-1.65,0-2.99,1.34-2.99,2.99v.04h17.23v-.04c0-1.65-1.34-2.99-2.99-2.99Z"/><path class="m" d="M237.3,388.8h-10.79c-1.63,0-2.95,1.32-2.95,2.95v.09h16.69v-.09c0-1.63-1.32-2.95-2.95-2.95Z"/><path class="m" d="M237.27,384.21h-10.34c-1.6,0-2.91,1.3-2.91,2.91v.13h16.15v-.13c0-1.6-1.3-2.91-2.91-2.91Z"/><path class="m" d="M237.25,379.62h-9.89c-1.58,0-2.86,1.28-2.86,2.86v.18h15.61v-.18c0-1.58-1.28-2.86-2.86-2.86Z"/><path class="m" d="M237.23,375.04h-9.44c-1.56,0-2.82,1.26-2.82,2.82v.22h15.07v-.22c0-1.56-1.26-2.82-2.82-2.82Z"/><path class="m" d="M237.21,370.45h-8.99c-1.53,0-2.77,1.24-2.77,2.77v.27h14.53v-.27c0-1.53-1.24-2.77-2.77-2.77Z"/><path class="m" d="M237.19,365.86h-8.53c-1.51,0-2.73,1.22-2.73,2.73v.31h13.99v-.31c0-1.51-1.22-2.73-2.73-2.73Z"/><path class="m" d="M237.17,361.28h-8.08c-1.48,0-2.68,1.2-2.68,2.68v.35h13.45v-.35c0-1.48-1.2-2.68-2.68-2.68Z"/><path class="m" d="M237.15,356.69h-7.63c-1.46,0-2.64,1.18-2.64,2.64v.4h12.91v-.4c0-1.46-1.18-2.64-2.64-2.64Z"/><path class="m" d="M237.13,352.1h-7.18c-1.43,0-2.6,1.16-2.6,2.6v.44h12.37v-.44c0-1.43-1.16-2.6-2.6-2.6Z"/><path class="m" d="M237.11,347.52h-6.73c-1.41,0-2.55,1.14-2.55,2.55v.49h11.83v-.49c0-1.41-1.14-2.55-2.55-2.55Z"/><path class="m" d="M237.09,342.93h-6.28c-1.39,0-2.51,1.12-2.51,2.51v.53h11.29v-.53c0-1.39-1.12-2.51-2.51-2.51Z"/><path class="m" d="M237.07,338.34h-5.82c-1.36,0-2.46,1.1-2.46,2.46v.57h10.75v-.57c0-1.36-1.1-2.46-2.46-2.46Z"/><path class="m" d="M237.04,333.76h-5.37c-1.34,0-2.42,1.08-2.42,2.42v.62h10.21v-.62c0-1.34-1.08-2.42-2.42-2.42Z"/></g><g><path class="m" d="M258.81,397.97h-11.7c-1.68,0-3.04,1.36-3.04,3.04h17.77c0-1.68-1.36-3.04-3.04-3.04Z"/><path class="m" d="M258.1,393.38h-11.24c-1.65,0-2.99,1.34-2.99,2.99v.04h17.23v-.04c0-1.65-1.34-2.99-2.99-2.99Z"/><path class="m" d="M257.39,388.8h-10.79c-1.63,0-2.95,1.32-2.95,2.95v.09h16.69v-.09c0-1.63-1.32-2.95-2.95-2.95Z"/><path class="m" d="M256.68,384.21h-10.34c-1.6,0-2.91,1.3-2.91,2.91v.13h16.15v-.13c0-1.6-1.3-2.91-2.91-2.91Z"/><path class="m" d="M255.97,379.62h-9.89c-1.58,0-2.86,1.28-2.86,2.86v.18h15.61v-.18c0-1.58-1.28-2.86-2.86-2.86Z"/><path class="m" d="M255.26,375.04h-9.44c-1.56,0-2.82,1.26-2.82,2.82v.22h15.07v-.22c0-1.56-1.26-2.82-2.82-2.82Z"/><path class="m" d="M254.55,370.45h-8.99c-1.53,0-2.77,1.24-2.77,2.77v.27h14.53v-.27c0-1.53-1.24-2.77-2.77-2.77Z"/><path class="m" d="M253.84,365.86h-8.53c-1.51,0-2.73,1.22-2.73,2.73v.31h13.99v-.31c0-1.51-1.22-2.73-2.73-2.73Z"/><path class="m" d="M253.13,361.28h-8.08c-1.48,0-2.68,1.2-2.68,2.68v.35h13.45v-.35c0-1.48-1.2-2.68-2.68-2.68Z"/><path class="m" d="M252.42,356.69h-7.63c-1.46,0-2.64,1.18-2.64,2.64v.4h12.91v-.4c0-1.46-1.18-2.64-2.64-2.64Z"/><path class="m" d="M251.71,352.1h-7.18c-1.43,0-2.6,1.16-2.6,2.6v.44h12.37v-.44c0-1.43-1.16-2.6-2.6-2.6Z"/><path class="m" d="M251,347.52h-6.73c-1.41,0-2.55,1.14-2.55,2.55v.49h11.83v-.49c0-1.41-1.14-2.55-2.55-2.55Z"/><path class="m" d="M250.29,342.93h-6.28c-1.39,0-2.51,1.12-2.51,2.51v.53h11.29v-.53c0-1.39-1.12-2.51-2.51-2.51Z"/><path class="m" d="M249.58,338.34h-5.82c-1.36,0-2.46,1.1-2.46,2.46v.57h10.75v-.57c0-1.36-1.1-2.46-2.46-2.46Z"/><path class="m" d="M248.87,333.76h-5.37c-1.34,0-2.42,1.08-2.42,2.42v.62h10.21v-.62c0-1.34-1.08-2.42-2.42-2.42Z"/></g><g><path class="m" d="M278.52,397.97h-11.7c-1.68,0-3.04,1.36-3.04,3.04h17.77c0-1.68-1.36-3.04-3.04-3.04Z"/><path class="m" d="M277.32,393.38h-11.15c-1.65,0-2.98,1.33-2.98,2.98v.06h17.11v-.06c0-1.65-1.33-2.98-2.98-2.98Z"/><path class="m" d="M276.12,388.8h-10.61c-1.61,0-2.92,1.31-2.92,2.92v.12h16.45v-.12c0-1.61-1.31-2.92-2.92-2.92Z"/><path class="m" d="M274.93,384.21h-10.07c-1.58,0-2.86,1.28-2.86,2.86v.18h15.79v-.18c0-1.58-1.28-2.86-2.86-2.86Z"/><path class="m" d="M273.73,379.62h-9.53c-1.55,0-2.8,1.25-2.8,2.8v.24h15.14v-.24c0-1.55-1.25-2.8-2.8-2.8Z"/><path class="m" d="M272.53,375.04h-8.99c-1.52,0-2.74,1.23-2.74,2.74v.29h14.48v-.29c0-1.52-1.23-2.74-2.74-2.74Z"/><path class="m" d="M271.33,370.45h-8.45c-1.48,0-2.68,1.2-2.68,2.68v.35h13.82v-.35c0-1.48-1.2-2.68-2.68-2.68Z"/><path class="m" d="M270.13,365.86h-7.91c-1.45,0-2.63,1.18-2.63,2.63v.41h13.16v-.41c0-1.45-1.18-2.63-2.63-2.63Z"/><path class="m" d="M268.93,361.28h-7.37c-1.42,0-2.57,1.15-2.57,2.57v.47h12.5v-.47c0-1.42-1.15-2.57-2.57-2.57Z"/><path class="m" d="M267.74,356.69h-6.82c-1.38,0-2.51,1.12-2.51,2.51v.53h11.84v-.53c0-1.38-1.12-2.51-2.51-2.51Z"/><path class="m" d="M266.54,352.1h-6.28c-1.35,0-2.45,1.1-2.45,2.45v.59h11.18v-.59c0-1.35-1.1-2.45-2.45-2.45Z"/><path class="m" d="M265.34,347.52h-5.74c-1.32,0-2.39,1.07-2.39,2.39v.65h10.52v-.65c0-1.32-1.07-2.39-2.39-2.39Z"/><path class="m" d="M264.14,342.93h-5.2c-1.29,0-2.33,1.04-2.33,2.33v.71h9.86v-.71c0-1.29-1.04-2.33-2.33-2.33Z"/><path class="m" d="M262.94,338.34h-4.66c-1.25,0-2.27,1.02-2.27,2.27v.77h9.2v-.77c0-1.25-1.02-2.27-2.27-2.27Z"/><path class="m" d="M261.74,333.76h-4.12c-1.22,0-2.21,.99-2.21,2.21v.82h8.54v-.82c0-1.22-.99-2.21-2.21-2.21Z"/></g><g><path class="m" d="M297.49,397.97h-11.7c-1.68,0-3.04,1.36-3.04,3.04h17.77c0-1.68-1.36-3.04-3.04-3.04Z"/><path class="m" d="M295.78,393.38h-11.15c-1.65,0-2.98,1.33-2.98,2.98v.06h17.11v-.06c0-1.65-1.33-2.98-2.98-2.98Z"/><path class="m" d="M294.07,388.8h-10.61c-1.61,0-2.92,1.31-2.92,2.92v.12h16.45v-.12c0-1.61-1.31-2.92-2.92-2.92Z"/><path class="m" d="M292.36,384.21h-10.07c-1.58,0-2.86,1.28-2.86,2.86v.18h15.79v-.18c0-1.58-1.28-2.86-2.86-2.86Z"/><path class="m" d="M290.66,379.62h-9.53c-1.55,0-2.8,1.25-2.8,2.8v.24h15.14v-.24c0-1.55-1.25-2.8-2.8-2.8Z"/><path class="m" d="M288.95,375.04h-8.99c-1.52,0-2.74,1.23-2.74,2.74v.29h14.48v-.29c0-1.52-1.23-2.74-2.74-2.74Z"/><path class="m" d="M287.24,370.45h-8.45c-1.48,0-2.68,1.2-2.68,2.68v.35h13.82v-.35c0-1.48-1.2-2.68-2.68-2.68Z"/><path class="m" d="M285.53,365.86h-7.91c-1.45,0-2.63,1.18-2.63,2.63v.41h13.16v-.41c0-1.45-1.18-2.63-2.63-2.63Z"/><path class="m" d="M283.82,361.28h-7.37c-1.42,0-2.57,1.15-2.57,2.57v.47h12.5v-.47c0-1.42-1.15-2.57-2.57-2.57Z"/><path class="m" d="M282.12,356.69h-6.82c-1.38,0-2.51,1.12-2.51,2.51v.53h11.84v-.53c0-1.38-1.12-2.51-2.51-2.51Z"/><path class="m" d="M280.41,352.1h-6.28c-1.35,0-2.45,1.1-2.45,2.45v.59h11.18v-.59c0-1.35-1.1-2.45-2.45-2.45Z"/><path class="m" d="M278.7,347.52h-5.74c-1.32,0-2.39,1.07-2.39,2.39v.65h10.52v-.65c0-1.32-1.07-2.39-2.39-2.39Z"/><path class="m" d="M276.99,342.93h-5.2c-1.29,0-2.33,1.04-2.33,2.33v.71h9.86v-.71c0-1.29-1.04-2.33-2.33-2.33Z"/><path class="m" d="M275.28,338.34h-4.66c-1.25,0-2.27,1.02-2.27,2.27v.77h9.2v-.77c0-1.25-1.02-2.27-2.27-2.27Z"/><path class="m" d="M273.57,333.76h-4.12c-1.22,0-2.21,.99-2.21,2.21v.82h8.54v-.82c0-1.22-.99-2.21-2.21-2.21Z"/></g><g><path class="m" d="M311.23,397.97h-5.99c-1.3,0-2.36,1.06-2.36,2.36v.68h10.71v-.68c0-1.3-1.06-2.36-2.36-2.36Z"/><path class="m" d="M309.08,393.38h-5.69c-1.28,0-2.31,1.04-2.31,2.31v.72h10.32v-.72c0-1.28-1.04-2.31-2.31-2.31Z"/><path class="m" d="M306.92,388.8h-5.4c-1.25,0-2.27,1.02-2.27,2.27v.77h9.94v-.77c0-1.25-1.02-2.27-2.27-2.27Z"/><path class="m" d="M304.76,384.21h-5.1c-1.23,0-2.23,1-2.23,2.23v.81h9.55v-.81c0-1.23-1-2.23-2.23-2.23Z"/><path class="m" d="M302.6,379.62h-4.8c-1.21,0-2.18,.98-2.18,2.18v.85h9.17v-.85c0-1.21-.98-2.18-2.18-2.18Z"/><path class="m" d="M300.45,375.04h-4.5c-1.18,0-2.14,.96-2.14,2.14v.9h8.78v-.9c0-1.18-.96-2.14-2.14-2.14Z"/><path class="m" d="M298.29,370.45h-4.21c-1.16,0-2.1,.94-2.1,2.1v.94h8.4v-.94c0-1.16-.94-2.1-2.1-2.1Z"/><path class="m" d="M296.13,365.86h-3.91c-1.13,0-2.05,.92-2.05,2.05v.99h8.01v-.99c0-1.13-.92-2.05-2.05-2.05Z"/><path class="m" d="M293.97,361.28h-3.61c-1.11,0-2.01,.9-2.01,2.01v1.03h7.63v-1.03c0-1.11-.9-2.01-2.01-2.01Z"/><path class="m" d="M291.82,356.69h-3.31c-1.08,0-1.96,.88-1.96,1.96v1.07h7.24v-1.07c0-1.08-.88-1.96-1.96-1.96Z"/><path class="m" d="M289.66,352.1h-3.02c-1.06,0-1.92,.86-1.92,1.92v1.12h6.86v-1.12c0-1.06-.86-1.92-1.92-1.92Z"/><path class="m" d="M287.5,347.52h-2.72c-1.04,0-1.88,.84-1.88,1.88v1.16h6.47v-1.16c0-1.04-.84-1.88-1.88-1.88Z"/><path class="m" d="M285.34,342.93h-2.42c-1.01,0-1.83,.82-1.83,1.83v1.2h6.09v-1.2c0-1.01-.82-1.83-1.83-1.83Z"/><path class="m" d="M283.19,338.34h-2.12c-.99,0-1.79,.8-1.79,1.79v1.25h5.7v-1.25c0-.99-.8-1.79-1.79-1.79Z"/><path class="m" d="M281.03,333.76h-1.83c-.96,0-1.75,.78-1.75,1.75v1.29h5.32v-1.29c0-.96-.78-1.75-1.75-1.75Z"/></g></g></g><g class="t"><path class="h" d="M260.46,0h-18.84V53.02s2.47,1.53,0,4v16s2.53,1.57,0,4.1v12.96s2.38,1.62,0,4v7.57s2.29,1.71,0,4l-4.08-.12s1.62,12.7-3.06,19.73c0,0,3.16,8.11-2.42,12.54h6.98l21.18-29.15L260.46,0Z"/><path class="h" d="M271.51,213.64l-30.58-3.19,.52,3.19s4.61,4.39,0,9l-.06,1.82s1.68,15.25,0,19.19v3.01s3.41,4.11,0,7.52l1.51,5v2.65s1.23,.55,0,3.25v22.58s2.58,4.26,0,8l7.98,104.07s4.94,3.49,.68,7.75c0,0-.68,13.59-30.23,17.62,0,0,6.35,9.28,0,16.57,.51,.2,4.15,1.72,5.53,5.84,1.4,4.18-.68,7.63-.97,8.09,14.3,.27,28.61,.53,42.91,.8h0l13.52-27.49,42-23.01-54.69-115.28-7.3-66.13,9.19-10.82Z"/></g></g></g><g id="e"><polyline class="p" points="278.64 213.64 282.77 213.64 282.77 7.63 278.64 7.63"/><g><line class="p" x1="47.16" y1="213.19" x2="47.16" y2="8.83"/><path class="i" d="M51.96,15.67c-.23,.15-.54,.08-.69-.15l-4.11-6.45-4.11,6.45c-.15,.23-.46,.3-.69,.15-.23-.15-.3-.46-.15-.69l4.53-7.11c.09-.14,.25-.23,.42-.23s.33,.09,.42,.23l4.53,7.11c.05,.08,.08,.18,.08,.27,0,.17-.08,.33-.23,.42Z"/></g><g><line class="p" x1="47.16" y1="455.41" x2="47.16" y2="248.57"/><path class="i" d="M51.96,448.57c-.23-.15-.54-.08-.69,.15l-4.11,6.45-4.11-6.45c-.15-.23-.46-.3-.69-.15s-.3,.46-.15,.69l4.53,7.11c.09,.14,.25,.23,.42,.23s.33-.09,.42-.23l4.53-7.11c.05-.08,.08-.18,.08-.27,0-.17-.08-.33-.23-.42Z"/></g><polyline class="p" points="278.64 218.81 282.77 218.81 282.77 250.47 278.64 250.47"/><polyline class="p" points="278.64 256.69 282.77 256.69 282.77 289.46 278.64 289.46"/><polyline class="p" points="333.17 406.35 337.31 406.35 337.31 455.58 333.17 455.58"/><polyline class="p" points="278.64 294.21 282.77 294.21 337.31 401.47 333.17 401.47"/><text class="j" transform="translate(346.49 107.12)"><tspan x="0" y="0">Torre de </tspan><tspan x="0" y="18">salvamento</tspan></text><text class="j" transform="translate(28.1 235.67)"><tspan x="0" y="0">7,9 m</tspan></text><line class="p" x1="94.33" y1="456.61" x2="94.33" y2="353.38"/><text class="j" transform="translate(346.49 237.62)"><tspan x="0" y="0">Seccin de la antena</tspan></text><text class="j" transform="translate(346.49 277.95)"><tspan x="0" y="0">Compartimento de rescate</tspan></text><text class="j" transform="translate(369.43 334.77)"><tspan x="0" y="0">Compartimento presurizado </tspan><tspan x="0" y="18">para la tripulacin</tspan></text><text class="j" transform="translate(99.09 339.91)"><tspan x="0" y="0">1,8 m</tspan></text><text class="j" transform="translate(369.43 428.69)"><tspan x="0" y="0">Retrocohetes y escudo de </tspan><tspan x="0" y="18">proteccin trmica</tspan></text><line class="p" x1="282.77" y1="111.65" x2="328.65" y2="111.65"/><line class="p" x1="282.77" y1="234.64" x2="328.65" y2="234.64"/><line class="p" x1="282.77" y1="273.08" x2="328.65" y2="273.08"/><line class="p" x1="305.71" y1="339.8" x2="351.59" y2="339.8"/><line class="p" x1="337.31" y1="430.97" x2="351.59" y2="430.97"/><g><line class="p" x1="228.95" y1="6.38" x2="224.95" y2="6.38"/><line class="r" x1="217.2" y1="6.38" x2="66.01" y2="6.38"/><line class="p" x1="62.14" y1="6.38" x2="58.14" y2="6.38"/></g><g><line class="p" x1="228.95" y1="456.61" x2="224.95" y2="456.61"/><line class="r" x1="217.2" y1="456.61" x2="66.01" y2="456.61"/><line class="p" x1="62.14" y1="456.61" x2="58.14" y2="456.61"/></g><g><line class="p" x1="121.89" y1="353.38" x2="117.89" y2="353.38"/><line class="o" x1="111.37" y1="353.38" x2="101.59" y2="353.38"/><line class="p" x1="98.33" y1="353.38" x2="94.33" y2="353.38"/></g></g><g id="f"><path class="s" d="M121.96,406.88c-.48,.23-.3,.63-.32,.94-.08,1.37-.31,2.69-.85,3.95-.4,.93-.47,1.93-.49,2.93-.04,2.48-.26,4.94-.57,7.39-.16,1.21-.51,2.35-1,3.46-.48,1.08-.58,2.14-.24,3.31,.58,2.01,.6,4.1,.26,6.14-.48,2.86-.69,5.72-.52,8.62,.04,.66,.12,1.3,.45,1.89,.39,.7,.48,1.42,.21,2.18-.22,.63-.19,1.26-.09,1.93,.18,1.26,.26,2.53-.01,3.8-.12,.55-.39,.86-.99,.72-.72-.18-1.44-.1-2.16-.06-.73,.04-1.29-.37-1.94-.54-.36-.09-.39-.46-.32-.78,.11-.5,.18-1.04,.4-1.49,.72-1.51,.83-3.17,1.29-4.75,.27-.93-.05-1.92-.18-2.87-.35-2.49-.78-4.96-1.86-7.26-.46-.98-.53-2.06-.58-3.13-.12-3.14,.05-6.26,.68-9.34,.24-1.16,.16-2.33,.11-3.5-.13-2.75-.21-5.5-.45-8.24-.42-4.71,.14-9.34,.8-13.99,.28-2,.69-3.98,1.03-5.96,.35-2.01,.5-4-.24-6-.35-.95-.37-2.02-.35-3.06,0-.35,.1-.74-.17-1.17-.4,.81-.52,1.57-.6,2.35-.12,1.16,.07,2.4-.39,3.47-.88,2.03-.6,4.09-.47,6.16,.1,1.66-.06,3.29-.45,4.91-.4,1.64-.75,3.28-1.12,4.93-.12,.52,.1,.95,.41,1.33,.44,.55,.65,1.14,.46,1.84-.22,.81-.11,1.63-.05,2.45,.02,.27,.04,.61-.28,.7-.37,.11-.52-.23-.68-.5-.29-.51-.25-1.24-1-1.53-.5,.57-.31,1.08,.08,1.55,.35,.43,.78,.77,1.27,1.03,.34,.18,.58,.47,.79,.75,.06,.32-.33,.22-.38,.54,.44,.44,.66,1.02,.19,1.79-.89-.02-1.75-.46-2.33-1.22-1.07-1.39-1.94-2.84-1.63-4.8,.75-4.63,.17-9.27-.08-13.9-.07-1.37-.18-2.72,.2-4.09,.24-.87,.27-1.81,.16-2.75-.31-2.64-.3-5.29,.23-7.9,.21-1.05,.27-2.09,.42-3.14,.47-3.28,2.29-5.02,5.57-5.34,1.44-.14,2.69-.77,3.93-1.44,.22-.12,.43-.29,.47-.52,.23-1.25,.46-2.52-.17-3.72-.26-.49-.48-.99-.58-1.53-.03-.16-.01-.33-.13-.48-.86-1.11-.97-2-.39-3.19,.12-.25,.04-.47,.02-.7-.08-.89-.1-1.78,.09-2.67,.26-1.26,.97-2.09,2.17-2.54,1.62-.61,3.24-.6,4.83,.06,1.22,.5,1.91,1.44,2.05,2.75,.06,.61,.02,1.24,.05,1.85,.03,.55,0,1.04,.3,1.62,.37,.71,.26,1.81-.26,2.46-.42,.52-.52,1.06-.76,1.59-.17,.38-.19,.8-.57,1.16-.42,.4-.08,1.11-.18,1.67-.26,1.52,.46,2.31,1.84,2.81,1.2,.44,2.39,.82,3.66,1,2.41,.35,3.84,1.8,4.46,4.12,.2,.77,.34,1.54,.37,2.34,.03,.93,.21,1.83,.4,2.74,.47,2.24,.36,4.52,.13,6.78-.1,.96-.17,1.9,.09,2.84,.53,1.9,.22,3.83,.17,5.74-.05,1.82-.19,3.64-.34,5.46-.19,2.25,.08,4.47,.36,6.69,.23,1.88-.25,3.47-1.48,4.89-.63,.73-1.43,1.14-2.34,1.4-.46-.68-.51-1.26,.12-1.73,.08-.39-.35-.45-.38-.8,.74-.9,2.43-1.11,2.28-2.85-1.32-.09-.84,1.62-1.85,1.75-.06-.03-.17-.06-.17-.09-.08-1.29-.17-2.59-.22-3.88,0-.22,.09-.51,.24-.67,.87-.92,.63-1.96,.38-3.01-.38-1.57-.76-3.14-1.1-4.72-.38-1.81-.23-3.63-.1-5.45,.08-1.14,.08-2.24-.33-3.35-.4-1.1-.55-2.27-.57-3.45-.02-1.2-.25-2.37-.67-3.75-.29,.59-.2,.99-.21,1.36,0,1.41-.29,2.77-.64,4.14-.45,1.75-.23,3.56,.11,5.32,.85,4.32,1.5,8.67,1.79,13.07,.27,3.99-.22,7.95-.37,11.93-.08,2.21-.52,4.48,.13,6.64,.54,1.82,.36,3.67,.58,5.5,.22,1.84,.07,3.71-.18,5.55-.09,.65-.31,1.3-.62,1.88-.68,1.3-1,2.7-1.22,4.12-.12,.77-.3,1.53-.44,2.29-.44,2.46,.12,4.76,.9,7.03,.24,.68,.45,1.37,.58,2.08,.09,.53-.09,.85-.65,.96-.68,.13-1.36,.18-2.05,.18-.48,0-.93,0-1.41,.2-.71,.28-1.11,.02-1.27-.73-.2-.95-.19-1.91-.08-2.88,.12-1.06,.25-2.11-.1-3.17-.22-.66,.04-1.29,.33-1.89,.21-.44,.39-.88,.41-1.37,.07-2.65,.2-5.28-.33-7.92-.52-2.58-.56-5.19,.21-7.76,.2-.66,.2-1.31-.08-1.92-1.51-3.31-1.71-6.85-1.8-10.4-.05-2.19-.39-4.28-1.3-6.3-.26-.58-.07-1.35-.11-2.03-.02-.25,.13-.55-.21-.8Z"/></g></g></g></svg>