<svg id="FondoQUITAR" xmlns="http://www.w3.org/2000/svg" viewBox="0 0 1576 2859"><defs><style>.cls-1,.cls-13,.cls-15,.cls-17{font-size:36px;}.cls-1,.cls-8{fill:#f77f00;}.cls-1,.cls-13,.cls-14,.cls-15,.cls-16,.cls-17,.cls-2,.cls-4{font-family:Poppins;font-weight:700;}.cls-2,.cls-4{font-size:24px;}.cls-2,.cls-5{fill:#fcbf49;}.cls-11,.cls-12,.cls-3,.cls-6{fill:none;stroke-miterlimit:10;}.cls-3,.cls-6{stroke:#fcbf49;}.cls-3{stroke-width:6px;}.cls-15,.cls-16,.cls-4,.cls-7{fill:#eae2b7;}.cls-11,.cls-12,.cls-6{stroke-width:10px;}.cls-13,.cls-9{fill:#d62828;}.cls-10,.cls-17{fill:#003049;}.cls-11{stroke:#00663c;}.cls-12{stroke:#d62828;}.cls-14{font-size:60px;fill:#fff;}.cls-16{font-size:30px;}</style></defs><title>misiones</title><text class="cls-1" transform="translate(972.44 999)">MERCURY REDSTONE BD</text><text class="cls-2" transform="translate(1125 1039)">24 de Marzo</text><polygon class="cls-3" points="1052.18 1033 795 1033 795 1033 1052.18 1033 1052.18 1033"/><text class="cls-4" transform="translate(993.93 1083)">Vuelo de prueba sin tripulación</text><rect class="cls-5" x="787.85" y="139.65" width="10.02" height="2620.35"/><polygon class="cls-6" points="811.48 149.37 793.12 139.65 774.7 149.28 778.26 128.8 763.42 114.26 783.99 111.32 793.23 92.71 802.38 111.37 822.94 114.41 808.02 128.88 811.48 149.37"/><rect class="cls-7" x="672" y="218" width="246" height="74" rx="12" ry="12"/><rect class="cls-8" x="671.18" y="717" width="246" height="74" rx="12" ry="12"/><rect class="cls-9" x="671.18" y="1707" width="246" height="74" rx="12" ry="12"/><rect class="cls-10" x="668" y="2366" width="246" height="74" rx="12" ry="12"/><polygon class="cls-3" points="795.18 898 538 898 538 898 795.18 898 795.18 898"/><polygon class="cls-11" points="1513.48 109.37 1495.12 99.65 1476.7 109.28 1480.26 88.8 1465.42 74.26 1485.99 71.32 1495.23 52.71 1504.38 71.37 1524.94 74.41 1510.02 88.88 1513.48 109.37"/><polygon class="cls-12" points="1513.48 221.37 1495.12 211.65 1476.7 221.28 1480.26 200.8 1465.42 186.26 1485.99 183.32 1495.23 164.71 1504.38 183.37 1524.94 186.41 1510.02 200.88 1513.48 221.37"/><polygon class="cls-12" points="128.48 390.37 110.11 380.65 91.7 390.27 95.26 369.8 80.42 355.26 100.99 352.32 110.23 333.71 119.38 352.37 139.94 355.41 125.02 369.88 128.48 390.37"/><polygon class="cls-11" points="1496.48 541.37 1478.12 531.65 1459.7 541.27 1463.26 520.8 1448.42 506.26 1468.99 503.32 1478.23 484.71 1487.38 503.37 1507.94 506.41 1493.02 520.88 1496.48 541.37"/><polygon class="cls-11" points="1496.48 999.37 1478.12 989.65 1459.7 999.27 1463.26 978.8 1448.42 964.26 1468.99 961.32 1478.23 942.71 1487.38 961.37 1507.94 964.41 1493.02 978.88 1496.48 999.37"/><polygon class="cls-11" points="128.48 864.37 110.11 854.65 91.7 864.27 95.26 843.8 80.42 829.26 100.99 826.32 110.23 807.71 119.38 826.37 139.94 829.41 125.02 843.88 128.48 864.37"/><text class="cls-1" transform="translate(981.69 1347)">MERCURY REDSTONE 4</text><text class="cls-2" transform="translate(1121 1387)">24 de Julio</text><polygon class="cls-3" points="1048.18 1381 791 1381 791 1381 1048.18 1381 1048.18 1381"/><text class="cls-4" transform="translate(955.45 1431)">Vuelo suborbital con Virgil I. Grissom</text><polygon class="cls-11" points="1492.48 1347.37 1474.12 1337.65 1455.7 1347.28 1459.26 1326.8 1444.42 1312.26 1464.99 1309.32 1474.23 1290.71 1483.38 1309.37 1503.94 1312.41 1489.02 1326.88 1492.48 1347.37"/><text class="cls-13" transform="translate(1029.23 1855)">MERCURY ATLAS 6</text><text class="cls-2" transform="translate(1109 1895)">20 de Febrero</text><polygon class="cls-3" points="1055.18 1889 798 1889 798 1889 1055.18 1889 1055.18 1889"/><text class="cls-4" transform="translate(1030.47 1939)">Primer estadounidense en<tspan x="26.62" y="28.8">órbita con John Glenn</tspan></text><polygon class="cls-11" points="1499.48 1855.37 1481.12 1845.65 1462.7 1855.28 1466.26 1834.8 1451.42 1820.26 1471.99 1817.32 1481.23 1798.71 1490.38 1817.37 1510.94 1820.41 1496.02 1834.88 1499.48 1855.37"/><text class="cls-13" transform="translate(1029.03 2220)">MERCURY ATLAS 8</text><text class="cls-2" transform="translate(1109 2260)">3 de Octubre</text><polygon class="cls-3" points="1055.18 2254 798 2254 798 2254 1055.18 2254 1055.18 2254"/><text class="cls-4" transform="translate(1049.05 2304)">Vuelo orbital / primera <tspan x="-57.13" y="28.8">comunicación por radio en vivo </tspan><tspan x="31.13" y="57.6">con Walter Schirra</tspan></text><polygon class="cls-11" points="1499.48 2220.37 1481.12 2210.65 1462.7 2220.28 1466.26 2199.8 1451.42 2185.26 1471.99 2182.32 1481.23 2163.71 1490.38 2182.37 1510.94 2185.41 1496.02 2199.88 1499.48 2220.37"/><polygon class="cls-6" points="774.9 2749.62 793.25 2759.38 811.69 2749.8 808.08 2770.26 822.89 2784.84 802.31 2787.73 793.03 2806.32 783.92 2787.64 763.37 2784.56 778.32 2770.12 774.9 2749.62"/><rect class="cls-7" x="193.5" y="2489.96" width="351.29" height="40.41" rx="12" ry="12"/><text class="cls-14" transform="translate(726 276)">1960</text><text class="cls-14" transform="translate(726 773)">1961</text><text class="cls-14" transform="translate(726 1765)">1962</text><text class="cls-14" transform="translate(726 2424.05)">1963</text><text class="cls-15" transform="translate(171 382)">MERCURY REDSTONE 1</text><text class="cls-15" transform="translate(977.46 538)">MERCURY REDSTONE 1A</text><text class="cls-2" transform="translate(269 422)">21 de Noviembre</text><text class="cls-2" transform="translate(1085 576)">19 de Diciembre</text><text class="cls-4" transform="translate(191.68 466)">Primer intento del Programa <tspan x="37.61" y="28.8">Mercury sin tripulación</tspan></text><polygon class="cls-3" points="795.18 413 538 413 538 413 795.18 413 795.18 413"/><polygon class="cls-3" points="1055.18 570 792.86 570 792.86 570 1055.18 570 1055.18 570"/><text class="cls-4" transform="translate(1041.95 622)">Primer vuelo suborbital <tspan x="-45.34" y="28.8">estadounidense sin tripulación</tspan></text><text class="cls-16" transform="translate(1359 97.37)">Éxito</text><text class="cls-16" transform="translate(1302 200)">Fracaso</text><text class="cls-1" transform="translate(165.5 856)">MERCURY REDSTONE 2</text><text class="cls-2" transform="translate(304.5 898)">31 de Enero</text><text class="cls-4" transform="translate(218.45 940)">Primer vuelo suborbital <tspan x="-52.58" y="28.8">estadounidensecon un ser vivo, </tspan><tspan x="30.52" y="57.6">Ham el Chimpancé</tspan></text><polygon class="cls-3" points="793.18 1227 536 1227 536 1227 793.18 1227 793.18 1227"/><polygon class="cls-11" points="126.48 1198.37 108.11 1188.65 89.7 1198.28 93.26 1177.8 78.42 1163.26 98.99 1160.32 108.23 1141.71 117.38 1160.37 137.94 1163.41 123.02 1177.88 126.48 1198.37"/><text class="cls-1" transform="translate(163.5 1190)">MERCURY REDSTONE 3</text><text class="cls-2" transform="translate(302.5 1232)">5 de Mayo</text><text class="cls-4" transform="translate(179.17 1274)">Primer vuelo estadounidense <tspan x="36.53" y="28.8">en vuelo suborbital con </tspan><tspan x="89.81" y="57.6">Alan B. Shepard</tspan></text><polygon class="cls-3" points="794.18 1584 537 1584 537 1584 794.18 1584 794.18 1584"/><polygon class="cls-11" points="127.48 1555.37 109.11 1545.65 90.7 1555.28 94.26 1534.8 79.42 1520.26 99.99 1517.32 109.23 1498.71 118.38 1517.37 138.94 1520.41 124.02 1534.88 127.48 1555.37"/><text class="cls-1" transform="translate(196.5 1547)">MERCURY ATLAS 5</text><text class="cls-2" transform="translate(269 1589)">13 de Septiembre</text><text class="cls-4" transform="translate(168.43 1631)">Vuelo de prueba sin tripulación</text><polygon class="cls-3" points="795.18 2029 538 2029 538 2029 795.18 2029 795.18 2029"/><polygon class="cls-11" points="128.48 2000.37 110.11 1990.65 91.7 2000.28 95.26 1979.8 80.42 1965.26 100.99 1962.32 110.23 1943.71 119.38 1962.37 139.94 1965.41 125.02 1979.88 128.48 2000.37"/><text class="cls-13" transform="translate(197.5 1992)">MERCURY ATLAS 7</text><text class="cls-2" transform="translate(304.5 2034)">24 de Mayo</text><text class="cls-4" transform="translate(189.63 2076)">Vuelo orbital y experimentos <tspan x="-8.71" y="28.8">científicos con Scott Carpenter</tspan></text><polygon class="cls-3" points="795.18 2559 538 2559 538 2559 795.18 2559 795.18 2559"/><polygon class="cls-11" points="128.48 2530.37 110.11 2520.65 91.7 2530.28 95.26 2509.8 80.42 2495.26 100.99 2492.32 110.23 2473.71 119.38 2492.37 139.94 2495.41 125.02 2509.88 128.48 2530.37"/><text class="cls-17" transform="translate(197.5 2522)">MERCURY ATLAS 9</text><text class="cls-2" transform="translate(304.5 2564)">15 de Mayo</text><text class="cls-4" transform="translate(145.03 2606)">Vuelo orbital / prueba de duración <tspan x="-0.19" y="28.8">y experimentos con Gordon Cooper</tspan></text></svg>