<svg id="Capa_1" data-name="Capa 1" xmlns="http://www.w3.org/2000/svg" xmlns:xlink="http://www.w3.org/1999/xlink" viewBox="0 0 1122 711.41"><defs><style>.cls-1,.cls-3,.cls-5,.cls-9{fill:none;stroke-linecap:round;stroke-linejoin:round;}.cls-1,.cls-9{stroke:#e9e2b6;}.cls-1,.cls-3{stroke-width:4.34px;}.cls-2,.cls-8{fill:#e9e2b6;}.cls-3,.cls-5{stroke:#f67e01;}.cls-4,.cls-6{fill:#f67e01;}.cls-5,.cls-9{stroke-width:3.28px;stroke-dasharray:7.87 7.87;}.cls-6,.cls-8{font-size:31px;font-family:Times-Roman, Times;}.cls-7{letter-spacing:-0.06em;}</style></defs><path class="cls-1" d="M1050.44,299.65c140.33-21.61,246.4-4.29,267.78,52.91a64.4,64.4,0,0,1,3.49,29.37" transform="translate(-408 -183)"/><polygon class="cls-2" points="898.96 185.19 914.25 193.6 930.92 188.43 911.1 224.69 898.96 185.19"/><image width="577" height="433" transform="translate(0) scale(1.64)" xlink:href="earth-removebg-preview.png"/><path class="cls-1" d="M1310.1,422.42c-50.07,69.95-181,178.26-374.84,250.73C691.61,764.23,468,768.35,435.9,682.37,413.9,623.5,485.31,538.52,612,461" transform="translate(-408 -183)"/><path class="cls-3" d="M719,494c-80,31-242,192.67-170,280,55.2,67,234.9,25.75,301.94-34.24" transform="translate(-408 -183)"/><polygon class="cls-4" points="446.15 576.25 438.93 560.36 422.48 554.52 460.07 537.34 446.15 576.25"/><line class="cls-5" x1="801.5" y1="606.5" x2="840.91" y2="606.5"/><polygon class="cls-4" points="831.7 618.65 836.86 606.5 831.7 594.35 860.5 606.5 831.7 618.65"/><text class="cls-6" transform="translate(865.47 615.03)"><tspan class="cls-7">V</tspan><tspan x="20.54" y="0">uelo suborbital</tspan></text><text class="cls-8" transform="translate(872.47 551.53)"><tspan class="cls-7">V</tspan><tspan x="20.54" y="0">uelo orbital</tspan></text><line class="cls-9" x1="801.5" y1="543" x2="840.91" y2="543"/><polygon class="cls-2" points="831.7 555.15 836.86 543 831.7 530.85 860.5 543 831.7 555.15"/></svg>