<svg id="Capa_1" data-name="Capa 1" xmlns="http://www.w3.org/2000/svg" viewBox="0 0 780 832.46"><defs><style>.cls-1{fill:#9da8c6;}.cls-2{fill:#30382c;}.cls-3{fill:#3d4836;}.cls-4{fill:#455c66;}.cls-5{fill:#645d5a;}.cls-6{fill:#585c5b;}.cls-7{fill:#404c56;}.cls-8{fill:#494d4e;}.cls-9{fill:#858c8c;}.cls-10{fill:#daedf4;}.cls-11{fill:#344653;}.cls-12{fill:#d7e4ef;}.cls-13{fill:#b8d1e4;}.cls-14{fill:#77b0de;}.cls-15{fill:#bed2de;}.cls-16{fill:#4f5642;}.cls-17{fill:#b0c2c7;}.cls-18{fill:#3e4539;}.cls-19{fill:#686667;}.cls-20{fill:#c1665f;}.cls-21{fill:#9d7891;}.cls-22{fill:#9b4e56;}.cls-23{fill:#d17473;}.cls-24{fill:#fdbfb1;}.cls-25{fill:#bb7f8d;}.cls-26{fill:#b06660;}.cls-27{fill:#d96964;}.cls-28{fill:#cc4f47;}.cls-29{fill:#f98b80;}.cls-30{fill:#694443;}.cls-31{fill:#b32320;}.cls-32{fill:#6b232a;}.cls-33{fill:#896078;}.cls-34{fill:#983f41;}.cls-35{fill:#60653f;}.cls-36{fill:#5f7681;}.cls-37{fill:#5e717d;}.cls-38{fill:#6b8990;}.cls-39{fill:#6e8689;}.cls-40{fill:#dce6eb;}.cls-41{fill:#fafbfa;}.cls-42{fill:#fbfdfc;}.cls-43{fill:#4b4c4c;}.cls-44{fill:#5b575c;}.cls-45{fill:#faf9f8;}.cls-46{fill:#353631;}.cls-47{fill:#faf7f3;}.cls-48{fill:#f9cfd9;}.cls-49{fill:#efeae3;}.cls-50{fill:#fbf6f4;}.cls-51{fill:#303d44;}.cls-52{fill:#e2e5e5;}.cls-53{fill:#757979;}.cls-54{fill:#6f7375;}.cls-55{fill:#6c8fa6;}.cls-56{fill:#f2f7f5;}.cls-57{fill:#f7faf9;}.cls-58{fill:#674a42;}.cls-59{fill:#92a4ac;}.cls-60{fill:#f4f6fb;}.cls-61{fill:#e2fafe;}.cls-62{fill:#b0c7d3;}.cls-63{fill:#3e5364;}.cls-64{fill:#d4dee7;}.cls-65{fill:#ecf0f4;}.cls-66{fill:#cbd7e2;}.cls-67{fill:#bbcfdd;}.cls-68{fill:#aec9db;}.cls-69{fill:#e0e7ef;}.cls-70{fill:#404750;}.cls-71{fill:#5c7584;}.cls-72{fill:#e7f0f5;}.cls-73{fill:#273235;}.cls-74{fill:#b4c6d1;}.cls-75{fill:#40525b;}.cls-76{fill:#d6e6eb;}.cls-77{fill:#ced9df;}.cls-78{fill:#242e28;}.cls-79{fill:#5393b8;}.cls-80{fill:#17221e;}.cls-81{fill:#3c4337;}.cls-82{fill:#6e7858;}.cls-83{fill:#8c9f96;}.cls-84{fill:#fbe0dd;}.cls-85{fill:#9d2f2a;}.cls-86{fill:#fbbcaf;}.cls-87{fill:#f0f4f5;}.cls-88{fill:#3e3d46;}.cls-89{fill:#3b3e43;}.cls-90{fill:#e2dc9b;}.cls-91{fill:#c58e73;}.cls-92{fill:#787c80;}.cls-93{fill:#a66866;}.cls-94{fill:#a26d72;}.cls-95{fill:#fbd2cf;}.cls-96{fill:#744649;}.cls-97{fill:#ba522a;}.cls-98{fill:#272830;}.cls-99{fill:#e5ecef;}.cls-100{fill:#d9dfea;}.cls-101{fill:#e4e7ec;}.cls-102{fill:#c7d6e2;}.cls-103{fill:#decbcb;}.cls-104{fill:#d8e1e7;}.cls-105{fill:#81393c;}.cls-106{fill:#a85f5d;}.cls-107{fill:#653531;}.cls-108{fill:#8e4448;}.cls-109{fill:#f2d6cc;}.cls-110{fill:#783d3d;}.cls-111{fill:#eab3b2;}.cls-112{fill:#884746;}.cls-113{fill:#924649;}.cls-114{fill:#8b4a4f;}.cls-115{fill:#e5bfbd;}.cls-116{fill:#3a4855;}.cls-117{fill:#dcedf6;}.cls-118{fill:#4a5661;}.cls-119{fill:#ebf6f8;}.cls-120{fill:#86929a;}.cls-121{fill:#f7c6c3;}.cls-122{fill:#924749;}.cls-123{fill:#404d5b;}.cls-124{fill:#7f3f44;}.cls-125{fill:#dea09c;}.cls-126{fill:#f7d5c8;}.cls-127{fill:#e38f89;}.cls-128{fill:none;stroke:#d62828;stroke-miterlimit:10;stroke-width:2px;}.cls-129{font-size:14px;fill:#eae2b7;font-family:Poppins;font-weight:700;}</style></defs><title>Redstone</title><path class="cls-1" d="M370.62,141.67c0-2.71.05-5.42,0-8.14-0.13-18.19,2.72-36.07,5.35-54a178.07,178.07,0,0,0,1.43-30.21c3.27-3.76,6.37-7.44,5.55-13.1-0.52-3.55,3.49-3.41,5.14-5.25a4.92,4.92,0,0,1,1.17.86c-3.71,11.56,8.07,20.91,4.61,32.41,0,5.87-.11,11.73-0.06,17.6,0,1.78-.22,4.09.75,5.23,5,5.84,4.53,12.7,3,19.1a26.14,26.14,0,0,0,.12,14.32c1.37,4.67,1.15,9.58.3,14.56-1.22,7.17.28,14.43,1.68,21.42,1.18,5.86-.33,11-1.47,16.42a3.69,3.69,0,0,1-1.93-2.5c-0.92-4.08.29-8.6-2.55-12.29a11.85,11.85,0,0,1-.53-4.37c0.14-12.85-.61-25.7-0.09-38.54-0.66-3.39-1.58-6.76-1.57-10.25-0.09-2,1.57-3.53,1.23-5.55-0.51-2.53-1.13-5-1.87-7.49a32.25,32.25,0,0,1-.47-7.24c-2.65-8.24.88-16.46,0.08-24.71-0.36-3.78-.12-7.72-4.3-9.76a4.27,4.27,0,0,0-2.77.55c-2.52,3.66-.92,7.77-1.27,11.65-0.53,5.92,1,12-1.24,17.77a14.1,14.1,0,0,0-1.32,3.39,12.71,12.71,0,0,1-.75,2.52c-1,3.4-.69,7-1.48,10.4a10.33,10.33,0,0,0,0,5.09,13.45,13.45,0,0,1-.56,5.43c-1.45,6.2,2.5,1.15,3.71,1.76a12.39,12.39,0,0,1,3.14-.21c4.27,0.05,8.25.58,9.39,5.74A102,102,0,0,1,393,125c-0.27,3.6-1.74,6.34-6,4.47-3.75-1.63-6.89-.22-10.1,1.31,2.17-.32,4.26-1,6.52-0.92,8.17,0.23,9.93,1.76,9.63,9.86-0.15,3.91,1.48,8-.74,11.76-2.07,1-3.7-.2-5.42-1-2.57-.5-4.72.52-6.8,1.86-6.27,1.16-7.1,5.95-7.4,11.08-0.33,2.48,3,4.66.58,7.3a3.74,3.74,0,0,1-3.1.05c-1.87-1-3.36-2.61-3.51-4.66C366,157.67,366.11,149.29,370.62,141.67Z"/><path class="cls-2" d="M340.86,757.07l-0.31-2.47c-0.52-2-1.27-4.07,1.44-5,2-.67,3.37.58,4.64,1.92s2,3,3.58,3.94c0.94-5.46,4-3.9,7.18-2.23,3.42,3.29,6.63,1.95,9.79-.46a4.24,4.24,0,0,1,1.89-.5c4,1.51,2.28,4.21,1.42,6.73-1.51,2.45-3.93,3.62-6.48,4.62s-5.4-.31-8.28,1.34c2.63,2.74,5.23,4.22,9.16,3,3-.91,6.23-0.48,9.37-0.57,2.9,0,5.81-.11,8.7,0,4,0.18,6.72-.36,6.71-5.65,0-6.38,5.91-4.59,9.56-5.75a1.85,1.85,0,0,1,.61-0.17c0.72,0,1-.5.41-0.71-3.36-1.27-7.22.68-10.47-1.54-0.54-6.16-6.44-5-9.87-7.21a2.3,2.3,0,0,1,.12-1.83c1.81-1.83,4.54-1.46,6.61-3.16,5.49-4.52,7.05-4.08,9.85,2.38,1.2,2.78,3,2.26,5,1.66s2.91-2.76,4.41-4.09c4.34-3.85,7-3.11,7.83,2.5,0.46,3.13,2.27,4.81,4.83,4.65,7.63-.48,7.71,4.59,7.53,9.72-0.11,3.08,0,6.42-2.67,8.81-3.62,1.45-1.3,5.4-3.17,7.59-3.14,2.37-3.95-1.17-5.74-2.25-6.58-4-8.36-2.85-9.35,6.09a3.36,3.36,0,0,1-4.32,1.08c-3.05-2.46-1.5-6.13-2.32-9.27-1.43,1.52-1.63,3.7-3.27,4.94-7.62,1.15-15.28.31-22.87-.08-5.91-.3-11.64-0.63-17.33,1.37-3.4,1.19-6.28-.48-8.54-2.74s0.49-3.44,1.49-5c2.71-4.28-3.29-4-3.61-6.66a7,7,0,0,1-.69-3.73C344.3,754.26,341.52,758.06,340.86,757.07Z"/><path class="cls-3" d="M395.47,777.48c-0.49,1.81-1.67,2.26-3.51,2.31-16.57.48-33.13,1.08-49.69,1.65-1.15-1.23-3.87-2.32-2.52-4.08,2.5-3.26.17-5.67-1.13-7.62-2.7-4.05-1.83-6.52,2.14-8.56a2.86,2.86,0,0,1,4.05,0,20.75,20.75,0,0,1,2,1.81c1.42,1.66,4.18-3.63,4.51.57,0.25,3.18.23,7.25-5.11,8.43,4,2.38,7,3,11.32,1.69,9.16-2.73,18.7,0,28.07.21,3,0.06,6.45-2,9.24.86A1.93,1.93,0,0,1,395.47,777.48Z"/><path class="cls-3" d="M380.2,745q0,0.64,0,1.29c0.08,3.61-2.81,3-4.66,2.8-3.6-.37-5.87,1.09-7.52,4h-0.08c-3.25,3.2-7,2-10.75,1.31-1.64-.63-3.16-1.71-5.51-1.06-0.1,1.79,4.54,1.31,2.37,3.46-1.08,1.07-3.5,2.32-5.3.08-1-1.2-2-2.33-3-3.53s-1.31-3.1-3.36-2.6-1.39,2.5-1.82,3.88c-1.14-3.09-2.12-6.39-6.6-5.37-4.24-2.24-1.52-7.15-3.86-10.12q0-1.21,0-2.42c5-3.7,8.6-3.59,12.22.38,4,4.34,9.91,5.19,15.17,2,2.72-1.66,6-2.33,8.33-.84C370.35,741.14,376,741.59,380.2,745Z"/><path class="cls-4" d="M344.81,761.21h-4.05l0.11-4.12c1.72-.88.74-2.88,1.87-4.65C344.67,755.35,347.28,757.58,344.81,761.21Z"/><path class="cls-5" d="M410.31,240.49a2.42,2.42,0,0,0,.59,3.28c1.64,2.82-2.2,2.83-2.4,4.71-2.15,15.63,0,31.3-.6,46.95-0.27,6.71-.9,13.38-1.23,20.08a4.35,4.35,0,0,1-1.89,3.4,4.13,4.13,0,0,1-4.31-.32c-2.37-2.56-2.06-5.79-2-8.85,0.06-4.27-.31-7.84-5.47-9.19-2.8-.73-2.68-2.55,0-4,1.82-1,4.73-.2,5.26-3.25,0.08-12.38,0-24.75,0-37.12a41.51,41.51,0,0,0-.25-6.06c-0.28-1.9-.81-3.67-3.22-3.45-2,.18-2.42,1.82-2.55,3.44-0.55,6.51-.06,13-0.29,19.56-0.12,3.3.5,6.85-2.41,9.47-3.65-1.16-3.36-4.4-3.45-7.14a187,187,0,0,1,.11-20.6c-0.13-1.52.19-3.44-2.12-3.48a3,3,0,0,0-3.23,2.81c-0.17,1.57-.06,3.16-0.07,4.74-0.19,17.38.45,34.76,0.22,52.14,0,3.32.5,6.86-2.22,9.6a2,2,0,0,1-2.16-.87,11.7,11.7,0,0,1-1.51-6.53c-0.11-21.26-.16-42.52,0-63.78a14.47,14.47,0,0,1,.75-4.66c4.37-4.86,9.85-2.29,14.82-1.82,3.14,0.29,6.1,1.19,9-.56a20.88,20.88,0,0,1,9.83-.15A1.55,1.55,0,0,1,410.31,240.49Z"/><path class="cls-6" d="M402.08,198.43c2,3.42.1,7.81,2.71,11.09a12.62,12.62,0,0,0-.74,5.24c0.79,7-.27,7.9-7.05,7.58-5.61-.26-11.25-0.42-16.77,1.17a11.79,11.79,0,0,1-2.67.22c-10.47-.51-12.9-3.77-10.44-14,2-5,1.16-11.32,7.15-14.27a2.88,2.88,0,0,1,2.69,1.41c1.56,3.26-.07,6.67.48,10a23.32,23.32,0,0,1-.14,4c-0.12,1.7-1.69,4,.07,5,2.16,1.19,4.87.24,7.1-.8,2.78-1.3.16-2.74,0.05-4.19-0.29-3.9,3.58-3.79,6-5.08,3.87-4.56,3.59-5.38-3.43-9.78-2.39-3.06-2.4-6.42-1.27-9.93,2.42-3.41,5-2,7.42-.08,3.39,2.66,5.37,6.31,6.94,10.28C400.4,196.9,399.43,199.63,402.08,198.43Z"/><path class="cls-7" d="M402.08,198.43c-0.7,3.49-1.7,1.45-2.32,0a35.49,35.49,0,0,0-7.58-11.24,6.33,6.33,0,0,0-5.3-2c-5.56,1.87-10.3,4.66-12,10.81-4.29,3.57-3.7,9.16-5.7,13.68a5.46,5.46,0,0,0-1.05.8c-1.76,1.7.11,6.65-3.83,5.76-3.09-.69-1.53-4.57-1.73-7.11,0-.44,0-0.89,0-1.33,1.12-7.18,4.19-13.68,7-20.26,3.13-4.69,2.41-9.52.49-14.39a2.4,2.4,0,0,1,.83-2.63l2.36-.44c1.74-2.84,4.54-2.45,7.19-2.25S384,169.48,383,172a7.52,7.52,0,0,0-.65,1.9c-0.25,2.82-1.32,6,2.35,7.49,1.7,0.68,3.81.6,4.79-1.24,1.65-3.1.39-5.25-2.38-7.34-4.55-3.42-1-4.94,2-6.37a7.37,7.37,0,0,1,3-.26c2.6,0.35,4.13,2.13,5.52,4.1l0.58,2.57C395.88,181.95,398.64,190.24,402.08,198.43Z"/><path class="cls-8" d="M381.5,221.81c5.16-2.52,10.79-1,16.16-1.72,1.32-.19,2.92,2.36,4.6.33a4.06,4.06,0,0,0-.05-5.52c-3.41-4-.2-4.51,2.58-5.37,9.12,8.36,12,19.42,7.86,30.44-0.42,1.12-1.5.62-2.34,0.52l-0.52-1.41a5.3,5.3,0,0,1-1.37-2.26c-0.56-1.68-.91-3.7-3.05-4-2.92-.38-2.73,2.37-3.54,4a5,5,0,0,1-2.28,2.34c-3.36,1.41-6.64,1.46-9.81-.53-2.49-2.43-2.11-5.44-1.69-8.44C391.77,222.85,383.82,224.51,381.5,221.81Z"/><path class="cls-9" d="M407.18,246.52l3.72-2.75c1.54,0.13,1.91,1.19,2,2.5-2.07,2.28-1.44,5.1-1.44,7.73q-0.07,32.38,0,64.77a4,4,0,0,1,.16.83c-0.62,3.61.66,7.41-1.1,10.91a4.47,4.47,0,0,1-2.89,1.67c-2.76.32-5.33,0.05-7.19-2.36a2.58,2.58,0,0,1-.15-2.05c5.43-2,4.59-7.28,6.08-11.37C407.27,293.1,405.82,269.79,407.18,246.52Z"/><path class="cls-10" d="M411.42,318.76c-2.44-1.88-1.43-4.58-1.43-6.9q-0.07-30.07.13-60.15c0-2.07-1.54-5.37,2.76-5.45,0,21.58-.07,43.16-0.18,64.74C412.7,313.62,413.46,316.45,411.42,318.76Z"/><path class="cls-11" d="M410.17,330.34c0.2-3.62-2-7.55,1.41-10.75,1.92,1.49.59,3.72,1.25,5.5-0.6,1.82.52,4.08-1.38,5.58A0.82,0.82,0,0,1,410.17,330.34Z"/><path class="cls-12" d="M355.73,344.1c0.74-3.14-1-6.58,1.16-9.55,5.12-.37,5.64,3.47,6.11,7,0.72,5.51-.65,11.32,2.57,16.47,0.45,0.71.46-.11,0.13,0.61-3.58,7.89-2.1,12.71,7.51,13a1.63,1.63,0,0,1,1.39,2c-0.2.92-1.12,1.28-1.91,1.72-2.92,1.6-7.85-.69-8.94,4.32-0.78,3.59.65,7.13,1,10.7,0.36,3.8,1.07,7.56,1.26,11.4,0.35,7,1.6,7.65,8.43,5a10.07,10.07,0,0,1,1.94-.57c4.2,4.33,3.85,6.88-1.19,8.53a12.67,12.67,0,0,1-4,.66c-4.49,0-5.83,2.32-5.28,6.47,1.17,8.9,2.95,17.7,4.39,26.56,1.1,6.75,3,13.69-1.23,20.18a9.43,9.43,0,0,1-5.21,1.05c-4.14,0-6.1-1.38-5.5-6.1,1-8.27.79-16.64,0.28-24.94-0.42-6.88-3.24-13.54-2.25-20.61,0.21-1.53-.35-3.16.68-4.57l-0.29-1.5c-0.6-17.12-.67-34.24,0-51.35C354.12,355.23,357,349.53,355.73,344.1Z"/><path class="cls-13" d="M357.08,413.41c-0.46,15.52,6.82,30.35,4.11,46.1-0.44,2.55.51,5.34-2.46,8.32h10.52a1.49,1.49,0,0,1-.55,2.1c-4,1.59-8,2.31-11.55-1-2.25-3.32-1-7.1-1.42-10.66,0-12.6,0-25.2.1-37.8C355.84,418.07,355,415.45,357.08,413.41Z"/><path class="cls-14" d="M356.82,360.56q0,25.68,0,51.36"/><path class="cls-15" d="M316.45,705.55c12.1,2.93,17.39-4.36,21.07-14.05,0.63-1.65,1.18-3.33,1.77-5,3.87-12.37,11.58-23.1,15.22-35.58,4.08-.55,8,1,12,1s8.1-.05,12.15,0c7.67,0.17,9.9,2.26,10.39,10.08,0.38,6.06,0,12.14.17,18.21,0.06,2.88-.3,5.91,2,8.3,1.68,9.74,5.79,19.51-.13,29.22-4-.29-3-3.6-3.23-5.88-0.37-4.39.14-8.84-.93-13.19a0.75,0.75,0,0,0-.53,0,6.85,6.85,0,0,1-.76,1.12c-3.56,2.73-1.76,6.58-2,9.92-0.32,4.21.12,8.55-4.21,11.2-4.9.62-9.85,1.63-14.32-1.62-2.51-2.61-3.37-6.21-5.48-9.89-2,3.63-4.34,6.24-5.15,9.84-0.4,1.77-2.2,4.07-3.61,1.69-3.27-5.51-7.94-4.9-12.9-4.27-1.55.2-2.86-1.13-4.43-.77-1,10.38-1.43,10.61-15.63,8.71C314.85,718.45,316.87,711.91,316.45,705.55Z"/><path class="cls-16" d="M380.2,745c-4.66-.81-9.5-0.25-13.42-4.47-1.38-1.48-6.49-3.74-8.14,1.89-0.62,2.14-2.73,1.16-4.07,1.08-4-.26-8-0.81-12-1.35a3.51,3.51,0,0,1-2.3-1c-3.9-6.06-3.87-6.08-10.19-4.42l0.21-5.34c2.66-2.63,6-2.35,8.85-1.13,5.68,2.4,11.77,2.89,17.62,4.47,4.12,0.28,8.46-1.16,12.25,1.6,4.78,2.48,9.73.53,13.07,1,2.41-.66,1.29-1.71,1.68-0.89,0.16,0.35.08,0.56-.27,0.61a49.56,49.56,0,0,1-13.76,0c-1.22-3.22,1.65-3,3.17-3.37,2.76-.7,5.66-0.52,8.49-0.79,3.38-.81,6.4.82,9.56,1.48,2.91,1,6,1.13,9,2a7,7,0,0,0,5.1.79c8-1.52,16.22-2.1,24.24-3.81a5.56,5.56,0,0,1-2.62.06c-4.24-3.94-.17-5.15,2.37-6,1.92-.67,2.06-1.25,1.37-2.77,2.11-2.25,4.68-1.79,7.27-1.28,5.38,0.62,10.59-1.21,16-.94,6.49,0.33,8.37,2,8.83,8.37a65.28,65.28,0,0,1,.06,6.72c-0.26,8.4-1.6,9.87-10.07,11.12a8.83,8.83,0,0,1-3.18-.39c-6.1-1.13-9.31-4.31-7.79-10,0.36,4.67-1.17,9.14-6.59,11.83-3.7,1.84-3.84,5.86-4.62,9.37-0.54,2.44.34,5-.39,7.42-0.95,1.57-.92,3.28-1,5.05-0.11,2.5-1.06,4.38-4.18,3.24-1.79-2.57-3.92-5.06-2-8.49a24.16,24.16,0,0,0,1.36-10.42c-0.44-3.61.57-6.73-5.58-5.18-4.82,1.22-7.91-4.73-5.95-10.1-2.85-1.09-5.55.26-6,2.49-1.32,6.23-6.66,3.69-10.05,5.21-1.54.69-2.28-.49-2.05-2.31a54.64,54.64,0,0,0,.05-6.31C388.91,739.71,386.3,747.71,380.2,745Z"/><path class="cls-17" d="M317.87,724.62l0.68,0c11.78-.19,11.77-0.19,12.77-11.78a2.12,2.12,0,0,1,1.67-2.37c0.95,3.42,3.29,5.88,7,4.37,6.35-2.57,10.28-.74,12.49,6.1-1.29-6.18,5.11-8.86,5.25-14.37,0.07-2.83,2.51-1.24,3.49.53,1.91,3.5,1.93,7.94,5.35,10.7a6,6,0,0,1-4.94,1.77c-2.71-.23-3.9.41-4,3.55-0.06,3-3.1,3.56-5.48,4.16-2.61.67-5.36,0.7-8,1.54-4.17.36-8.25,0.35-11.53-2.84C327.78,725.09,322.62,727.23,317.87,724.62Z"/><path class="cls-18" d="M332.68,725.95c3.92,0.19,7.72,1.73,11.72,1.08,4.87,0,9.84-.89,14.48,1.49,2.11,3.85.43,6.29-3,8.1-6-1.41-12.13-1.78-17.76-4.83-2.08-1.13-5.19-.34-7.84-0.42C329.31,728.77,331.94,727.78,332.68,725.95Z"/><path class="cls-19" d="M389.84,167.71l-5.32,3.19c6.57,0.06,8.78,2.56,7.9,7.51-0.37,2.08.64,5.05-2.71,5.18-3,.12-7.52,1.81-8.76-1.15-1.61-3.82-2.46-8.74,1.6-13.12-3.37,1.06-6.41-1.06-9.31.79,0.41-2.64-3.82-3.66-2.33-6.67,3-1.85,4.88,1.68,7.52,1.53,2.92,0.62,5.9-.75,8.81.29A4.12,4.12,0,0,1,389.84,167.71Z"/><path class="cls-20" d="M385.58,48c6.42-.53,6.41,4.09,6.72,8.42,0.66,9.35-1.85,18.68-.13,28a1.6,1.6,0,0,1-2.08-.1c-2.63-7.83-.18-15.92-1.13-22.75,0.22,5.16-.23,11.42,0,17.67,0.06,1.63-.19,3.41-2.06,3.76-2.56.48-2.56-1.83-3.09-3.45-0.35-8.24-.12-16.48-0.14-24.71C383.65,52.43,383.66,50,385.58,48Z"/><path class="cls-21" d="M391.2,151.2c2.45-5.18,1.54-10.7.82-15.91-0.66-4.79-11.81-5-17-.17-0.21-2.81-1.57-5.81,1.93-6.86,3.19-1,6.54-4.6,9.94-1.39,5.13,4.84,5-.12,5.4-2.83,0.51-3.09.2-6.32,0.25-9.48q0.4-1,1-.09c1.21,13.22-.44,26.54,1.39,39.74C392.77,154.28,390.71,154.29,391.2,151.2Z"/><path class="cls-22" d="M379.13,166.23c-3.79,2.19-5.33-2.28-8.21-2.77-0.31-7.78,2.05-11,9.16-12.59a4.87,4.87,0,0,1,1.2,1.36c1.34,3.16-.29,6.56.79,9.75C382.18,164.15,380.3,164.94,379.13,166.23Z"/><path class="cls-23" d="M378.69,81.94c2.63-9.1.71-18.42,1.31-27.61,0.16-2.44-1.24-5.82,3.11-6.23,2.31,10.69.82,21.48,0.86,32.24C382.86,83,381,83.32,378.69,81.94Z"/><path class="cls-24" d="M382.92,80.49q0.09-16.19.19-32.39l2.47-.08q-0.11,16.18-.21,32.36A1.42,1.42,0,0,1,382.92,80.49Z"/><path class="cls-25" d="M375,106.51l1-5.14c2.48-2.2,4,2.23,6.41.86a3.66,3.66,0,0,1,1.21-.94,6.6,6.6,0,0,1,2.48-.42,8,8,0,0,1,2.7.58,4.77,4.77,0,0,1,2.78,2.58c1,3.34.85,5.65-3.74,5.4-1.57-.09-3.57-0.23-5,1.07l-2.77-.14A7.25,7.25,0,0,1,375,106.51Z"/><path class="cls-26" d="M380.19,152.74l-0.12-1.87c2.62-.3,2.94-5.78,6.9-3,2.15,5.21,4.94,10.18,6,15.81,0.19,1.42.46,2.86-.72,4l-2.37,0-2.77-1.45a7.17,7.17,0,0,1-2.51-5.05A9.29,9.29,0,0,0,380.19,152.74Z"/><path class="cls-27" d="M388,102.31l-2.46-.08c-2.7-3.39.76-7.55-1.38-11-0.36-2.16-.48-4.29.78-6.24,1.3-1.32,2.45-.6,3.6.25,2,2.08.86,5.85,4,7.32l2,7.08C393.06,102.3,390.54,102.35,388,102.31Z"/><path class="cls-28" d="M375.93,96.71c0.32-3.9,0-7.9,1.58-11.62,7.36,0,5.62,6.06,6.87,10.16,0.21,2.39.18,4.73-1.24,6.82l-0.79,0C379.38,101.28,377.68,99,375.93,96.71Z"/><path class="cls-29" d="M388.16,85.88l-2.49-1.25c-2.76,2.07-4.82.61-6.78-1.35a6.67,6.67,0,0,1-.6-0.92,1.57,1.57,0,0,1,.4-0.43c1.58,0,3.24.25,4.23-1.45l2.44-.1c2.49,4.24,2.75.53,2.82-1,0.22-4.69,0-9.4.13-14.1,0.06-2.1-.78-4.37.9-6.58,1.57,8.66-1.25,17.33,1.62,25.62C390.41,85.69,389.4,86,388.16,85.88Z"/><path class="cls-30" d="M391.07,164.23c-0.53-5.68-5-10.37-4.11-16.41l4.23,3.38,3.67,3q0.07,1.81.15,3.61C394.93,163.89,394.92,163.9,391.07,164.23Z"/><path class="cls-21" d="M391.07,164.23c3.51-.79,2.25-4.51,3.94-6.42,4.36,3.44,2.43,8.18,2.59,12.49l-5.39-2.64Z"/><path class="cls-31" d="M378.89,83.28l6.78,1.35q-0.08,3.31-.17,6.63a3.67,3.67,0,0,1-2.79,2.82,1.27,1.27,0,0,1-.46-0.44c-0.53-3.44-.42-7.22-4.75-8.56Z"/><path class="cls-32" d="M375.93,96.71c3.09,0.67,5.74,1.86,6.42,5.4a6.87,6.87,0,0,1,1.39,1.42c0.92,1.75-.82,1-1.1.89-2.22-.94-4.39-2-6.57-3C373.8,99.88,374.28,98.31,375.93,96.71Z"/><path class="cls-33" d="M382.89,110.5a6.71,6.71,0,0,1,5.38-2.3c4.43,0.17,2.3-2.61,2.45-4.4a1.38,1.38,0,0,1,1.92,0c1.56,3.46,1.12,7.08.84,10.69l-1,.09C390.49,110.36,386.73,110.34,382.89,110.5Z"/><path class="cls-34" d="M388.16,85.88l2.69-1.52a5.49,5.49,0,0,0,1.32.12q0.17,4,.35,8.07c-2.48,2.55-3.45-.73-3.92-1.59C387.84,89.6,388.24,87.6,388.16,85.88Z"/><path class="cls-33" d="M375,106.51c2.42,0.32,3.49,2.43,5.08,3.85-2.29-.17-2.71,2.64-4.81,3.07C374.16,111.11,375,108.78,375,106.51Z"/><path class="cls-34" d="M392.64,103.78l-1.91,0L388,102.31c1.77-1.86,4.39-1.67,6.51-2.68C395.64,101.8,393.89,102.68,392.64,103.78Z"/><path class="cls-16" d="M368,753.07c-1.41-4.86.84-6.66,5.37-6.05,2.41,0.33,4.75,1.39,6.81-.78a28.79,28.79,0,0,0,4,0c6-.84,7.49,1.73,5.59,7.06,3,3,8.19.34,10.83,4.22-1.54,1.25-3.39,1-5.15,1-3.56-.1-4.93,1.31-3.94,4.92,1.28,4.64-1.23,6-5.36,6s-8.49,0-12.74,0a1.34,1.34,0,0,1,0-1.72c2.13-1.68,4.69-1.25,7.12-1.52,2.08-.23,4.86.89,5.81-2a5,5,0,0,0-1.45-5c-1.94-2-3.77-.23-5.53.52-3.51,1.5-6.9,2.3-9.9-1C368.41,756.89,372.58,753.83,368,753.07Z"/><path class="cls-35" d="M369.43,758.58a13.07,13.07,0,0,0,11.92-2.13c1.39-1,2.55-2.43,4.48-.31,2.51,2.76,2.71,6.08,2.87,9.37,0.12,2.49-2.19,2.42-3.95,2.45-3.8.08-7.61,0.06-11.41,0.08-2.56,1.24-5.28.38-7.92,0.63-2,.18-4.22.75-5-2s1.7-3.19,3.31-4.19Z"/><path class="cls-2" d="M422.72,766.58l2.35,8.29c1,2.29.2,4-1.74,5.32-1.71,1.94-9.09-.66-5.09,0-1.15-2.19-.13-3.83,1.37-5.35-0.16-1.93-.2-3.87-0.51-5.78-0.19-1.19-1.71-2.57-.35-3.47S421.64,765.22,422.72,766.58Z"/><path class="cls-2" d="M410.34,779.28l-5.55-1.62c-2.24-3.44-2-6.7,1.88-8.37,3.24-1.37,7.11-2.32,8.65,2.75-1.9,1-2.07,1.53-.79,2.79,0.82,0.81,1.57,1.67,1,2.85C414.36,779.93,412.35,779.66,410.34,779.28Z"/><path class="cls-3" d="M363.77,762.51c-0.6,1.49-3.33,2.1-2,4.35,1,1.61,2.78,1,4.26,1.07,2.43,0.11,4.87.08,7.3,0.11q0,0.64.06,1.28c-5.71-1.73-12.08,4.29-17.59-1.51-0.43-.45-2.89,1.23-2.82-1.61,0-2.05.64-3.63,2.86-3.75C358.48,762.32,361.13,762.48,363.77,762.51Z"/><path class="cls-3" d="M395.76,779.92c-6.14.74-.73-4.25-0.95-5.15-0.12-4.49,3-7,6.87-11.19-1,6.21-2.25,10.69-.91,15.18-0.26,1.24,1.48-1,0,0-1.66,1.08,14,1.82,13.46.78C413.56,778.26,398.05,779.7,395.76,779.92Z"/><path class="cls-2" d="M410.34,779.28c1.81-.48,4.94,0,4.6-2.6-0.41-3.1-2.81-.15-4.28-0.47s-3.35-.13-3.29-2.45,2.23-2.46,3.37-2.23a14.71,14.71,0,0,0,4.58.51c2.45-.67,1.71,3.59,4.27,2.76a7.09,7.09,0,0,1-1.37,5.35C415.58,780,412.83,780.86,410.34,779.28Z"/><path class="cls-36" d="M400.59,757.5c-3.8-.91-8.85,1.37-10.83-4.22,3.1-.19,6.2-0.39,9.3-0.56a4.3,4.3,0,0,1,4.46,3.26C404,757.77,401.55,756.86,400.59,757.5Z"/><path class="cls-37" d="M415.55,759.22a68.18,68.18,0,0,1-7.46-2.46c-1.31-.6-3.09-1.83-2.32-3.54,0.89-2,3.13-1.76,4.73-1C413,753.44,414.43,755.73,415.55,759.22Z"/><path class="cls-38" d="M357.16,754.39c3.22-3.38,7.33.43,10.75-1.31C364.15,758.07,360.54,758.51,357.16,754.39Z"/><path class="cls-39" d="M423.32,780.19l1.74-5.33c3.16-.36,2.78-2.29,1.92-4.39s-0.58-3.53,2-3.84"/><path class="cls-40" d="M410.17,330.34a5.65,5.65,0,0,1,1.28.33c1.47,2.2,1.44,4.7,1.44,7.19q-0.15,65.46-.28,130.92l0.14,0.31c-4.09,3.08-8.44,2.49-12.86.91-1.19-.87-1.16-2.29-0.07-2.68,4.51-1.61,4.55-5,4-8.8-1.8-12.12-1.57-24.28-.9-36.45,0.21-3.71-.83-6.08-4.88-6.65-2.65-.37-5.52-0.82-6-4.36,10-1.84,10.35-9.31,10.24-17.26,0-2.9.18-5.85,0.35-8.77,0.25-4.26-.67-7.55-5.44-8.69-1.49-.36-3.37-1.15-3.41-2.88,0-2,2-2.07,3.52-2.4,5.08-1.14,4-4.68,3-8-0.58-1.92-2.11-3.87.11-5.47,6-4.33,4.82-10.65,4.89-16.66,0-3.52-1.16-7.29,2-10.19Z"/><path class="cls-41" d="M377.77,239.82l-0.15,77.09c-1.19,1.76-3.07,2.29-5,2.8-2.11.24-4.1,0.1-5.55-1.74-2-4.85-.73-10-1.13-14.93,0-17.74,0-35.48,0-53.22,0-3.11-.42-6.32,1.23-9.22,2.06-2.82,5.14-3,8.24-3.21a4.12,4.12,0,0,1,2.08.48A1.69,1.69,0,0,1,377.77,239.82Z"/><path class="cls-42" d="M389.44,278.85c0.06-10.17.29-20.35,0.11-30.52-0.07-3.77.93-5.26,4.87-5,3.47,0.26,6.59-.4,6.44,5-0.41,15.59-.32,31.19-0.43,46.78-4.22.25-8.56,1.07-12-2.47C387.74,288,386.53,283.28,389.44,278.85Z"/><path class="cls-43" d="M378.71,317.2c0.06-21.44.08-42.88,0.24-64.31,0-2.19-1.2-4.71,2-6.4,2.1-1.09,4.34-2.35,6.23-1.64,2.17,0.81.76,3.58,1,5.47-4.55,2.22-6.7,5.42-5.33,10.79,0.84,3.28-.55,6.71-0.64,10.09-0.12,4.39-.26,8.68,4.74,10.9,2.71,1.2,1.84,3.82,2,6,0.42,7.83,1.13,15.63,2.18,23.41a10.21,10.21,0,0,1-.34,5.7,4.84,4.84,0,0,1-2.58,2.44C384.77,319.95,380.9,321.86,378.71,317.2Z"/><path class="cls-44" d="M389.49,311.53c-2.06-7.19-1.1-14.54-1.24-21.84-0.05-2.61,1.24-5.54-3.49-6.2-3.08-.43-4.61-3.38-4.68-7.16-0.13-7.09,1.59-14.07.3-21.29-1.18-6.58,4.67-4.06,7.9-4.74,0.76,9.5-1.27,19.11,1.17,28.54l0.43,15C390.49,299.76,394.45,305.74,389.49,311.53Z"/><path class="cls-45" d="M389.49,311.53l0.38-17.69c3.81-1.83,7.26-.85,10.56,1.33-0.85,5.58-5.71.89-8.8,4,10.28-2.35,9.49,3.79,9,9.84-0.23,3.11-.11,6.24-0.15,9.36l-0.75.61a5.34,5.34,0,0,1-2.85.24c-2.35-.76-5.24,0-7-2.38Z"/><path class="cls-46" d="M407.18,246.52q0.07,33.26.11,66.53c0,1.94.61,4.16-1.51,5.57l-0.66.15-0.5-.45c0.94-18.47,2-36.9.72-55.45C405,257.69,404.69,251.75,407.18,246.52Z"/><path class="cls-47" d="M400.47,238c0.25-2.73-1.75-6.09,1.28-8,1.87-1.17,4.3-.17,6.26,1.09,3.23,2.07.82,5.37,1.79,7.93-2.87,2-6.06.61-9.09,0.83A1.27,1.27,0,0,1,400.47,238Z"/><path class="cls-48" d="M400.47,238l0.24,1.86c0.26,3-1.95,2.64-3.62,2.44-6.45-.75-12.88-1.67-19.31-2.53l-0.33-1.59c4-3.19,8-3.05,12,0C393.1,238.6,396.79,239,400.47,238Z"/><path class="cls-49" d="M378.71,317.2c3,1.71,6.38-.11,9.42,1.1,1.27,3.59-3.62,4.11-3.54,7.11-0.72,2.19-2,3.64-4.5,3.7-6.07-1.33-4.19-7.53-6.74-11,1.16-1.33,2.75-1.11,4.26-1.19Z"/><path class="cls-50" d="M404.62,318.32a2.94,2.94,0,0,0,1.16.3c3.27,7.67,2.42,9.17-5.1,9-2.88-3.11-2.52-6.24-.08-9.4l-0.1.13Z"/><path class="cls-51" d="M356.85,232.64c-2.15-3.91-1.83-7.46.6-11.33,2.57-4.09,4.4-8.64,6.56-13,2.44,2.12-2,5,.77,7.1,3-.76.55-5.64,4.39-5.69-3.16,10.37-1.3,12.19,12.33,12.09,2,0,4,0,6,0,1.67,0,2.9.45,3.58,2.26,0.86,2.27.58,3.86-1.81,4.77-3.42,2.76-7.43,1.81-11.29,1.77s-8-.62-11.92.64C363.1,232.53,359.93,232.25,356.85,232.64Z"/><path class="cls-52" d="M388.33,195.85c3,0.35,6.54.1,6.34,4.7-0.12,2.71.95,6.2-3.62,6.46-5-.22-10,4.32-14.93-0.16-2.87-3.16,1.06-6.36-.06-9.53C379.6,192.32,383.94,193.84,388.33,195.85Z"/><path class="cls-53" d="M376.11,206.86c5,0.42,10-1.33,14.93.16l-5.31,2.73c4.68,1.85,3.56,7.19-1.7,7.95-3,.44-6.13.63-9.3,0.94C373.63,214.5,376,210.81,376.11,206.86Z"/><path class="cls-54" d="M388.33,195.85c-4.11.35-8.43-1-12.28,1.47L374.86,196c0-9.58,1.59-11,12-10.81C387.26,188.79,386.2,192.54,388.33,195.85Z"/><path class="cls-55" d="M370.79,188q0-7.56-.07-15.13C374.35,176.55,374.38,184,370.79,188Z"/><path class="cls-56" d="M377.59,228.76l11.66,0.12,0.15,9.32-12,0-0.07-.16a4.52,4.52,0,0,1-1.32-1.85C375.42,233.5,375.33,230.88,377.59,228.76Z"/><path class="cls-57" d="M407.29,330.78c0,5.83,0,11.66,0,17.48,0.05,5-.85,9.46-7,10.8,4.32,3.72,3.35,8.29,2.41,12.38-1,4.55-5.17-.06-7.47,1.74a2,2,0,0,0,.59.81c9.51,0.17,9,6.57,8.87,13.39-0.13,5.55-1.9,11-.88,16.61,1.12,6.11-2.09,7.58-7.42,6.74a27.42,27.42,0,0,0-4.06-.05c-3.16-1.47-3.76-4.86-5.55-7.36-4.14-5-2.37-11.17-3.49-16.68,0.22,3.47,0,6.86.23,10.24,1.05,2.74,1.61,5.33-2.42,6a5.86,5.86,0,0,0-5,3.82c-1.64,5-5.79,4.45-9.51,3.82-4.44-.75-2.68-4.66-2.66-7.2,0.07-6.12-1.13-12.08-2.12-18-1.66-9.91-1.14-10.9,8.79-11.26,0.85,0,1.7-.21,2.86-0.36-1.65-1.47-3.28-.68-4.73-1-2.48-.48-6.75,1.35-7-1.86s-2.69-7.6,1.52-10.39c0.84-.56,1.68-1.42.88-2-6-4.27-2.18-10.36-2.88-15.54-0.48-3.55-.68-6.71-4.39-8.32l1.49-3.7c2-2.88,5.08-2,7.83-2.29,4.73-.26,9.46-0.83,14.2-0.06a44.15,44.15,0,0,1,13.12-1.3c2.5-.08,5-0.05,6.95,1.84Z"/><path class="cls-58" d="M400.49,329.05L394,328.9a2.1,2.1,0,0,1-1.1-1.41c-0.2-1.89.44-3.74,0.24-5.63-0.29-3.41.8-5.15,4.5-3.75l2.94,0.13,0.08,9.4Z"/><path class="cls-59" d="M357.37,242.5c-2.18-2.06-2.24-3.62,1.05-4.37a6.63,6.63,0,0,1,3.94,3.45,9.26,9.26,0,0,1,.7,2.2c0.87,20.59.14,41.18,0.44,61.76,0.06,4-.68,8.19,1.76,11.87-0.24,4.83-2.81,6.2-7.21,4.87-0.54-1.2-.23-2.46-0.28-3.7C357.52,293.21,358.27,267.85,357.37,242.5Z"/><path class="cls-60" d="M356.85,232.64c2.26-2.43,5.49-2,8.31-2.84,4.89,0.93,2.37,5.43,3.86,8,0.12,0.64.21,1.3,0.28,1.95-1.66,2.41-1.34,5.15-1.35,7.85q-0.09,28-.18,56.09a2,2,0,0,1-2.12-1c-1.72-3.12-1.37-6.56-1.38-9.91-0.07-14,.07-27.92-0.09-41.87,0-3.49.61-7.36-3-9.87l0.3-.22-0.15-.34c-3-1.76-.25-5.8-3.06-7.62Z"/><path class="cls-61" d="M357.37,242.5c1.74,2.17,1,4.74,1,7.14q0.08,35.08,0,70.16a0.78,0.78,0,0,1-1.4-.11l0.17-.24C356.61,293.79,356.81,268.14,357.37,242.5Z"/><path class="cls-62" d="M358.31,232.88c4.95,1,1.88,5.15,3.06,7.62-1.89.34-2.76-.6-3-2.38Z"/><path class="cls-63" d="M357,319.67l1.4,0.11,0.29,2.78a11.51,11.51,0,0,0,6.94,5.77,2.25,2.25,0,0,1,.88,1.58l-8.15.93C353.58,327.66,356.16,323.56,357,319.67Z"/><path class="cls-64" d="M412.84,473.24q-0.07,86-.11,171.94a10.74,10.74,0,0,1-1.41,5.81c-1.19,1.73-3,1.94-4.88,2.13a67,67,0,0,1-8.74-.61c-3.24-.56-5.47-1.88-5.78-5.45-0.2-2.25-.2-4.88-3.44-4.75-2.73.11-5.67-1.18-8,1.92-2.79,3.7-5.52,3.36-6.56-1.17-1.91-8.27-7.64-16.27-2.54-25.33,1.27-2.25-.29-4.9.35-7.33a3.72,3.72,0,0,1,3.67-1.05c3.28,2.82,7.37,1.76,11.13,2.27,4.24,0.75,4.88-2.52,5.93-5.32,11.77-8.93,12.26-21.22,10.32-34.31-0.47-3.2-1.88-5-5.14-5.12-3-.12-6.41-1-6.89,3.74-0.05.53-1,.85-1.64,1.1a3.65,3.65,0,0,1-3.57-1.3,3.55,3.55,0,0,1-.55-1.84c2.89-2.78-.7-8.3,4.29-10.21,4.4,2.1,8.81,4,13.66,1.3,1.66-10.89,3.09-21.77,2.24-32.79-0.1-1.26-1.17-1.85-2.31-2.2-4.33-.81-8.71-0.11-13-0.57a12.31,12.31,0,0,1-5.82-.84c-2.53-1.55-2.89-3.74-1.89-6.34a5.25,5.25,0,0,1,6-2.27c4.1,5.16,9.86,4,15.32,4,4.69-.3,3-4.1,3.55-6.59,0.7-3.08-1-4.49-3.84-5-1.65-.87-4.54-1.38-3.7-3.65,1.06-2.88,4.4-2.09,6.91-2.4,1.73-.24,2.9-1,3-3a195.32,195.32,0,0,0-.42-20c-0.06-1-1.28-1.1-2.15-1.32-2.8-.21-5.81.3-7.87-2.36q0-.43.09-0.85C403.55,469.78,408.18,470.35,412.84,473.24Z"/><path class="cls-65" d="M407.16,503h-6.7c0.89,2.21,3,1.84,4.13,2.87,3,3.91,3,10-.11,14.76-3.51,0-7-.06-10.53.1-3.84.17-5.82-1.41-5.7-5.35-0.78-1.21-2.52-1.41-3-2.89,0.1-2.21,2.28-3.95,1.4-6.38,0.1-3.4-1-5.55-4.5-7.11-4.39-2-3.91-4.23.91-6.82-2.07-.08-4.08,1.81-6.3.35-5.82-5.38-3.08-11.7-2-17.84l24.15-.32,9.65,0.29C406.58,484,411.19,493.69,407.16,503Z"/><path class="cls-66" d="M361.07,564.11l0-2.55a7.93,7.93,0,0,1-1.79-5c-0.08-9.81-1.61-19.61-.17-29.42,0.39-2.63.31-5.65,4.25-5.58a3.93,3.93,0,0,1,2.08,3.94c-0.46,7.91,2.21,15.58,1.82,23.45-0.34,6.72,2,11.34,8.94,12.85,4.12,2.66,5.09,6.14,4,11-1.73,7.93-1.21,16.08-1.05,24.16,0.07,3.58.69,7.2-.68,10.7-4.48,2.72-9.36,1.91-14.11,1.31-2.53-.32-3.61-2.64-3.86-5A279.42,279.42,0,0,1,359,569.69,8.62,8.62,0,0,1,361.07,564.11Z"/><path class="cls-67" d="M363.91,522.15c-4.79,4.76-3.51,10.89-3.21,16.51,0.41,7.64.57,15.26,0.42,22.9-4.4.18-5.35-2.87-5.29-6.21,0.18-8.89.38-17.79,1.1-26.65,0.39-4.82-1.54-9.44-1-14,1.35-11.69-.73-23.31-0.11-34.95,0.11-2.11-.72-4.79,2.74-5.14a5.59,5.59,0,0,1,4.52,5.75c0,1.11.17,2.23,0.14,3.34-0.31,9,.32,17.48,11.77,19.35-0.71,3.69-3.91,3.14-6.37,3.54-3.22.51-4.68,2.29-5,5.38-0.33,3.28,1.3,4.87,4.26,5.9,2.46,0.86,7.43.67,6.19,4.12-1.13,3.13-5.75,2.51-9,1A5.58,5.58,0,0,1,363.91,522.15Z"/><path class="cls-68" d="M361.07,564.11c-0.21,12.74.52,25.44,1.33,38.14,0.25,4,1.41,6.18,5.44,5.33,3.2-.67,6.85,2.48,9.63-1.18a1.21,1.21,0,0,1,1.86.15,3.45,3.45,0,0,1-.23,4.07,2.5,2.5,0,0,1-3-.18l-4,0c-6.5,1.36-7.93,5.56-7.56,11.74a101.54,101.54,0,0,1-.72,22.91c-0.37,2.19-.09,4.57-2,6.23-2.05.91-3.65,0.46-4.71-1.59,0-9.68-.11-19.37.08-29,0.31-16.16.64-32.3-1.25-48.42C355.42,568.62,354.11,563.46,361.07,564.11Z"/><path class="cls-69" d="M374.72,503.07c-0.9,0-1.81,0-2.71,0-5.61-.13-10.43-0.27-10.16-8.51,0.14-4.08-.64-8.48-0.62-12.73,0-2.86-.34-5.35-2.69-7.23l16.23,0.05c0.88,3.45,2.11,6.84.32,10.44-1.54,3.09,2.31,4.59,2.41,7.25,2,2.13.83,5.57,3.08,7.61a2,2,0,0,1-1.9,2.46C377.27,502,376,502.88,374.72,503.07Z"/><path class="cls-70" d="M412.84,473.24l-13.84.24c-12.74,0-25.47,0-38.21-.2-2.52,0-6.91.8-3.65-4.37h12.19c3.49-2.92,7.57-2,11.57-1.86,4.25,0.13,8.5.23,12.75,0,2.07,0,4.05.2,5.56,1.84l13.53,0.17Q412.79,471.17,412.84,473.24Z"/><path class="cls-71" d="M357,649.73a5.53,5.53,0,0,0,4.25,1.06c1.71-.68,3.35-1,4.46,1a2.05,2.05,0,0,1-.4,1.93c-3.86.06-7.6-.37-10.83-2.78Z"/><path class="cls-72" d="M393.74,468.94l-24.41,0q0-.54-0.09-1.07c1.41-13.16-2.78-25.69-4.37-38.52-0.52-4.19-1.22-8.37-1.92-12.54-0.41-2.44.81-3.25,3-3.32,2.47-.08,4.93-0.11,7.4-0.26,5.25-.3,6.06-2.57,2.83-6.56-1.73-4.31.57-5.59,4.3-5.43,3.29,0.14,2.63-1,1.1-2.68a39.61,39.61,0,0,0,0-16.49c2.92-2.22,4-.63,4.09,2.17,0.15,3.53-.05,7.08.1,10.61,0.13,2.8.06,5.77,2.81,7.66l-0.56.74c-1.59,2.1-5.61-.67-6.3,3.19,0.78,3.58-.13,7.28,1,10.81a6.53,6.53,0,0,1,.58,1.81c-0.05,2-1.45,3.58-2,5.44-1.5,3.11,1.28,7.88-3.7,9.64-1.19-.95-0.29-2.5-1-3.64,0.88,4.48,1.81,8.88,2.75,13.29a74.93,74.93,0,0,1-.13,12.63c-0.41,1.51-1.55,3.06.26,4.47,2.73,4.07,8.17,1.23,11.34,4.5C391.81,466.49,394.2,466.44,393.74,468.94Z"/><path class="cls-73" d="M365.33,653.71q-0.06-.66-0.11-1.31c8.83-4.23,18-2.25,27.11-1.47,4.67,0.4,9.27,1.51,14,.35l5-.28c3.33,3.51,4.06,8.28,6.07,12.42,1.22,2.52,2.09,5.37,4.92,6.75,4.05,4.44,7.94,8.94,5.21,15.64-11,1.63-21.72,4.72-32.93,4.51-1.61-.36-3-1.86-4.84-1.1-3.47,2.24-2.48-.82-2.51-2.24-0.21-8.51-.58-17-0.36-25.53,0.14-5.54-2-7.73-7.43-7.5C374.75,654.15,370,653.81,365.33,653.71Z"/><path class="cls-74" d="M389.75,689.23c0.94-1.74,2.55-1,4-1.09,1.29,4.54,1.52,9.25,2,13.9,0.65,6,1.31,11.91,5.13,16.9-7.14,2.53-8.63,8.28-8.48,15a3.72,3.72,0,0,1-1.32,1.6c-3.22,2.58-5.21-2.54-8.21-1.31-3.88-3.56-4.71-8.1-4.14-13.07,0.05-.34.11-0.67,0.16-1,4.43-4.52,2.17-10.2,2.63-15.4,0.25-2.85-.61-6.24,4.07-6,2.89,2.67,1.9,6.2,2,9.44s-0.32,6.73,2.06,9.55C394.56,708.23,390.93,698.73,389.75,689.23Z"/><path class="cls-75" d="M358.42,728.56c-4.9,1.56-9.32-1.18-14-1.54,1.5-.29,3-0.7,4.5-0.87,7.85-.86,8.07-1.14,6-8.4h11.65c3.57,3.56,8.33.88,12.31,2.33a0.54,0.54,0,0,1-.12.72c0,6-2.24,7.87-8.92,6.38C365.69,726.28,362,725.77,358.42,728.56Z"/><path class="cls-76" d="M389.66,717.72c-2.86-1.05-4.23-2.91-4.07-6.15,0.21-4.27,0-8.56,0-12.84,0-1.34,0-2.68.1-4,0.08-1.1.26-2.42,1.81-2.14,1.36,0.24,1.18,1.44,1.31,2.59A172.4,172.4,0,0,1,389.66,717.72Z"/><path class="cls-77" d="M450.81,710.91a5.85,5.85,0,0,1,.08.67c0.15,13.11,5.9,13.46-6.83,13.06-1.36,0-6.66-1.85-6.77-.34-2.44.18-5-.39-7.17,1.37-3.52,3.39-7.66,2.41-11.75,1.68-4.49-1.06-2.58-7.5-7.15-8.5-2.55-.51-5-0.62-7.41.76a4.53,4.53,0,0,1-1.77.28,2.43,2.43,0,0,1-1.48-1c-4-1.16-5.71-3.39-5.7-8,0-7.59-3.93-15-1.18-22.8,4,2.7,7.59-.33,11.31-0.85,7.46-1,14.85-2.59,22.44-2.38,2.7-.88,1.81,2.1,3,2.81,0.48,5.41,5,8.82,6.76,13.65,0.9,2.49,3.61,1,5.39,1.65,0.46,2.64-3.47,1.75-3.07,3,0.82,2.68,3.51,3,6.06,2.86C447.63,708.83,449.66,708.74,450.81,710.91Z"/><path class="cls-78" d="M358.42,728.56c1.43-5.33,4.92-5.47,9.25-3.75,6.37,2.53,9.57,1.35,11.08-4,3,4,1.91,9.16,4.1,13.36-4,3.3-9.52-1-13.43,2.69l0,0-13.57-.24C357.59,734.2,359,731.68,358.42,728.56Z"/><path class="cls-79" d="M449.42,746.51l1.42,0.8"/><path class="cls-80" d="M402,719.31a2.79,2.79,0,0,1,1.25-.41c1.87,3.8,6.15,4.25,9.12,6.54,2.39,4.06,2.44,7.86-1.26,11.23-3.9.74-7.77,2.53-11.74,0.32-3.07,1.24-5.69-.06-8.28-1.5l0.21-1.42c0.3-5.11.07-10.43,7.49-10.86C400.21,723.13,399.8,719.79,402,719.31Z"/><path class="cls-81" d="M411.36,735.3c0.36-3,1.84-6.08,0-9.12l0.63-.88a4.24,4.24,0,0,1,5,.37h13.11c1.12,0.39,2.52.11,0.87,2.2-1.43,1.8-5.88.49-4.72,4.65C422,736.95,416.76,736.67,411.36,735.3Z"/><path class="cls-82" d="M411.36,735.3c5.23,0.45,10.1-1,14.92-2.78,2.67,0.09,5.07-2.24,8.34-.54-6.69,4.93-14.64,4.43-22,6-2.6.55-5.32,0.34-8,1.12-2,.58-4.66,1.34-5.36-2.09C403.3,736.12,407.62,737.8,411.36,735.3Z"/><path class="cls-83" d="M369.42,736.87H384c-4.88.66-9.79,2.87-14.58,0Z"/><path class="cls-84" d="M385.41,160.94a6.37,6.37,0,0,1,1.67,5.33c-2.65.25-5.31,1.28-7.95,0-0.45-2,1.7-2.64,2.05-4.2C382,159.37,383.52,159.42,385.41,160.94Z"/><path class="cls-85" d="M385.41,160.94a5.28,5.28,0,0,0-4.23,1.09c-4.14-2.69.71-6.34-1-9.29C387.64,151.84,386.3,156.53,385.41,160.94Z"/><path class="cls-86" d="M382.72,94.08c0.12-1.74.93-2.8,2.79-2.82,3.43,3.65-.2,7.31,0,11l-2.39-.16Q382.93,98.07,382.72,94.08Z"/><path class="cls-87" d="M393.74,468.94c-3.9-1.91-7.57-4.4-12.28-4-2.66.25-4.67-.4-2.63-3.7,1.26-2.73,4.61-1.51,6.33-3.36,4-8.6,3.2-10.15-7.55-14.24-2.6-4.86-1.2-10-1.49-15.61,2.11,2.07.92,4.21,1.53,6,2.65,2.1,5,5.79,8.77,1.59,0.9-3.41-.21-6.65-0.82-9.9-1.47-1.65-4.42-.73-5.45-3.12,0-1.93,1.88-2.38,2.78-3.6,0.05-.3.1-0.6,0.15-0.9,2-4.11,1.78-8.64,2.51-13,0.74-1,1.91-1.62,2.73-2.57l0.19-.07,3.88,8.21c1.45,3.18,4.35,2.9,7,2.67,4.61-.4,6.12,2,5.82,6-1,13.23-1.18,26.44.81,39.59,0.85,5.62-.28,9.54-6.81,9.95Z"/><path class="cls-88" d="M366.54,329.92a0.71,0.71,0,0,0-.57-0.7c-1.47-.38-1-1.44-0.85-2.38,1.49-2.61.18-6.16,2.82-8.38l5.42-.36c2.75,0,4.66.56,4.4,4.15-0.15,2.09-1.36,5.27,2.54,5.86l0,0.77C375.68,329.14,371.3,332.05,366.54,329.92Z"/><path class="cls-89" d="M369.31,239.73q-0.64-.17-1.27-0.39c-0.79-3.2-2.28-6.7,1.22-9.09,4.36-3,7.11-.62,8,6.6a4.63,4.63,0,0,1,.12,1.22C375,240.34,372,239,369.31,239.73Z"/><path class="cls-59" d="M367.94,318.46c-0.69,3.13,1.2,6.59-1.21,9.49-3.3-2.94-1.44-6.45-1.11-9.8-1.66-5.13-2.72-10.21,1.18-14.9a4.29,4.29,0,0,1,1,.42Q367.86,311.07,367.94,318.46Z"/><path class="cls-90" d="M397.67,318.12c-3.13-.19-3,1.87-2.81,4-2.08,3.39-5.33,3.64-8.81,3.28a5.54,5.54,0,0,1-2.91-1.53c-0.43-3.74,4.71-2.51,5-5.61l1.74-1.45C392.49,317.2,395.3,316.31,397.67,318.12Z"/><path class="cls-91" d="M383.15,323.91l2.61,0c2,2.84,6,1.16,8.09,3.74a4.77,4.77,0,0,1,.18,1.22,58.72,58.72,0,0,1-13.77,0,0.7,0.7,0,0,1,0-.77C382.52,327.57,383.31,326.06,383.15,323.91Z"/><path class="cls-92" d="M377.25,236.85c-1.11-4-1.78-9.06-7.87-5.49-3.1,1.82-1.14,5.26-1.35,8-3.64-2.38.68-7.15-2.87-9.55,4-2,8.24-1.27,12.43-1Z"/><path class="cls-93" d="M378.12,378.6a49.57,49.57,0,0,1,.11-17.56c4.86,0.9,2.83,7.25,7.18,8.1,2.77-2-.92-5.73,2.56-8.06a54.29,54.29,0,0,1,.11,16.85c-4.14-1.43-5.33-4.85-7.12-8.06C379.51,372.53,381.17,375.52,378.12,378.6Z"/><path class="cls-94" d="M385.64,350.91c0.57-3.31-.9-7,2.06-11.26a36.74,36.74,0,0,1,.44,14.34,4.18,4.18,0,0,1-4.16,3.76c-2.4.12-4.92-.2-5.59-2.75-1.22-4.65-1.69-9.42.55-14.49,2.26,2.73.87,5.33,1.43,7.65C381.37,350.52,381.26,355,385.64,350.91Z"/><path class="cls-95" d="M385.64,350.91c0.35,2.36-.34,4.26-3,3.71-3.91-.81-2.09-4.08-2.25-6.46C381.68,349.93,383.17,351.37,385.64,350.91Z"/><path class="cls-96" d="M381.51,382a16.63,16.63,0,0,1,0,16.49Q381.52,390.28,381.51,382Z"/><path class="cls-97" d="M393.85,327.68c-2.93-.73-7.87,2.87-8.09-3.74a21.52,21.52,0,0,0,9.1-1.8A7.61,7.61,0,0,1,393.85,327.68Z"/><path class="cls-98" d="M366.8,303.25l-0.21,15a0.72,0.72,0,0,1-1.29.33c-3.48.32-4.41-1.2-4.38-4.67,0.23-24.28.23-48.55,0.31-72.83,4.46-1.4,5.61.26,5.56,4.81C366.57,265,366.75,284.12,366.8,303.25Z"/><path class="cls-99" d="M365.3,318.56a9.29,9.29,0,0,0,1.29-.33l0.14,9.71L366,329.22c-5,.55-8.6-0.33-7.25-6.65Z"/><path class="cls-100" d="M374.72,503.07c0.7-.87.82-2.85,2.72-1.42a6.73,6.73,0,0,1,1.12,1.51,6.5,6.5,0,0,1,.27,2.78c0.1,2.74-2.61,5.7.71,8.17,3.15,2.48,1.41,6.19,2.36,9.16,1-.34,1.91-0.9,2.9-1.19l4.95,0.14c3.54,5.25,1.58,9.89-1.61,14.38-6.93,0-7.35.57-9.36,12.76,0.08,1.87-.67,3.66-0.56,5.53,2,6.21,2,6.21-2.1,7.94-8.32-.19-11.12-2.57-10.77-10.8,0.42-10-3.5-19.82-1.43-29.89h9.36l0.07-.9c-1.89-.43-3.77-1.21-5.66-1.23-7-.08-7.08-4.53-6.35-9.58,0.58-4,2.25-6.67,7-6.1C370.48,504.6,372.94,505.09,374.72,503.07Z"/><path class="cls-101" d="M386.79,537.15c2-4.78,3.61-9.63,2.95-14.93h14.83c3.52,3.66,1.93,8,1.41,12.06-1.2,9.48.24,19.07-1.38,28.52-5.55-.75-12.14,2.65-16.21-4-1-.95-0.57-2.78-2.14-3.35-2.89-.49-5.76-0.08-8.64.06a2.46,2.46,0,0,1-1.52-.88l1.37-5.2a3.56,3.56,0,0,1,1.26-1.36,8.4,8.4,0,0,1,5.78-.49c4.48,0.85,2.8-1.73,2-3.77C385.64,541.53,384.82,539.28,386.79,537.15Z"/><path class="cls-102" d="M406.3,651.28c-11.11,2.79-22.43.48-33.63,1.42a58.28,58.28,0,0,1-7.45-.3l-4-1.61c1.62-10.64,1.19-21.37,1.23-32.07,0-9.84,0-9.84,9.55-8.29,2.52,2.82,3.06,5.63.94,9.15-2.74,4.56-2.89,9.33.37,14,2.6,3.69.06,9.19,4.63,12.88,0-9.48,6.84-5.51,11.28-6.09,5-.65,4.58,3.08,4.48,6.27-0.07,2.29.32,3.41,3.16,3.85C400.05,650.93,403.18,650.94,406.3,651.28Z"/><path class="cls-101" d="M388.36,571c3.3-.45,1.26-4.27,3.68-5.6,5.21-2.87,11.09,1,12.85,6.39,3.44,10.59-2.28,19.7-3.1,29.53-0.2,2.43-1.83,3.5-4.14,3.58-1.93.07-3.65,0.35-3.89,2.76-5.29-.67-3.2-5.71-5-8.45-0.31-2.64.56-5.48-1.4-7.81-3.5-2-11-1.84-4.92-9.05-4.56-5.78,3.6-5.72,4.19-9.14A5.77,5.77,0,0,1,388.36,571Z"/><path class="cls-103" d="M389.43,589.76a13.37,13.37,0,0,1,.51,9.69c0.39,2.07-.82,3.12-2.47,3.89-3.32.65-6.57,0.32-7.65-3.32-0.76-2.56,1.3-4,4-4.28-5.32,2.08-5.42,2.6-1.92,8.64a2.13,2.13,0,0,1-1.09,2.44,2.19,2.19,0,0,1-1.83-.33l-1.54-.08c0-10-.31-20,0.08-30,0.18-4.66,3.35-9.44-1.44-13.52,5.48-2.76-.78-5.49,0-8.24l1.12,0.06c4.6,0.11,5.73,3.22,6.13,7,0.29,2.74-.57,5.8,2.1,7.92l2.92,1.42-0.24,3.06a8.67,8.67,0,0,1-2.3,1.29c-1.9.72-5.25-.41-5.28,2.73,0,3.48-1.58,7.36.27,10.4S386.48,589.53,389.43,589.76Z"/><path class="cls-104" d="M407.16,503c0.8-9.43-4.07-19.14,1.4-28.34,2,0.07,2.81,1.13,2.81,3,0,7,0,13.94.07,20.91C411.49,501.63,410.53,503.38,407.16,503Z"/><path class="cls-105" d="M385.44,569.6c-3.18,1.37-4.25.36-4.14-3.1,0.14-4.37,1.17-9.26-4.1-11.84,3.45-2.16,7.28-.9,10.94-1.23-2,4.76-.92,10.06-2.65,14.86A1.48,1.48,0,0,0,385.44,569.6Z"/><path class="cls-104" d="M404.59,562.81c0.62-11.35-1.14-22.77,1.21-34.1,0.41-2-.79-4.32-1.24-6.48,1.18,0.11,2.46.53,2.53,1.76A173.38,173.38,0,0,1,404.59,562.81Z"/><path class="cls-104" d="M404.48,520.59c0.33-4.92,1.24-9.83.11-14.76,2.92-.21,5.46,1.09,4.44,4C407.77,513.48,411.73,519.55,404.48,520.59Z"/><path class="cls-106" d="M381.63,528.49c-1.83-2.83-1.27-6-1.14-9,0.09-2.13.12-4.17-2.84-4.22,0.55-4.87,2-5.39,8.15-2.86,1.81,0.17,3.19.71,2.47,3L383.11,517C380.76,520.57,383.58,524.84,381.63,528.49Z"/><path class="cls-103" d="M385.49,568.29c-1.39-5.36-2.11-10.6,2.65-14.86,3,1.65.66,3.54,0.24,5.34C387.32,561.91,390.71,566.41,385.49,568.29Z"/><path class="cls-66" d="M387.53,602.35l2.41-2.89c3.13,1.89.19,6.59,3.82,8.24-1.05,3.33-2,6.8-6.8,5.28a2,2,0,0,1-.46-1.69C389.2,608.58,385.46,605.12,387.53,602.35Z"/><path class="cls-107" d="M381.63,528.49c0-4.17.06-8.34,0.11-12.51a1,1,0,0,1,.34-0.36l1,1.36c0.56,1.7-1,4.11,1.68,5.11C382.15,523.44,384.87,527.44,381.63,528.49Z"/><path class="cls-102" d="M386.94,612.28c0,0.23,0,.46,0,0.69-3.56-1.09-8.41,3.36-10.87-2.52l2.68-.08C381.83,609.55,384.82,609,386.94,612.28Z"/><path class="cls-108" d="M377.72,505.21l-0.09-2.05c1.42-1.76,3.22.29,4.79-.43-0.64-1-1.78-1.31-2.44-2.17-3.66-1.88-2.47-5.23-2.48-8.21,4.22-1.35,8.9-4.33,11,2.83-1.87,1.61-2.28-.34-3.26-0.87-1.6-.87-3.68-1.51-4.48.74s1.36,2.36,2.86,2.63c5.63,1,5.69,4.72,4.5,9.08C383,511.51,380.77,511.18,377.72,505.21Z"/><path class="cls-109" d="M377.72,505.21c2.93,4.15,6.49,4,10.4,1.55,2.29,3.15-.87,4-2.34,5.61-2.47,1.66-7-2.53-8.15,2.86C372.91,511.85,377.82,508.55,377.72,505.21Z"/><path class="cls-110" d="M386.94,612.28c-2.84-.15-5.81.25-8.18-1.91l0.24-3.88q0.5,0,1,.11c0.79,0.15,1.74.75,2.3-.13,0.36-.56-0.47-1.09-0.79-1.62-3.68-2.57-4.47-6.22-1.29-9.05,3.36-3,6.64-1.49,8.45,2.69a3,3,0,0,1-1.07.8c-2-.68-3.53-3.25-6-1.19a2,2,0,0,0-.66,1.72c1.45,2.63,4.29,1.88,6.58,2.53C390.06,605.82,390.74,609.18,386.94,612.28Z"/><path class="cls-111" d="M380,500.56c0.88,0,1.75,0,2.63.07,1.62,0.11,3.2.5,3.44,2.39a2.62,2.62,0,0,1-1,2.17c-1.38.78-3.14,1-4.27-.31-0.92-1.08-1.63-2-3.18-1.71l-0.19-1.51Z"/><path class="cls-112" d="M377.62,443.69c11.57-1,14.62,4.35,9.17,16.13-3.17-.21-6.83,2.62-9.35-1.53Z"/><path class="cls-113" d="M388.08,436.75c-0.46,5.56-4.59,2.37-7,2.78-5,.82-1.22-4.26-3.4-5.48,2.09-3.54-1.58-8.33,2.5-11.43,2.58,1,5.82-1.15,8,1.64-0.48,1.57-2.27,2-2.91,3.47C390,429.57,383.2,435,388.08,436.75Z"/><path class="cls-114" d="M388.32,402.54c0.06,1.17,0,2.3-1.33,2.8-2.48,1-2.67,3-2.7,5.34,0,2.75.7,5.73-1.42,8.15l0.05,0.19q-0.67-.07-1.33-0.18c-2.1-4.23.74-9.08-1.65-13.28-2.46-.75-3.39-2.19-0.33-2.93C382.36,401.94,385.41,402.51,388.32,402.54Z"/><path class="cls-115" d="M379.94,405.55c3.1,4.11.44,8.94,1.65,13.28C378.61,414.71,380.77,409.94,379.94,405.55Z"/><path class="cls-12" d="M377.44,458.29c2.66,3.3,6.2,1.24,9.36,1.53-2.34,2.23-5.37.64-8,1.47-1-.57-2.75.35-3-1.38C375.77,459.45,376.87,458.83,377.44,458.29Z"/><path class="cls-116" d="M402,719.31c0.11,4.15-1.11,6.76-6.07,6.61-6.16-.19-1.91,6.08-4.64,8.15-0.09-1.53-.26-3.06-0.27-4.59,0-9.51,0-9.51,9.58-10.54Z"/><path class="cls-117" d="M450.81,710.91a6.6,6.6,0,0,0-3.9-.27c-4.87.94-8.65-.24-9.72-5.87,1.53-1.28,4,0,5.44-1.75C451.2,702.56,451.2,702.56,450.81,710.91Z"/><path class="cls-118" d="M411.36,726.18c-3.35-1.72-10,.2-8.14-7.28,2-4.8,5.41-1.41,8.23-1.43,2.3,2.64,2.33,5.32.15,8A6,6,0,0,1,411.36,726.18Z"/><path class="cls-119" d="M407.2,707c3.13,0.12,4.17,2,4.17,4.86s-1.78,3.33-4,3.1c-3.18-.33-3.77-2.77-3.86-5.31S405.29,706.91,407.2,707Z"/><path class="cls-120" d="M411.6,725.51l-0.15-8c2.11-1.93,3.4-1.43,4,1.31,0.5,2.31,1,4.6,1.57,6.9Z"/><path class="cls-121" d="M388.08,436.75a5.07,5.07,0,0,1-1.33-.08c-2.08-.71-5.72,1.61-6.12-2-0.46-4.12,3.8-1.49,5.46-2.85a3.68,3.68,0,0,0,.62-1,1.46,1.46,0,0,0-.17-0.56c-1.64-1.81-6,.87-5.93-2.62,0-3.78,4-1.16,5.9-2.25,0.58-.33,1.12-0.73,1.68-1.09C386.74,428.41,390.14,432.61,388.08,436.75Z"/><path class="cls-115" d="M382.87,418.83c0.06-3.32.27-6.65,0.14-10-0.12-3,1.16-4,4-3.53-2,3.54,1.64,7.66-1.28,11.29C384.84,417.71,384.44,418.85,382.87,418.83Z"/><path class="cls-122" d="M378.91,549.32l-1.46.08c-0.81-5.2,1.79-9.74,2.83-14.59a2.15,2.15,0,0,1,2.21-1.94c3.18-.25,2.88,2.85,4.3,4.29,0.39,2.24,0,4.65,1.51,6.65a5.07,5.07,0,0,1-.2,5.7C385,548.81,382,545.84,378.91,549.32Z"/><path class="cls-103" d="M378.91,549.32c2.8-5.2,5.88-3,8.9-.21,1.33-1.77,0-3.61.48-5.31,1.78,1.84,2.13,4.09.56,6s-3.33.14-4.78-.62C382.22,548.18,380.63,549.33,378.91,549.32Z"/><path class="cls-123" d="M389.87,643.39c-2.38.46-4.49,2.85-6.93,1a2.46,2.46,0,0,1-.38-1.69C385.06,641.67,387.55,641.46,389.87,643.39Z"/><path class="cls-124" d="M389.43,589.76c-3.47,2-8.57,3.25-10.11,0a18.36,18.36,0,0,1-.06-14.46c1.22-2.75,5.86-.44,8.87-1.25,1.08,4-2,3-4,3.29-1.07.17-2.4,0.09-2.55,1.53s1.22,1.47,2.26,1.74c1.49,0.39,4.2-1.06,4,1.9-0.13,2.47-2.48.93-3.8,1.21s-2.74.41-2.72,2.21c0,2.18,1.55,2.41,3.26,2.33S388.26,587.85,389.43,589.76Z"/><path class="cls-125" d="M381.5,604.84c1.89,0.08,4-.46,5.22,1.65a1.5,1.5,0,0,1-.71,2.19c-2.42.73-4.78,0.78-6-2.1Z"/><path class="cls-126" d="M386.78,451.37c-0.06,3-.17,5.8-4.06,5.74s-2.5-3.15-2.42-4.94c0.09-2.2-1.88-6,2.83-5.91C386.46,446.31,386.62,449.06,386.78,451.37Z"/><path class="cls-127" d="M382.34,537.21c0.12,2.87,3.24,3.79,1.75,6.2a2.58,2.58,0,0,1-2.46,0C379.74,541.58,381.5,539.89,382.34,537.21Z"/><line class="cls-128" x1="278.33" y1="390.77" x2="330.08" y2="390.77"/><text class="cls-129" transform="translate(23 275.29)">Función: Vehículo de lanzamiento <tspan x="0" y="16.8">suborbital calificado para humanos</tspan><tspan x="0" y="33.6">Fabricante: Chrysler Corporation</tspan><tspan x="0" y="50.4">País de origen: Estados Unidos</tspan><tspan x="0" y="84">Tamaño:</tspan><tspan x="0" y="100.8">Altura: 25,41 m </tspan><tspan x="0" y="117.6">Diámetro: 1,78 m </tspan><tspan x="0" y="134.4">Masa: 30.000 kg </tspan><tspan x="0" y="168">Lanzamientos totales: 6</tspan><tspan x="0" y="201.6">Primer vuelo: 21 de noviembre de </tspan><tspan x="0" y="218.4">1960</tspan><tspan x="0" y="235.2">Último vuelo: 21 de julio de 1961</tspan></text><line class="cls-128" x1="430.18" y1="275.29" x2="481.93" y2="275.29"/><line class="cls-128" x1="431.14" y1="390.77" x2="482.89" y2="390.77"/><text class="cls-129" transform="translate(490.96 394)">Utilizado durante los primeros vuelos <tspan x="11.51" y="16.8">suborbitales del proyecto Mercury </tspan><tspan x="46.94" y="33.6">entre los años 1960 y 1961</tspan></text><text class="cls-129" transform="translate(517.73 501.14)">380 km de alcance, 220 km de <tspan x="-22.11" y="16.8">altitud y una velocidad de 6800 kph.</tspan></text><line class="cls-128" x1="428.95" y1="495.56" x2="480.7" y2="495.56"/><text class="cls-129" transform="translate(523.7 266.75)">Versión modificada del misil <tspan x="-24.35" y="16.8">Redstone (también conocido como </tspan><tspan x="-18.4" y="33.6">Redstone Táctico) utilizado por el </tspan><tspan x="18.79" y="50.4">ejército estadounidense</tspan></text></svg>