<?xml version="1.0" encoding="UTF-8"?><svg xmlns="http://www.w3.org/2000/svg" viewBox="0 0 995.83 267.16"><defs><style>.e,.f{fill:#f77f00;}.g,.h,.i{fill:#fff;}.f,.h,.i,.j{font-family:Poppins-SemiBold, Poppins;}.f,.h,.j{font-size:27px;}.k{stroke:#fff;}.k,.l,.m{fill:none;stroke-miterlimit:10;}.l{stroke:#f77f00;}.i{font-size:16px;}.m{stroke:#d62828;}.j,.n{fill:#d62828;}</style></defs><g id="a"/><g id="b"><g id="c"><text class="i" transform="translate(427.51 13.67)"><tspan x="0" y="0">Segunda selección</tspan></text><text class="h" transform="translate(487.17 42.86)"><tspan x="0" y="0">110 </tspan></text><circle class="n" cx="187.11" cy="91.83" r="10"/><circle class="n" cx="213.11" cy="91.83" r="10"/><circle class="n" cx="239.11" cy="91.83" r="10"/><circle class="n" cx="265.11" cy="91.83" r="10"/><circle class="n" cx="291.11" cy="91.83" r="10"/><circle class="n" cx="317.11" cy="91.83" r="10"/><circle class="n" cx="343.11" cy="91.83" r="10"/><circle class="n" cx="369.11" cy="91.83" r="10"/><circle class="n" cx="395.11" cy="91.83" r="10"/><circle class="n" cx="421.11" cy="91.83" r="10"/><circle class="n" cx="447.11" cy="91.83" r="10"/><circle class="n" cx="473.11" cy="91.83" r="10"/><circle class="n" cx="499.11" cy="91.83" r="10"/><circle class="n" cx="525.11" cy="91.83" r="10"/><circle class="n" cx="551.11" cy="91.83" r="10"/><circle class="n" cx="577.11" cy="91.83" r="10"/><circle class="n" cx="603.11" cy="91.83" r="10"/><circle class="n" cx="629.11" cy="91.83" r="10"/><circle class="n" cx="655.11" cy="91.83" r="10"/><circle class="n" cx="681.11" cy="91.83" r="10"/><circle class="n" cx="707.11" cy="91.83" r="10"/><circle class="n" cx="733.11" cy="91.83" r="10"/><circle class="n" cx="759.11" cy="91.83" r="10"/><circle class="n" cx="785.11" cy="91.83" r="10"/><circle class="n" cx="811.11" cy="91.83" r="10"/><circle class="n" cx="187.11" cy="118.83" r="10"/><circle class="n" cx="213.11" cy="118.83" r="10"/><circle class="n" cx="239.11" cy="118.83" r="10"/><circle class="n" cx="265.11" cy="118.83" r="10"/><circle class="n" cx="291.11" cy="118.83" r="10"/><circle class="n" cx="317.11" cy="118.83" r="10"/><circle class="n" cx="343.11" cy="118.83" r="10"/><circle class="n" cx="369.11" cy="118.83" r="10"/><circle class="n" cx="395.11" cy="118.83" r="10"/><circle class="n" cx="421.11" cy="118.83" r="10"/><circle class="n" cx="447.11" cy="118.83" r="10"/><circle class="n" cx="473.11" cy="118.83" r="10"/><circle class="n" cx="499.11" cy="118.83" r="10"/><circle class="n" cx="525.11" cy="118.83" r="10"/><circle class="n" cx="551.11" cy="118.83" r="10"/><circle class="n" cx="577.11" cy="118.83" r="10"/><circle class="n" cx="603.11" cy="118.83" r="10"/><circle class="n" cx="629.11" cy="118.83" r="10"/><circle class="n" cx="655.11" cy="118.83" r="10"/><circle class="n" cx="681.11" cy="118.83" r="10"/><circle class="n" cx="707.11" cy="118.83" r="10"/><circle class="n" cx="733.11" cy="118.83" r="10"/><circle class="n" cx="759.11" cy="118.83" r="10"/><circle class="n" cx="785.11" cy="118.83" r="10"/><circle class="n" cx="811.11" cy="118.83" r="10"/><circle class="n" cx="187.11" cy="145.83" r="10"/><circle class="n" cx="213.11" cy="145.83" r="10"/><circle class="n" cx="239.11" cy="145.83" r="10"/><circle class="n" cx="265.11" cy="145.83" r="10"/><circle class="n" cx="291.11" cy="145.83" r="10"/><circle class="n" cx="317.11" cy="145.83" r="10"/><circle class="n" cx="343.11" cy="145.83" r="10"/><circle class="n" cx="369.11" cy="145.83" r="10"/><circle class="e" cx="395.11" cy="145.83" r="10"/><circle class="e" cx="421.11" cy="145.83" r="10"/><circle class="e" cx="447.11" cy="145.83" r="10"/><circle class="e" cx="473.11" cy="145.83" r="10"/><circle class="e" cx="499.11" cy="145.83" r="10"/><circle class="e" cx="525.11" cy="145.83" r="10"/><circle class="e" cx="551.11" cy="145.83" r="10"/><circle class="e" cx="577.11" cy="145.83" r="10"/><circle class="e" cx="603.11" cy="145.83" r="10"/><circle class="e" cx="629.11" cy="145.83" r="10"/><circle class="e" cx="655.11" cy="145.83" r="10"/><circle class="e" cx="681.11" cy="145.83" r="10"/><circle class="e" cx="707.11" cy="145.83" r="10"/><circle class="e" cx="733.11" cy="145.83" r="10"/><circle class="e" cx="759.11" cy="145.83" r="10"/><circle class="e" cx="785.11" cy="145.83" r="10"/><circle class="e" cx="811.11" cy="145.83" r="10"/><circle class="e" cx="187.11" cy="172.83" r="10"/><circle class="e" cx="213.11" cy="172.83" r="10"/><circle class="e" cx="239.11" cy="172.83" r="10"/><circle class="e" cx="265.11" cy="172.83" r="10"/><circle class="e" cx="291.11" cy="172.83" r="10"/><circle class="e" cx="317.11" cy="172.83" r="10"/><circle class="e" cx="343.11" cy="172.83" r="10"/><circle class="e" cx="369.11" cy="172.83" r="10"/><circle class="e" cx="395.11" cy="172.83" r="10"/><circle class="e" cx="421.11" cy="172.83" r="10"/><circle class="e" cx="447.11" cy="172.83" r="10"/><circle class="e" cx="473.11" cy="172.83" r="10"/><circle class="e" cx="499.11" cy="172.83" r="10"/><circle class="e" cx="525.11" cy="172.83" r="10"/><circle class="e" cx="551.11" cy="172.83" r="10"/><circle class="e" cx="577.11" cy="172.83" r="10"/><circle class="e" cx="603.11" cy="172.83" r="10"/><circle class="e" cx="629.11" cy="172.83" r="10"/><circle class="e" cx="655.11" cy="172.83" r="10"/><circle class="e" cx="681.11" cy="172.83" r="10"/><circle class="e" cx="707.11" cy="172.83" r="10"/><circle class="e" cx="733.11" cy="172.83" r="10"/><circle class="e" cx="759.11" cy="172.83" r="10"/><circle class="e" cx="785.11" cy="172.83" r="10"/><circle class="e" cx="811.11" cy="172.83" r="10"/><circle class="e" cx="187.11" cy="199.83" r="10"/><circle class="e" cx="213.11" cy="199.83" r="10"/><circle class="e" cx="239.11" cy="199.83" r="10"/><circle class="e" cx="265.11" cy="199.83" r="10"/><circle class="e" cx="291.11" cy="199.83" r="10"/><circle class="g" cx="317.11" cy="199.83" r="10"/><circle class="g" cx="343.11" cy="199.83" r="10"/><circle class="g" cx="369.11" cy="199.83" r="10"/><circle class="g" cx="395.11" cy="199.83" r="10"/><circle class="g" cx="421.11" cy="199.83" r="10"/><text class="f" transform="translate(899.67 119.34)"><tspan x="0" y="0">47</tspan></text><text class="h" transform="translate(516.56 248.19)"><tspan x="0" y="0">5</tspan></text><text class="j" transform="translate(63.36 82.34)"><tspan x="0" y="0">58</tspan></text></g><g id="d"><polyline class="l" points="811.11 174.33 917.72 174.33 917.72 137.33"/><polyline class="m" points="187.11 147.33 80.5 147.33 80.5 110.33"/><polyline class="k" points="483.11 238.94 395.11 238.94 395.11 199.83"/></g></g></svg>