<?xml version="1.0" encoding="UTF-8"?><svg xmlns="http://www.w3.org/2000/svg" viewBox="0 0 995.83 675.21"><defs><style>.e,.f,.g{fill:#f77f00;}.h,.i,.j,.k{fill:#fff;}.f,.i,.k,.l{font-family:Roboto-Bold;}.f,.i,.l{font-size:27px;}.m{stroke:#fff;}.m,.n,.o{fill:none;stroke-miterlimit:10;}.p{font-size:16.22px;}.p,.j,.g{font-family:Roboto;}.p,.l,.q{fill:#d62828;}.n{stroke:#f77f00;}.j{font-size:16.89px;}.g{font-size:16.51px;}.o{stroke:#d62828;}.k{font-size:21px;}</style></defs><g id="a"/><g id="b"><g id="c"><text class="k" transform="translate(413.7 17.94)"><tspan x="0" y="0">Cuarta selección</tspan></text><text class="i" transform="translate(488.88 48.97)"><tspan x="0" y="0">32 </tspan></text><circle class="q" cx="187.11" cy="97.94" r="10"/><circle class="q" cx="213.11" cy="97.94" r="10"/><circle class="q" cx="239.11" cy="97.94" r="10"/><circle class="q" cx="265.11" cy="97.94" r="10"/><circle class="q" cx="291.11" cy="97.94" r="10"/><circle class="q" cx="317.11" cy="97.94" r="10"/><circle class="q" cx="343.11" cy="97.94" r="10"/><circle class="q" cx="369.11" cy="97.94" r="10"/><circle class="q" cx="395.11" cy="97.94" r="10"/><circle class="q" cx="421.11" cy="97.94" r="10"/><circle class="q" cx="447.11" cy="97.94" r="10"/><circle class="q" cx="473.11" cy="97.94" r="10"/><circle class="q" cx="499.11" cy="97.94" r="10"/><circle class="q" cx="525.11" cy="97.94" r="10"/><circle class="q" cx="551.11" cy="97.94" r="10"/><circle class="e" cx="577.11" cy="97.94" r="10"/><circle class="e" cx="603.11" cy="97.94" r="10"/><circle class="e" cx="629.11" cy="97.94" r="10"/><circle class="e" cx="655.11" cy="97.94" r="10"/><circle class="e" cx="681.11" cy="97.94" r="10"/><circle class="e" cx="707.11" cy="97.94" r="10"/><circle class="e" cx="733.11" cy="97.94" r="10"/><circle class="e" cx="759.11" cy="97.94" r="10"/><circle class="e" cx="785.11" cy="97.94" r="10"/><circle class="e" cx="811.11" cy="97.94" r="10"/><circle class="e" cx="187.11" cy="124.94" r="10"/><circle class="e" cx="213.11" cy="124.94" r="10"/><circle class="e" cx="239.11" cy="124.94" r="10"/><circle class="e" cx="265.11" cy="124.94" r="10"/><circle class="e" cx="291.11" cy="124.94" r="10"/><circle class="h" cx="317.11" cy="124.94" r="10"/><circle class="h" cx="343.11" cy="124.94" r="10"/><text class="k" transform="translate(421.4 232.14)"><tspan x="0" y="0">Quinta selección</tspan></text><text class="i" transform="translate(491.55 270.24)"><tspan x="0" y="0">18</tspan></text><circle class="q" cx="278.11" cy="319.21" r="10"/><circle class="q" cx="304.11" cy="319.21" r="10"/><circle class="q" cx="330.11" cy="319.21" r="10"/><circle class="q" cx="356.11" cy="319.21" r="10"/><circle class="q" cx="382.11" cy="319.21" r="10"/><circle class="q" cx="408.11" cy="319.21" r="10"/><circle class="q" cx="434.11" cy="319.21" r="10"/><circle class="q" cx="460.11" cy="319.21" r="10"/><circle class="e" cx="486.11" cy="319.21" r="10"/><circle class="e" cx="512.11" cy="319.21" r="10"/><circle class="e" cx="538.11" cy="319.21" r="10"/><circle class="e" cx="564.11" cy="319.21" r="10"/><circle class="e" cx="590.11" cy="319.21" r="10"/><circle class="e" cx="616.11" cy="319.21" r="10"/><circle class="e" cx="642.11" cy="319.21" r="10"/><circle class="e" cx="668.11" cy="319.21" r="10"/><circle class="h" cx="694.11" cy="319.21" r="10"/><circle class="h" cx="720.11" cy="319.21" r="10"/><text class="k" transform="translate(416.22 386.79)"><tspan x="0" y="0">Última selección</tspan></text><text class="i" transform="translate(497.75 421.24)"><tspan x="0" y="0">7</tspan></text><circle class="q" cx="424.11" cy="480.21" r="10"/><circle class="q" cx="450.11" cy="480.21" r="10"/><circle class="q" cx="476.11" cy="480.21" r="10"/><circle class="e" cx="502.11" cy="480.21" r="10"/><circle class="e" cx="528.11" cy="480.21" r="10"/><circle class="e" cx="554.11" cy="480.21" r="10"/><circle class="h" cx="580.11" cy="480.21" r="10"/><text class="f" transform="translate(899.6 43.81)"><tspan x="0" y="0">32</tspan></text><text class="i" transform="translate(467.22 169.08)"><tspan x="0" y="0">2</tspan></text><text class="l" transform="translate(64.77 30.89)"><tspan x="0" y="0">32</tspan></text></g><g id="d"><polyline class="n" points="811.11 98.8 917.72 98.8 917.72 61.8"/><polyline class="o" points="187.11 95.89 80.5 95.89 80.5 58.89"/><polyline class="m" points="432.86 158.91 344.86 158.91 344.86 119.8"/><g><g><text class="j" transform="translate(646.27 519.15)"><tspan x="0" y="0">Cuerpo de </tspan><tspan x="11.28" y="20.27">Marines</tspan></text><circle class="m" cx="690.91" cy="616.94" r="57.76"/><g><path class="h" d="M714.54,603.5c-.26,.35-.47,.76-.8,1.02-.32,.25-.77,.33-1.14,.51-.16,.08-.39,.24-.39,.35,.02,.66-.43,.82-.92,.94-.41,.1-.82,.2-1.23,.25-.71,.08-1.38-.03-2.09,.46-.45,.32-1.32,.04-1.99,.04-.17,0-.41-.08-.5,0-.58,.51-1.19,.29-1.83,.2-.3-.04-.63,.11-.95,.14-.32,.04-.65,.07-.96,.05-.51-.05-.96-.2-1.52-.06-.8,.19-1.68,.05-2.67,.05,.1,.65,.16,1.3,.3,1.92,.19,.84,.14,.97-.71,1.14,.08,.35,.14,.71,.25,1.05,.04,.15,.14,.33,.26,.4,1.55,.8,3.01,1.73,4.15,3.07,.55-.87,.26-1.61-.17-2.36-.41-.71-.75-1.46-1.13-2.18-.32-.6-.24-1.21,.31-1.53,.81-.48,1.69-.83,2.58-1.15,.19-.07,.63,.17,.77,.39,.72,1.19,1.38,2.42,2.08,3.68,1.03-.41,1.28,.38,1.61,1.09-.28-1.89,.47-3.3,1.88-4.43,1.17-.93,2.48-1.05,3.82-.48,2.73,1.16,4.1,4.88,2.09,7.47-.14,.17-.24,.43-.23,.65,.1,2.32-.97,3.97-2.86,5.19-.94,.61-1.86,1.24-2.8,1.85-.22,.14-.47,.24-.71,.34-.58,.25-1.07,.19-1.38-.43-.22-.44-.59-.6-1.08-.61-.48-.02-.96-.13-1.45-.2,.04,5.9-2.49,10.36-7.89,12.7-5.47,2.37-10.37,.77-14.71-3.26,.5,2.99-.07,5.56-2.3,7.7,1.34,.81,2.77,1.16,4.36,.98l-.03,.37c-.51,.02-1.04,.12-1.54,.05-2.35-.31-4.16-1.5-5.48-3.46-.11-.16-.25-.29-.38-.45l.36-.16-.61-.26,.43-.27-.72-.21,.3-.26-.38-.25,.34-.75,.59,.1,.07-.14-.82-.44,.03-.1,.92,.24,.04-.09-1.1-.52,.04-.15,1.27,.42,.07-.18-1.21-.47,.05-.17,1.42,.42,.07-.16-1.39-.62,.06-.15,1.61,.57,.05-.12-1.4-.62,.08-.19,1.62,.67,.03-.08-1.45-.73,.03-.11,.6,.06,.08-.07-.4-.16,.12-.19,1.9,.81,.08-.19-1.49-.68,.07-.16,1.78,.73,.06-.14-1.54-.7,.05-.15,1.62,.64,.11-.15-1.15-.59,.03-.11,.86,.24,.05-.11-.39-.24c.24-1.02-.79-1.57-.76-2.45-.8,.4-1.53,.8-2.29,1.13-1.3,.55-2.49,.26-3.16-.95-.48-.88-.67-1.93-.98-2.9-.08-.25-.12-.51-.19-.82,.26-.2,.25-.7-.18-.88l.53-.2-.49-.21,.52-.13c-.11-.1-.19-.18-.17-.15l.18-.94s.12,0,.51,0l-.57-.27,.63-.17-.85-.31,.8-.09-.66-.24,.74-.08,.02-.09-.67-.21,.62-.1s-.02-.04-.04-.04c-.08-.02-.17-.04-.25-.14h.95c-.16,.56-.31,1.09-.47,1.63-.44,1.52-.77,3.06-.33,4.64,.12,.44,.29,.89,.52,1.29,.64,1.12,1.64,1.43,2.84,.96,.21-.08,.41-.18,.6-.29,.5-.28,1.2-.45,1.44-.88,.22-.39-.06-1.06-.13-1.61-.12-1,.07-1.91,.61-2.79,.25-.41,.3-.95,.39-1.43,.93-4.83,3.54-8.32,8.09-10.28,.35-.15,.38-.35,.48-.66,.37-1.09-.27-2.08-.18-3.14,.03-.34-.04-.69-.06-1.08-.21,.08-.43,.16-.65,.23-.23,.08-.51,.27-.69,.2-.68-.25-1.39,.05-2.02-.12-.56-.15-1.01,.03-1.52,.04-.39,0-.78-.12-1.17-.18-.18-.03-.38-.09-.55-.06-.71,.14-1.38,.42-2.08-.14-.2-.16-.71,.07-1.08,.1-.7,.06-1.43,.25-1.91-.53-.05-.08-.28-.03-.43-.05-.77-.08-1.54-.13-2.3-.24-.52-.08-.99-.27-.97-.96,0-.11-.24-.27-.4-.34-.4-.19-.85-.29-1.2-.55-.3-.23-.48-.62-.58-1.04-.48-.21-.98-.38-1.42-.65-.81-.51-.8-1-.02-1.63-.06-.14-.14-.29-.2-.44-.56-1.25,.15-2.33,1.48-2.06,3.84,.78,7.31-.27,10.69-1.94,.53-.26,1.1-.48,1.67-.64,1.31-.37,2.65-.07,3.19,1.63,.46,1.47,1.54,2.04,2.79,1.59,.23-.08,.43-.27,.59-.46,.17-.2,.26-.48,.44-.66,.72-.69,.77-1.54,.61-2.55l-.64,.29c-.63-.34-.79-.92-.75-1.57,.05-.72,.35-1.31,1.07-1.62,1.93-.83,3.86,.06,4.86,1.88,.76,1.39,1.03,2.83,1.29,4.33,.03,.21,.55,.52,.76,.47,.55-.14,1.09-.4,1.57-.71,.25-.16,.43-.53,.5-.84,.39-1.75,1.91-2.31,3.59-1.66,1.11,.43,2.18,.97,3.29,1.42,2.36,.96,4.8,1.55,7.38,1.24,.37-.05,.74-.12,1.11-.18,.64-.1,1.28-.08,1.68,.5,.38,.55,.23,1.14-.06,1.7-.04,.08-.08,.16-.05,.09,.2,.46,.55,.89,.46,1.16-.31,.86-1.15,1.06-1.98,1.23l.17,.16Zm-.78,15.58l.4,.52,.27-.89c.13-.32,.26-.63,.39-.95l.25-.95c.01-.22,.07-.46,.03-.67-.16-.87-.77-1.4-1.44-1.88-.33-.08-.66-.21-1-.21-.14,0-.28,.25-.56,.52l1.56-.31-.84,.68,.1,.12,1.1-.25,.03,.09-.55,.28-.04,.23,1.04,.27-.54,.39,.8,.58-.6,.07,.68,1.06-.58-.49-.23,.07c.04,.25,.06,.5,.13,.73,.07,.22,.19,.42,.28,.63l-.65-.62-.18,.14c.05,.29,.1,.58,.15,.86-.18,.03-.52,.05-.53,.09-.03,.36,0,.72,.03,1.11,.77-.26,.53-.77,.49-1.21Zm-2.6,1.84l.1,.61c.84-.35,1.02-.75,.56-1.55l-.68,.85c-.31,0-.73-.14-.91,0-.19,.16-.15,.59-.21,.9l.24,.12,.9-.94Zm-30.39,15.72c-.55-.05-.85,.23-.68,.64,.16,.38,.34,.74,.53,1.14,.75-.57,.31-1.19,.14-1.79l.64,.75c.5-.71-.02-1.2-.29-1.74h-.22l-.11,1Zm.51-6.03c.08-.05,.22-.14,.22-.15-.28-.45-.52-.92-.87-1.31-.17-.19-.53-.23-.77-.32,.2,.75,.53,1.27,1.11,1.6-.62,.05-.32,.51-.22,.7,.17,.32,.48,.56,.73,.84l-.56,.11,.58,.89c-.64,.08-.46,.64-.34,.87,.25,.45,.67,.81,1.02,1.2l.18-.05-.3-1.46c.57,.14,.28-.28,.21-.39-.24-.41-.54-.79-.82-1.18l.77,.53c.16-.87-.61-1.26-.96-1.87Zm24.76-9.52l-.79-.5-.47,.94c.41-.07,.65-.08,.88-.16,.15-.05,.27-.2,.4-.3l-.54,.83,.07,.15,1.12-.34,.56,.45,.7-1.16c-.81,.04-1.36,.06-1.92,.09Zm-25.05-18.78l-1.13-.65,.31-.4-1.24-.93,.51-.48c-.55-.27-1.09-.45-1.52-.77-.36-.26-.67-.27-1.04-.15-2.12,.64-4.25,.75-6.43,.34-.35-.07-.77,.16-1.15,.26,.11,.43,.14,.89,.34,1.27,.12,.22,.5,.41,.78,.43,1.3,.11,2.62,.33,3.89,.18,1.56-.19,3.09-.7,4.63-1.08-.27,.15-.53,.31-.81,.44-.69,.34-1.39,.65-2.07,1-.13,.07-.3,.32-.26,.4,.07,.15,.26,.29,.43,.33,.23,.05,.49,.05,.72,0,.67-.13,1.33-.29,2-.44l-.39,.96-.11-.88-.64,1.07-.12-.79-.58,.75c.23,.07,.46,.16,.69,.2,.12,.02,.25-.06,.38-.09,.77-.23,1.55-.46,2.32-.69l-.64,1.12,.06-.84-.53,.75-.19-.35c-.19,.38-1.08,.16-.69,1.04,.35-.06,.75-.07,1.1-.21,.76-.3,1.49-.66,2.23-.99l-.27,.66-.47-.06c-.04,.34-.22,.35-.52,.31-.16-.02-.35,.19-.53,.29,1.78,.06,3.04-1.1,4.52-1.76-.09,.17-.28,.23-.37,.36-.14,.19-.21,.43-.32,.66l-.27-.39-.22,.71-.27-.31-.25,.76-.3-.5-.37,.89c1.82-.13,2.67-1.47,3.78-2.62l.38,1.07-.14,.06-.31-.69-.13,.02v.93h-.13l-.13-.29c-.22,.21-.45,.41-.65,.63-.06,.06-.08,.23-.04,.3,.06,.09,.22,.19,.29,.17,.34-.14,.73-.25,.98-.49,.46-.44,.83-.96,1.23-1.45l.06,1.16-.4-.49-.35,1.35c1.38-.38,1.47-1.44,1.78-2.45v1.66l.14-.02v-3.2l-.43-.06-.08-.14,.49-.19c-1.73,.1-2.56-.31-3.13-1.59-.1-.22-.17-.45-.26-.68-.4-1.02-1.12-1.49-2.14-1.13-1.67,.59-3.29,1.33-4.98,2.03,.71,.64,1.44,.9,2.27,.62,.54-.18,1.14-.34,1.58-.68,.52-.4,.92-.32,1.39-.02-.2,1.18,.53,2.39,1.69,2.71,.48,.13,1,.16,1.51,.15,.68,0,1.35-.09,2.12-.15l-1.05,.75c-.15-.09-.3-.25-.46-.26-.43-.03-.89,.09-1.31,0-.79-.18-1.55-.47-2.33-.72-.23-.72-.46-1.45-.71-2.17-.03-.08-.23-.18-.3-.15-.84,.38-1.68,.77-2.5,1.21-.17,.09-.23,.39-.34,.59,.24,.06,.49,.21,.72,.18,.49-.06,.97-.21,1.52-.33l-.31,.8-.21-.67-.96,1.31c.51,0,.8,.06,1.05-.01,.57-.15,1.13-.37,1.69-.56-.22,.17-.46,.32-.64,.52-.19,.2-.33,.46-.5,.69,.28,.03,.58,.14,.84,.08,.45-.11,.88-.32,1.31-.49l.03,.07-1.59,.97-.07-.13-.26,.53-.21-.45-.77-.82s-.1,.06-.22,.14Zm24.76-.33c.81,.18,1.62,.41,2.44,.53,.27,.04,.59-.18,.88-.28-.16-.21-.3-.44-.5-.61-.19-.16-.45-.25-.68-.37-.44-.22-.89-.44-1.33-.66,.19,.04,.39,.06,.58,.12,2.09,.67,4.22,.99,6.42,.67,.44-.06,.88-.14,1.29-.3,.52-.2,.94-.98,.76-1.41-.24-.6-.76-.5-1.25-.41-2.2,.4-4.36,.29-6.5-.36-.21-.06-.48-.06-.67,.03-.59,.27-1.15,.61-1.76,.94l.49,.46-1.28,.91,.34,.42-1.11,.61c-.13-.06-.26-.13-.25-.12l-1.01,1.2-.25-.48-.12,.16-1.35-.92c.77,.11,1.35,.74,2.14,.29l-.43-.66-.17,.44-.32-.65-.27,.31-.18-.7c.86,.27,1.66,.89,2.83,.54l-.99-1.22-.12,.78-.34-.89c.45,.1,.83,.22,1.21,.27,.36,.04,.72,0,1.28,0-.3-.38-.41-.63-.6-.73-.82-.42-1.66-.81-2.5-1.18-.07-.03-.28,.07-.31,.15-.25,.72-.48,1.44-.71,2.16-.88,.49-1.79,.84-2.82,.76-.65-.05-1.3-.1-1.95-.14,.02,1.74,.43,2.55,1.63,2.82l-.45-1.43-.29,.41-.18-1.53c.65,1.02,1.11,2.26,2.72,2.31l-.68-1.06-.2,.38-.14-.04v-.9h-.11l-.29,.66-.13-.05,.33-1.16c1.03,1.15,1.91,2.51,3.83,2.73l-.38-.91-.29,.42-.36-.76-.19,.46-.22-.86-.22,.59c-.15-.27-.11-.46-.18-.57-.08-.12-.28-.16-.39-.26-.09-.09-.13-.23-.27-.49,1.59,.85,2.85,1.99,4.57,2.06l.07-.18-1.57-.57-.2-.54c1.16,.47,2.14,1.21,3.36,1.13l.16-.29-.94-.73-.17,.32-.53-.72,.08,.86-.68-1.15c.91,.27,1.81,.56,2.73,.79,.21,.05,.47-.12,.7-.19l-.57-.74-.14,.74-.61-.96-.15,.63-.52-.87Zm-28.3,1.96l-1.01-.91c-.96-.25-1.15-.43-1.09-1.42l-1.2,.48-.11-.28-.52,.77v-.69l-.51,.68-.09-.04,.12-.57-.11-.07-.55,.73-.11-.08,.23-.56-.14-.13-.78,.71,.19-.7c-.92,.2-1.82-.69-2.7,.1,.53,.66,1.24,.8,1.98,.85,.75,.06,1.5,.13,2.25,.13,.7,0,1.39-.07,2.09-.11l.1,.23c-1.19-.35-1.19,.72-1.75,1.19l.32-.97-.14-.07-.71,1.11-.15-.08,.41-.91-.16-.1-.55,1.01-.12-.06,.25-.73-.1-.05-.59,.72-.09-.06,.34-.64-.09-.17-1.17,.39,.02,.22c.9,.54,1.85,.99,2.96,.78,1.1-.21,2.19-.49,3.29-.73l-.4,1.35-.19-.06,.27-.95-.18-.09-.72,1.32-.12-.07,.25-.77-.17-.11-.62,1.03-.13-.06,.23-.68-.13-.07-.73,.9,.18-.84-.72,.58c-.37-.45-.59-.16-.9,.18,2.1,.93,3.96,.25,5.94-.66l-.27,1.11-.17-.04,.11-.66-.11-.04-.37,.9-.13-.05,.04-.49-.18-.04-.31,.88,.17,.21,3.4-1.22-.14,.89h-.14l-.12-.61-.27,.77-.09-.16-.51,.28,.08,.21c.69-.19,1.4-.33,2.06-.59,.54-.21,1.02-.55,1.51-.83l-.37,.97-.08-.14-.87,.53c1.41,.12,2.54-.5,3.84-1.97l-.41-.64-.79,1.44-.2-.77h-.1l-.06,.99h-.1l-.4-1.57c-.5,.33-.82,.55-1.15,.76-.28,.18-.55,.36-.8,.52l-.89-1.13c-.21,.16-.48,.27-.61,.48-.23,.37-.38,.28-.58-.06l-.27,.81-.14-.04v-.85l-.29,1-.17-.05c.04-.23,.12-.46,.12-.68,0-.14-.09-.42-.13-.42-.62,0-1.24,.05-1.92,.08l.43-.97c-.23,.1-.37,.16-.51,.22Zm29.93,0c-.71-.26-.2,.46-.67,.63h-1.47l.15,1.21c-.17-.1-.24-.22-.28-.36-.05-.16-.09-.33-.13-.49l-.08,.02,.07,.67-.14,.03-.34-.85-.16,.43-.98-.81-.91,1.09-1.98-1.26-.33,1.61h-.12l-.06-1.06h-.1l-.17,.69h-.1l-.07-.71-.18,.37-.45-.98-.41,.63c.83,1.4,2.11,1.88,3.55,2.09l.11-.19-.71-.49-.03,.11-.63-1.11c1.05,1.1,2.45,1.28,3.78,1.61l.09-.22-.65-.24-.17-.54-.1,.02-.04,.53h-.17l-.05-.83,3.41,1.12,.12-.22-.36-.86-.15,.06v.5l-.12,.02-.33-.9-.1,.04,.04,.67h-.16l-.13-.91c1.02,.31,1.96,.64,2.92,.86,1,.23,1.98,.1,3.01-.41-.4-.2-.64-.75-.93-.09l-.75-.58,.14,.74-.72-.83-.11,.1,.21,.64-.1,.04-.7-1.07-.14,.1,.3,.87-.12,.04-.76-1.31-.16,.09,.26,.9-.18,.05c-.13-.43-.27-.87-.4-1.3,1.1,.24,2.19,.52,3.29,.72,1.12,.2,2.09-.19,2.98-.8v-.23l-1.35-.37,.41,.79-.09,.05-.56-.69-.1,.05,.25,.75-.14,.04-.52-.97-.14,.1,.39,.91-.14,.07-.75-1.14-.14,.09,.34,.95-.16,.09c-.35-.65-.49-1.54-1.55-1.42,.29-.06,.53-.06,.77-.06,1.41-.04,2.82-.06,4.23-.14,.54-.03,1.05-.26,1.45-.98h-1.85l.28,.57-.08,.05-.68-.65,.26,.81-.61-.7-.1,.08,.16,.63-.79-.67-.11,.13,.22,.57-.09,.06-.56-.73-.1,.07,.13,.57-.1,.05-.5-.69-.04,.64-.5-.7-.12,.23-1.2-.45c.06,1-.09,1.15-1.1,1.44l-1.03,.88Zm-15.43-10.12h0l.2,1.01c-1.47-.53-1.64-.51-1.99,.01,.28,.35,.7,.64,.71,.95,.05,.84,.16,1.74-.54,2.44-.09,.09-.1,.27-.15,.45l.88-.42,.1,.75,.81-.76,.36,.53,.26-.44,1.64,.57-.37-.65h.2v-1.79l.42-.59v1.63c-.02,.36-.02,.7,.02,1.04,.05,.37,.16,.73,.24,1.1l.28-.07-.21-1.1,.1-.09,.66,.81c-.02-.3,.02-.5-.05-.63-.31-.55-.91-.96-.42-1.79,.14-.24,.13-1.21-.74-1.24,.08-1.73-1.22-2.75-3.29-2.49l.86,.77Zm11.7,25.8v.02c-.53-2.04-1.71-3.66-3.09-4.86l-1.49,.12c-.25,.31-.48,.82-.7,.82-.34,0-.79-.28-1-.58-.43-.61-1.23-.97-1.3-1.85,0-.11-.23-.19-.32-.3-.19-.21-.36-.44-.53-.66-.33-.2-.94-.1-1.22-.36-.74-.68-1.49-.36-2.04-.34,.45,.31,.95,.8,1.56,1.03,.82,.32,1.07,.92,1.23,1.78-.46,0-.91,.08-1.32-.02-.38-.09-.71-.37-1.07-.56-.23-.12-.73,.03-.52-.53,0,0-.17-.12-.24-.11-.13,.02-.3,.07-.38,.17-.11,.15-.16,.34-.24,.51l-.73-.14c-.03,.21-.02,.49-.09,.52-.71,.28-.79,1.35-1.73,1.36-.12,0-.24,.28-.35,.43,.19,.1,.41,.31,.55,.27,.7-.22,1.2-.05,1.44,.57l.9-1.39-.44-.66c.49-.78,1.71-.9,2.54-.06,.38,.39,.77,.53,1.36,.44,.58-.09,1.24,0,1.8,.2,.3,.1,.66,.6,.64,.89-.02,.29-.48,.56-.78,.87-.46-.84-1.19-.76-1.7,.04,.56,.26,.62,.67,.4,1.03l-1.52,.47c.61,.99,.59,1.05-.14,1.82-.42,.45-.75,.92-.34,1.59,.24,.39,.2,.87-.3,1.04-.12,.04-.53-.37-.61-.62-.19-.64-.56-.89-1.18-.78-.76,.14-1.52,.28-2.26,.5-.79,.24-.81,.41-.49,.89,.52,.13,1.08,.14,1.12,.29,.1,.35-.05,.77-.1,1.17,1.05,.03,1.29,.24,1.84,1.58,1.19-.04,2.28,.19,3.08,1.17,.04,.05,.15,.08,.23,.08,.9-.04,1.65,.05,2.28,.93,.5,.71,.66,.83,.25,1.6-.23,.44-.27,.98-.42,1.47-.09,.28-.14,.64-.34,.81-.65,.58-1.53,.95-1.54,2.02,0,.27-.09,.54-.14,.81l.22,.16c1.01-.37,2.05-.68,3.03-1.12,1.68-.76,3.05-1.95,4.21-3.39,.11-.13,.11-.34,.16-.51-.18-.04-.36-.1-.54-.12-.1,0-.21,.06-.32,.08-.75,.13-1.2-.28-1.15-1.04,.03-.46-.01-.96,.15-1.38,.31-.79,.74-1.53,1.15-2.28,.07-.12,.29-.19,.46-.23,.91-.18,1.83-.34,2.86-.53l-.31-1.11c-.27,.35-.42,.75-.7,.86-1.56,.67-1.56,.65-2.24-.94-.03-.06-.05-.12-.08-.18-.22-.62-.03-.88,.62-.87,.32,0,.63,0,.95,0l.11-.21-1.16-1.01c.36-.1,.63-.23,.92-.26,1.15-.12,1.56-.62,1.13-1.44Zm-20.82-3.39c-.58,1.04-1.24,2.02-1.7,3.09-1.54,3.64-1.47,7.22,.77,10.56,1.94,2.89,4.74,4.56,8.13,5.28,.49,.1,.8,.04,.94-.5,.2-.78,.02-1.36-.39-1.6-1.28-.73-2.63-1.41-3.17-2.92-.13-.37-.23-.99-.02-1.21,.65-.7,1.44-1.26,2.18-1.88,.13-.11,.24-.23,.36-.34-.12-.12-.21-.29-.35-.35-.65-.3-1.32-.57-1.98-.84-.89-1.16-.75-2.81-1.76-3.91,.02,.35,.22,.65,.25,.96,.03,.3-.12,.61-.2,.91-.22-.2-.53-.36-.65-.61-.49-1.08-.94-2.19-1.36-3.3-.13-.34-.24-.76-.16-1.1,.2-.88-.09-1.55-.89-2.24Zm8.28-1.36c.26,.49,.7,1.01-.02,1.37-.33,.17-.46,.27-.45,.65,0,.19-.26,.49-.45,.53-.17,.04-.54-.15-.6-.31-.17-.48-.47-.45-.84-.34-.61,.18-1.01-.04-1.15-.65-.14-.61,.3-.74,.74-.97,.45-.23,1.06-.62,1.13-1.03,.11-.66,.47-.69,.93-.8,.18-.04,.32-.26,.5-.3,.47-.11,.96-.2,1.44-.22,.14,0,.36,.24,.43,.41,.25,.72,.57,.94,1.62,.82-.4-.39-.66-.7-.98-.93-.36-.25-.77-.42-1.16-.62-.5-.25-1-.51-1.52-.72-.12-.05-.43,.04-.47,.13-.31,.79-.91,.5-1.46,.44-.3-.03-.61,0-1.03,0l.66,.48-.84,.49c-.11,.52-1.16,.97-1.87,.69l.31-.39c-.34,.11-.65,.26-.89,.48-.54,.49-1,1.05-1.57,1.5-.35,.28-.35,.53-.1,.75,.7,.59,.85,1.3,.65,2.15-.04,.14-.03,.32,.02,.46,.49,1.36,1,2.71,1.5,4.07l.2-.08-.77-1.9c.38,.06,.63,.05,.83,.13,.71,.29,.94,.93,1.14,1.61,.15,.53-.04,1.26,.76,1.46,0,0-.02,.15-.02,.15,.16-.03,.37-.02,.5-.11,.19-.14,.31-.35,.47-.53-.84,.25-.98,.22-1.25-.38-.34-.76-.26-1.11,.49-1.33,.84-.25,1.71-.46,2.58-.55,1.13-.11,1.15-.03,1.56,1.06,.04,.11,.13,.2,.27,.41,.03-.25,.11-.4,.06-.48-.6-1.01-.17-1.75,.59-2.44,.12-.11,.16-.46,.08-.63-.32-.67-.28-.9,.4-1.22,.27-.13,.57-.18,.75-.23-.09-.32-.35-.75-.23-.93,.21-.33,.61-.63,.99-.72,.42-.11,.89,.03,1.38,.06-.02-.06-.01-.2-.08-.28-.41-.5-.99-.6-1.57-.47-.87,.2-1.59,.04-2.22-.63-.39-.41-.89-.46-1.44-.11Zm2.25,19.77c.61-.24,.77-.6,.85-1.15,.06-.43,.4-1.04,.76-1.15,.71-.23,.87-.28,.86-.99,0-.34,.04-.72,.19-1.02,.32-.64,.72-1.09-.15-1.76-.5-.39-.91-.59-1.48-.6-.3,0-.61,.04-.91,.06-.08-1.06-2.36-1.62-3-1.16-.45,.32-.94,.57-1.36,.92-.5,.43-.95,.92-1.41,1.4-.07,.08-.1,.28-.05,.37,.39,.66,.68,1.43,1.23,1.93,.6,.54,1.44,.81,2.16,1.24,.19,.11,.32,.37,.4,.59,.08,.22,.05,.47,.08,.75l.49-.32-.81,1.44c.92-.09,1.81,.56,2.61-.16l-.46-.37Zm14.89-22.29l.19-.05-.13,1.05c.53-.26,.97-.44,1.39-.68,.15-.09,.33-.32,.32-.48-.05-.82,.04-1.54,.96-1.83,.56-.18,1.14-.47,1.69-.43,.4,.03,.78,.51,1.16,.79l.11-.2c.78,1.2,1.15,2.39,.06,3.54l1.23,1.31c1.18-1.26,1.35-3.16,.4-4.9-.91-1.67-2.7-2.76-4.16-2.33-.79,.23-1.56,.74-2.18,1.29-.84,.75-1.26,1.76-1.04,2.93Zm-6.65-13.82c.47-.3,.86-.34,1.39,.03,.52,.37,1.2,.55,1.84,.72,.76,.21,1.38-.13,1.98-.66-.79-.33-1.5-.63-2.21-.93-.87-.37-1.73-.8-2.63-1.08-1.2-.37-1.9,.02-2.31,1.21-.5,1.43-1.33,2.34-2.98,2.11-.01,.19,0,.34-.04,.47-.23,.67,.08,.95,.71,.97,.66,.02,1.33,.06,1.99,0,1.48-.14,2.47-1.42,2.25-2.84Zm2.78,17.43c.37,1.22,1.38,.47,2.09,.83l-1.44,.15v.23h1.6v.23h-1.34v.16l1.4,.1v.16l-1.27,.07v.16l1.5,.22v.14h-1.48v.19l1.17,.13v.07l-1.33,.06c1.4,.6,3.13,.02,4.07-1.3l-.86-.15v-.12h1.17l.03-.19-1.64-.26v-.1h1.27v-.06l-1.1-.24s0-.08,0-.09c.09-.05,.18-.09,.29-.15-.77-.9-1.21-1.91-1.05-3.02l-2.87,1.74,.62,.07v.06l-1.48,.16v.16h1.68v.09l-1.34,.15v.14h1.68v.12l-1.39,.08Zm-2.6-3.97l-.03,.19,1.48,.17v.11h-1.24v.16l1.21,.15v.15h-.84v.07l1.44,.21-.02,.13h-1.3v.13l1.47,.21v.09l-1.31,.06c1.06,.49,2.43-.2,3.57-1.25l-2.17-3.81-2.1,1.34,.24,.1-.03,.11h-1.18v.05l1.35,.14v.15h-1.21v.18h1.53v.16l-1.32,.14,.02,.11,1.45,.1v.14l-1.24,.07v.11l1.35,.19-.02,.13h-1.09Zm2.64,13.23c-.44,0-.57-.02-.69,0-.69,.14-1.37,.27-2.05,.44-.16,.04-.35,.15-.42,.28-.54,1.05-1.18,2.07-1.04,3.35,.05,.5,.28,.57,.71,.53,.46-.04,.92,0,1.6,0l1.91-4.6Zm-26.03,12.6c1.75-.83,2.68-3.78,2.16-5.15-2.69,1.04-3.61,3.2-2.16,5.15Zm35.22-20.7c-1.43,.29-2.73,.14-3.9-.76,.28,.56,.59,1.05-.05,1.52-.05,.04-.02,.25,.03,.35,.35,.68,.71,1.36,1.1,2.09,1.47-.62,2.41-1.62,2.82-3.21Zm.1-3.32c.55-.63,.63-1.36,.27-2.09-.42-.86-1.17-1.28-2.13-1.23-.71,.04-1.19,.47-1.54,1.16,.87,.09,1.32,.63,1.65,1.32,.06,.12,.2,.22,.32,.27,.44,.19,.9,.35,1.43,.55Zm-5.88,.17c.25,1.26,.88,1.8,1.93,1.55l-1.19-.48,.04-.13,1.56,.47,.05-.13-1.08-.53,.04-.07,1.64,.41,.05-.23-1.14-.44,.04-.14,1.47,.39,.04-.16-.95-.37,.05-.14,1.11,.3,.03-.07-.71-.37,.04-.11,.71,.16c.19-.93-.11-1.59-1.02-1.9-.22,.63,.49,.6-2.7,1.99Zm-11.4-1.54c-.38,.73,.98,2.78,1.8,2.87,.23-.35,.37-.76,.65-.91,.26-.14,.67,.01,1.02,.03l.09-.32-4-2.19-.19,.18,.05,.57,.57-.24Zm5.37,12.22c1.04-.32,1.51-.91,2.08-1.51,.86-.9,.11-1.58,.2-2.29l-1.53,.6c.15,.31,.52,.72,.45,1.02-.19,.84-1.05,.29-1.56,.54v.19l.68-.04-.32,1.49Zm5.79-3.9l.02,.1,2.72-.39v-.23l-1-.28,.02-.1h.73l.02-.16-1.27-.21,.02-.14,.98,.06c-.22-.17-.44-.19-.67-.19-.22,0-.43,0-.65,0v-.18h1.32c-.88-.33-1.05-.3-2.72,.5l.38,.22-1.3,.1v.17h1.33v.15l-1.2,.12v.15l1.7,.1-.42,.2Zm-11.37-20.92l-.11-.07c-.09,.2-.27,.4-.27,.6,0,1.13,.06,2.25,.07,3.38,0,.7,.02,1.42-.09,2.11-.15,.94-.58,1.26-1.54,1.31-.61,.03-1.19,.09-1.57,.65-.06,.09-.07,.21-.11,.33,.43-.16,.75-.29,1.08-.38,.36-.1,.74-.15,1.1-.24,.94-.24,1.34-.66,1.38-1.6,.05-1.16,.04-2.31,.05-3.47,0-.87,0-1.75,0-2.62Zm17.25,16.33c-.16-.53-1.11-1.41-1.72-1.24-.54,.15-.96,.73-1.43,1.13-.01,.01,.02,.07,.03,.12l.48-.4-.25,.69,.63-.46-.2,.65,.16,.08,.54-.71-.12,.5,.91-.42-.11,.5,.51-.48-.34,.9,.91-.84Zm-9.28,1.7l.02-.11,.68,.09c-.39-1.19-.57-1.36-1.85-1.63l.88-.12c-.5-.35-.85-.67-1.33-.01,.23,.13,.43,.28,.65,.37,.22,.09,.46,.13,.7,.19l-.02,.1h-.64c.52,1.42,.71,1.59,1.69,1.44l-.78-.31Zm-12.38-23.52c-.32-.78-1.3-1.27-1.87-.99-.54,.26-.71,1.21-.34,1.83,.65-1.01,.94-1.13,2.21-.84Zm-2.73,5.89l-.27,.04c.12,1.98,.23,3.97,.39,5.95,.03,.33,.33,.63,.5,.95-.85-2.28-.22-4.67-.62-6.93Zm7.78,3.72l-.13,.12c.35,.62,.6,1.34,1.09,1.82,.49,.48,1.22,.72,1.85,1.06l.15-.27-.97-.66-.11,.13-.09-.59-.19,.27-1.59-1.87Zm-11.88,2.88c1.71-.21,2.56-1.13,2.82-2.66l-1.35,1.66-.18-.25-.1,.46c-.58,.04-.77,.45-1.19,.78Zm17.85,2.41l-.09-.24c-.64,.05-1.38-.47-1.89,.35-.09,.15-.1,.35-.15,.52,.18,.04,.39,.15,.54,.1,.54-.21,1.06-.48,1.59-.72Zm3.93,2.97c-.26,.41-.37,.73-.6,.9-.66,.5-1.37,.95-2.06,1.42,.79-.22,1.49-.56,2.17-.95,.28-.16,.52-.41,.72-.66,.11-.13,.18-.41,.11-.53-.08-.14-.33-.18-.35-.19Zm-18.69-7.43l-.11,.03c-.1,.38-.11,.8-.31,1.12-.2,.32-.58,.54-.97,.89,1.24-.13,1.67-.53,1.45-1.25l.67,.08-.42-1.37-.12,.02v.98h-.13l-.06-.49Zm7.31-2.92l-.02-.13c-1.79,0-3.58,0-5.38,0-.14,0-.28,.13-.42,.2,.14,.08,.29,.23,.43,.23,.81,.02,1.62,.01,2.43,.01v-.12h-2.35v-.19h5.3Zm-.13-.42l-.02-.07h-5.65v.07h5.66Zm-13.44,35.04c.42-.58,.39-1.12-.03-1.61-.11-.12-.35-.13-.52-.19-.02,.16-.11,.35-.06,.48,.17,.44,.4,.86,.62,1.32Zm11.57-25.68h.19l.13-2.72c-.48,.23-.61,1.83-.32,2.72Zm-3.06-3.27v1.75c.68-.3,.77-.83,.75-1.33,0-.14-.44-.26-.75-.42Zm1.78,.49c-.29,2.02-.24,2.63,.16,2.79,0-.95,.24-1.89-.16-2.79Zm-3.03-.94l-.2,1.86c1.12-.83,1.18-1.31,.2-1.86Zm23.3,13.98c.83-.38,.9-.56,.55-1.51l-.75,.4,.2,1.11Zm-20.82-12.3q-1.04,1.22-.16,1.83l.16-1.83Zm-.43-5.7h-.14v3.71h.14v-3.71Zm-.55,3.74h.12v-3.64h-.12v3.64Zm4.36,2.51c.27-1.19,.02-1.49-.99-1.21l.99,1.21Zm-4.61,16.83l.14-.13c-.31-.31-.59-.68-.96-.91-.17-.1-.51,.08-.78,.13,.19,.16,.36,.36,.58,.47,.33,.18,.68,.29,1.02,.44Zm2.41-23.08h-.11v4.14h.11v-4.14Zm-1.16,0h-.13v3.73h.13v-3.73Zm3.13,6.43l-.13,.12,.75,1.14,.22-.06,.16-1.42-.15-.03-.31,.45-.55-.21Zm-14.83,27.68l-.48,.53,.76,1.4c.49-.77-.07-1.26-.28-1.92Zm16.68-28.64c-.12,.71,.13,1.21,.83,1.56,0-.72,0-1.35-.83-1.56Zm-1.89-5.35h-.1v3.56h.1v-3.56Zm-4.34-.11h-.09v3.52h.09v-3.52Zm3.53,.08h-.15v3.64h.15v-3.64Zm2.07,6l.37-.16c-.2-.46-.39-.92-.6-1.37-.01-.02-.25,.07-.48,.13l.71,1.4Zm-6.43-8.72h5.8c-1.83-.09-3.67-.09-5.5-.09-.04,0-.08,.02-.3,.09Zm-8.96,28.36c-.26-.74-.43-1.36-1.44-1.34,.25,.16,.43,.23,.42,.28-.07,.69,.46,.78,1.02,1.06Zm27.56-7.69l-.21,1c.11-.6,1.37-.02,1.04-1.06l-.83,.06Zm-12.87-14.92h.09v-2.97h-.09v2.97Zm-3.39,.59h.1v-3.69h-.1v3.69Zm.38,.19h.1v-3.87h-.1v3.87Zm16.8,15.05q.9-.5,.82-1.06l-.59,.04-.23,1.01Zm-3.12-1.41c-.15-.96-.69-.85-1.22-.76l-.1,.22,1.32,.54Zm-12.12-19.78v-.09h-4.2v.09h4.2Zm2.34,6.45l1.01,1.21c-.17-1.21-.51-1.53-1.01-1.21Zm-16.31,20.24l.28-.21-.57-1c-.14,.12-.4,.33-.39,.35,.21,.3,.45,.57,.69,.86Zm14.16-24.81v-.05h-4.21v.05h4.21Zm4.03,4.18l.1-.14c-.2-.22-.38-.47-.61-.66-.1-.09-.3-.07-.45-.09,.03,.17,0,.43,.09,.49,.26,.18,.57,.27,.87,.39Zm-4.7-.06h.09v-3.71h-.09v3.71Zm17.16,15.46l-2.35,.32c.75-.05,1.58,.49,2.35-.32Zm-16.21-19.1h-.11v3.54h.11v-3.54Zm-1.22,0h-.05v3.79h.05v-3.79Zm3.33,7.33l.42-.22-.52-.83-.33,.19,.44,.85Zm-16.8,28.61l.24-.12c-.15-.3-.27-.61-.45-.89-.05-.09-.23-.1-.35-.14-.01,.11-.07,.26-.02,.34,.18,.29,.39,.55,.58,.82Zm9.8-29.76l-.77-.26,.18,1.03h.19l.4-.77Zm5.55-2.86l.08,.02v-3.32h-.08v3.31Zm-15.13,19.67l-.33-1.16c-.63,.55-.59,.69,.33,1.16Zm10.77-26.99q-.95,.12-.81,.81l.81-.81Zm-3.22,13.65l-.09-.15-.69,.75,.48,.24,.3-.84Zm2.63-3.92l-.27,.02,.13,1.13,.37-.06-.23-1.09Zm-.07-2.53h.04v-3.14h-.04v3.14Zm-.47,4.84l.35,.1c.07-.2,.18-.41,.18-.61,0-.09-.22-.19-.34-.28l-.19,.79Z"/><path class="h" d="M666.95,595.25c.23,.33,.06,.51-.23,.67-.66,.35-1.31,.72-2,1.09l1.28,.46-.02,.26c-1.84-.33-3.65-.53-5.21,1.19l1.76-.55-.58,1.15,.2,.18,1.42-.81s.2,0,.32-.1c.33-.26,.63-.56,.96-.82,.09-.07,.25-.06,.38-.08,0,.14,.05,.34-.02,.4-.49,.44-1.01,.84-1.51,1.27-.15,.13-.2,.38-.36,.5-.16,.13-.38,.25-.59,.26-1.62,.11-3.03,.62-4.02,1.99-.06,.08-.11,.18-.25,.41l2.39-1.16,.08,.17c-.2,.1-.39,.19-.59,.29-.22,.11-.46,.2-.63,.36-.16,.15-.25,.38-.39,.6l-.08-.22-1.52,.86v.18c.26,.04,.52,.15,.76,.11,.69-.14,1.33-.47,1.96-.72,.66-.26,.31-.63,.56-.93l.07,.63,.12,.06,.44-.98h.07l-.12,.76,1.87-2.16c.27,.5,.06,.83-1.52,2.49l.74,.09c-1.09,.41-2.19,.66-3.11,1.2-.93,.55-1.68,1.41-2.51,2.13l.13,.16,2.38-1.58,.07,.11-2.28,1.91c1.08,.05,1.89-.47,2.63-1.07,.74-.61,1.4-1.32,2.28-2.17-.1,.38-.1,.64-.22,.77-.7,.75-1.43,1.48-2.16,2.22l.46,.15c-2.02,.31-3.06,1.71-3.84,3.41,.26-.26,.53-.52,.79-.78,.27-.26,.54-.51,.81-.76v1.46h-.13l-.08-.77-.19-.04-.33,.89-.14-.25c-.22,.67-.9,.86-1.29,1.34-.07,.09-.15,.18-.22,.28l.13,.23c.6-.3,1.25-.54,1.78-.93,1.05-.77,1.66-1.87,2.07-3.09,.06-.18,.26-.32,.39-.48,.02,.2,.11,.42,.05,.59-.23,.6-.51,1.17-.75,1.76-.06,.15-.07,.48-.03,.5,.63,.2,.4,.68,.31,1.03-.21,.74-.5,1.46-.76,2.21-.02-.02,0,.03,.03,.03,1.07-.01,1.24,.21,1.03,1.36-.23,1.3-.88,2.4-1.73,3.39-.14,.16-.27,.33-.51,.61,.37-.13,.59-.21,.82-.28,.74-.2,1.17,.06,1.15,.84-.03,.86-.22,1.72-.34,2.55l1.32-.37-.19,3.43c.43,.05,.61,.2,.2,.66-.57,.64-1.17,1.29-1.57,2.04-.33,.61-.54,1.38-.52,2.07,.02,.91,.32,1.8,.6,2.68,.04-.86,.01-1.73,.14-2.58,.12-.83,.4-1.64,.63-2.58l-.44,4.79,.4,.08c.24-.84,.58-1.66,.69-2.51,.14-1.11,.09-2.25,.14-3.38,0-.17,.1-.34,.15-.52,.12,.15,.34,.31,.34,.46,.03,1.23,.02,2.46,.02,3.65,.3-.27,.67-.63,1.08-.93,.15-.11,.41-.07,.62-.09-.1,.17-.15,.4-.3,.5-1.53,1.02-2.29,3.67-1.71,5.18l1.11-3.46c-.26,1.71-.95,3.34-.63,5.15,1.41-.51,.86-1.8,1.25-2.7v1.15c.56-1.04,.72-2.04,.65-3.07-.04-.64-.21-1.26-.29-1.9-.02-.16,.09-.34,.14-.51,.13,.12,.36,.22,.38,.36,.18,1.14,.32,2.3,.47,3.42,.53-.15,.98,.04,1.2,.73,.29,.91,.52,1.84,.78,2.8,.15-.16,.41-.37,.59-.63,.37-.55,.65-.37,.94,.06,.57,.85,.84,1.8,.84,2.82,0,.55,0,1.11,0,1.64l1.84-1.47,1.44,3.06c.57-.77,.74-.81,1.36,.04,.73,.99,1.35,2.06,2.03,3.1,.46-.42,1.04-.35,1.63,.04,1.14,.75,2.34,1.48,2.5,3,.07,.73-.05,1.49-.19,2.22-.12,.6-.73,.71-1.21,.92-.17,.07-.36,.15-.48,.28-1.23,1.21-3.23,1.62-4.8,.96-.96-.4-1.4-1.02-1.35-1.87-.71-.15-1.44-.24-2.12-.46-1.16-.37-1.96-1.16-2.38-2.32-.05-.13-.2-.26-.33-.3-1.66-.45-2.95-1.23-3-3.2,0-.13-.29-.26-.45-.37-.78-.51-1.63-.96-2.35-1.55-.61-.5-.58-1.29-.57-2.05-1.76-.79-2.66-2.74-2.3-3.46-1.04-.66-1.44-1.72-1.74-2.84-.1-.39-.29-.77-.38-1.16-.03-.16,.11-.35,.13-.39-.46-.53-.95-1.07-1.41-1.64-.23-.29-.43-.62-.57-.96-.45-1.1-.27-1.38,.95-1.51-1.61-1.07-2.11-2.64-2.31-4.39-.07-.58-.02-.91,.47-.89-.36-.91-.82-1.83-1.08-2.81-.14-.52,.02-1.14,.13-1.69,.09-.5,.25-1.03,.97-.73-.29-.79-.67-1.52-.8-2.29-.14-.81-.08-1.67-.03-2.5,.03-.63,.39-.82,.85-.4,.71,.64,1.3,1.41,1.93,2.15,.15,.17,.22,.41,.42,.77,.07-.83,.07-1.34-.59-1.86-1.72-1.35-2.55-3.18-2.46-5.4,.05-1.08,.26-1.22,1.25-.79,.09,.04,.19,.08,.39,.15-.53-1.82-.81-3.58-.17-5.35,.14-.38,.36-.73,.57-1.16l1.18,.94c.09-1.68,.23-3.33,1.56-4.65l1.05,1.35c.2-1.92,.78-3.69,2.26-5.06-.47,1.05-1.07,2.06-1.38,3.15-.32,1.11-.35,2.3-.5,3.39,.43-.15,.58-.19,.49-1.08-.07-.69,.23-1.22,.32-1.83,.08-.51,.25-1,.54-1.47l-.5,3.16c1.07-1.41,1.23-3.06,.94-4.82h.2l.41,.34c.76-2.34,1.39-3.19,2.3-3.21-.49,.76-1.17,1.5-1.48,2.37-.32,.89-.28,1.92-.25,2.91l.82-3.42,.19,.04-.48,2.37c.57-1,1.27-1.91,1.23-3.18-.03-.84,1.16-2.56,2.01-2.66,.1-.01,.24,.21,.35,.33-.35,.26-.71,.53-1.06,.79-.82,.82-.73,1.91-.8,2.95l.79-2.96c.02,.28,.09,.56,.06,.84-.05,.51-.14,1.02-.22,1.53l.19,.04c.07-.17,.16-.34,.22-.52,.27-.89,.54-1.79,.81-2.68,.19-.11,.41-.18,.55-.34,.45-.49,.93-.9,1.69-.88-1.25,.61-1.8,1.67-2.04,2.95l.95-1.75,.1,.05-.08,1.11c.91-.54,.6-1.79,1.62-2.23,.86-.37,1.64-.9,2.78-.77l-1.25,2.37c-1.75,.2-1.92,.26-2.6,.94l1.81-.46c-.6,.5-.82,.7-.85,1.14,.48-.37,.83-.66,1.21-.92,.15-.11,.35-.15,.53-.23-.06,.19-.05,.45-.18,.56-.5,.43-1.11,.75-1.55,1.23-.44,.48-.74,1.1-1.17,1.61-.18,.15,.71,.34-.07,.54-1.49-.52-3.89,.25-4.75,1.52,.68-.31,1.37-.59,2.02-.93,.47-.24,.81-.26,.95,.35l1.79-.96Zm-12.88,22.85l.11-.74-.35,.51c-.07-.39,.4-.89-.27-1.03l-.72-2.17,.11-.03,2.18,3.83c.24-1.8-1.17-4.45-2.65-5.13-.47,1.78,.16,3.82,1.54,4.97l.91,.84c-.08-.39-.21-.71-.41-.97-.07-.09-.3-.06-.45-.08Zm.89,9.9l.87,.45c.29-.79-.34-.93-.64-1.31l-.24,.88v-1.26h-.21l-.06,.44-.63-1.67,2.42,2.21c.1-2.2-1.74-4.02-3.69-3.77,.03,.28,.04,.57,.11,.84,.34,1.29,.67,2.59,2.07,3.2Zm14.97,11.89c-1.92,1.58-2.06,5.1-.25,6.33v-3.71c.32,1.27,.03,2.61,.65,3.88,1.09-1.36,.87-4.51-.4-6.5Zm5.2,9.69c-.16-.87-.44-1.74-.46-2.61-.04-1.95-1.12-3.32-2.25-4.74-1.04,1.49-1.06,4.23-.09,5.02l.07-.72,.06,.02,.18,1.43,.35-.06-.56-3.11c.17,.21,.21,.24,.22,.28,.39,1.32,.79,2.63,2.02,3.47,.06,.04,.1,.21,.07,.29-.22,.53,.14,.64,.38,.72Zm-8.48-11.75l.29,.06c-.04,.26-.1,.51-.13,.77-.11,.9-.53,1.79-.01,2.72,.13,.23,.09,.65-.03,.91-.32,.68-.32,.98,.16,1.44,1.22-1.42,1.19-5.78-.04-7.43-1.65,1.6-2.07,5.03-.84,6.36l.61-4.82Zm-7.5-18.7c-2.4,.21-3.9,3.05-2.74,5.45,1.25-.6,1.95-1.53,1.98-2.96l.08,.77c.65-1.08,.86-2.1,.68-3.25Zm17.33,27.79c.32,1.45,.91,2.74,1.89,3.89,.85-1.98-.29-4.49-2.27-5.04-.16-.04-.53,.19-.6,.38-.46,1.23,.04,2.87,1.07,3.72,.65-1.01-.44-1.94-.09-2.94Zm-16.18-5.89c.22,1.61,2.6,3.18,4.08,2.71,.17-.05,.28-.28,.46-.47l-.85-.38-.14,.4-.71-1.02,2.2,.91c-.94-2.05-3.06-2.57-5.05-2.14Zm4.42-2c.54-1.9,.72-3.66-.26-5.35-1.73,1.32-2.27,4.41-1.13,5.54l.64-3.23,.06,.02v4l.27,.02,.2-1.58h.12l.11,.58Zm-12.01-19.18l.17-.11,2.37,3.4c.45-1.6-.62-3.42-2.68-4.63-1.02,1.8,.11,4.48,2.4,5.22l-.92-1.61-.2,.6c.23-1.2-.82-1.9-1.13-2.87Zm1.63-17.68c-1.09,1.3-.65,5.18,.74,6.78-.33-1.78-1-3.51-.53-5.32l.74,4.67c1.11-2.29,.7-4.32-.95-6.13Zm5.2,11.83c-1.3,.01-3.1,2.14-3.16,3.68l1.04-1.2-.71,1.81-.07-.22-.72,1.57c1.23-.17,1.6-1.26,2.25-1.95,.95-1,1.35-2.29,1.38-3.69Zm-.42,23.09l-.23-1.15,1.95,1.22c-.72-2.08-2.75-3.7-4.51-3.76-.02,1.78,1.04,3.25,2.79,3.69Zm13.48,12.15c-1.29-1.72-3.94-2.21-5.37-1.04,.6,1.32,2.26,2.19,3.78,1.89-.14-.19-.22-.43-.36-.47-.14-.04-.33,.12-.5,.19-.09-.41-.31-.52-.71,.04l.04-.61h3.13Zm-12.55-26.76c-1.28,.42-2.99,3.68-2.92,5.44l1.49-2.81,.1,.06-1.17,3.28c.32-.15,.53-.19,.58-.29,.17-.4,.29-.83,.43-1.25h.07v.42c1.5-1.48,1.52-3.03,1.42-4.86Zm8.88,24.27c-1.05-1.82-3.17-2.68-5-2.21-.17,1.37,1.03,2.51,2.96,2.65l-.19-.79-.21,.05-.16,.55-.26-.86-.2,.04-.2,.62c-.12-.87-.02-.95,.67-.74,.8,.24,1.61,.43,2.59,.69Zm-16.31-38.55c-.17,2,.53,3.59,1.83,4.95l.2-.09-.33-.72-.16,.08-.05-.75h-.12l-.16,.39-.11-.02v-1.21h-.14l-.14,.33-.31-2.04,2.03,4.06c.36-2.33-.8-4.61-2.54-4.99Zm22.82,42.71c.13,.07,.27,.19,.44,.24,.06,.02,.17-.15,.26-.23-.15-.13-.28-.31-.46-.38-1.45-.59-2.98-.28-4.03,.79,.57,.95,1.89,1.37,3.3,1,.18-.05,.32-.26,.48-.4-.08-.08-.2-.24-.24-.22-.18,.09-.35,.22-.5,.33l-.32-.29c-.4,.46-.85-.05-1.32,.14l.15-.58,.07,.19,.68-.15v.02l.8-.21s.18,.22,.29,.18c.17-.06,.28-.29,.39-.44Zm-18.56-47.16c.75-1.74,1.14-3.49,.1-5.35-1.48,2.29-1.04,4.63-.4,6.97,.01-.63-.05-1.27-.04-1.91,0-.68,.09-1.36,.12-2.04,.03-.65,0-1.32,.44-1.74l-.23,4.07Zm1.23,28.56l.14-.17c-.63-1.83-2.26-3.01-4.36-2.89,.19,1.06,.91,1.73,1.64,2.39l.25-.08-.39-1.45,2.73,2.2Zm-.31-19.74l-.14,1.56c.78-1.07,1.6-2.09,1.62-3.54-1.77,.77-2.62,2.18-3.01,3.95l1.53-1.96Zm.32,25.32c.32,.99,.99,1.55,1.83,2.03l.09-.48,2.46,.46c-1.06-1.26-2.84-2.06-4.38-2.01Zm-2.5-27.28c.37-.57,.65-1.06,.99-1.52,.35-.47,.76-.9,1.24-1.45-.6,.06-1.38-.05-1.51,.19-.43,.8-.98,1.64-.72,2.79Zm12.12-17.74c-1.22-.05-1.94,.65-2.62,1.42l1.74-.56,.05,.14-1.48,.74c1.07-.02,1.9-.65,2.31-1.73Zm2.66-3.96c-1.23,.18-2.34,1.02-2.44,1.66l1.01-.48,.28,.63,1.15-1.81Zm-11.82,15.53l-1.03-.25-.74,1.88,1.77-1.63Zm-2.82,27.48l1.52,.72,.16-.21-1.47-1.31-.2,.79Zm5.2-32.19l-.09-.31c-.31,.15-.62,.31-.93,.46,1.62,.24,1.95,.06,1.88-1.1l-.42,.87-.19-.57-.25,.65Zm-3.46,24.75l-1.13,.53,.3,1.37,.83-1.9Zm2.73,10.35l-.16-2.1q-.75,.63,.16,2.1Zm-4.45-22.49v1.46l.81-1.61-.81,.14Zm1.62,16.51l.44,1.51,.14-.04,.07-1.54-.64,.07Zm4.65,9.18l.07-1.46-.72,.4,.65,1.06Zm5.11,6.32l.84,.69-.24-1.38-.61,.69Zm3.28,2.5l1,.54-.39-1.06-.62,.53Zm-14.73-30.63l.08,1.26,.57-1.47-.66,.21Zm11.39,30.37l-.06,.79,.83-.31-.03-.19-.73-.29Zm-2.37-6.19l-.58,.5,.65,.74-.07-1.24Z"/><path class="h" d="M719.73,629.33c.04-.5,.29-.57,.65-.29,.4,.31,.76,.65,1.06,.91,0-.98,0-2.01,0-3.04,0-.13-.01-.28,.04-.39,.09-.22,.23-.42,.35-.62,.06,.21,.19,.43,.17,.64-.1,1.72-.01,3.41,.58,5.04,.09,.24,.21,.47,.39,.69,.23-1.54,.21-3.06-.38-4.65,.68,.84,.93,2.27,1.08,4.94,.15-.86,.37-1.72,.45-2.58,.18-1.8-1.01-2.97-2.06-4.19-.11-.12-.17-.29-.25-.44l.44-.2-.2-3.41,1.38,.36c-.13-.68-.35-1.42-.39-2.16-.07-1.31,.29-1.54,1.53-1.11,.1,.03,.2,.07,.41,.14-.43-.56-.87-.98-1.13-1.49-.42-.84-.86-1.71-1.04-2.62-.24-1.19-.11-1.23,1.05-1.25-.25-.68-.56-1.34-.74-2.04-.1-.39-.44-.95,.28-1.21,.04-.01,.01-.35-.05-.5-.25-.61-.53-1.21-.77-1.82-.06-.16,0-.38,.02-.57l.2-.04,.84,2.02,.11-.02v-.54c.24,1.9,1.61,2.53,3.11,3.04l.18-.21-1.16-.94-.14,.16-.18-.82-.19,.45-.31-1.05-.19,.02-.1,.77h-.1v-1.37c.31,.29,.58,.53,.84,.78,.25,.23,.49,.47,.78,.65-.83-1.64-1.85-3.04-3.89-3.33l.57-.21c-2.57-2.26-2.58-2.28-2.25-2.88,1.18,1.62,2.62,2.84,4.56,3.37l.14-.18-2.31-1.94,.06-.11,2.39,1.57,.13-.14c-.83-.72-1.57-1.58-2.5-2.14-.91-.55-2-.8-3.05-1.19l.66-.11c-.68-.73-1.4-1.4-1.76-2.31l.24-.18,1.78,2.07v-.75l.55,1.26,.15-.74c-.01,.45,.19,.66,.63,.79,.44,.13,.81,.48,1.25,.6,.43,.12,.9,.08,1.35,.1l.03-.23c-.25-.17-.49-.35-.75-.5-.23-.13-.47-.23-.73-.36l-.19,.32c-.05-1.04-1.02-.97-1.46-1.56l2.4,1.16c-.97-1.61-2.36-2.18-3.98-2.39-.31-.04-1,.32-.83-.54,0-.05-.26-.14-.38-.23-.47-.36-.96-.71-1.4-1.11-.12-.11-.11-.37-.16-.56,.18,.06,.38,.09,.53,.2,.3,.22,.56,.5,.86,.72,.11,.08,.29,.05,.34,.05l1.47,.92-.09-.98c.57,1.19,.65,1.22,2.08,1.04l-.79-.58-.13,.43-.27-.63-.14,.04,.02,.51c-.15-.99-1.08-1.01-1.68-1.44l2.05,.66,.11-.18c-.5-.31-.96-.71-1.5-.91-.55-.2-1.17-.26-1.76-.27-.6,0-1.2,.13-1.8,.21l-.08-.21,1.24-.48-2.38-1.38,.13-.26c.71-.02,1.16,.66,1.85,.78l.34-.57,2.57,1.16,.07-.13c-.78-.45-1.52-1.05-2.36-1.32-.84-.26-1.78-.18-2.71-.25l.32-.35c-.56-.51-1.25-.89-1.24-1.79,0-.08-.28-.17-.42-.26-.41-.28-.84-.54-1.23-.86-.1-.08-.05-.33-.07-.5,.15,.06,.31,.1,.44,.19,.39,.29,.76,.61,1.26,1.02,.14-.98-.62-.7-.83-1.15l1.83,.45c-.77-.79-1.66-.93-2.61-.9l-1.27-2.42c1.15-.13,1.92,.41,2.79,.78,1.02,.44,.69,1.66,1.59,2.21l-.08-1.09,.1-.06,.96,1.74,.1-.03c-.14-.37-.25-.75-.43-1.09-.19-.37-.4-.75-.69-1.04-.28-.28-.67-.46-.96-.76,.69-.02,1.16,.38,1.62,.85,.16,.16,.4,.25,.6,.36,.31,1.07,.62,2.14,.92,3.22l.27-.07c-.07-.47-.17-.93-.2-1.4-.02-.32,.04-.65,.07-.97,.25,1,.51,2,.76,3l.33-.11-1.1-2.87-1.07-.79c0-.3,.08-.53,.41-.3,.39,.27,.86,.52,1.1,.9,.42,.66,.87,1.29,.94,2.19,.07,.96,.6,1.88,.92,2.81l.21-.06-.49-2.38,.18-.04,.84,3.35c.02-1.96,.08-3.93-2.08-5.18,1.13-.13,1.68,.6,2.67,3.17,.11-.12,.23-.24,.44-.46,.06,.25,.11,.4,.12,.54,.02,.81-.01,1.63,.07,2.44,.04,.39-.05,.91,.57,1.1,.13,.04,.11,.58,.32,.87l-.51-3.36c.86,1.56,.65,3.24,1.33,4.62-.05-.58-.11-1.16-.15-1.74-.1-1.58-.56-3.04-1.52-4.32-.11-.14-.18-.31-.31-.56,1.02,.31,1.85,2.09,2.44,5.02l1.03-1.27c1.31,1.28,1.44,2.91,1.57,4.6l1.15-.89c1.34,2.11,1.02,4.26,.45,6.43,.05,.01,.09,.04,.12,.03,1.26-.6,1.51-.47,1.51,.93,0,2.13-.9,3.85-2.5,5.21-.64,.55-.75,.75-.55,1.74,.27-.48,.46-.95,.77-1.33,.46-.55,.97-1.09,1.54-1.54,.5-.4,.76-.23,.88,.39,.32,1.68,.06,3.25-.98,4.77,1.25-.2,1.11,.74,1.25,1.39,.26,1.21-.15,2.27-.85,3.24-.14,.19-.29,.38-.48,.63,.74,0,.79,.34,.71,.94-.23,1.72-.68,3.29-2.31,4.33,1.22,.16,1.49,.55,.9,1.58-.52,.9-1.27,1.66-1.94,2.51,.48,.49-.76,3.52-1.98,4.42,.45,.58-.58,2.69-2.29,3.44,.04,1.74-.77,2.85-2.71,3.52-.54,.19-.73,.42-.76,1-.07,1.27-.96,1.95-2.04,2.38-.69,.27-1.23,.5-1.58,1.29-.52,1.15-1.65,1.68-2.89,1.88-.39,.06-.79,.09-1.19,.13,.08,.91-.42,1.44-1.15,1.82-1.43,.74-3.5,.47-4.76-.57-.4-.33-.87-.57-1.29-.87-.26-.19-.6-.38-.69-.64-.53-1.59-.34-3.17,1.1-4.31,.36-.29,.76-.54,1.14-.81,.6-.42,1.2-.53,1.7-.09,.67-1.04,1.29-2.1,2.03-3.09,.64-.86,.8-.82,1.38,0,.31-.7,.58-1.43,.93-2.12,.46-.9,.75-.94,1.52-.25,.26,.24,.48,.52,.78,.86,0-.45,0-.82,0-1.19-.02-1.2,.17-2.34,.85-3.36,.31-.46,.6-.65,.98-.05,.17,.27,.45,.46,.58,.58,.25-.91,.48-1.86,.78-2.79,.21-.67,.7-.87,1.23-.7,.11-1.05,.19-2.12,.36-3.18,.04-.24,.4-.43,.61-.64-.02,.24-.01,.48-.07,.71-.42,1.61-.41,3.18,.44,4.88-.03-.39-.04-.58-.06-.77-.01-.17-.02-.34-.02-.51,.45,.91-.15,2.21,1.28,2.72,.36-1.67-.32-3.19-.5-4.79l.98,3.07c.12-.44,.21-.88,.17-1.31-.04-.44-.23-.86-.28-1.29-.15-1.27-.89-2.1-1.96-2.69Zm2.76,10.15c.54-.37,.15,.4,.54,.32,.64-.44,1.37-.93,1.58-1.92-1.48-.07-3.45,.83-4.27,1.99l1.95-.36c-.04,.1-.06,.23-.14,.3-.1,.1-.24,.16-.36,.23,.16,.03,.33,.1,.48,.07,.4-.08,.49-.31,.21-.64Zm6.57-27.27c.9-1.21,1.26-2.56,1.12-4.11-1.87,.68-3.1,3.16-2.49,4.9l1.92-3.78-.25,1.89-.12-.3h-.17l-.08,.75-.49,.84s-.03-.04-.07-.11l-.34,.74,.22,.12,.73-.95Zm-.28,6.07c1.35-1.04,2.03-3.25,1.52-4.96-1.53,.81-2.93,3.49-2.57,5.03,.72-1.29,1.42-2.52,2.11-3.76l.1,.03-.75,2.3-.23-.18v1.04l-.4-.42c.09,.4,.15,.66,.21,.91-.13-.12-.25-.24-.38-.35l-.65,1.13,.12,.1,.91-.89Zm-.92,9.72c1.25-.62,2.24-2.57,2.06-4.06-1.99-.14-3.88,1.8-3.54,3.71l2.32-2.05-.58,1.71-.11-.53h-.13c0,.42,0,.82,0,1.23l-.37-.89-.76,1.1,.22,.21,.91-.43Zm-11.96,9.84l.24-.03,.6,4.9c1.19-1.66,.67-5.33-.9-6.41-1.18,2.08-1.13,6.27,.21,7.55,.37-1.05,.22-2.06,.19-3.04-.03-.99-.23-1.98-.35-2.98Zm-2.78,8.39c1.69-1.26,1.78-5.02-.28-6.31-1.26,1.87-1.47,5.29-.21,6.58l.4-3.86h.09v3.59Zm-2.75,.05l.11,.99c1.04-1.01,.81-4.08-.12-5-1.65,1.72-2.53,3.72-2.22,6.27,1.26-.94,1.64-2.3,2.19-3.59l-.59,3.01,.37,.06,.26-1.74Zm16.04-21.69c1.22-3.09-.99-5.51-2.79-5.45-.17,1.13,.04,2.16,.69,3.2l.1-.76c-.03,1.46,.73,2.35,2,3Zm-20.21,25.27c1.05-.84,1.56-2.63,1.09-3.8-.15-.36-.4-.5-.73-.27-.61,.43-1.25,.85-1.78,1.37-.76,.76-.9,2.69-.29,3.67,.39-.66,.81-1.27,1.11-1.92,.3-.64,.48-1.34,.76-2.14,.26,1.13-.76,2.07-.16,3.09Zm13.01-10.45c1.36-1.51,.84-4.52-.89-5.75-.98,1.71-.78,3.48-.24,5.39l.13-.62h.08l.22,1.57,.26-.02v-3.95c.2,1.17,1.02,2.16,.45,3.37Zm-.45,3.26l-.67,.81c.29,.1,.59,.31,.87,.28,1.13-.12,2.16-.51,2.92-1.39,.32-.37,.49-.88,.74-1.34-2.02-.67-4.59,.4-5.14,2.11l2.09-.86-.09,.95h-.08l-.13-.57c-.17,.24-.2,.48-.24,.72,0,0-.03,0-.06,.02l-.21-.73Zm9.48-39.18c.43,1.91-.2,3.68-.49,5.48,1.25-2.2,1.8-4.46,.76-6.94-1.64,1.88-2.22,3.89-1.05,6.4l.78-4.94Zm-4.46,33.54c1.62-.39,2.93-2.25,2.63-3.7-2.05,.32-4.13,2.06-4.36,3.73l1.64-1.01,.09,.98Zm-9.9,9.64c.77-.18,1.39-.31,2-.46,.32-.08,.63-.25,.95-.27,.12,0,.27,.29,.37,.46,.03,.06-.03,.17-.07,.39l-.26-.64-.16-.02-.25,.85-.19-.58-.18-.03-.28,.68c-.19-.68-.51-.38-.86-.12,.42,.43,1.32,.39,2.34-.08,1.17-.54,1.68-1.28,1.57-2.32-1.75-.51-3.96,.38-4.99,2.16Zm9.41-32.71c-.03,1.14,.31,2.34,.96,3.16,.22,.27,.71,.45,.76,.72,.13,.76,.7,1.09,1.19,1.52,.16,.14,.42,.17,.7,.27l-.73-1.56-.1,.34-.58-1.84,.97,1.16c-.27-1.79-1.89-3.72-3.17-3.76Zm6.6,5.75l.14,.08-.79,1.93s-.06-.06-.22-.24v1.09l-.31-.45-.88,1.62c2.32-.97,3.46-3.58,2.25-5.48-.83,.98-1.66,1.88-2.41,2.85-.43,.56-.46,1.24-.13,1.97l2.34-3.38Zm-14.31,28.42c-1.77-1.07-4.24-.57-5.37,1.05h3.09v.57c-.36-.57-.54-.31-.65-.05-.22-.05-.44-.17-.56-.1-.13,.06-.16,.31-.25,.5,1.67,.13,3.07-.62,3.74-1.97Zm10.06-20.33c.04-1.86-1.71-5.1-2.96-5.32,0,1.72-.03,3.42,1.39,4.7l.16-.32c.36,.48-.11,1.4,.95,1.44-.18-.44-.37-.84-.51-1.26-.15-.43-.24-.89-.41-1.31-.13-.33-.35-.62-.52-.93l.19-.1,1.71,3.1Zm-17.64,23.34l1.67,.4s.03,.13,.05,.23l-.98,.25,.29-.14c-.2-.05-.4-.16-.59-.14-.15,.02-.28,.2-.36,.26-.1-.08-.25-.23-.42-.32-.03-.02-.17,.17-.27,.26,.15,.12,.29,.26,.45,.36,.11,.06,.25,.08,.38,.1,1.17,.22,2.5-.3,2.92-1.14-1.38-1.21-3.03-1.39-4.52-.47,.19,.57,.46,.4,.36,.51,.24,.03,.49,.09,.73,.04,.17-.03,.31-.2,.28-.18Zm17.78-52.73c-.97,1.79-.61,3.51,.12,5.22l-.23-4.21c.73,1.98,.66,3.94,.54,5.9,1.02-3.39,.59-5.7-.43-6.91Zm3.15,30.79c-2-.16-4.12,1.32-4.35,3.01,.19-.1,.38-.17,.53-.29,.79-.62,1.56-1.26,2.3-1.86l-.42,1.4,.26,.11c.77-.6,1.41-1.3,1.67-2.38Zm-4.01-16.76l1.68,2.13c-.27-1.74-1.7-3.67-3.05-3.92-.1,1.15,.94,2.78,1.64,3.48l-.27-1.69Zm2.22-2.05l.22-.06-.82-2.65h-1.45l2.05,2.71Zm-11.25-16.56q1.18,.2,1.44-.03c-.65-.55-1.3-1.08-2.27-.93,.47,1.13,1.34,1.73,2.38,1.67l-1.54-.71Zm-2.4-3.28l.23-.15-.13-.47,1.3,.64c-.28-.81-1.54-1.69-2.47-1.63l1.07,1.61Zm12.49,15.48l-.75-1.87-1.03,.23,1.78,1.64Zm.54,25.51c-.35,.17-.6,.25-.79,.4-.15,.12-.24,.33-.43,.61,1.46-.3,1.74-.61,1.47-1.65l-.25,.64Zm-.11-6.59l-1.13-.49,.83,1.89,.3-1.39Zm-3.71,7.78l-.13,2.02q.9-1.47,.13-2.02Zm4.28-19.03v-1.37l-.8-.18,.8,1.55Zm-2.26,15.03l.14,1.63c.6-1.23,.57-1.54-.14-1.63Zm-3.34,8.19l-.64-.34v1.39l.64-1.05Zm-6.37,6.7l-.24,1.4,.82-.74-.58-.67Zm-4.83,6.09l1.47,.42q-.02-.53-1.47-.42Zm16.2-33.77l.62,1.46,.06-1.22-.68-.24Zm-15.05,31.43l1-.58-.64-.49-.36,1.07Zm6.74-6.95v1.13l.57-.72-.57-.4Z"/><path class="h" d="M695.73,658.26c-.42-.14-.8-.24-1.16-.4-1.04-.47-2.07-.99-3.12-1.45-.19-.08-.51-.04-.7,.07-.95,.52-1.87,1.09-2.81,1.62-.23,.13-.52,.13-.79,.18-.02-.25-.1-.51-.06-.75,.2-1.15,.47-2.3,.64-3.45,.04-.29-.09-.72-.3-.92-.83-.79-1.73-1.51-2.58-2.28-.2-.18-.31-.45-.47-.67,.23-.11,.44-.28,.68-.33,1.21-.25,2.43-.43,3.64-.71,.26-.06,.54-.35,.67-.61,.53-1.02,.99-2.07,1.51-3.09,.32-.61,.59-.61,.91,0,.51,.98,1,1.97,1.46,2.97,.19,.41,.47,.58,.89,.65,1.34,.23,2.68,.48,4.02,.73,.11,.02,.28,.14,.28,.2,0,.13-.08,.29-.18,.38-.88,.9-1.79,1.78-2.65,2.69-.16,.17-.25,.49-.22,.73,.12,1.3,.29,2.59,.43,3.88,.02,.14-.04,.29-.09,.54Zm-4.92-8.22c.01-.17,.1-.39,.03-.5-.23-.34-.53-.63-.94-1.1v.61c-.06,.13-.21,.33-.17,.37,.36,.43,.74,.84,1.12,1.26l.17-.13-.21-.52Zm-1.15,4.92l1.07,.94c.25-.71-.44-.95-.58-1.58-.23,.31-.36,.48-.48,.65-.32,.53,.02,1.01,.8,1.08l-.81-1.09Zm3.34,.95l.36,.79,.24-.1-.74-2.07-.59-.84,.05,1.02-.46-1.55-.13,.04-.13,.65-.19-1.12c-.09,.7-.07,1.39-.09,2.08-.03,.81,.26,1.34,1.15,1.47-.05-.53-.1-1.06-.15-1.58l.53,1.81,.12-.03,.04-.57Zm-4.14-3.77l.68,.42,.18-.34-1.37-.77-1.04-.17-.57-.31-.05,.09,1.5,2.05c.68-.22-.11-.58,0-.87l.76,.57,.11-.14-.19-.52Zm5.22,.19c.66,.87,.8,.86,1.44-.04,.42-.15,.52-.48,.31-.82-.19-.31-.5-.36-.77-.03l-1.23,.22c.09,.25,.18,.47,.26,.69l-.77-.72-.18,.19c.13,.2,.22,.44,.4,.57,.11,.08,.35-.03,.53-.05Zm-2.29-.12l3.38,4.59c-.08-1.12-.13-2.11-.23-3.09-.02-.16-.19-.37-.35-.43-.87-.36-1.76-.67-2.8-1.07Zm-.33-6.2v5.11c.63-.57,1.11-1.19,1.56-1.84,.07-.1,.01-.33-.06-.47-.47-.9-.95-1.79-1.5-2.81Zm5.44,4.36l-.02-.13c-.92-.23-1.83-.48-2.76-.66-.26-.05-.67,0-.82,.16-.46,.52-.83,1.12-1.32,1.8l4.92-1.17Zm-6.51,2.51l-.14-.16c-.61,.23-1.22,.45-1.82,.7-.1,.04-.22,.18-.23,.28-.17,1.08-.32,2.17-.47,3.26l.12,.04,2.54-4.13Zm-4.22-2.7l-.02,.14,4.57,1.13,.11-.19c-.48-.53-.96-1.07-1.46-1.59-.07-.08-.24-.11-.35-.09-.95,.19-1.89,.4-2.84,.61Zm7.59,6.75l.26-.07-.35-1.44-.2,.05,.29,1.46Zm-2.8-7.95l-.65-1.08q-.27,.54,.65,1.08Zm-4.2,2.74l.13-.17-1.22-1.03-.14,.17,1.23,1.03Z"/><path class="h" d="M686.03,644.48l-.74-.42,.04-.12,1.24,.37,.05-.16-1.02-.48,.04-.11,1.59,.43,.08-.24-1.24-.51,.05-.14,1.69,.49,.05-.16-.84-.44,.03-.08,1.43,.36,.05-.21-.77-.32,.03-.13,1.18,.3,.05-.11-.5-.24v-.1l1.01,.15,.02-.07-.44-.22c.64-.04,1.34,.22,1.82-.52-.08-.08-.15-.17-.23-.22-1.42-.72-2.84-1.44-4.26-2.15-.28-.14-.55-.29-.85-.38-.51-.16-.83,0-.81,.59,.01,.38,0,.75-.17,1.14-.03-.59-.13-1.19-.05-1.77,.06-.48,.55-.51,.91-.38,.62,.23,1.21,.54,1.8,.83,1.11,.54,2.23,1.08,3.32,1.66,.28,.15,.65,.45,.66,.7,.01,.24-.33,.58-.6,.74-1.21,.69-2.46,1.3-3.68,1.98-1.11,.61-1.49,.56-2.28-.4-.08-.1-.26-.15-.4-.15-3.19-.12-5.83-1.48-8.18-3.54-2.61-2.29-4.44-5.11-5.51-8.38-1.17-3.58-1.5-7.24-.31-10.9,.28-.87,.78-1.67,1.18-2.52-.18-.13-.35-.23-.5-.36-.64-.54-.6-1.12,.12-1.55,1.42-.86,2.83-1.71,4.25-2.57,.64-.39,1.11-.19,1.07,.52-.1,2.07-.23,4.14-.39,6.2-.06,.78-.32,.86-.97,.39-.4-.3-.8-.6-1.23-.91,.81-.4,1.09,.58,1.78,.56l-1.26-1.06,.07-.12,1.06,.71,.07-.07-.93-.79,.17-.18,.96,.79c-.21-.79,.4-1.68-.59-2.2l.51,.29,.13-.11-.52-.7,.26,.02,.52-3.19c-.3,.15-.48,.21-.63,.31-1.3,.79-2.59,1.6-3.9,2.38-.75,.44-.78,.67-.08,1.17,.46,.33,.45,.33,.31,1.03-.02,.08,.16,.2,.24,.29-.69-.12-.71,.55-.94,.92-.25,.41-.38,.9-.51,1.37-.73,2.82-.73,5.65,.07,8.46,.12,.42,.42,.78,.59,1.19,.09,.22,.11,.48,.17,.8,.09-.04-.01,0-.2,.09l.63,.34-.54,.23,1.06,.48h-.64l-.04,.14,1.13,.47h-.83l-.03,.12,.99,.37-.02,.09-.67-.05-.06,.16,1.15,.47-.02,.08-.72-.05-.02,.12,1.07,.32-.02,.11h-.72l-.03,.14,1.15,.34v.07h-.75l-.04,.19,1.43,.38-.02,.12-.92-.08-.05,.18,1.56,.43-.99,.06-.03,.18,1.48,.22v.1l-.94,.05-.02,.09,1.79,.33v.17l-1.42-.14-.04,.25,1.95,.22v.1h-1.34c.57,.64,1.27,.33,2.06,.47l-.79-1.03,.08-.09c.31,.28,.62,.57,.93,.85,1.87,1.67,3.98,2.54,6.56,2.27,1.54-.16,3.12-.03,4.68,.06-2.55,.79-5.34-.05-7.81,1.19l.04,.2,1.73-.49-.79,.55,.06,.14,1.76-.54,.05,.12-.93,.45,.04,.11,1.05-.4,.68,.53c-.04,.54,.06,1.02,1,.93Zm-7.63-4.26c-.62-.72-1.39-.22-2.1-.28,.65,.52,1.4,.2,2.11,.27l-1.3,.45c.53,.57,1.18,.14,1.78,.21l.1-.18c-.2-.16-.4-.31-.6-.47Zm1.83,2.25l.06,.29,1.98-.4-.07-.33-1.97,.44Zm1-.45l-.02-.26-1.74,.33,.05,.27,1.72-.35Zm-.91-.37l-.03-.25-1.61,.25,.03,.24,1.61-.24Zm-2.32-.44l.02,.2,1.54-.17-.02-.25-1.54,.21Z"/><path class="h" d="M686.09,582.19c1.01-.21,2.01-.46,3.02-.6,.44-.06,.64-.23,.82-.61,.4-.9,.85-1.77,1.28-2.65h.25c.21,.4,.48,.78,.62,1.2,.41,1.27,1.1,2.14,2.55,2.23,.69,.05,1.38,.24,2.16,.39-.09,.14-.16,.29-.27,.39-.62,.63-1.27,1.24-1.85,1.9-.17,.19-.25,.54-.23,.81,.07,.92,.21,1.84,.31,2.76,.01,.1-.04,.21-.08,.44-1.05-.46-2.04-.92-3.05-1.34-.22-.09-.55-.11-.76,0-.73,.37-1.41,.82-2.13,1.21-.15,.08-.38,.1-.53,.04-.07-.03-.08-.31-.06-.47,.15-.87,.35-1.73,.46-2.61,.03-.26-.09-.62-.27-.8-.54-.55-1.14-1.04-1.74-1.53-.2-.17-.44-.28-.66-.42l.16-.34Zm3.17,2.01h.46c-.28-.33-.45-.62-.7-.81-.17-.14-.44-.15-.67-.21l-.57-.33,1.18,1.7,.3-.34Zm4.98,3.09c-.07-.9-.12-1.62-.2-2.33-.01-.11-.12-.25-.22-.29-.64-.26-1.29-.49-2.07-.79l2.49,3.41Zm-2.77-8.08v3.79c1.26-1.04,1.33-1.39,.6-2.66-.18-.32-.35-.65-.6-1.13Zm4.11,3.24c-2.93-.91-2.57-.9-3.56,.82l3.56-.82Zm-4.98,1.92l-.11-.13c-.34,.13-.69,.24-1.01,.41-.21,.11-.48,.3-.52,.49-.15,.73-.22,1.48-.31,2.22l.09,.05,1.87-3.04Zm.3-1.11c-.79-1.53-1.81-1.74-3.34-.83l3.34,.83Zm1.42,3.63l-.52-2.34c-.18,.43-.21,.82-.32,1.18-.19,.61-.01,.97,.84,1.16Zm.86-3.26l.9,.71c.11-.23,.37-.51,.32-.68-.2-.63-.68-.36-1.22-.03Zm-.52,2.05q-.07,1.04,.72,1.67l-.23-1.01-.23,.26-.26-.92Z"/><path class="h" d="M706.09,586.57c-.74-.31-1.29-.48-1.76-.77-.42-.26-.74-.14-1.09,.07-.39,.24-.78,.47-1.17,.7l-.18-.12c.09-.48,.14-.97,.27-1.44,.14-.53,.03-.93-.42-1.27-.38-.28-.72-.61-1.22-1.04,.74-.16,1.3-.23,1.83-.41,.29-.1,.57-.34,.74-.59,.29-.43,.49-.92,.78-1.5,.44,.75,.66,1.56,1.19,1.93,.54,.38,1.38,.35,2.34,.55-1.61,.89-1.84,2.2-1.31,3.88Zm-1.82-2.71l1.31,1.78c.07-1.46-.06-1.64-1.31-1.78Zm-.32-.75c.9-.78,.89-.98,0-2.09v2.09Zm2.38-.26c-1.25-.59-1.46-.55-1.97,.44l1.97-.44Zm-3.96,2.85l1.03-1.66c-1.01,.15-1.08,.26-1.03,1.66Zm1.19-2.4c-.51-.94-.83-1.02-1.84-.47l1.84,.47Zm2.66-.12l-1.6,.36c.59,.43,1.11,.54,1.6-.36Z"/><path class="h" d="M676.09,586.44c.05-.36,.04-.75,.17-1.08,.32-.82,.05-1.39-.63-1.86-.28-.19-.52-.43-.93-.77,.69-.15,1.19-.29,1.7-.36,.48-.07,.79-.25,.96-.75,.15-.45,.42-.85,.69-1.38,.45,.74,.7,1.54,1.24,1.93,.54,.38,1.38,.34,2.12,.49-.5,.57-1.17,1.04-1.38,1.66-.2,.6,.07,1.37,.15,2.22-.62-.27-1.14-.44-1.6-.71-.45-.27-.81-.17-1.21,.08-.37,.23-.74,.45-1.11,.67l-.17-.13Zm3.69-.77c.06-1.43-.14-1.69-1.31-1.79l1.31,1.79Zm-1.61-2.55c.85-.84,.85-.91,0-2.03v2.03Zm.35,.2l1.98-.45c-1.21-.58-1.42-.53-1.98,.45Zm-.93,.74c-.92,.09-.97,.05-1.04,1.67l1.04-1.67Zm.2-.74c-.6-.94-.91-1.01-1.88-.48l1.88,.48Zm.65,1.24q-.49,.7,.81,.9l-.81-.9Zm2-1.4l-1.46,.37c.68,.57,.72,.56,1.46-.37Z"/><path class="h" d="M673.08,631.64c-2.33-2.9-1.7-10.67,1.2-14.62-2.46,4.71-3.13,9.56-1.2,14.62Z"/><path class="h" d="M703.64,619.62l-.21,.73c-.28-.18-.47-.31-.67-.44-.28,.11-.56,.22-.84,.33-.1-.26-.27-.49-.24-.66,.04-.19,.31-.51,.41-.48,.53,.13,1.04,.35,1.56,.54v-.02Z"/><path class="h" d="M701.69,616.73c-.1,.09-.34,.38-.4,.34-.46-.25-.89-.56-1.33-.85,.21-.14,.4-.36,.62-.39,.57-.09,.98,.14,1.11,.9Z"/><path class="h" d="M685.48,620.75l-.43-.62,1.11-.82-.69,1.44Z"/><path class="h" d="M691.29,597.73l1.96-.19c-.08,.15-.14,.41-.22,.42-.35,.03-.7-.01-1.06-.03l-.03-.23-.65,.7-.18-.81,.1-.04c.05,.11,.1,.21,.08,.17Z"/><path class="h" d="M691.94,593.82c.51-.32,1.01-.39,1.55,.13-.42,.27-.73,.44-1.09,0-.09-.11-.31-.1-.47-.15h0Z"/><path class="h" d="M657.42,621.29l-.8,3-.21-.07c-.11-1.08,.39-1.98,1.01-2.92Z"/><path class="h" d="M725.27,621.3c.75,.84,1.19,1.78,1.14,2.89l-.27,.08c-.09-.49-.15-.98-.29-1.46-.15-.52-.39-1.01-.59-1.52Z"/></g></g><g><text class="p" transform="translate(269.25 541.06)"><tspan x="0" y="0">Fuerza Aérea</tspan></text><circle class="o" cx="321.68" cy="619.24" r="55.47"/><g><path class="m" d="M275.92,623.34v-5.09c.07,0,.15-.01,.22-.01,8.12,0,16.24,0,24.36,0,.12,0,.25,.02,.36,0,.09-.03,.23-.11,.25-.19,.22-1.04,.42-2.09,.63-3.19-.17,0-.34,0-.51,0-4.59,0-9.18,0-13.76,0-3.84,0-7.69,0-11.53,0v-2.86c.21,0,.42-.01,.62-.01,8.55,0,17.1,0,25.66,.01,.54,0,.8-.17,1.04-.65,3.81-7.44,11.79-11.91,20.11-11.13,7.61,.71,13.2,4.56,16.82,11.28,.19,.36,.39,.5,.81,.5,8.61-.01,17.22,0,25.84,0h.62v2.88h-25.85l.72,3.39h25.13v5.11h-25.12l-.69,3.38h25.81v2.86h-.6c-8.52,0-17.04,0-25.57-.02-.59,0-.87,.17-1.14,.69-3.09,5.81-7.86,9.44-14.31,10.84-.91,.2-1.85,.29-2.77,.43h-2.86c-.51-.07-1.03-.13-1.54-.22-7.04-1.19-12.22-4.95-15.53-11.27-.19-.35-.38-.48-.78-.47-8.61,.01-17.21,0-25.82,0-.19,0-.39,0-.58-.01v-2.86c.1,0,.21,0,.31,0,8.37,0,16.74,0,25.12,0,.12,0,.25-.02,.36-.03-.19-.96-.42-1.87-.55-2.79-.07-.44-.2-.58-.66-.58-8.04,.01-16.09,.01-24.13,.01-.15,0-.3,0-.45-.01Zm61.87-6.76l-.04-.12c-.17,0-.34,0-.51,0-3.77,0-7.54-.01-11.31,0-.38,0-.54-.11-.65-.47-1.12-3.7-2.27-7.39-3.41-11.09-.05-.15-.1-.29-.15-.44-.16,.15-.21,.29-.26,.44-1.15,3.71-2.3,7.42-3.43,11.13-.1,.33-.24,.43-.58,.43-3.78,0-7.57,0-11.35,0-.17,0-.34,0-.5,0l-.04,.13c.13,.1,.27,.21,.4,.31,3.08,2.24,6.16,4.49,9.26,6.72,.32,.23,.39,.42,.26,.8-1.27,3.67-2.53,7.34-3.79,11.01-.05,.16-.09,.32-.14,.47,.24-.05,.38-.15,.52-.25,3.08-2.3,6.15-4.6,9.22-6.92,.3-.23,.48-.21,.76,0,3.08,2.32,6.17,4.63,9.26,6.94,.13,.1,.27,.18,.41,.27,.02-.23-.03-.38-.08-.53-1.26-3.67-2.51-7.35-3.78-11.02-.12-.35-.08-.54,.23-.77,3.11-2.24,6.2-4.49,9.29-6.74,.14-.1,.27-.21,.4-.31Z"/><path class="h" d="M275.92,614.86c3.84,0,7.69,0,11.53,0,4.59,0,9.18,0,13.76,0,.17,0,.35,0,.51,0-.21,1.1-.41,2.15-.63,3.19-.02,.08-.15,.16-.25,.19-.11,.03-.24,0-.36,0-8.12,0-16.24,0-24.36,0-.07,0-.15,0-.22,.01v-3.39Z"/><path class="h" d="M275.92,623.34c.15,0,.3,.01,.45,.01,8.04,0,16.09,0,24.13-.01,.46,0,.59,.13,.66,.58,.14,.92,.36,1.83,.55,2.79-.11,.01-.23,.03-.36,.03-8.37,0-16.74,0-25.12,0-.1,0-.21,0-.31,0,0-1.13,0-2.26,0-3.39Z"/><path class="h" d="M367.44,614.86c-3.84,0-7.69,0-11.53,0-4.59,0-9.18,0-13.76,0-.17,0-.35,0-.51,0,.21,1.1,.41,2.15,.63,3.19,.02,.08,.15,.16,.25,.19,.11,.03,.24,0,.36,0,8.12,0,16.24,0,24.36,0,.07,0,.15,0,.22,.01,0-1.13,0-2.26,0-3.39Z"/><path class="h" d="M367.44,623.34c-.15,0-.3,.01-.45,.01-8.04,0-16.09,0-24.13-.01-.46,0-.59,.13-.66,.58-.14,.92-.36,1.83-.55,2.79,.11,.01,.23,.03,.36,.03,8.37,0,16.74,0,25.12,0,.1,0,.21,0,.31,0,0-1.13,0-2.26,0-3.39Z"/><path class="h" d="M337.8,616.59c-.13,.1-.26,.21-.4,.31-3.09,2.25-6.19,4.51-9.29,6.74-.32,.23-.35,.42-.23,.77,1.27,3.67,2.52,7.34,3.78,11.02,.05,.15,.1,.3,.08,.53-.14-.09-.28-.17-.41-.27-3.09-2.31-6.18-4.62-9.26-6.94-.28-.21-.46-.24-.76,0-3.06,2.32-6.14,4.62-9.22,6.92-.14,.1-.28,.2-.52,.25,.05-.16,.09-.32,.14-.47,1.26-3.67,2.51-7.35,3.79-11.01,.13-.38,.06-.56-.26-.8-3.09-2.23-6.17-4.48-9.26-6.72-.14-.1-.27-.21-.4-.31l.04-.13c.17,0,.34,0,.5,0,3.78,0,7.57-.01,11.35,0,.34,0,.48-.1,.58-.43,1.13-3.71,2.28-7.42,3.43-11.13,.05-.15,.1-.29,.26-.44,.05,.15,.1,.29,.15,.44,1.14,3.7,2.28,7.39,3.41,11.09,.11,.37,.27,.47,.65,.47,3.77-.01,7.54,0,11.31,0,.17,0,.34,0,.51,0l.04,.12Z"/></g></g><g><text class="g" transform="translate(472.4 541.89)"><tspan x="0" y="0">Armada</tspan></text><circle class="n" cx="506.37" cy="618.25" r="56.46"/><g><path class="h" d="M509.15,640.66h-1.69c.65,2.57,.93,5.1,.1,7.63-.34,1.04-.7,2.07-1.15,3.08-1.71-3.44-2.29-6.97-1.09-10.72h-1.76c-.18,1.5-.33,3.01-.54,4.52-.07,.53-.17,1.11-.45,1.54-.66,1.04-1.42,2.01-2.25,3.14-.64-3.49,.17-6.43,2.18-9.08-1.6-.39-1.79-.32-2.47,.92-.34,.63-.66,1.27-.93,1.93-.71,1.66-1.49,2.54-3.21,3.51,.33-2.36,1.12-4.47,2.57-6.43-.3-.03-.5-.07-.69-.07-3.6,0-7.21,0-10.81,0-1.3,0-1.73,.64-1.24,1.84,.5,1.21,1.19,2.29,2.28,3.23,.06-.23,.06-.42,.15-.55,.17-.24,.35-.57,.59-.64,.19-.06,.57,.15,.72,.34,1.05,1.35,2.43,2.26,3.91,3.06,.32,.17,.7,.62,.67,.92-.02,.3-.45,.7-.78,.84-1.87,.77-3.85,.94-5.84,.92-1.07-.01-1.23-.67-.46-1.8-.4-.3-.8-.59-1.19-.9-1.61-1.31-2.67-3-3.34-4.93-.49-1.42-.79-2.93-2.11-4.01,1.28-1.15,1.54-2.65,2.02-4.08,.81-2.41,2.38-4.27,4.48-5.67,0-.08,0-.13-.01-.18-.13-.43-.5-1.04-.35-1.24,.25-.32,.84-.49,1.3-.5,1.9-.05,3.74,.3,5.47,1.12,.36,.17,.77,.53,.85,.88,.05,.21-.46,.59-.77,.84-1.13,.91-2.27,1.8-3.41,2.68-.37,.29-.8,.77-1.15,.73-.32-.04-.57-.67-.9-1.1-.92,.94-1.8,2.04-2.23,3.44-.22,.72,.25,1.23,1.11,1.24,1.43,.02,2.86,0,4.29,0,1.88,0,3.76-.01,5.64,0,.45,0,.69-.08,.85-.58,.71-2.27,2.93-3.21,5.15-2.22,.81,.36,1.18,1.05,1.33,1.86,.13,.72,.45,1.01,1.22,.95,1.03-.08,2.06-.02,3.15-.02,.44-.93,.38-2.26,1.5-2.64,.94-.32,2.02-.36,3.03-.33,1.79,.06,2.06,1.55,2.44,2.92h6.88c0-2.02,0-4-.01-5.98,0-.19-.15-.39-.24-.58-.36-.77-.04-1.71,.72-2.1,1.35-.69,2.62,.04,2.63,1.53,.02,2.07,0,4.13,0,6.2,0,.29,0,.57,0,1.06,1.56-.09,3.04-.17,4.53-.27,.26-.02,.51-.13,.77-.16,.88-.11,1.75-.04,2.24,.82,.47,.83,.52,1.73-.04,2.56-.57,.84-1.45,1.19-2.37,.87-1.48-.51-2.98-.32-4.47-.37-.18,0-.36,.02-.66,.04,0,.35,0,.69,0,1.02,0,2.17,0,4.34,0,6.52,0,.62,.02,1.31-.72,1.51-.79,.22-1.66,.34-2.32-.33-.53-.54-.61-1.21-.22-1.9,.1-.17,.15-.4,.15-.6,0-1.96,0-3.92,0-5.88,0-.1-.04-.2-.07-.34h-7.86c1.47,1.94,2.26,4.07,2.62,6.6-1.33-1.15-2.84-1.81-3.23-3.57-.13-.58-.5-1.1-.72-1.67-.45-1.16-1.17-1.78-2.65-1.26,1.93,2.61,2.75,5.56,2.15,8.94-.19-.2-.36-.37-.51-.55-.48-.63-.96-1.26-1.43-1.9-.57-.76-.82-1.58-.84-2.57-.03-1.33-.33-2.66-.52-4.03Zm3.41-3.53l.17-.03c.11,.34,.23,.68,.33,1.02,.13,.46,.32,.89,.91,.74,.59-.15,.59-.61,.46-1.08-.15-.56-.25-1.16-.54-1.65-.22-.38-.7-.85-1.07-.85-.93,0-1.98-.43-2.76,.49-.03,.04-.06,.09-.07,.14-.22,.7-.49,1.4-.62,2.12-.04,.24,.23,.76,.4,.77,.28,.03,.69-.18,.86-.41,.23-.32,.29-.76,.43-1.14,.14,.3,.15,.59,.17,.87,.04,.44,.23,.85,.71,.73,.26-.07,.5-.45,.61-.75,.1-.29,.02-.65,.02-.97Zm-10.99,.12l.13-.02c.14,.41,.22,.85,.43,1.22,.12,.21,.43,.41,.66,.41,.18,0,.56-.34,.53-.44-.27-.99-.59-1.98-.96-2.94-.06-.15-.47-.24-.71-.24-2.85-.01-2.51-.14-3.22,2.18-.03,.1-.07,.2-.1,.3-.11,.45-.23,.93,.37,1.12,.57,.17,.8-.23,.95-.69,.12-.39,.26-.78,.39-1.17,.15,.44,.07,.86,.18,1.22,.08,.26,.39,.62,.62,.63,.21,.01,.54-.33,.65-.59,.13-.29,.07-.66,.09-1Z"/><path class="h" d="M496.06,622c-2.01-.27-3.67-1.11-4.59-3.04-.15-.31-.07-.72-.12-1.31-1.57-1.01-2.28-2.78-2.42-4.93,.15,0,.27,0,.39,0,.13,0,.26,.03,.6,.07-2.5-1.59-3.1-3.79-2.75-6.45,.23,.07,.4,.12,.56,.18,.17,.06,.33,.14,.58,.09-.81-.64-1.63-1.26-2.42-1.91-2.24-1.85-2.57-4.95-.78-7.24,.08-.1,.14-.22,.27-.41,2.49,2,5.29,3.43,7.19,5.96,1.72,2.28,2.18,4.74,1.1,7.47-.38,.97-.67,2.01-.78,3.05-.14,1.3,.75,2.19,2.06,2.13,.74-.03,1.08,.3,1.1,.92,.04,1.79,.02,3.58,.02,5.43Z"/><path class="h" d="M527.21,597.03c2.15,2.3,2.02,5.57-.15,7.47-.85,.74-1.76,1.41-2.59,2.21l1.1-.4c.36,2.67-.22,4.87-2.65,6.41h.84c.06,2.11-.86,3.88-2.38,4.92-.03,.55,.06,.97-.09,1.28-.92,1.96-2.59,2.83-4.61,3.08,0-1.81-.03-3.6,.01-5.38,.02-.66,.36-1,1.14-.97,1.27,.05,2.15-.82,2.03-2.09-.09-.96-.31-1.95-.68-2.83-1.41-3.33-.65-6.24,1.82-8.63,1.91-1.84,4.12-3.37,6.22-5.06Z"/><path class="h" d="M499.3,614.16c.9-3.08,1.8-6.17,2.77-9.48l-2.73,.52c-1.14-1.29-.57-3.16,1.25-3.52,.43-.08,.62-.24,.78-.62,.42-1.01,1.3-1.58,2.3-1.76,1.21-.23,2.46-.35,3.69-.33,1.23,.01,2.06,.82,2.51,1.91,.46,1.15,.83,2.34,1.16,3.53,.9,3.23,1.77,6.47,2.66,9.75h-14.39Zm5.56-9.44c-.46,.03-.76,0-1.03,.07-.21,.06-.51,.22-.57,.39-.42,1.43-.79,2.87-1.18,4.31l.11,.05,1.78-1.98,1.32,1.52,1.38-1.52,1.38,1.45,1.18-1.45,1.8,1.98,.22-.09c-.83-2.71-1.63-5.43-2.51-8.12-.24-.75-.93-1.24-1.72-1.21-1.12,.05-2.25,.22-3.35,.46-.41,.09-.75,.52-1.12,.8l.14,.27h3.41l.07,.24-1.53,.76,.23,2.06Zm-1.26-1.11c-.34-.87-1.05-1.15-2.37-.97-.63,.08-1.26,.23-1.31,.97h3.68Z"/><path class="h" d="M515.05,615.46c-.05,1.45-.13,2.73-.14,4.02,0,.54-.16,.73-.71,.77-5.23,.41-10.46,.42-15.7,0-.5-.04-.67-.22-.68-.72-.03-1.3-.13-2.61-.21-4.06h17.44Z"/><path class="h" d="M507.42,621.06c.02,.22,.04,.37,.04,.53,0,4.18,0,8.35,0,12.53,0,.5-.68,1.25-1.1,1.24-.39-.01-1.07-.75-1.07-1.19,0-4.23,0-8.46,0-12.69,0-.13,.03-.25,.06-.42h2.07Z"/><path class="h" d="M483.99,596.04l-1.45,2.61c-1.76-1.18-3.59-2.31-5.3-3.59-1.56-1.17-2.22-3.38-1.66-5.15l8.41,6.13Z"/><path class="h" d="M537.26,589.84c.33,2.14-.12,3.9-1.66,5.12-1.71,1.36-3.6,2.49-5.39,3.7l-1.45-2.62,8.5-6.21Z"/><path class="h" d="M474.93,601.2c1.99,.99,3.91,1.93,5.82,2.88,1.25,.62,2.49,1.29,3.77,1.85,.73,.32,1.11,.71,.89,1.53-.04,.17,0,.36,0,.64-.54-.14-.99-.25-1.44-.37-1.69-.44-3.37-.87-5.05-1.32-2.41-.65-4-2.7-3.98-5.21Z"/><path class="h" d="M537.87,601.17c-.16,2.3-1.04,4.09-3.07,4.85-2.38,.89-4.9,1.42-7.42,2.13-.03-.55-.09-.96-.07-1.38,0-.17,.13-.41,.28-.48,3.37-1.69,6.75-3.37,10.28-5.12Z"/><path class="h" d="M509.11,633.5v-12.55l2.02-.09v.91c0,3.1-.03,6.19,.02,9.29,.01,.8-.22,1.29-.9,1.65-.36,.2-.69,.47-1.14,.79Z"/><path class="h" d="M501.61,620.95h2.02c0,4.17,0,8.26,0,12.34-1.41-.4-2.02-1.17-2.02-2.58,0-2.96,0-5.92,0-8.88v-.89Z"/><path class="h" d="M476.52,607.5c2.19,.57,4.29,1.11,6.37,1.66,.89,.24,1.95,.27,2.63,.79,.63,.49,.86,1.51,1.34,2.44-.9-.11-1.72-.2-2.53-.31-.94-.12-1.88-.27-2.83-.39-2.59-.32-4.09-1.55-4.98-4.2Z"/><path class="h" d="M536.2,607.6c-.81,2.43-2.41,3.85-5.01,4.11-1.73,.17-3.45,.46-5.26,.7,.38-.84,.7-1.6,1.07-2.34,.07-.13,.28-.23,.45-.28,2.83-.75,5.67-1.5,8.51-2.24,.07-.02,.15,.02,.24,.04Z"/><path class="h" d="M474.74,595.48c.66,.43,1.18,.76,1.7,1.11,1.76,1.16,3.52,2.34,5.29,3.48,.45,.29,.63,.61,.65,1.15,.01,.62,.17,1.24,.3,2.08-2.14-1.16-4.22-2.12-6.12-3.37-1.41-.94-1.91-2.53-1.82-4.44Z"/><path class="h" d="M538,595.47c.09,2.07-.54,3.7-2.11,4.7-1.82,1.14-3.8,2.03-5.79,3.07,.11-.92,.19-1.7,.3-2.47,.02-.16,.14-.35,.27-.44,2.39-1.59,4.78-3.17,7.33-4.85Z"/><path class="h" d="M512.8,620.76l2.05-.17c.02,.32,.05,.6,.05,.88,0,2.09-.11,4.18,.04,6.26,.12,1.69-.8,2.42-2.14,3.07v-10.05Z"/><path class="h" d="M497.84,620.56l2.11,.19v9.92c-1.31-.31-2.11-1.26-2.11-2.52,0-2.22,0-4.44,0-6.66,0-.28,0-.57,0-.92Z"/><path class="h" d="M479.57,613.12c2.59,.34,5,.64,7.4,.98,.2,.03,.45,.25,.53,.44,.18,.43,.27,.9,.41,1.43-1.61,0-3.18,.14-4.71-.04-1.61-.19-2.72-1.28-3.63-2.82Z"/><path class="h" d="M533.16,613.12c-1.1,1.88-2.55,2.89-4.56,2.99-1.24,.06-2.48,.01-3.75,.01,.02-.28,.03-.36,.03-.43,.13-1.13,.63-1.69,1.89-1.76,2.07-.13,4.13-.51,6.37-.81Z"/><path class="h" d="M483.56,617.84c.69-.04,1.31-.09,1.93-.12,.93-.05,1.85-.09,2.78-.12,.25,0,.6-.01,.73,.14,.25,.28,.44,.65,.52,1.02,.02,.09-.47,.34-.75,.44-1.89,.62-4,.09-5.21-1.35Z"/><path class="h" d="M529.19,617.82c-1.28,1.58-4.12,2.13-5.72,1.17-.13-.08-.28-.4-.23-.47,.25-.34,.56-.91,.85-.91,1.68,0,3.36,.12,5.11,.2Z"/></g></g></g></g></g></svg>