<?xml version="1.0" encoding="UTF-8"?><svg xmlns="http://www.w3.org/2000/svg" viewBox="0 0 995.83 216.05"><defs><style>.e,.f{fill:#f77f00;}.g,.h,.i{fill:#fff;}.f,.h,.i,.j{font-family:Poppins-SemiBold, Poppins;}.f,.h,.j{font-size:27px;}.k{stroke:#fff;}.k,.l,.m{fill:none;stroke-miterlimit:10;}.l{stroke:#f77f00;}.i{font-size:16px;}.m{stroke:#d62828;}.j,.n{fill:#d62828;}</style></defs><g id="a"/><g id="b"><g id="c"><text class="i" transform="translate(432.61 13.67)"><tspan x="0" y="0">Tercera selección</tspan></text><text class="h" transform="translate(488.02 42.86)"><tspan x="0" y="0">69 </tspan></text><circle class="n" cx="187.11" cy="91.83" r="10"/><circle class="n" cx="213.11" cy="91.83" r="10"/><circle class="n" cx="239.11" cy="91.83" r="10"/><circle class="n" cx="265.11" cy="91.83" r="10"/><circle class="n" cx="291.11" cy="91.83" r="10"/><circle class="n" cx="317.11" cy="91.83" r="10"/><circle class="n" cx="343.11" cy="91.83" r="10"/><circle class="n" cx="369.11" cy="91.83" r="10"/><circle class="n" cx="395.11" cy="91.83" r="10"/><circle class="n" cx="421.11" cy="91.83" r="10"/><circle class="n" cx="447.11" cy="91.83" r="10"/><circle class="n" cx="473.11" cy="91.83" r="10"/><circle class="n" cx="499.11" cy="91.83" r="10"/><circle class="n" cx="525.11" cy="91.83" r="10"/><circle class="n" cx="551.11" cy="91.83" r="10"/><circle class="n" cx="577.11" cy="91.83" r="10"/><circle class="n" cx="603.11" cy="91.83" r="10"/><circle class="n" cx="629.11" cy="91.83" r="10"/><circle class="n" cx="655.11" cy="91.83" r="10"/><circle class="n" cx="681.11" cy="91.83" r="10"/><circle class="n" cx="707.11" cy="91.83" r="10"/><circle class="n" cx="733.11" cy="91.83" r="10"/><circle class="n" cx="759.11" cy="91.83" r="10"/><circle class="n" cx="785.11" cy="91.83" r="10"/><circle class="n" cx="811.11" cy="91.83" r="10"/><circle class="n" cx="187.11" cy="118.83" r="10"/><circle class="n" cx="213.11" cy="118.83" r="10"/><circle class="n" cx="239.11" cy="118.83" r="10"/><circle class="n" cx="265.11" cy="118.83" r="10"/><circle class="n" cx="291.11" cy="118.83" r="10"/><circle class="n" cx="317.11" cy="118.83" r="10"/><circle class="n" cx="343.11" cy="118.83" r="10"/><circle class="e" cx="369.11" cy="118.83" r="10"/><circle class="e" cx="395.11" cy="118.83" r="10"/><circle class="e" cx="421.11" cy="118.83" r="10"/><circle class="e" cx="447.11" cy="118.83" r="10"/><circle class="e" cx="473.11" cy="118.83" r="10"/><circle class="e" cx="499.11" cy="118.83" r="10"/><circle class="e" cx="525.11" cy="118.83" r="10"/><circle class="e" cx="551.11" cy="118.83" r="10"/><circle class="e" cx="577.11" cy="118.83" r="10"/><circle class="e" cx="603.11" cy="118.83" r="10"/><circle class="e" cx="629.11" cy="118.83" r="10"/><circle class="e" cx="655.11" cy="118.83" r="10"/><circle class="e" cx="681.11" cy="118.83" r="10"/><circle class="e" cx="707.11" cy="118.83" r="10"/><circle class="e" cx="733.11" cy="118.83" r="10"/><circle class="e" cx="759.11" cy="118.83" r="10"/><circle class="e" cx="785.11" cy="118.83" r="10"/><circle class="e" cx="811.11" cy="118.83" r="10"/><circle class="e" cx="187.11" cy="145.83" r="10"/><circle class="e" cx="213.11" cy="145.83" r="10"/><circle class="e" cx="239.11" cy="145.83" r="10"/><circle class="e" cx="265.11" cy="145.83" r="10"/><circle class="e" cx="291.11" cy="145.83" r="10"/><circle class="e" cx="317.11" cy="145.83" r="10"/><circle class="e" cx="343.11" cy="145.83" r="10"/><circle class="e" cx="369.11" cy="145.83" r="10"/><circle class="e" cx="395.11" cy="145.83" r="10"/><circle class="e" cx="421.11" cy="145.83" r="10"/><circle class="e" cx="447.11" cy="145.83" r="10"/><circle class="e" cx="473.11" cy="145.83" r="10"/><circle class="e" cx="499.11" cy="145.83" r="10"/><circle class="e" cx="525.11" cy="145.83" r="10"/><circle class="g" cx="551.11" cy="145.83" r="10"/><circle class="g" cx="577.11" cy="145.83" r="10"/><circle class="g" cx="603.11" cy="145.83" r="10"/><circle class="g" cx="629.11" cy="145.83" r="10"/><circle class="g" cx="655.11" cy="145.83" r="10"/><text class="f" transform="translate(899.6 64.32)"><tspan x="0" y="0">32</tspan></text><text class="h" transform="translate(750.56 197.08)"><tspan x="0" y="0">5</tspan></text><text class="j" transform="translate(64.77 53.84)"><tspan x="0" y="0">32</tspan></text></g><g id="d"><polyline class="l" points="811.11 119.32 917.72 119.32 917.72 82.32"/><polyline class="m" points="187.11 118.83 80.5 118.83 80.5 81.83"/><polyline class="k" points="717.11 187.83 629.11 187.83 629.11 148.72"/></g></g></svg>