<?xml version="1.0" encoding="UTF-8"?><svg xmlns="http://www.w3.org/2000/svg" viewBox="0 0 995.83 484.1"><defs><style>.e,.f{fill:#f77f00;}.g,.h,.i{fill:#fff;}.f,.h,.i,.j{font-family:Poppins-SemiBold, Poppins;}.f,.h,.j{font-size:27px;}.k{stroke:#fff;}.k,.l,.m{fill:none;stroke-miterlimit:10;}.l{stroke:#f77f00;}.i{font-size:16px;}.m{stroke:#d62828;}.j,.n{fill:#d62828;}</style></defs><g id="a"/><g id="b"><g id="c"><text class="i" transform="translate(435.35 13.67)"><tspan x="0" y="0">Cuarta selección</tspan></text><text class="h" transform="translate(488.88 42.86)"><tspan x="0" y="0">32 </tspan></text><circle class="n" cx="187.11" cy="91.83" r="10"/><circle class="n" cx="213.11" cy="91.83" r="10"/><circle class="n" cx="239.11" cy="91.83" r="10"/><circle class="n" cx="265.11" cy="91.83" r="10"/><circle class="n" cx="291.11" cy="91.83" r="10"/><circle class="n" cx="317.11" cy="91.83" r="10"/><circle class="n" cx="343.11" cy="91.83" r="10"/><circle class="n" cx="369.11" cy="91.83" r="10"/><circle class="n" cx="395.11" cy="91.83" r="10"/><circle class="n" cx="421.11" cy="91.83" r="10"/><circle class="n" cx="447.11" cy="91.83" r="10"/><circle class="n" cx="473.11" cy="91.83" r="10"/><circle class="n" cx="499.11" cy="91.83" r="10"/><circle class="n" cx="525.11" cy="91.83" r="10"/><circle class="n" cx="551.11" cy="91.83" r="10"/><circle class="e" cx="577.11" cy="91.83" r="10"/><circle class="e" cx="603.11" cy="91.83" r="10"/><circle class="e" cx="629.11" cy="91.83" r="10"/><circle class="e" cx="655.11" cy="91.83" r="10"/><circle class="e" cx="681.11" cy="91.83" r="10"/><circle class="e" cx="707.11" cy="91.83" r="10"/><circle class="e" cx="733.11" cy="91.83" r="10"/><circle class="e" cx="759.11" cy="91.83" r="10"/><circle class="e" cx="785.11" cy="91.83" r="10"/><circle class="e" cx="811.11" cy="91.83" r="10"/><circle class="e" cx="187.11" cy="118.83" r="10"/><circle class="e" cx="213.11" cy="118.83" r="10"/><circle class="e" cx="239.11" cy="118.83" r="10"/><circle class="e" cx="265.11" cy="118.83" r="10"/><circle class="e" cx="291.11" cy="118.83" r="10"/><circle class="g" cx="317.11" cy="118.83" r="10"/><circle class="g" cx="343.11" cy="118.83" r="10"/><text class="i" transform="translate(436.36 234.94)"><tspan x="0" y="0">Quinta selección</tspan></text><text class="h" transform="translate(491.55 264.13)"><tspan x="0" y="0">18</tspan></text><circle class="n" cx="278.11" cy="313.1" r="10"/><circle class="n" cx="304.11" cy="313.1" r="10"/><circle class="n" cx="330.11" cy="313.1" r="10"/><circle class="n" cx="356.11" cy="313.1" r="10"/><circle class="n" cx="382.11" cy="313.1" r="10"/><circle class="n" cx="408.11" cy="313.1" r="10"/><circle class="n" cx="434.11" cy="313.1" r="10"/><circle class="n" cx="460.11" cy="313.1" r="10"/><circle class="e" cx="486.11" cy="313.1" r="10"/><circle class="e" cx="512.11" cy="313.1" r="10"/><circle class="e" cx="538.11" cy="313.1" r="10"/><circle class="e" cx="564.11" cy="313.1" r="10"/><circle class="e" cx="590.11" cy="313.1" r="10"/><circle class="e" cx="616.11" cy="313.1" r="10"/><circle class="e" cx="642.11" cy="313.1" r="10"/><circle class="e" cx="668.11" cy="313.1" r="10"/><circle class="g" cx="694.11" cy="313.1" r="10"/><circle class="g" cx="720.11" cy="313.1" r="10"/><text class="i" transform="translate(437.27 385.94)"><tspan x="0" y="0">Última selección</tspan></text><text class="h" transform="translate(497.75 415.13)"><tspan x="0" y="0">7</tspan></text><circle class="n" cx="424.11" cy="474.1" r="10"/><circle class="n" cx="450.11" cy="474.1" r="10"/><circle class="n" cx="476.11" cy="474.1" r="10"/><circle class="e" cx="502.11" cy="474.1" r="10"/><circle class="e" cx="528.11" cy="474.1" r="10"/><circle class="e" cx="554.11" cy="474.1" r="10"/><circle class="g" cx="580.11" cy="474.1" r="10"/><text class="f" transform="translate(899.6 37.7)"><tspan x="0" y="0">32</tspan></text><text class="h" transform="translate(467.22 162.97)"><tspan x="0" y="0">2</tspan></text><text class="j" transform="translate(64.77 24.79)"><tspan x="0" y="0">32</tspan></text></g><g id="d"><polyline class="l" points="811.11 92.7 917.72 92.7 917.72 55.7"/><polyline class="m" points="187.11 89.78 80.5 89.78 80.5 52.78"/><polyline class="k" points="432.86 152.8 344.86 152.8 344.86 113.69"/></g></g></svg>