<?xml version="1.0" encoding="UTF-8"?><svg xmlns="http://www.w3.org/2000/svg" viewBox="0 0 995.83 490.21"><defs><style>.e,.f{fill:#f77f00;}.g,.h,.i{fill:#fff;}.f,.h,.i,.j{font-family:Poppins-SemiBold, Poppins;}.f,.h,.j{font-size:27px;}.k{stroke:#fff;}.k,.l,.m{fill:none;stroke-miterlimit:10;}.l{stroke:#f77f00;}.m{stroke:#d62828;}.i{font-size:21px;}.j,.n{fill:#d62828;}</style></defs><g id="a"/><g id="b"><g id="c"><text class="i" transform="translate(413.7 17.94)"><tspan x="0" y="0">Cuarta selección</tspan></text><text class="h" transform="translate(488.88 48.97)"><tspan x="0" y="0">32 </tspan></text><circle class="n" cx="187.11" cy="97.94" r="10"/><circle class="n" cx="213.11" cy="97.94" r="10"/><circle class="n" cx="239.11" cy="97.94" r="10"/><circle class="n" cx="265.11" cy="97.94" r="10"/><circle class="n" cx="291.11" cy="97.94" r="10"/><circle class="n" cx="317.11" cy="97.94" r="10"/><circle class="n" cx="343.11" cy="97.94" r="10"/><circle class="n" cx="369.11" cy="97.94" r="10"/><circle class="n" cx="395.11" cy="97.94" r="10"/><circle class="n" cx="421.11" cy="97.94" r="10"/><circle class="n" cx="447.11" cy="97.94" r="10"/><circle class="n" cx="473.11" cy="97.94" r="10"/><circle class="n" cx="499.11" cy="97.94" r="10"/><circle class="n" cx="525.11" cy="97.94" r="10"/><circle class="n" cx="551.11" cy="97.94" r="10"/><circle class="e" cx="577.11" cy="97.94" r="10"/><circle class="e" cx="603.11" cy="97.94" r="10"/><circle class="e" cx="629.11" cy="97.94" r="10"/><circle class="e" cx="655.11" cy="97.94" r="10"/><circle class="e" cx="681.11" cy="97.94" r="10"/><circle class="e" cx="707.11" cy="97.94" r="10"/><circle class="e" cx="733.11" cy="97.94" r="10"/><circle class="e" cx="759.11" cy="97.94" r="10"/><circle class="e" cx="785.11" cy="97.94" r="10"/><circle class="e" cx="811.11" cy="97.94" r="10"/><circle class="e" cx="187.11" cy="124.94" r="10"/><circle class="e" cx="213.11" cy="124.94" r="10"/><circle class="e" cx="239.11" cy="124.94" r="10"/><circle class="e" cx="265.11" cy="124.94" r="10"/><circle class="e" cx="291.11" cy="124.94" r="10"/><circle class="g" cx="317.11" cy="124.94" r="10"/><circle class="g" cx="343.11" cy="124.94" r="10"/><text class="i" transform="translate(421.4 232.14)"><tspan x="0" y="0">Quinta selección</tspan></text><text class="h" transform="translate(491.55 270.24)"><tspan x="0" y="0">18</tspan></text><circle class="n" cx="278.11" cy="319.21" r="10"/><circle class="n" cx="304.11" cy="319.21" r="10"/><circle class="n" cx="330.11" cy="319.21" r="10"/><circle class="n" cx="356.11" cy="319.21" r="10"/><circle class="n" cx="382.11" cy="319.21" r="10"/><circle class="n" cx="408.11" cy="319.21" r="10"/><circle class="n" cx="434.11" cy="319.21" r="10"/><circle class="n" cx="460.11" cy="319.21" r="10"/><circle class="e" cx="486.11" cy="319.21" r="10"/><circle class="e" cx="512.11" cy="319.21" r="10"/><circle class="e" cx="538.11" cy="319.21" r="10"/><circle class="e" cx="564.11" cy="319.21" r="10"/><circle class="e" cx="590.11" cy="319.21" r="10"/><circle class="e" cx="616.11" cy="319.21" r="10"/><circle class="e" cx="642.11" cy="319.21" r="10"/><circle class="e" cx="668.11" cy="319.21" r="10"/><circle class="g" cx="694.11" cy="319.21" r="10"/><circle class="g" cx="720.11" cy="319.21" r="10"/><text class="i" transform="translate(416.22 386.79)"><tspan x="0" y="0">Última selección</tspan></text><text class="h" transform="translate(497.75 421.24)"><tspan x="0" y="0">7</tspan></text><circle class="n" cx="424.11" cy="480.21" r="10"/><circle class="n" cx="450.11" cy="480.21" r="10"/><circle class="n" cx="476.11" cy="480.21" r="10"/><circle class="e" cx="502.11" cy="480.21" r="10"/><circle class="e" cx="528.11" cy="480.21" r="10"/><circle class="e" cx="554.11" cy="480.21" r="10"/><circle class="g" cx="580.11" cy="480.21" r="10"/><text class="f" transform="translate(899.6 43.81)"><tspan x="0" y="0">32</tspan></text><text class="h" transform="translate(467.22 169.08)"><tspan x="0" y="0">2</tspan></text><text class="j" transform="translate(64.77 30.89)"><tspan x="0" y="0">32</tspan></text></g><g id="d"><polyline class="l" points="811.11 98.8 917.72 98.8 917.72 61.8"/><polyline class="m" points="187.11 95.89 80.5 95.89 80.5 58.89"/><polyline class="k" points="432.86 158.91 344.86 158.91 344.86 119.8"/></g></g></svg>