<?xml version="1.0" encoding="UTF-8"?><svg xmlns="http://www.w3.org/2000/svg" viewBox="0 0 979.89 704.65"><defs><style>.e,.f,.g{fill:#f77f00;}.h,.i,.g,.j{font-family:Poppins-Regular, Poppins;font-size:15px;}.h,.k,.l{fill:#fcbf49;}.m,.i,.n,.o{fill:#fff;}.p{stroke:#fcbf49;}.p,.q,.r,.s{fill:none;stroke-miterlimit:10;}.f,.n,.k,.o,.t{font-family:Poppins-SemiBold, Poppins;}.f,.n,.k,.t{font-size:27px;}.q{stroke:#fff;}.r{stroke:#f77f00;}.o{font-size:16px;}.s{stroke:#d62828;}.j,.t,.u{fill:#d62828;}</style></defs><g id="a"/><g id="b"><g id="c"><text class="o" transform="translate(415.27 13.67)"><tspan x="0" y="0">Primera selección</tspan></text><text class="n" transform="translate(461.09 41.86)"><tspan x="0" y="0">508</tspan></text><text class="f" transform="translate(875.56 215.24)"><tspan x="0" y="0">225</tspan></text><text class="g" transform="translate(868.66 187.52)"><tspan x="0" y="0">Armada</tspan></text><text class="n" transform="translate(883.66 506.45)"><tspan x="0" y="0">23</tspan></text><text class="i" transform="translate(859.89 457.93)"><tspan x="0" y="0">Cuerpo de </tspan><tspan x="10.02" y="18">Marines</tspan></text><text class="t" transform="translate(56.67 75.28)"><tspan x="0" y="0">225</tspan></text><text class="j" transform="translate(31.87 47.55)"><tspan x="0" y="0">Fuerza Aérea</tspan></text><text class="k" transform="translate(63.87 402.2)"><tspan x="0" y="0">35</tspan></text><text class="h" transform="translate(53.27 371.93)"><tspan x="0" y="0">Ejército</tspan></text><circle class="u" cx="169.27" cy="90.83" r="10"/><circle class="u" cx="195.27" cy="90.83" r="10"/><circle class="u" cx="221.27" cy="90.83" r="10"/><circle class="u" cx="247.27" cy="90.83" r="10"/><circle class="u" cx="273.27" cy="90.83" r="10"/><circle class="u" cx="299.27" cy="90.83" r="10"/><circle class="u" cx="325.27" cy="90.83" r="10"/><circle class="u" cx="351.27" cy="90.83" r="10"/><circle class="u" cx="377.27" cy="90.83" r="10"/><circle class="u" cx="403.27" cy="90.83" r="10"/><circle class="u" cx="429.27" cy="90.83" r="10"/><circle class="u" cx="455.27" cy="90.83" r="10"/><circle class="u" cx="481.27" cy="90.83" r="10"/><circle class="u" cx="507.27" cy="90.83" r="10"/><circle class="u" cx="533.27" cy="90.83" r="10"/><circle class="u" cx="559.27" cy="90.83" r="10"/><circle class="u" cx="585.27" cy="90.83" r="10"/><circle class="u" cx="611.27" cy="90.83" r="10"/><circle class="u" cx="637.27" cy="90.83" r="10"/><circle class="u" cx="663.27" cy="90.83" r="10"/><circle class="u" cx="689.27" cy="90.83" r="10"/><circle class="u" cx="715.27" cy="90.83" r="10"/><circle class="u" cx="741.27" cy="90.83" r="10"/><circle class="u" cx="767.27" cy="90.83" r="10"/><circle class="u" cx="793.27" cy="90.83" r="10"/><circle class="u" cx="169.27" cy="117.83" r="10"/><circle class="u" cx="195.27" cy="117.83" r="10"/><circle class="u" cx="221.27" cy="117.83" r="10"/><circle class="u" cx="247.27" cy="117.83" r="10"/><circle class="u" cx="273.27" cy="117.83" r="10"/><circle class="u" cx="299.27" cy="117.83" r="10"/><circle class="u" cx="325.27" cy="117.83" r="10"/><circle class="u" cx="351.27" cy="117.83" r="10"/><circle class="u" cx="377.27" cy="117.83" r="10"/><circle class="u" cx="403.27" cy="117.83" r="10"/><circle class="u" cx="429.27" cy="117.83" r="10"/><circle class="u" cx="455.27" cy="117.83" r="10"/><circle class="u" cx="481.27" cy="117.83" r="10"/><circle class="u" cx="507.27" cy="117.83" r="10"/><circle class="u" cx="533.27" cy="117.83" r="10"/><circle class="u" cx="559.27" cy="117.83" r="10"/><circle class="u" cx="585.27" cy="117.83" r="10"/><circle class="u" cx="611.27" cy="117.83" r="10"/><circle class="u" cx="637.27" cy="117.83" r="10"/><circle class="u" cx="663.27" cy="117.83" r="10"/><circle class="u" cx="689.27" cy="117.83" r="10"/><circle class="u" cx="715.27" cy="117.83" r="10"/><circle class="u" cx="741.27" cy="117.83" r="10"/><circle class="u" cx="767.27" cy="117.83" r="10"/><circle class="u" cx="793.27" cy="117.83" r="10"/><circle class="u" cx="169.27" cy="144.83" r="10"/><circle class="u" cx="195.27" cy="144.83" r="10"/><circle class="u" cx="221.27" cy="144.83" r="10"/><circle class="u" cx="247.27" cy="144.83" r="10"/><circle class="u" cx="273.27" cy="144.83" r="10"/><circle class="u" cx="299.27" cy="144.83" r="10"/><circle class="u" cx="325.27" cy="144.83" r="10"/><circle class="u" cx="351.27" cy="144.83" r="10"/><circle class="u" cx="377.27" cy="144.83" r="10"/><circle class="u" cx="403.27" cy="144.83" r="10"/><circle class="u" cx="429.27" cy="144.83" r="10"/><circle class="u" cx="455.27" cy="144.83" r="10"/><circle class="u" cx="481.27" cy="144.83" r="10"/><circle class="u" cx="507.27" cy="144.83" r="10"/><circle class="u" cx="533.27" cy="144.83" r="10"/><circle class="u" cx="559.27" cy="144.83" r="10"/><circle class="u" cx="585.27" cy="144.83" r="10"/><circle class="u" cx="611.27" cy="144.83" r="10"/><circle class="u" cx="637.27" cy="144.83" r="10"/><circle class="u" cx="663.27" cy="144.83" r="10"/><circle class="u" cx="689.27" cy="144.83" r="10"/><circle class="u" cx="715.27" cy="144.83" r="10"/><circle class="u" cx="741.27" cy="144.83" r="10"/><circle class="u" cx="767.27" cy="144.83" r="10"/><circle class="u" cx="793.27" cy="144.83" r="10"/><circle class="u" cx="169.27" cy="171.83" r="10"/><circle class="u" cx="195.27" cy="171.83" r="10"/><circle class="u" cx="221.27" cy="171.83" r="10"/><circle class="u" cx="247.27" cy="171.83" r="10"/><circle class="u" cx="273.27" cy="171.83" r="10"/><circle class="u" cx="299.27" cy="171.83" r="10"/><circle class="u" cx="325.27" cy="171.83" r="10"/><circle class="u" cx="351.27" cy="171.83" r="10"/><circle class="u" cx="377.27" cy="171.83" r="10"/><circle class="u" cx="403.27" cy="171.83" r="10"/><circle class="u" cx="429.27" cy="171.83" r="10"/><circle class="u" cx="455.27" cy="171.83" r="10"/><circle class="u" cx="481.27" cy="171.83" r="10"/><circle class="u" cx="507.27" cy="171.83" r="10"/><circle class="u" cx="533.27" cy="171.83" r="10"/><circle class="u" cx="559.27" cy="171.83" r="10"/><circle class="u" cx="585.27" cy="171.83" r="10"/><circle class="u" cx="611.27" cy="171.83" r="10"/><circle class="u" cx="637.27" cy="171.83" r="10"/><circle class="u" cx="663.27" cy="171.83" r="10"/><circle class="u" cx="689.27" cy="171.83" r="10"/><circle class="u" cx="715.27" cy="171.83" r="10"/><circle class="u" cx="741.27" cy="171.83" r="10"/><circle class="u" cx="767.27" cy="171.83" r="10"/><circle class="u" cx="793.27" cy="171.83" r="10"/><circle class="u" cx="169.27" cy="198.83" r="10"/><circle class="u" cx="195.27" cy="198.83" r="10"/><circle class="u" cx="221.27" cy="198.83" r="10"/><circle class="u" cx="247.27" cy="198.83" r="10"/><circle class="u" cx="273.27" cy="198.83" r="10"/><circle class="u" cx="299.27" cy="198.83" r="10"/><circle class="u" cx="325.27" cy="198.83" r="10"/><circle class="u" cx="351.27" cy="198.83" r="10"/><circle class="u" cx="377.27" cy="198.83" r="10"/><circle class="u" cx="403.27" cy="198.83" r="10"/><circle class="u" cx="429.27" cy="198.83" r="10"/><circle class="u" cx="455.27" cy="198.83" r="10"/><circle class="u" cx="481.27" cy="198.83" r="10"/><circle class="u" cx="507.27" cy="198.83" r="10"/><circle class="u" cx="533.27" cy="198.83" r="10"/><circle class="u" cx="559.27" cy="198.83" r="10"/><circle class="u" cx="585.27" cy="198.83" r="10"/><circle class="u" cx="611.27" cy="198.83" r="10"/><circle class="u" cx="637.27" cy="198.83" r="10"/><circle class="u" cx="663.27" cy="198.83" r="10"/><circle class="u" cx="689.27" cy="198.83" r="10"/><circle class="u" cx="715.27" cy="198.83" r="10"/><circle class="u" cx="741.27" cy="198.83" r="10"/><circle class="u" cx="767.27" cy="198.83" r="10"/><circle class="u" cx="793.27" cy="198.83" r="10"/><circle class="u" cx="169.27" cy="225.83" r="10"/><circle class="u" cx="195.27" cy="225.83" r="10"/><circle class="u" cx="221.27" cy="225.83" r="10"/><circle class="u" cx="247.27" cy="225.83" r="10"/><circle class="u" cx="273.27" cy="225.83" r="10"/><circle class="u" cx="299.27" cy="225.83" r="10"/><circle class="u" cx="325.27" cy="225.83" r="10"/><circle class="u" cx="351.27" cy="225.83" r="10"/><circle class="u" cx="377.27" cy="225.83" r="10"/><circle class="u" cx="403.27" cy="225.83" r="10"/><circle class="u" cx="429.27" cy="225.83" r="10"/><circle class="u" cx="455.27" cy="225.83" r="10"/><circle class="u" cx="481.27" cy="225.83" r="10"/><circle class="u" cx="507.27" cy="225.83" r="10"/><circle class="u" cx="533.27" cy="225.83" r="10"/><circle class="u" cx="559.27" cy="225.83" r="10"/><circle class="u" cx="585.27" cy="225.83" r="10"/><circle class="u" cx="611.27" cy="225.83" r="10"/><circle class="u" cx="637.27" cy="225.83" r="10"/><circle class="u" cx="663.27" cy="225.83" r="10"/><circle class="u" cx="689.27" cy="225.83" r="10"/><circle class="u" cx="715.27" cy="225.83" r="10"/><circle class="u" cx="741.27" cy="225.83" r="10"/><circle class="u" cx="767.27" cy="225.83" r="10"/><circle class="u" cx="793.27" cy="225.83" r="10"/><circle class="u" cx="169.27" cy="252.83" r="10"/><circle class="u" cx="195.27" cy="252.83" r="10"/><circle class="u" cx="221.27" cy="252.83" r="10"/><circle class="u" cx="247.27" cy="252.83" r="10"/><circle class="u" cx="273.27" cy="252.83" r="10"/><circle class="u" cx="299.27" cy="252.83" r="10"/><circle class="u" cx="325.27" cy="252.83" r="10"/><circle class="u" cx="351.27" cy="252.83" r="10"/><circle class="u" cx="377.27" cy="252.83" r="10"/><circle class="u" cx="403.27" cy="252.83" r="10"/><circle class="u" cx="429.27" cy="252.83" r="10"/><circle class="u" cx="455.27" cy="252.83" r="10"/><circle class="u" cx="481.27" cy="252.83" r="10"/><circle class="u" cx="507.27" cy="252.83" r="10"/><circle class="u" cx="533.27" cy="252.83" r="10"/><circle class="u" cx="559.27" cy="252.83" r="10"/><circle class="u" cx="585.27" cy="252.83" r="10"/><circle class="u" cx="611.27" cy="252.83" r="10"/><circle class="u" cx="637.27" cy="252.83" r="10"/><circle class="u" cx="663.27" cy="252.83" r="10"/><circle class="u" cx="689.27" cy="252.83" r="10"/><circle class="u" cx="715.27" cy="252.83" r="10"/><circle class="u" cx="741.27" cy="252.83" r="10"/><circle class="u" cx="767.27" cy="252.83" r="10"/><circle class="u" cx="793.27" cy="252.83" r="10"/><circle class="u" cx="169.27" cy="279.83" r="10"/><circle class="u" cx="195.27" cy="279.83" r="10"/><circle class="u" cx="221.27" cy="279.83" r="10"/><circle class="u" cx="247.27" cy="279.83" r="10"/><circle class="u" cx="273.27" cy="279.83" r="10"/><circle class="u" cx="299.27" cy="279.83" r="10"/><circle class="u" cx="325.27" cy="279.83" r="10"/><circle class="u" cx="351.27" cy="279.83" r="10"/><circle class="u" cx="377.27" cy="279.83" r="10"/><circle class="u" cx="403.27" cy="279.83" r="10"/><circle class="u" cx="429.27" cy="279.83" r="10"/><circle class="u" cx="455.27" cy="279.83" r="10"/><circle class="u" cx="481.27" cy="279.83" r="10"/><circle class="u" cx="507.27" cy="279.83" r="10"/><circle class="u" cx="533.27" cy="279.83" r="10"/><circle class="u" cx="559.27" cy="279.83" r="10"/><circle class="u" cx="585.27" cy="279.83" r="10"/><circle class="u" cx="611.27" cy="279.83" r="10"/><circle class="u" cx="637.27" cy="279.83" r="10"/><circle class="u" cx="663.27" cy="279.83" r="10"/><circle class="u" cx="689.27" cy="279.83" r="10"/><circle class="u" cx="715.27" cy="279.83" r="10"/><circle class="u" cx="741.27" cy="279.83" r="10"/><circle class="u" cx="767.27" cy="279.83" r="10"/><circle class="u" cx="793.27" cy="279.83" r="10"/><circle class="u" cx="169.27" cy="306.83" r="10"/><circle class="u" cx="195.27" cy="306.83" r="10"/><circle class="u" cx="221.27" cy="306.83" r="10"/><circle class="u" cx="247.27" cy="306.83" r="10"/><circle class="u" cx="273.27" cy="306.83" r="10"/><circle class="u" cx="299.27" cy="306.83" r="10"/><circle class="u" cx="325.27" cy="306.83" r="10"/><circle class="u" cx="351.27" cy="306.83" r="10"/><circle class="u" cx="377.27" cy="306.83" r="10"/><circle class="u" cx="403.27" cy="306.83" r="10"/><circle class="u" cx="429.27" cy="306.83" r="10"/><circle class="u" cx="455.27" cy="306.83" r="10"/><circle class="u" cx="481.27" cy="306.83" r="10"/><circle class="u" cx="507.27" cy="306.83" r="10"/><circle class="u" cx="533.27" cy="306.83" r="10"/><circle class="u" cx="559.27" cy="306.83" r="10"/><circle class="u" cx="585.27" cy="306.83" r="10"/><circle class="u" cx="611.27" cy="306.83" r="10"/><circle class="u" cx="637.27" cy="306.83" r="10"/><circle class="u" cx="663.27" cy="306.83" r="10"/><circle class="u" cx="689.27" cy="306.83" r="10"/><circle class="u" cx="715.27" cy="306.83" r="10"/><circle class="u" cx="741.27" cy="306.83" r="10"/><circle class="u" cx="767.27" cy="306.83" r="10"/><circle class="u" cx="793.27" cy="306.83" r="10"/><circle class="e" cx="169.27" cy="333.83" r="10"/><circle class="e" cx="195.27" cy="333.83" r="10"/><circle class="e" cx="221.27" cy="333.83" r="10"/><circle class="e" cx="247.27" cy="333.83" r="10"/><circle class="e" cx="273.27" cy="333.83" r="10"/><circle class="e" cx="299.27" cy="333.83" r="10"/><circle class="e" cx="325.27" cy="333.83" r="10"/><circle class="e" cx="351.27" cy="333.83" r="10"/><circle class="e" cx="377.27" cy="333.83" r="10"/><circle class="e" cx="403.27" cy="333.83" r="10"/><circle class="e" cx="429.27" cy="333.83" r="10"/><circle class="e" cx="455.27" cy="333.83" r="10"/><circle class="e" cx="481.27" cy="333.83" r="10"/><circle class="e" cx="507.27" cy="333.83" r="10"/><circle class="e" cx="533.27" cy="333.83" r="10"/><circle class="e" cx="559.27" cy="333.83" r="10"/><circle class="e" cx="585.27" cy="333.83" r="10"/><circle class="e" cx="611.27" cy="333.83" r="10"/><circle class="e" cx="637.27" cy="333.83" r="10"/><circle class="e" cx="663.27" cy="333.83" r="10"/><circle class="e" cx="689.27" cy="333.83" r="10"/><circle class="e" cx="715.27" cy="333.83" r="10"/><circle class="e" cx="741.27" cy="333.83" r="10"/><circle class="e" cx="767.27" cy="333.83" r="10"/><circle class="e" cx="793.27" cy="333.83" r="10"/><circle class="e" cx="169.27" cy="360.83" r="10"/><circle class="e" cx="195.27" cy="360.83" r="10"/><circle class="e" cx="221.27" cy="360.83" r="10"/><circle class="e" cx="247.27" cy="360.83" r="10"/><circle class="e" cx="273.27" cy="360.83" r="10"/><circle class="e" cx="299.27" cy="360.83" r="10"/><circle class="e" cx="325.27" cy="360.83" r="10"/><circle class="e" cx="351.27" cy="360.83" r="10"/><circle class="e" cx="377.27" cy="360.83" r="10"/><circle class="e" cx="403.27" cy="360.83" r="10"/><circle class="e" cx="429.27" cy="360.83" r="10"/><circle class="e" cx="455.27" cy="360.83" r="10"/><circle class="e" cx="481.27" cy="360.83" r="10"/><circle class="e" cx="507.27" cy="360.83" r="10"/><circle class="e" cx="533.27" cy="360.83" r="10"/><circle class="e" cx="559.27" cy="360.83" r="10"/><circle class="e" cx="585.27" cy="360.83" r="10"/><circle class="e" cx="611.27" cy="360.83" r="10"/><circle class="e" cx="637.27" cy="360.83" r="10"/><circle class="e" cx="663.27" cy="360.83" r="10"/><circle class="e" cx="689.27" cy="360.83" r="10"/><circle class="e" cx="715.27" cy="360.83" r="10"/><circle class="e" cx="741.27" cy="360.83" r="10"/><circle class="e" cx="767.27" cy="360.83" r="10"/><circle class="e" cx="793.27" cy="360.83" r="10"/><circle class="e" cx="169.27" cy="387.83" r="10"/><circle class="e" cx="195.27" cy="387.83" r="10"/><circle class="e" cx="221.27" cy="387.83" r="10"/><circle class="e" cx="247.27" cy="387.83" r="10"/><circle class="e" cx="273.27" cy="387.83" r="10"/><circle class="e" cx="299.27" cy="387.83" r="10"/><circle class="e" cx="325.27" cy="387.83" r="10"/><circle class="e" cx="351.27" cy="387.83" r="10"/><circle class="e" cx="377.27" cy="387.83" r="10"/><circle class="e" cx="403.27" cy="387.83" r="10"/><circle class="e" cx="429.27" cy="387.83" r="10"/><circle class="e" cx="455.27" cy="387.83" r="10"/><circle class="e" cx="481.27" cy="387.83" r="10"/><circle class="e" cx="507.27" cy="387.83" r="10"/><circle class="e" cx="533.27" cy="387.83" r="10"/><circle class="e" cx="559.27" cy="387.83" r="10"/><circle class="e" cx="585.27" cy="387.83" r="10"/><circle class="e" cx="611.27" cy="387.83" r="10"/><circle class="e" cx="637.27" cy="387.83" r="10"/><circle class="e" cx="663.27" cy="387.83" r="10"/><circle class="e" cx="689.27" cy="387.83" r="10"/><circle class="e" cx="715.27" cy="387.83" r="10"/><circle class="e" cx="741.27" cy="387.83" r="10"/><circle class="e" cx="767.27" cy="387.83" r="10"/><circle class="e" cx="793.27" cy="387.83" r="10"/><circle class="e" cx="169.27" cy="414.83" r="10"/><circle class="e" cx="195.27" cy="414.83" r="10"/><circle class="e" cx="221.27" cy="414.83" r="10"/><circle class="e" cx="247.27" cy="414.83" r="10"/><circle class="e" cx="273.27" cy="414.83" r="10"/><circle class="e" cx="299.27" cy="414.83" r="10"/><circle class="e" cx="325.27" cy="414.83" r="10"/><circle class="e" cx="351.27" cy="414.83" r="10"/><circle class="e" cx="377.27" cy="414.83" r="10"/><circle class="e" cx="403.27" cy="414.83" r="10"/><circle class="e" cx="429.27" cy="414.83" r="10"/><circle class="e" cx="455.27" cy="414.83" r="10"/><circle class="e" cx="481.27" cy="414.83" r="10"/><circle class="e" cx="507.27" cy="414.83" r="10"/><circle class="e" cx="533.27" cy="414.83" r="10"/><circle class="e" cx="559.27" cy="414.83" r="10"/><circle class="e" cx="585.27" cy="414.83" r="10"/><circle class="e" cx="611.27" cy="414.83" r="10"/><circle class="e" cx="637.27" cy="414.83" r="10"/><circle class="e" cx="663.27" cy="414.83" r="10"/><circle class="e" cx="689.27" cy="414.83" r="10"/><circle class="e" cx="715.27" cy="414.83" r="10"/><circle class="e" cx="741.27" cy="414.83" r="10"/><circle class="e" cx="767.27" cy="414.83" r="10"/><circle class="e" cx="793.27" cy="414.83" r="10"/><circle class="e" cx="169.27" cy="441.83" r="10"/><circle class="e" cx="195.27" cy="441.83" r="10"/><circle class="e" cx="221.27" cy="441.83" r="10"/><circle class="e" cx="247.27" cy="441.83" r="10"/><circle class="e" cx="273.27" cy="441.83" r="10"/><circle class="e" cx="299.27" cy="441.83" r="10"/><circle class="e" cx="325.27" cy="441.83" r="10"/><circle class="e" cx="351.27" cy="441.83" r="10"/><circle class="e" cx="377.27" cy="441.83" r="10"/><circle class="e" cx="403.27" cy="441.83" r="10"/><circle class="e" cx="429.27" cy="441.83" r="10"/><circle class="e" cx="455.27" cy="441.83" r="10"/><circle class="e" cx="481.27" cy="441.83" r="10"/><circle class="e" cx="507.27" cy="441.83" r="10"/><circle class="e" cx="533.27" cy="441.83" r="10"/><circle class="e" cx="559.27" cy="441.83" r="10"/><circle class="e" cx="585.27" cy="441.83" r="10"/><circle class="e" cx="611.27" cy="441.83" r="10"/><circle class="e" cx="637.27" cy="441.83" r="10"/><circle class="e" cx="663.27" cy="441.83" r="10"/><circle class="e" cx="689.27" cy="441.83" r="10"/><circle class="e" cx="715.27" cy="441.83" r="10"/><circle class="e" cx="741.27" cy="441.83" r="10"/><circle class="e" cx="767.27" cy="441.83" r="10"/><circle class="e" cx="793.27" cy="441.83" r="10"/><circle class="e" cx="169.27" cy="468.83" r="10"/><circle class="e" cx="195.27" cy="468.83" r="10"/><circle class="e" cx="221.27" cy="468.83" r="10"/><circle class="e" cx="247.27" cy="468.83" r="10"/><circle class="e" cx="273.27" cy="468.83" r="10"/><circle class="e" cx="299.27" cy="468.83" r="10"/><circle class="e" cx="325.27" cy="468.83" r="10"/><circle class="e" cx="351.27" cy="468.83" r="10"/><circle class="e" cx="377.27" cy="468.83" r="10"/><circle class="e" cx="403.27" cy="468.83" r="10"/><circle class="e" cx="429.27" cy="468.83" r="10"/><circle class="e" cx="455.27" cy="468.83" r="10"/><circle class="e" cx="481.27" cy="468.83" r="10"/><circle class="e" cx="507.27" cy="468.83" r="10"/><circle class="e" cx="533.27" cy="468.83" r="10"/><circle class="e" cx="559.27" cy="468.83" r="10"/><circle class="e" cx="585.27" cy="468.83" r="10"/><circle class="e" cx="611.27" cy="468.83" r="10"/><circle class="e" cx="637.27" cy="468.83" r="10"/><circle class="e" cx="663.27" cy="468.83" r="10"/><circle class="e" cx="689.27" cy="468.83" r="10"/><circle class="e" cx="715.27" cy="468.83" r="10"/><circle class="e" cx="741.27" cy="468.83" r="10"/><circle class="e" cx="767.27" cy="468.83" r="10"/><circle class="e" cx="793.27" cy="468.83" r="10"/><circle class="e" cx="169.27" cy="495.83" r="10"/><circle class="e" cx="195.27" cy="495.83" r="10"/><circle class="e" cx="221.27" cy="495.83" r="10"/><circle class="e" cx="247.27" cy="495.83" r="10"/><circle class="e" cx="273.27" cy="495.83" r="10"/><circle class="e" cx="299.27" cy="495.83" r="10"/><circle class="e" cx="325.27" cy="495.83" r="10"/><circle class="e" cx="351.27" cy="495.83" r="10"/><circle class="e" cx="377.27" cy="495.83" r="10"/><circle class="e" cx="403.27" cy="495.83" r="10"/><circle class="e" cx="429.27" cy="495.83" r="10"/><circle class="e" cx="455.27" cy="495.83" r="10"/><circle class="e" cx="481.27" cy="495.83" r="10"/><circle class="e" cx="507.27" cy="495.83" r="10"/><circle class="e" cx="533.27" cy="495.83" r="10"/><circle class="e" cx="559.27" cy="495.83" r="10"/><circle class="e" cx="585.27" cy="495.83" r="10"/><circle class="e" cx="611.27" cy="495.83" r="10"/><circle class="e" cx="637.27" cy="495.83" r="10"/><circle class="e" cx="663.27" cy="495.83" r="10"/><circle class="e" cx="689.27" cy="495.83" r="10"/><circle class="e" cx="715.27" cy="495.83" r="10"/><circle class="e" cx="741.27" cy="495.83" r="10"/><circle class="e" cx="767.27" cy="495.83" r="10"/><circle class="e" cx="793.27" cy="495.83" r="10"/><circle class="e" cx="169.27" cy="522.83" r="10"/><circle class="e" cx="195.27" cy="522.83" r="10"/><circle class="e" cx="221.27" cy="522.83" r="10"/><circle class="e" cx="247.27" cy="522.83" r="10"/><circle class="e" cx="273.27" cy="522.83" r="10"/><circle class="e" cx="299.27" cy="522.83" r="10"/><circle class="e" cx="325.27" cy="522.83" r="10"/><circle class="e" cx="351.27" cy="522.83" r="10"/><circle class="e" cx="377.27" cy="522.83" r="10"/><circle class="e" cx="403.27" cy="522.83" r="10"/><circle class="e" cx="429.27" cy="522.83" r="10"/><circle class="e" cx="455.27" cy="522.83" r="10"/><circle class="e" cx="481.27" cy="522.83" r="10"/><circle class="e" cx="507.27" cy="522.83" r="10"/><circle class="e" cx="533.27" cy="522.83" r="10"/><circle class="e" cx="559.27" cy="522.83" r="10"/><circle class="e" cx="585.27" cy="522.83" r="10"/><circle class="e" cx="611.27" cy="522.83" r="10"/><circle class="e" cx="637.27" cy="522.83" r="10"/><circle class="e" cx="663.27" cy="522.83" r="10"/><circle class="e" cx="689.27" cy="522.83" r="10"/><circle class="e" cx="715.27" cy="522.83" r="10"/><circle class="e" cx="741.27" cy="522.83" r="10"/><circle class="e" cx="767.27" cy="522.83" r="10"/><circle class="e" cx="793.27" cy="522.83" r="10"/><circle class="e" cx="169.27" cy="549.83" r="10"/><circle class="e" cx="195.27" cy="549.83" r="10"/><circle class="e" cx="221.27" cy="549.83" r="10"/><circle class="e" cx="247.27" cy="549.83" r="10"/><circle class="e" cx="273.27" cy="549.83" r="10"/><circle class="e" cx="299.27" cy="549.83" r="10"/><circle class="e" cx="325.27" cy="549.83" r="10"/><circle class="e" cx="351.27" cy="549.83" r="10"/><circle class="e" cx="377.27" cy="549.83" r="10"/><circle class="e" cx="403.27" cy="549.83" r="10"/><circle class="e" cx="429.27" cy="549.83" r="10"/><circle class="e" cx="455.27" cy="549.83" r="10"/><circle class="e" cx="481.27" cy="549.83" r="10"/><circle class="e" cx="507.27" cy="549.83" r="10"/><circle class="e" cx="533.27" cy="549.83" r="10"/><circle class="e" cx="559.27" cy="549.83" r="10"/><circle class="e" cx="585.27" cy="549.83" r="10"/><circle class="e" cx="611.27" cy="549.83" r="10"/><circle class="e" cx="637.27" cy="549.83" r="10"/><circle class="e" cx="663.27" cy="549.83" r="10"/><circle class="e" cx="689.27" cy="549.83" r="10"/><circle class="e" cx="715.27" cy="549.83" r="10"/><circle class="e" cx="741.27" cy="549.83" r="10"/><circle class="e" cx="767.27" cy="549.83" r="10"/><circle class="e" cx="793.27" cy="549.83" r="10"/><circle class="l" cx="169.27" cy="576.83" r="10"/><circle class="l" cx="195.27" cy="576.83" r="10"/><circle class="l" cx="221.27" cy="576.83" r="10"/><circle class="l" cx="247.27" cy="576.83" r="10"/><circle class="l" cx="273.27" cy="576.83" r="10"/><circle class="l" cx="299.27" cy="576.83" r="10"/><circle class="l" cx="325.27" cy="576.83" r="10"/><circle class="l" cx="351.27" cy="576.83" r="10"/><circle class="l" cx="377.27" cy="576.83" r="10"/><circle class="l" cx="403.27" cy="576.83" r="10"/><circle class="l" cx="429.27" cy="576.83" r="10"/><circle class="l" cx="455.27" cy="576.83" r="10"/><circle class="l" cx="481.27" cy="576.83" r="10"/><circle class="l" cx="507.27" cy="576.83" r="10"/><circle class="l" cx="533.27" cy="576.83" r="10"/><circle class="l" cx="559.27" cy="576.83" r="10"/><circle class="l" cx="585.27" cy="576.83" r="10"/><circle class="l" cx="611.27" cy="576.83" r="10"/><circle class="l" cx="637.27" cy="576.83" r="10"/><circle class="l" cx="663.27" cy="576.83" r="10"/><circle class="l" cx="689.27" cy="576.83" r="10"/><circle class="l" cx="715.27" cy="576.83" r="10"/><circle class="l" cx="741.27" cy="576.83" r="10"/><circle class="l" cx="767.27" cy="576.83" r="10"/><circle class="l" cx="793.27" cy="576.83" r="10"/><circle class="l" cx="169.27" cy="603.83" r="10"/><circle class="l" cx="195.27" cy="603.83" r="10"/><circle class="l" cx="221.27" cy="603.83" r="10"/><circle class="l" cx="247.27" cy="603.83" r="10"/><circle class="l" cx="273.27" cy="603.83" r="10"/><circle class="l" cx="299.27" cy="603.83" r="10"/><circle class="l" cx="325.27" cy="603.83" r="10"/><circle class="l" cx="351.27" cy="603.83" r="10"/><circle class="l" cx="377.27" cy="603.83" r="10"/><circle class="l" cx="403.27" cy="603.83" r="10"/><circle class="m" cx="429.27" cy="603.83" r="10"/><circle class="m" cx="455.27" cy="603.83" r="10"/><circle class="m" cx="481.27" cy="603.83" r="10"/><circle class="m" cx="507.27" cy="603.83" r="10"/><circle class="m" cx="533.27" cy="603.83" r="10"/><circle class="m" cx="559.27" cy="603.83" r="10"/><circle class="m" cx="585.27" cy="603.83" r="10"/><circle class="m" cx="611.27" cy="603.83" r="10"/><circle class="m" cx="637.27" cy="603.83" r="10"/><circle class="m" cx="663.27" cy="603.83" r="10"/><circle class="m" cx="689.27" cy="603.83" r="10"/><circle class="m" cx="715.27" cy="603.83" r="10"/><circle class="m" cx="741.27" cy="603.83" r="10"/><circle class="m" cx="767.27" cy="603.83" r="10"/><circle class="m" cx="793.27" cy="603.83" r="10"/><circle class="m" cx="169.27" cy="630.83" r="10"/><circle class="m" cx="195.27" cy="630.83" r="10"/><circle class="m" cx="221.27" cy="630.83" r="10"/><circle class="m" cx="247.27" cy="630.83" r="10"/><circle class="m" cx="273.27" cy="630.83" r="10"/><circle class="m" cx="299.27" cy="630.83" r="10"/><circle class="m" cx="325.27" cy="630.83" r="10"/><circle class="m" cx="351.27" cy="630.83" r="10"/></g><g id="d"><circle class="r" cx="899.58" cy="306.91" r="71.81"/><circle class="q" cx="899.58" cy="595.33" r="71.81"/><circle class="s" cx="80.31" cy="171.02" r="71.81"/><circle class="p" cx="80.31" cy="494.52" r="71.81"/><polyline class="s" points="165.07 279.83 80.31 279.83 80.31 242.83"/><polyline class="p" points="165.98 603.33 80.31 603.33 80.31 566.33"/><polyline class="r" points="793.27 415.72 899.88 415.72 899.88 378.72"/><polyline class="q" points="901.67 667.05 901.67 704.15 351.27 704.15 351.27 629.95"/><g><path class="q" d="M21.07,176.33v-6.59c.1,0,.19-.02,.29-.02,10.51,0,21.02,0,31.53,0,.15,0,.32,.03,.46-.01,.12-.04,.3-.14,.32-.24,.28-1.35,.54-2.71,.81-4.13-.22,0-.44,0-.66,0-5.94,0-11.88,0-17.82,0-4.98,0-9.95,0-14.93,.01v-3.7c.27,0,.54-.02,.81-.02,11.07,0,22.14,0,33.22,.02,.7,0,1.03-.22,1.34-.84,4.93-9.63,15.27-15.42,26.03-14.42,9.85,.92,17.09,5.91,21.77,14.6,.25,.47,.51,.65,1.05,.65,11.15-.02,22.3-.01,33.45-.01h.8v3.73h-33.46l.93,4.38h32.54v6.62h-32.53l-.9,4.38h33.42v3.7h-.78c-11.03,0-22.07,0-33.1-.02-.76,0-1.12,.23-1.48,.9-4,7.52-10.18,12.22-18.52,14.04-1.18,.26-2.39,.37-3.59,.55h-3.7c-.67-.09-1.33-.17-2-.28-9.12-1.54-15.82-6.41-20.11-14.59-.24-.46-.49-.62-1.01-.61-11.14,.02-22.29,.01-33.43,.01-.25,0-.5-.01-.75-.02v-3.7c.13,0,.27,0,.4,0,10.84,0,21.68,0,32.52,0,.16,0,.32-.03,.46-.04-.25-1.24-.54-2.42-.71-3.61-.08-.57-.26-.75-.85-.75-10.42,.02-20.83,.01-31.25,.01-.19,0-.38,0-.58-.01Zm80.11-8.75l-.05-.16c-.22,0-.44,0-.66,0-4.88,0-9.76-.02-14.64,0-.49,0-.69-.14-.84-.61-1.46-4.79-2.94-9.57-4.41-14.36-.06-.19-.13-.38-.19-.57-.2,.19-.27,.38-.33,.57-1.48,4.8-2.97,9.6-4.44,14.41-.13,.43-.31,.56-.76,.56-4.9-.01-9.8,0-14.7,0-.22,0-.44,0-.65,0l-.05,.16c.17,.13,.34,.27,.52,.4,3.99,2.9,7.98,5.81,11.98,8.7,.42,.3,.5,.54,.34,1.03-1.65,4.75-3.27,9.5-4.9,14.26-.07,.2-.12,.41-.18,.61,.31-.06,.49-.19,.68-.33,3.98-2.98,7.97-5.96,11.94-8.96,.39-.29,.62-.27,.99,.01,3.99,3.01,7.99,6,11.98,8.99,.17,.13,.35,.23,.53,.35,.02-.29-.03-.49-.1-.69-1.63-4.76-3.25-9.51-4.9-14.26-.16-.45-.11-.7,.3-1,4.02-2.9,8.02-5.82,12.03-8.73,.18-.13,.35-.27,.52-.4Z"/><path class="m" d="M21.07,165.35c4.98,0,9.95,0,14.93-.01,5.94,0,11.88,0,17.82,0,.22,0,.45,0,.66,0-.28,1.42-.53,2.78-.81,4.13-.02,.1-.2,.21-.32,.24-.14,.04-.31,.01-.46,.01-10.51,0-21.02,0-31.53,0-.1,0-.19,.01-.29,.02v-4.39Z"/><path class="m" d="M21.07,176.33c.19,0,.38,.01,.58,.01,10.42,0,20.83,0,31.25-.01,.59,0,.76,.17,.85,.75,.18,1.2,.46,2.38,.71,3.61-.14,.01-.3,.04-.46,.04-10.84,0-21.68,0-32.52,0-.13,0-.27,0-.4,0,0-1.46,0-2.93,0-4.39Z"/><path class="m" d="M139.55,165.35c-4.98,0-9.95,0-14.93-.01-5.94,0-11.88,0-17.82,0-.22,0-.45,0-.66,0,.28,1.42,.53,2.78,.81,4.13,.02,.1,.2,.21,.32,.24,.14,.04,.31,.01,.46,.01,10.51,0,21.02,0,31.53,0,.1,0,.19,.01,.29,.02,0-1.46,0-2.93,0-4.39Z"/><path class="m" d="M139.55,176.33c-.19,0-.38,.01-.58,.01-10.42,0-20.83,0-31.25-.01-.59,0-.76,.17-.85,.75-.18,1.2-.46,2.38-.71,3.61,.14,.01,.3,.04,.46,.04,10.84,0,21.68,0,32.52,0,.13,0,.27,0,.4,0,0-1.46,0-2.93,0-4.39Z"/><path class="m" d="M101.17,167.58c-.17,.13-.34,.27-.52,.4-4.01,2.92-8.01,5.84-12.03,8.73-.41,.3-.46,.54-.3,1,1.64,4.75,3.27,9.51,4.9,14.26,.07,.2,.13,.39,.1,.69-.18-.12-.36-.22-.53-.35-4-2.99-8-5.98-11.98-8.99-.37-.28-.6-.3-.99-.01-3.97,3-7.95,5.98-11.94,8.96-.18,.14-.37,.26-.68,.33,.06-.2,.11-.41,.18-.61,1.63-4.75,3.25-9.51,4.9-14.26,.17-.49,.08-.73-.34-1.03-4.01-2.88-7.99-5.79-11.98-8.7-.18-.13-.35-.27-.52-.4l.05-.16c.22,0,.44,0,.65,0,4.9,0,9.8-.02,14.7,0,.44,0,.62-.13,.76-.56,1.46-4.81,2.95-9.61,4.44-14.41,.06-.19,.13-.38,.33-.57,.06,.19,.13,.38,.19,.57,1.48,4.78,2.96,9.57,4.41,14.36,.14,.47,.35,.61,.84,.61,4.88-.01,9.76,0,14.64,0,.22,0,.44,0,.66,0l.05,.16Z"/></g><g><path class="m" d="M903.12,335.42h-2.15c.83,3.26,1.18,6.49,.13,9.7-.43,1.32-.9,2.63-1.46,3.92-2.17-4.37-2.92-8.86-1.39-13.63h-2.24c-.22,1.91-.42,3.83-.69,5.75-.09,.67-.22,1.41-.57,1.96-.83,1.32-1.81,2.55-2.86,4-.81-4.44,.21-8.17,2.78-11.55-2.04-.49-2.28-.41-3.14,1.17-.43,.8-.83,1.61-1.19,2.45-.9,2.11-1.89,3.23-4.09,4.46,.42-3,1.42-5.69,3.27-8.18-.38-.04-.63-.09-.88-.09-4.58,0-9.16,0-13.75,0-1.65,0-2.2,.81-1.58,2.33,.63,1.54,1.51,2.92,2.9,4.11,.08-.3,.08-.53,.19-.69,.21-.31,.44-.72,.75-.82,.25-.07,.72,.18,.91,.43,1.33,1.72,3.09,2.87,4.97,3.89,.4,.22,.88,.79,.86,1.17-.03,.39-.57,.89-1,1.07-2.37,.98-4.89,1.2-7.43,1.16-1.36-.02-1.56-.86-.58-2.29-.5-.38-1.02-.75-1.51-1.15-2.05-1.66-3.4-3.81-4.25-6.27-.63-1.81-1-3.73-2.69-5.1,1.62-1.46,1.96-3.37,2.57-5.19,1.04-3.07,3.03-5.43,5.69-7.22,0-.1,0-.17-.02-.23-.17-.54-.64-1.32-.44-1.57,.31-.4,1.07-.62,1.65-.63,2.42-.07,4.76,.38,6.96,1.42,.46,.22,.98,.68,1.09,1.12,.06,.26-.59,.75-.97,1.06-1.43,1.15-2.88,2.28-4.34,3.41-.47,.36-1.02,.98-1.46,.93-.41-.05-.73-.85-1.15-1.39-1.16,1.2-2.29,2.6-2.83,4.37-.28,.92,.32,1.57,1.41,1.58,1.82,.02,3.64,0,5.46,0,2.39,0,4.78-.01,7.18,.01,.57,0,.88-.1,1.08-.73,.91-2.89,3.73-4.08,6.55-2.82,1.03,.46,1.5,1.34,1.69,2.37,.17,.92,.57,1.28,1.56,1.2,1.3-.1,2.62-.03,4-.03,.56-1.18,.48-2.88,1.91-3.36,1.2-.4,2.57-.46,3.86-.42,2.28,.08,2.63,1.97,3.1,3.72h8.76c0-2.57,0-5.09-.01-7.6,0-.25-.19-.49-.3-.73-.46-.98-.05-2.18,.92-2.67,1.72-.87,3.33,.05,3.34,1.94,.02,2.63,0,5.26,0,7.88,0,.36,0,.73,0,1.34,1.98-.12,3.87-.22,5.76-.35,.33-.02,.65-.17,.98-.21,1.12-.13,2.22-.05,2.84,1.05,.6,1.06,.66,2.2-.05,3.26-.72,1.07-1.85,1.51-3.01,1.11-1.88-.64-3.79-.41-5.69-.47-.23,0-.46,.03-.84,.05,0,.45,0,.87,0,1.3,0,2.76,0,5.53,0,8.29,0,.78,.02,1.67-.92,1.93-1.01,.27-2.11,.43-2.95-.42-.67-.69-.77-1.53-.28-2.42,.12-.22,.19-.51,.19-.77,.01-2.49,0-4.99,0-7.48,0-.13-.05-.25-.08-.43h-10c1.87,2.46,2.88,5.17,3.34,8.4-1.69-1.47-3.61-2.3-4.11-4.54-.17-.74-.64-1.4-.92-2.12-.57-1.47-1.49-2.27-3.37-1.6,2.46,3.32,3.49,7.08,2.74,11.37-.24-.26-.46-.47-.64-.7-.62-.8-1.22-1.61-1.82-2.42-.72-.97-1.04-2.01-1.07-3.27-.04-1.7-.42-3.39-.67-5.13Zm4.34-4.49l.21-.04c.14,.43,.29,.86,.41,1.29,.17,.59,.4,1.13,1.16,.95,.75-.19,.75-.78,.58-1.38-.2-.71-.32-1.48-.69-2.09-.29-.48-.9-1.08-1.36-1.08-1.18,0-2.52-.54-3.5,.62-.04,.05-.07,.12-.09,.18-.28,.9-.62,1.78-.79,2.7-.06,.31,.3,.96,.51,.99,.35,.04,.87-.22,1.09-.52,.29-.4,.37-.96,.54-1.46,.18,.39,.19,.75,.22,1.11,.05,.56,.29,1.08,.91,.92,.33-.08,.64-.58,.77-.95,.13-.37,.03-.82,.03-1.24Zm-13.98,.16l.16-.03c.17,.52,.28,1.08,.54,1.55,.15,.26,.55,.52,.84,.53,.23,0,.71-.43,.68-.55-.35-1.27-.75-2.52-1.22-3.74-.08-.19-.59-.3-.91-.31-3.62-.02-3.19-.17-4.09,2.77-.04,.13-.09,.25-.13,.38-.14,.57-.29,1.19,.47,1.42,.73,.22,1.02-.29,1.2-.88,.16-.5,.33-.99,.5-1.48,.19,.56,.09,1.09,.22,1.55,.1,.34,.5,.79,.79,.81,.27,.02,.69-.42,.83-.75,.16-.37,.08-.84,.11-1.27Z"/><path class="m" d="M886.47,311.68c-2.56-.34-4.67-1.41-5.83-3.87-.19-.39-.09-.91-.16-1.67-2-1.29-2.9-3.54-3.08-6.28,.19,0,.35,0,.5,0,.16,0,.33,.03,.76,.08-3.18-2.02-3.95-4.82-3.49-8.2,.29,.09,.51,.15,.72,.23,.21,.08,.42,.17,.73,.11-1.03-.81-2.07-1.6-3.08-2.43-2.85-2.36-3.27-6.3-1-9.21,.1-.13,.18-.28,.34-.52,3.17,2.54,6.72,4.37,9.15,7.58,2.19,2.9,2.77,6.03,1.4,9.5-.49,1.23-.86,2.56-1,3.88-.18,1.66,.96,2.78,2.63,2.71,.94-.04,1.37,.38,1.39,1.17,.06,2.28,.02,4.55,.02,6.91Z"/><path class="m" d="M926.09,279.92c2.73,2.92,2.57,7.08-.19,9.5-1.08,.94-2.24,1.79-3.3,2.81l1.39-.51c.45,3.4-.28,6.19-3.38,8.15h1.07c.07,2.69-1.09,4.94-3.02,6.26-.04,.7,.07,1.23-.11,1.63-1.17,2.5-3.29,3.6-5.87,3.92,0-2.3-.03-4.58,.02-6.85,.02-.84,.46-1.27,1.45-1.23,1.62,.07,2.73-1.05,2.58-2.65-.11-1.22-.39-2.48-.87-3.6-1.79-4.23-.83-7.94,2.31-10.98,2.43-2.35,5.24-4.29,7.91-6.44Z"/><path class="m" d="M890.59,301.71c1.15-3.92,2.29-7.84,3.53-12.05l-3.47,.67c-1.45-1.64-.72-4.02,1.59-4.47,.54-.11,.78-.3,.99-.79,.54-1.29,1.65-2,2.93-2.24,1.54-.29,3.13-.44,4.7-.42,1.56,.02,2.63,1.04,3.19,2.43,.59,1.46,1.06,2.97,1.48,4.49,1.15,4.11,2.25,8.23,3.38,12.4h-18.31Zm7.07-12.01c-.59,.03-.97,0-1.31,.09-.27,.08-.65,.27-.72,.5-.53,1.82-1.01,3.65-1.5,5.48l.14,.07,2.27-2.52,1.67,1.94,1.75-1.94,1.75,1.84,1.51-1.84,2.29,2.52,.28-.12c-1.06-3.45-2.08-6.9-3.2-10.33-.31-.95-1.19-1.58-2.19-1.54-1.43,.06-2.86,.28-4.26,.59-.52,.12-.95,.67-1.42,1.02l.17,.34h4.33l.08,.31-1.94,.97,.29,2.62Zm-1.61-1.42c-.43-1.1-1.33-1.46-3.02-1.24-.8,.1-1.6,.29-1.66,1.24h4.68Z"/><path class="m" d="M910.63,303.36c-.07,1.85-.16,3.48-.17,5.11,0,.68-.21,.93-.91,.99-6.66,.52-13.31,.53-19.96,0-.64-.05-.85-.27-.87-.92-.04-1.66-.16-3.32-.27-5.17h22.18Z"/><path class="m" d="M900.92,310.48c.02,.28,.05,.47,.05,.67,0,5.31,0,10.62,0,15.93,0,.64-.86,1.59-1.4,1.57-.5-.01-1.37-.95-1.37-1.51,0-5.38,0-10.76,0-16.13,0-.16,.04-.32,.07-.53h2.63Z"/><path class="m" d="M871.12,278.67l-1.84,3.32c-2.24-1.51-4.56-2.94-6.74-4.57-1.99-1.49-2.82-4.3-2.11-6.55l10.7,7.8Z"/><path class="m" d="M938.86,270.77c.42,2.73-.15,4.96-2.11,6.51-2.18,1.73-4.58,3.16-6.86,4.71l-1.85-3.33,10.82-7.9Z"/><path class="m" d="M859.6,285.23c2.53,1.25,4.97,2.46,7.4,3.66,1.59,.79,3.16,1.64,4.79,2.35,.93,.41,1.41,.91,1.14,1.95-.06,.21,0,.46,0,.81-.68-.17-1.26-.32-1.83-.47-2.14-.56-4.29-1.1-6.43-1.68-3.07-.83-5.09-3.43-5.06-6.63Z"/><path class="m" d="M939.65,285.18c-.2,2.92-1.33,5.2-3.91,6.17-3.03,1.13-6.23,1.81-9.43,2.71-.04-.69-.11-1.23-.09-1.75,0-.21,.17-.52,.35-.61,4.29-2.15,8.59-4.28,13.08-6.51Z"/><path class="m" d="M903.07,326.31v-15.96l2.57-.11v1.16c0,3.94-.04,7.87,.03,11.81,.02,1.01-.28,1.64-1.14,2.1-.46,.25-.87,.6-1.46,1.01Z"/><path class="m" d="M893.53,310.35h2.56c0,5.3,0,10.5,0,15.7-1.79-.51-2.56-1.49-2.56-3.28,0-3.76,0-7.53,0-11.29v-1.13Z"/><path class="m" d="M861.61,293.23c2.79,.73,5.45,1.42,8.11,2.12,1.14,.3,2.48,.34,3.34,1.01,.81,.63,1.1,1.92,1.71,3.1-1.14-.14-2.18-.25-3.22-.39-1.2-.16-2.4-.35-3.6-.5-3.3-.41-5.21-1.97-6.34-5.34Z"/><path class="m" d="M937.52,293.37c-1.03,3.1-3.07,4.89-6.37,5.22-2.2,.22-4.39,.58-6.69,.89,.48-1.07,.9-2.03,1.36-2.97,.08-.17,.36-.29,.57-.35,3.6-.96,7.21-1.9,10.82-2.85,.09-.02,.19,.03,.31,.05Z"/><path class="m" d="M859.36,277.95c.83,.54,1.5,.97,2.16,1.41,2.24,1.48,4.47,2.97,6.73,4.42,.57,.37,.81,.78,.82,1.46,.02,.79,.22,1.57,.38,2.65-2.72-1.47-5.37-2.7-7.78-4.29-1.8-1.19-2.43-3.21-2.32-5.65Z"/><path class="m" d="M939.81,277.93c.11,2.63-.68,4.71-2.69,5.97-2.31,1.45-4.83,2.58-7.36,3.9,.14-1.17,.24-2.16,.39-3.14,.03-.2,.17-.45,.34-.56,3.03-2.02,6.08-4.03,9.32-6.17Z"/><path class="m" d="M907.76,310.1l2.61-.21c.02,.41,.06,.76,.06,1.12,0,2.65-.15,5.32,.05,7.96,.16,2.15-1.01,3.08-2.72,3.91v-12.78Z"/><path class="m" d="M888.73,309.85l2.68,.24v12.61c-1.67-.4-2.68-1.6-2.68-3.21,0-2.82,0-5.65,0-8.47,0-.36,0-.72,0-1.17Z"/><path class="m" d="M865.5,300.39c3.29,.43,6.35,.82,9.41,1.25,.25,.04,.57,.32,.67,.56,.23,.55,.34,1.14,.53,1.82-2.05,0-4.05,.18-5.99-.05-2.05-.24-3.46-1.63-4.62-3.58Z"/><path class="m" d="M933.66,300.38c-1.39,2.39-3.25,3.67-5.79,3.8-1.57,.08-3.15,.01-4.77,.01,.03-.36,.03-.45,.04-.55,.16-1.43,.8-2.14,2.41-2.24,2.64-.16,5.26-.65,8.11-1.02Z"/><path class="m" d="M870.57,306.38c.87-.06,1.66-.12,2.45-.16,1.18-.06,2.35-.12,3.53-.15,.32,0,.76-.01,.93,.17,.32,.35,.56,.83,.67,1.29,.03,.11-.59,.44-.95,.56-2.4,.79-5.08,.12-6.63-1.71Z"/><path class="m" d="M928.6,306.36c-1.63,2.01-5.24,2.71-7.28,1.49-.17-.1-.36-.51-.3-.59,.31-.44,.71-1.15,1.07-1.15,2.14-.01,4.27,.15,6.5,.26Z"/></g><g><path class="m" d="M928.96,578.63c-.33,.43-.59,.94-1,1.27-.39,.31-.95,.41-1.42,.63-.19,.09-.49,.29-.48,.44,.03,.82-.53,1.02-1.14,1.17-.5,.13-1.02,.24-1.53,.3-.88,.1-1.72-.04-2.59,.57-.56,.39-1.64,.06-2.48,.04-.21,0-.51-.11-.62,0-.72,.63-1.48,.36-2.27,.24-.37-.05-.78,.13-1.18,.17-.4,.04-.8,.09-1.2,.06-.63-.06-1.19-.24-1.89-.08-1,.23-2.09,.06-3.32,.06,.12,.81,.19,1.61,.37,2.39,.24,1.05,.17,1.21-.89,1.42,.1,.44,.18,.88,.31,1.3,.05,.18,.17,.41,.32,.49,1.93,.99,3.74,2.15,5.16,3.82,.69-1.08,.33-2-.21-2.93-.51-.88-.93-1.81-1.41-2.71-.4-.75-.29-1.5,.39-1.9,1-.59,2.1-1.03,3.2-1.43,.24-.09,.79,.22,.95,.49,.9,1.48,1.71,3.01,2.59,4.57,1.28-.51,1.59,.47,2.01,1.36-.34-2.35,.59-4.11,2.34-5.5,1.45-1.16,3.09-1.31,4.75-.6,3.4,1.45,5.1,6.07,2.59,9.28-.17,.22-.3,.54-.29,.8,.12,2.88-1.2,4.94-3.55,6.45-1.17,.75-2.32,1.54-3.48,2.29-.27,.18-.59,.29-.89,.42-.72,.32-1.33,.23-1.72-.53-.28-.54-.74-.74-1.35-.76-.6-.02-1.19-.16-1.8-.24,.04,7.34-3.09,12.88-9.81,15.79-6.8,2.95-12.9,.96-18.29-4.05,.62,3.71-.09,6.91-2.86,9.57,1.66,1,3.45,1.44,5.42,1.22l-.04,.46c-.64,.03-1.29,.15-1.92,.07-2.92-.39-5.17-1.87-6.81-4.3-.13-.2-.31-.37-.47-.56l.45-.2-.75-.33,.54-.33-.9-.27,.37-.33-.47-.32,.43-.94,.73,.12,.09-.18-1.02-.55,.03-.13,1.14,.29,.04-.12-1.36-.65,.05-.18,1.58,.52,.08-.23-1.5-.58,.06-.21,1.76,.52,.08-.2-1.72-.77,.07-.19,2,.71,.06-.15-1.74-.78,.1-.23,2.01,.84,.04-.1-1.8-.9,.04-.14,.75,.08,.1-.09-.5-.2,.15-.24,2.36,1.01,.1-.24-1.85-.85,.09-.2,2.21,.91,.08-.17-1.92-.87,.07-.19,2.01,.79,.13-.19-1.43-.74,.04-.14,1.07,.3,.06-.14-.48-.3c.3-1.27-.98-1.95-.95-3.04-.99,.49-1.9,1-2.85,1.4-1.62,.69-3.1,.33-3.92-1.18-.6-1.1-.83-2.4-1.22-3.61-.1-.31-.15-.64-.24-1.01,.32-.25,.32-.87-.22-1.1l.66-.24-.61-.26,.65-.16c-.14-.13-.24-.22-.21-.19l.23-1.17s.15,0,.63,0l-.71-.33,.78-.21-1.06-.39,.99-.11-.82-.3,.91-.09,.03-.11-.83-.26,.77-.13s-.03-.05-.05-.05c-.1-.03-.21-.04-.31-.17h1.18c-.2,.69-.39,1.36-.59,2.03-.55,1.89-.96,3.8-.41,5.76,.15,.55,.36,1.11,.64,1.6,.8,1.39,2.03,1.78,3.53,1.19,.26-.1,.5-.22,.74-.35,.63-.35,1.49-.56,1.79-1.1,.27-.49-.08-1.32-.16-2-.15-1.24,.09-2.38,.76-3.47,.31-.5,.37-1.18,.49-1.78,1.15-6,4.41-10.34,10.06-12.78,.43-.19,.47-.43,.6-.82,.46-1.35-.34-2.59-.23-3.9,.04-.42-.04-.86-.07-1.34-.26,.09-.53,.2-.81,.29-.29,.1-.63,.33-.85,.25-.85-.31-1.73,.06-2.51-.15-.7-.19-1.26,.04-1.89,.06-.48,.01-.97-.15-1.46-.23-.23-.04-.47-.11-.68-.07-.88,.18-1.71,.52-2.59-.18-.25-.2-.89,.09-1.35,.13-.87,.08-1.77,.31-2.37-.65-.06-.09-.35-.04-.53-.06-.95-.1-1.91-.16-2.86-.3-.64-.1-1.23-.34-1.21-1.2,0-.14-.3-.33-.5-.43-.49-.24-1.06-.36-1.49-.68-.38-.28-.6-.77-.72-1.29-.59-.27-1.22-.47-1.76-.81-1-.63-1-1.24-.02-2.03-.08-.17-.17-.36-.25-.55-.69-1.56,.18-2.89,1.84-2.56,4.78,.97,9.09-.34,13.3-2.41,.66-.33,1.36-.6,2.07-.8,1.63-.46,3.3-.09,3.96,2.03,.57,1.82,1.92,2.53,3.47,1.98,.28-.1,.53-.34,.74-.57,.22-.24,.32-.6,.55-.82,.89-.86,.95-1.92,.76-3.16l-.8,.36c-.78-.42-.98-1.15-.93-1.95,.06-.9,.43-1.63,1.33-2.02,2.4-1.03,4.8,.08,6.04,2.34,.95,1.73,1.29,3.52,1.6,5.38,.04,.26,.68,.65,.95,.58,.68-.17,1.36-.49,1.95-.89,.31-.2,.53-.66,.62-1.04,.49-2.18,2.38-2.87,4.47-2.06,1.38,.54,2.71,1.2,4.09,1.76,2.94,1.19,5.96,1.93,9.17,1.54,.46-.06,.92-.15,1.38-.22,.8-.12,1.59-.1,2.09,.62,.47,.68,.29,1.42-.08,2.11-.05,.1-.1,.19-.06,.12,.24,.57,.69,1.11,.57,1.44-.38,1.07-1.43,1.32-2.46,1.53l.21,.19Zm-.97,19.37l.5,.64,.34-1.11c.16-.39,.32-.78,.48-1.18l.31-1.18c.02-.28,.09-.57,.04-.83-.19-1.08-.96-1.74-1.79-2.34-.41-.1-.82-.26-1.24-.27-.17,0-.35,.31-.69,.64l1.94-.39-1.05,.84,.12,.15,1.37-.31,.04,.11-.68,.35-.06,.29,1.29,.34-.67,.48,.99,.72-.74,.09,.84,1.32-.72-.61-.28,.08c.05,.3,.08,.62,.17,.91,.08,.27,.23,.53,.35,.79l-.8-.77-.22,.17c.06,.36,.13,.72,.19,1.07-.23,.04-.65,.06-.65,.11-.03,.45,.01,.9,.03,1.38,.96-.33,.65-.96,.61-1.51Zm-3.24,2.29l.13,.76c1.05-.43,1.26-.93,.69-1.93l-.85,1.06c-.39-.01-.91-.18-1.13,0-.23,.2-.18,.73-.26,1.12l.29,.15,1.12-1.16Zm-37.78,19.54c-.68-.06-1.06,.28-.85,.79,.19,.47,.43,.92,.65,1.41,.93-.71,.38-1.48,.17-2.23l.79,.93c.63-.88-.02-1.49-.36-2.16h-.28l-.14,1.25Zm.63-7.5c.1-.06,.28-.18,.28-.18-.34-.56-.65-1.15-1.08-1.63-.21-.24-.65-.28-.96-.4,.24,.93,.66,1.58,1.38,1.99-.77,.07-.39,.64-.27,.87,.21,.4,.6,.7,.91,1.04l-.7,.13,.73,1.1c-.8,.1-.57,.8-.42,1.08,.3,.56,.83,1,1.27,1.49l.23-.06-.37-1.81c.71,.18,.34-.35,.26-.49-.3-.51-.67-.98-1.02-1.47l.96,.66c.19-1.09-.76-1.57-1.19-2.32Zm30.78-11.84l-.99-.62-.59,1.17c.5-.08,.81-.1,1.09-.19,.19-.06,.34-.25,.5-.38l-.67,1.03,.09,.19,1.4-.43,.69,.57,.87-1.44c-1.01,.05-1.7,.08-2.39,.11Zm-31.14-23.35l-1.4-.81,.38-.49-1.54-1.15,.63-.6c-.69-.34-1.35-.56-1.89-.96-.44-.32-.83-.33-1.29-.19-2.63,.79-5.29,.94-8,.43-.44-.08-.95,.2-1.43,.32,.13,.53,.17,1.11,.43,1.57,.15,.28,.62,.51,.97,.54,1.61,.14,3.25,.41,4.84,.23,1.95-.23,3.84-.88,5.76-1.34-.34,.18-.66,.38-1.01,.55-.86,.42-1.73,.81-2.57,1.24-.16,.08-.37,.4-.32,.49,.09,.18,.32,.36,.53,.41,.28,.07,.6,.06,.89,0,.83-.16,1.65-.36,2.48-.54l-.48,1.2-.13-1.09-.79,1.33-.14-.98-.72,.93c.29,.09,.57,.2,.86,.25,.15,.02,.31-.07,.47-.12,.96-.28,1.92-.57,2.89-.86l-.8,1.39,.07-1.04-.65,.94-.24-.43c-.24,.48-1.35,.19-.86,1.29,.44-.08,.93-.09,1.37-.26,.94-.37,1.85-.82,2.77-1.23l-.34,.83-.58-.08c-.05,.43-.27,.44-.65,.38-.19-.03-.44,.23-.66,.36,2.21,.07,3.78-1.36,5.62-2.19-.12,.21-.35,.29-.46,.45-.17,.24-.26,.54-.4,.82l-.34-.48-.27,.88-.33-.38-.31,.95-.38-.63-.46,1.11c2.27-.16,3.32-1.83,4.69-3.26l.47,1.33-.18,.07-.39-.86-.16,.03v1.16l-.16,.02-.16-.38c-.27,.26-.56,.5-.8,.78-.07,.08-.1,.29-.05,.37,.07,.11,.28,.24,.37,.21,.42-.17,.9-.31,1.22-.61,.57-.54,1.03-1.2,1.53-1.81l.07,1.44-.5-.61-.44,1.68c1.71-.48,1.83-1.78,2.21-3.05v2.06l.18-.02v-3.98l-.54-.07-.1-.17,.6-.24c-2.16,.12-3.19-.38-3.89-1.97-.12-.28-.22-.56-.33-.85-.5-1.27-1.39-1.85-2.66-1.4-2.08,.73-4.09,1.66-6.19,2.53,.88,.8,1.78,1.12,2.82,.78,.68-.22,1.41-.42,1.96-.84,.65-.5,1.15-.39,1.73-.03-.25,1.47,.66,2.98,2.1,3.36,.6,.16,1.25,.19,1.87,.19,.84,0,1.68-.11,2.64-.19l-1.3,.94c-.19-.12-.38-.32-.58-.33-.54-.04-1.11,.12-1.62,0-.98-.23-1.93-.59-2.9-.9-.29-.9-.57-1.8-.88-2.7-.03-.1-.29-.23-.37-.19-1.05,.48-2.09,.96-3.1,1.5-.21,.11-.29,.48-.42,.73,.3,.08,.61,.26,.89,.22,.61-.08,1.21-.26,1.89-.41l-.39,1-.27-.83-1.19,1.63c.63,0,.99,.07,1.31-.01,.71-.19,1.4-.46,2.1-.69-.27,.21-.57,.4-.8,.64-.24,.25-.42,.57-.62,.86,.35,.04,.72,.18,1.05,.1,.56-.13,1.09-.4,1.63-.61l.03,.08-1.98,1.21-.09-.16-.33,.66-.26-.55-.96-1.02s-.12,.08-.28,.18Zm30.78-.41c1.01,.23,2.01,.51,3.03,.66,.34,.05,.73-.23,1.1-.35-.2-.26-.38-.55-.62-.76-.24-.2-.56-.31-.84-.46-.55-.27-1.1-.54-1.65-.82,.24,.05,.49,.07,.72,.15,2.6,.83,5.25,1.24,7.97,.84,.54-.08,1.09-.18,1.6-.37,.65-.24,1.16-1.21,.95-1.75-.29-.74-.94-.62-1.55-.51-2.73,.49-5.42,.36-8.08-.44-.26-.08-.6-.08-.84,.03-.73,.34-1.43,.75-2.19,1.17l.62,.57-1.59,1.13,.42,.52-1.38,.75c-.16-.08-.33-.16-.31-.15l-1.26,1.49-.32-.59-.14,.2-1.68-1.15c.95,.14,1.67,.92,2.66,.36l-.54-.82-.22,.55-.4-.81-.34,.38-.23-.87c1.07,.34,2.06,1.11,3.52,.67l-1.23-1.52-.15,.97-.43-1.11c.56,.13,1.03,.28,1.51,.33,.44,.05,.9,.01,1.59,.01-.37-.47-.51-.79-.75-.91-1.02-.53-2.06-1-3.1-1.47-.09-.04-.35,.09-.38,.19-.31,.89-.6,1.79-.89,2.69-1.09,.61-2.22,1.04-3.5,.95-.81-.06-1.61-.12-2.42-.18,.02,2.17,.53,3.17,2.03,3.51l-.56-1.78-.36,.51-.22-1.9c.8,1.27,1.38,2.82,3.38,2.87l-.85-1.31-.25,.47-.18-.04v-1.12h-.14l-.36,.81-.16-.06,.41-1.44c1.28,1.43,2.37,3.12,4.76,3.39l-.47-1.13-.36,.52-.44-.94-.24,.57-.28-1.07-.28,.73c-.18-.34-.14-.57-.23-.71-.1-.15-.34-.19-.48-.33-.11-.11-.16-.28-.34-.61,1.97,1.06,3.55,2.47,5.68,2.57l.09-.22-1.95-.71-.25-.67c1.44,.59,2.66,1.51,4.18,1.41l.2-.36-1.17-.91-.22,.39-.66-.89,.1,1.07-.84-1.43c1.13,.34,2.25,.7,3.39,.99,.26,.06,.58-.15,.88-.23l-.71-.92-.17,.92-.76-1.19-.18,.78-.65-1.08Zm-35.18,2.43l-1.26-1.13c-1.19-.31-1.43-.54-1.36-1.77l-1.49,.6-.13-.34-.64,.95v-.86l-.64,.85-.11-.05,.15-.71-.14-.08-.68,.91-.13-.09,.29-.7-.17-.17-.97,.89,.23-.87c-1.14,.25-2.27-.85-3.35,.13,.66,.82,1.54,.99,2.46,1.06,.93,.07,1.87,.16,2.8,.17,.86,0,1.73-.09,2.59-.14l.13,.29c-1.48-.43-1.48,.89-2.17,1.48l.4-1.21-.18-.09-.88,1.38-.18-.11,.51-1.13-.2-.12-.68,1.25-.15-.07,.32-.9-.13-.06-.73,.89-.11-.07,.42-.8-.11-.22-1.45,.48,.02,.27c1.12,.68,2.3,1.23,3.67,.97,1.37-.26,2.73-.6,4.09-.91l-.49,1.67-.23-.08,.34-1.18-.23-.11-.89,1.64-.15-.09,.31-.96-.21-.13-.77,1.27-.16-.08,.28-.84-.16-.09-.9,1.12,.22-1.04-.9,.72c-.46-.56-.73-.2-1.12,.22,2.61,1.16,4.92,.32,7.39-.82l-.34,1.37-.21-.05,.14-.82-.13-.05-.47,1.12-.17-.06,.05-.61-.22-.05-.38,1.1,.21,.26,4.23-1.52-.17,1.11h-.17l-.15-.76-.34,.96-.11-.19-.63,.35,.1,.26c.86-.24,1.73-.41,2.56-.73,.67-.26,1.27-.68,1.88-1.03l-.46,1.2-.1-.18-1.08,.66c1.75,.15,3.16-.63,4.78-2.46l-.51-.79-.99,1.79-.25-.96-.13,.02-.07,1.21h-.13l-.5-1.95c-.62,.41-1.02,.68-1.43,.95-.34,.22-.69,.44-1,.64l-1.11-1.4c-.26,.19-.6,.34-.76,.59-.29,.46-.47,.35-.72-.07l-.34,1.01-.17-.05v-1.05l-.36,1.24-.22-.06c.06-.28,.14-.57,.15-.85,0-.18-.11-.52-.17-.52-.77,0-1.54,.06-2.38,.1l.54-1.21c-.28,.12-.46,.2-.63,.27Zm37.21,0c-.88-.33-.25,.57-.83,.79h-1.83l.19,1.51c-.22-.12-.3-.28-.35-.45-.07-.2-.11-.41-.16-.61l-.1,.02,.08,.84-.18,.03-.42-1.06-.2,.54-1.22-1-1.13,1.36-2.47-1.56-.41,2h-.16l-.08-1.31h-.12l-.22,.86h-.13l-.09-.89-.22,.46-.56-1.22-.51,.78c1.03,1.73,2.63,2.34,4.41,2.6l.14-.23-.88-.61-.04,.14-.79-1.38c1.31,1.37,3.04,1.59,4.7,2l.11-.27-.81-.3-.21-.67-.12,.03-.05,.66h-.21l-.06-1.03,4.23,1.39,.15-.27-.45-1.07-.18,.08v.62l-.15,.02-.41-1.11-.12,.04,.05,.84h-.2l-.17-1.13c1.27,.38,2.43,.79,3.63,1.07,1.24,.29,2.46,.13,3.75-.51-.49-.25-.8-.93-1.16-.11l-.93-.72,.17,.92-.89-1.03-.14,.12,.26,.8-.13,.05-.87-1.33-.18,.13,.37,1.08-.15,.05-.94-1.63-.2,.12,.32,1.12-.23,.06c-.17-.54-.33-1.08-.5-1.62,1.36,.3,2.72,.65,4.09,.9,1.39,.25,2.6-.24,3.71-1v-.28l-1.67-.45,.51,.98-.12,.06-.7-.85-.12,.07,.31,.93-.17,.05-.65-1.21-.17,.13,.49,1.14-.17,.09-.93-1.42-.17,.11,.42,1.18-.2,.11c-.43-.81-.61-1.91-1.93-1.76,.36-.08,.66-.07,.96-.08,1.75-.05,3.51-.07,5.26-.17,.68-.04,1.31-.32,1.81-1.22h-2.3l.35,.71-.1,.06-.85-.81,.33,1.01-.76-.86-.13,.1,.2,.79-.98-.84-.14,.17,.28,.71-.12,.07-.69-.91-.13,.09,.16,.71-.12,.06-.62-.86-.05,.8-.62-.88-.14,.28-1.49-.56c.08,1.25-.11,1.43-1.36,1.79l-1.28,1.09Zm-19.18-12.58v-.02l.24,1.27c-1.83-.66-2.04-.63-2.48,.01,.35,.44,.87,.8,.89,1.18,.06,1.04,.2,2.16-.67,3.03-.11,.11-.12,.34-.19,.56l1.1-.53,.13,.93,1.01-.94,.45,.66,.32-.55,2.04,.71-.45-.8h.25v-2.22l.52-.73v2.02c-.02,.44-.03,.87,.03,1.29,.07,.46,.2,.91,.3,1.36l.35-.09-.26-1.37,.13-.11,.82,1.01c-.02-.37,.03-.62-.06-.78-.38-.69-1.13-1.19-.52-2.23,.18-.3,.16-1.51-.92-1.55,.1-2.15-1.51-3.41-4.09-3.09l1.06,.96Zm14.55,32.08l.02,.02c-.68-2.53-2.14-4.55-3.86-6.04l-1.85,.15c-.31,.39-.59,1.02-.88,1.02-.42,0-.98-.35-1.24-.72-.53-.76-1.53-1.21-1.61-2.3-.01-.13-.28-.24-.4-.38-.23-.26-.44-.54-.66-.82-.41-.24-1.17-.13-1.52-.45-.92-.84-1.85-.45-2.54-.42,.56,.38,1.19,.99,1.94,1.28,1.02,.39,1.33,1.14,1.52,2.22-.57,0-1.13,.09-1.64-.03-.47-.11-.89-.45-1.33-.69-.28-.15-.9,.04-.65-.66,0-.01-.21-.15-.3-.14-.17,.03-.37,.09-.47,.21-.14,.18-.2,.43-.3,.63l-.91-.18c-.04,.27-.02,.61-.12,.65-.88,.35-.99,1.68-2.15,1.69-.15,0-.29,.35-.44,.53,.23,.12,.51,.39,.68,.33,.87-.27,1.49-.06,1.78,.71l1.12-1.73-.55-.82c.61-.97,2.12-1.12,3.15-.07,.47,.48,.95,.66,1.69,.55,.72-.11,1.54,0,2.24,.25,.37,.13,.82,.74,.79,1.1-.03,.37-.6,.69-.97,1.08-.57-1.04-1.47-.95-2.12,.05,.7,.32,.76,.83,.49,1.29l-1.89,.58c.76,1.23,.73,1.3-.18,2.26-.53,.56-.93,1.14-.42,1.98,.29,.49,.24,1.08-.37,1.3-.15,.05-.66-.45-.75-.78-.23-.79-.7-1.11-1.47-.97-.94,.17-1.89,.35-2.8,.62-.98,.3-1.01,.51-.61,1.11,.65,.16,1.34,.17,1.4,.37,.13,.43-.06,.96-.12,1.46,1.31,.04,1.6,.29,2.29,1.97,1.48-.05,2.83,.24,3.83,1.46,.05,.07,.19,.1,.28,.1,1.12-.06,2.05,.06,2.83,1.16,.62,.88,.82,1.03,.31,1.99-.29,.55-.34,1.22-.52,1.83-.11,.35-.18,.79-.42,1.01-.8,.72-1.91,1.18-1.91,2.52,0,.34-.11,.67-.18,1.01l.28,.2c1.26-.46,2.55-.84,3.76-1.39,2.09-.95,3.79-2.43,5.23-4.21,.13-.16,.14-.42,.2-.64-.22-.05-.45-.13-.67-.15-.13-.01-.26,.08-.4,.1-.93,.16-1.5-.35-1.43-1.29,.04-.58-.02-1.2,.19-1.71,.39-.98,.92-1.91,1.43-2.83,.09-.15,.37-.24,.57-.28,1.14-.23,2.28-.43,3.55-.66l-.39-1.37c-.34,.44-.53,.93-.86,1.07-1.93,.83-1.95,.8-2.78-1.17-.03-.08-.07-.15-.09-.23-.27-.78-.04-1.1,.77-1.09,.39,0,.79,0,1.18,0l.14-.27-1.44-1.25c.45-.13,.79-.28,1.14-.32,1.43-.15,1.93-.77,1.4-1.79Zm-25.88-4.21c-.72,1.3-1.55,2.51-2.11,3.84-1.92,4.52-1.83,8.98,.96,13.13,2.41,3.59,5.9,5.67,10.11,6.56,.6,.13,1,.05,1.16-.62,.25-.97,.03-1.69-.48-1.99-1.59-.9-3.27-1.75-3.94-3.63-.17-.46-.28-1.24-.03-1.51,.81-.87,1.79-1.57,2.71-2.33,.16-.13,.3-.28,.45-.43-.15-.15-.26-.36-.44-.44-.81-.37-1.64-.7-2.46-1.05-1.11-1.44-.93-3.49-2.19-4.86,.03,.44,.27,.8,.31,1.19,.03,.37-.16,.75-.25,1.13-.27-.25-.66-.45-.8-.76-.61-1.35-1.17-2.72-1.69-4.1-.16-.43-.29-.94-.2-1.37,.24-1.1-.11-1.93-1.11-2.79Zm10.3-1.69c.33,.61,.87,1.25-.03,1.71-.41,.21-.57,.34-.56,.81,0,.23-.32,.6-.56,.66-.21,.05-.67-.18-.74-.39-.22-.6-.59-.56-1.05-.42-.75,.22-1.25-.05-1.43-.81-.17-.76,.38-.92,.93-1.2,.56-.29,1.32-.77,1.41-1.28,.14-.82,.59-.86,1.16-.99,.22-.05,.4-.32,.62-.37,.59-.14,1.19-.25,1.79-.27,.18,0,.45,.3,.53,.51,.32,.89,.71,1.16,2.01,1.02-.5-.48-.82-.87-1.21-1.15-.44-.31-.96-.53-1.45-.77-.62-.31-1.24-.63-1.88-.89-.15-.06-.54,.05-.58,.17-.38,.99-1.13,.62-1.81,.55-.37-.04-.76,0-1.28,0l.82,.59-1.04,.61c-.13,.64-1.45,1.21-2.32,.86l.38-.49c-.42,.14-.8,.32-1.1,.59-.67,.6-1.25,1.31-1.95,1.86-.44,.35-.44,.66-.12,.93,.87,.73,1.06,1.61,.8,2.67-.04,.18-.03,.4,.03,.57,.61,1.69,1.24,3.37,1.87,5.06l.25-.09-.96-2.36c.48,.07,.78,.06,1.04,.16,.89,.36,1.17,1.16,1.41,2,.19,.65-.04,1.56,.95,1.81,.01,0-.02,.19-.02,.19,.2-.04,.46-.02,.62-.14,.23-.17,.39-.43,.58-.66-1.04,.31-1.22,.27-1.55-.47-.43-.95-.32-1.38,.6-1.66,1.04-.31,2.12-.58,3.21-.68,1.41-.14,1.43-.04,1.94,1.32,.05,.14,.16,.25,.34,.51,.04-.31,.13-.5,.07-.6-.75-1.26-.21-2.17,.73-3.03,.15-.14,.19-.58,.09-.79-.4-.83-.34-1.12,.5-1.51,.33-.16,.71-.22,.93-.29-.11-.4-.43-.93-.28-1.16,.26-.41,.76-.78,1.23-.9,.52-.13,1.11,.04,1.72,.08-.02-.07-.02-.24-.1-.35-.51-.63-1.23-.75-1.95-.58-1.09,.24-1.97,.05-2.76-.78-.48-.51-1.1-.58-1.79-.14Zm2.8,24.57c.76-.3,.96-.74,1.05-1.43,.07-.53,.5-1.29,.94-1.43,.88-.29,1.09-.35,1.07-1.23,0-.42,.05-.9,.24-1.27,.4-.79,.9-1.35-.19-2.19-.63-.48-1.14-.73-1.84-.74-.38,0-.76,.05-1.13,.07-.1-1.31-2.93-2.01-3.73-1.45-.55,.39-1.17,.71-1.69,1.15-.63,.53-1.18,1.14-1.75,1.74-.09,.09-.12,.35-.06,.45,.48,.82,.85,1.78,1.53,2.39,.74,.67,1.8,1,2.68,1.54,.23,.14,.4,.46,.49,.73,.1,.27,.07,.58,.1,.94l.61-.4-1.01,1.79c1.15-.12,2.24,.7,3.25-.2l-.57-.46Zm18.5-27.71l.23-.07-.16,1.31c.66-.32,1.21-.55,1.72-.85,.19-.11,.41-.4,.4-.6-.06-1.01,.05-1.91,1.19-2.27,.7-.22,1.42-.59,2.1-.54,.5,.03,.97,.63,1.44,.98l.14-.25c.96,1.49,1.43,2.97,.08,4.4l1.53,1.62c1.47-1.57,1.67-3.93,.5-6.09-1.13-2.08-3.35-3.43-5.17-2.9-.98,.29-1.93,.91-2.71,1.6-1.04,.93-1.56,2.19-1.3,3.64Zm-8.26-17.18c.59-.38,1.07-.43,1.73,.04,.65,.46,1.49,.68,2.28,.9,.95,.26,1.72-.16,2.46-.82-.98-.42-1.86-.79-2.75-1.16-1.09-.46-2.15-1-3.27-1.35-1.49-.46-2.36,.02-2.88,1.51-.62,1.78-1.66,2.91-3.7,2.62-.02,.23,0,.42-.05,.59-.28,.84,.1,1.18,.89,1.2,.82,.02,1.66,.08,2.47,0,1.84-.17,3.07-1.77,2.8-3.53Zm3.45,21.67c.46,1.51,1.71,.59,2.59,1.03l-1.79,.19v.29h1.99v.29h-1.67v.2l1.75,.12v.2l-1.58,.08v.2l1.87,.27-.02,.17h-1.82l-.02,.23,1.47,.16v.09l-1.66,.07c1.74,.75,3.88,.02,5.06-1.62l-1.07-.19,.02-.14h1.44l.03-.24-2.04-.32v-.13h1.58l.02-.08-1.38-.3c0-.06,0-.1,.01-.11,.11-.06,.22-.11,.36-.18-.95-1.12-1.5-2.37-1.3-3.76l-3.57,2.17,.77,.09v.08l-1.84,.2,.02,.2h2.07v.11l-1.67,.18v.18h2.09v.15l-1.72,.1Zm-3.23-4.93l-.03,.24,1.84,.21v.14h-1.54v.2l1.5,.18v.19h-1.05v.09l1.79,.26-.03,.16h-1.62v.16l1.83,.26v.11l-1.63,.08c1.31,.6,3.02-.25,4.44-1.56l-2.7-4.73-2.62,1.67,.3,.13-.04,.14h-1.46v.06l1.68,.17v.19h-1.5v.23h1.9v.2l-1.65,.17,.03,.13,1.8,.13v.18l-1.54,.08v.14l1.67,.24-.02,.16h-1.35Zm3.28,16.44c-.54,0-.71-.03-.86,0-.85,.17-1.71,.34-2.55,.54-.2,.05-.44,.18-.53,.35-.67,1.31-1.46,2.58-1.3,4.16,.06,.62,.35,.7,.88,.66,.57-.05,1.14-.01,1.98-.01,.71-1.72,1.5-3.6,2.37-5.71Zm-32.36,15.67c2.17-1.04,3.33-4.7,2.68-6.4-3.35,1.3-4.49,3.98-2.68,6.4Zm43.78-25.74c-1.78,.36-3.4,.17-4.85-.95,.34,.7,.73,1.3-.06,1.89-.07,.05-.03,.31,.03,.44,.43,.85,.89,1.69,1.37,2.6,1.83-.77,3-2.02,3.51-3.99Zm.12-4.13c.68-.78,.78-1.68,.34-2.59-.52-1.07-1.45-1.59-2.65-1.52-.89,.05-1.48,.58-1.91,1.45,1.08,.12,1.64,.78,2.05,1.64,.07,.15,.24,.28,.4,.34,.55,.23,1.12,.43,1.77,.68Zm-7.31,.21c.31,1.57,1.1,2.24,2.39,1.93l-1.48-.6,.05-.17,1.94,.59,.06-.16-1.34-.65,.05-.09,2.03,.51,.07-.28-1.41-.54,.06-.17,1.82,.48,.05-.2-1.19-.46,.06-.18,1.38,.37,.03-.09-.89-.47,.05-.13,.88,.2c.24-1.15-.13-1.98-1.27-2.36-.27,.78,.6,.74-3.36,2.47Zm-14.17-1.91c-.47,.91,1.22,3.45,2.24,3.57,.29-.43,.46-.95,.81-1.13,.32-.17,.83,.01,1.26,.04l.11-.4-4.97-2.72-.23,.23,.07,.71,.71-.3Zm6.67,15.19c1.29-.4,1.87-1.14,2.58-1.88,1.07-1.11,.14-1.96,.25-2.85l-1.91,.74c.18,.39,.64,.89,.55,1.27-.24,1.05-1.31,.36-1.94,.68v.24l.85-.05-.4,1.85Zm7.2-4.84l.02,.13,3.38-.49v-.28l-1.24-.34,.03-.13h.9l.02-.2-1.58-.25,.02-.17,1.22,.08c-.27-.21-.55-.23-.83-.24-.27,0-.54,0-.81,0v-.22h1.65c-1.1-.42-1.3-.37-3.38,.62l.48,.28-1.62,.13v.21h1.65v.19l-1.5,.15v.18l2.11,.13-.52,.25Zm-14.13-26.01l-.14-.08c-.12,.25-.34,.5-.34,.75,0,1.4,.08,2.8,.09,4.2,0,.88,.03,1.77-.11,2.62-.19,1.17-.73,1.56-1.92,1.62-.75,.04-1.48,.11-1.95,.8-.07,.11-.09,.26-.13,.41,.54-.19,.93-.36,1.35-.48,.45-.12,.92-.18,1.37-.3,1.17-.3,1.67-.82,1.72-1.98,.06-1.44,.05-2.88,.06-4.32,0-1.09,0-2.17,0-3.26Zm21.44,20.29c-.2-.66-1.38-1.75-2.14-1.55-.67,.18-1.19,.91-1.77,1.4-.02,.01,.02,.09,.03,.14l.6-.5-.32,.86,.78-.58-.24,.81,.19,.09,.67-.88-.15,.62,1.13-.52-.13,.62,.64-.6-.42,1.11,1.13-1.04Zm-11.54,2.11l.03-.13,.84,.11c-.49-1.48-.71-1.69-2.3-2.03l1.1-.15c-.62-.43-1.06-.83-1.65-.01,.28,.16,.53,.34,.81,.46,.27,.11,.58,.16,.87,.24l-.03,.13h-.79c.64,1.76,.89,1.97,2.1,1.79l-.97-.39Zm-15.39-29.24c-.4-.97-1.61-1.58-2.33-1.23-.67,.33-.88,1.5-.42,2.27,.8-1.25,1.17-1.4,2.75-1.04Zm-3.39,7.32l-.34,.05c.15,2.47,.28,4.93,.48,7.39,.03,.41,.41,.79,.63,1.18-1.06-2.83-.28-5.81-.77-8.62Zm9.67,4.62l-.17,.14c.44,.77,.75,1.66,1.36,2.26,.61,.6,1.52,.89,2.3,1.32l.18-.34-1.21-.82-.13,.16-.11-.73-.24,.33-1.98-2.33Zm-14.77,3.59c2.12-.26,3.19-1.4,3.5-3.31l-1.68,2.07-.23-.31-.12,.58c-.72,.05-.96,.56-1.47,.98Zm22.18,2.99l-.11-.3c-.8,.07-1.71-.59-2.35,.43-.11,.18-.12,.43-.18,.65,.23,.05,.49,.19,.67,.12,.67-.26,1.32-.59,1.97-.9Zm4.89,3.69c-.33,.51-.46,.91-.74,1.12-.82,.63-1.7,1.18-2.56,1.76,.98-.27,1.86-.69,2.7-1.17,.34-.2,.64-.51,.9-.82,.13-.16,.23-.51,.14-.66-.09-.17-.41-.22-.43-.23Zm-23.24-9.24l-.14,.04c-.12,.47-.14,1-.39,1.39-.25,.4-.72,.67-1.21,1.11,1.54-.16,2.08-.66,1.8-1.56l.84,.1-.52-1.7-.15,.02v1.22h-.16l-.08-.61Zm9.09-3.63l-.03-.17c-2.23,0-4.46,0-6.68,.01-.17,0-.34,.16-.52,.24,.18,.1,.36,.28,.54,.29,1,.03,2.01,.01,3.02,.01v-.15h-2.92v-.24h6.59Zm-.16-.53l-.02-.09h-7.02v.09h7.04Zm-16.71,43.56c.52-.73,.48-1.39-.04-2-.13-.15-.43-.16-.65-.24-.03,.2-.14,.44-.08,.6,.21,.55,.49,1.07,.77,1.64Zm14.38-31.92h.24l.16-3.39c-.6,.29-.76,2.27-.4,3.39Zm-3.8-4.06v2.18c.85-.38,.96-1.03,.93-1.66,0-.17-.55-.32-.93-.52Zm2.21,.61c-.35,2.51-.3,3.27,.2,3.47,0-1.18,.29-2.35-.2-3.47Zm-3.76-1.17l-.25,2.31c1.39-1.03,1.46-1.63,.25-2.31Zm28.97,17.38c1.03-.47,1.11-.7,.68-1.88l-.93,.5,.25,1.38Zm-25.88-15.29q-1.3,1.52-.19,2.27l.19-2.27Zm-.53-7.08h-.17v4.62h.17v-4.62Zm-.68,4.65h.15v-4.53h-.15v4.53Zm5.42,3.12c.34-1.47,.03-1.85-1.23-1.5l1.23,1.5Zm-5.73,20.93l.18-.17c-.39-.39-.74-.85-1.19-1.13-.21-.13-.64,.1-.97,.16,.24,.2,.45,.44,.72,.59,.4,.22,.85,.37,1.27,.54Zm2.99-28.69h-.13v5.15h.13v-5.15Zm-1.44,0h-.16v4.64h.16v-4.64Zm3.89,7.99l-.16,.15,.94,1.41,.27-.07,.2-1.77-.18-.04-.38,.56-.69-.25Zm-18.44,34.42l-.6,.65,.95,1.74c.61-.95-.09-1.56-.35-2.39Zm20.73-35.61c-.15,.88,.16,1.5,1.03,1.93-.01-.89,0-1.68-1.03-1.93Zm-2.35-6.65h-.13v4.43h.13v-4.43Zm-5.4-.14h-.11v4.37h.11v-4.37Zm4.39,.1h-.18v4.52h.18v-4.52Zm2.58,7.46l.46-.19c-.24-.57-.48-1.15-.75-1.71-.01-.03-.31,.08-.6,.17l.88,1.73Zm-7.99-10.84h7.21c-2.28-.11-4.56-.11-6.84-.11-.05,0-.1,.03-.37,.11Zm-11.14,35.26c-.32-.92-.53-1.69-1.79-1.67,.31,.2,.53,.29,.53,.35-.09,.86,.57,.97,1.26,1.32Zm34.26-9.56l-.26,1.24c.14-.75,1.7-.03,1.29-1.32l-1.04,.08Zm-16-18.54h.11v-3.69h-.11v3.69Zm-4.22,.73h.12v-4.58h-.12v4.58Zm.47,.23h.13v-4.81h-.13v4.81Zm20.89,18.71q1.12-.62,1.02-1.31l-.74,.05-.28,1.26Zm-3.87-1.76c-.19-1.2-.86-1.06-1.51-.94l-.12,.27,1.64,.67Zm-15.07-24.59v-.12h-5.23v.12h5.23Zm2.91,8.02l1.25,1.5c-.21-1.51-.64-1.91-1.25-1.5Zm-20.28,25.16l.34-.26-.71-1.24c-.17,.15-.5,.41-.49,.44,.26,.37,.56,.71,.85,1.06Zm17.61-30.84v-.06h-5.24v.06h5.24Zm5.01,5.19l.12-.17c-.25-.28-.47-.58-.75-.82-.13-.11-.37-.08-.56-.12,.03,.21,0,.53,.11,.61,.32,.22,.71,.33,1.08,.49Zm-5.84-.07h.11v-4.62h-.11v4.62Zm21.34,19.21l-2.92,.4c.93-.06,1.96,.61,2.92-.4Zm-20.15-23.75h-.14v4.4h.14v-4.4Zm-1.51,0h-.07v4.72h.07v-4.72Zm4.13,9.12l.52-.27-.65-1.03-.41,.24,.55,1.06Zm-20.89,35.57l.3-.15c-.18-.37-.34-.76-.56-1.11-.07-.11-.29-.12-.44-.17-.01,.14-.09,.32-.03,.42,.22,.35,.48,.68,.73,1.02Zm12.18-37l-.96-.32,.22,1.28h.24l.5-.96Zm6.9-3.56l.1,.02v-4.13h-.1v4.11Zm-18.81,24.45l-.4-1.44c-.78,.68-.73,.86,.4,1.44Zm13.38-33.55q-1.18,.15-1.01,1.01l1.01-1.01Zm-4.01,16.97l-.11-.19-.86,.93,.6,.3,.37-1.04Zm3.27-4.88l-.33,.03,.16,1.41,.46-.07-.29-1.36Zm-.08-3.14h.06v-3.9h-.06v3.9Zm-.59,6.02l.44,.13c.08-.25,.22-.51,.22-.76,0-.11-.27-.23-.42-.35l-.24,.98Z"/><path class="m" d="M869.8,568.36c.28,.41,.08,.64-.29,.84-.82,.44-1.63,.89-2.48,1.36l1.59,.57-.03,.32c-2.29-.42-4.54-.66-6.48,1.48l2.19-.68-.72,1.44,.25,.22,1.76-1.01s.24,0,.39-.12c.41-.32,.78-.7,1.19-1.02,.11-.09,.31-.07,.47-.1,0,.17,.06,.42-.02,.5-.61,.55-1.26,1.04-1.87,1.58-.19,.16-.25,.47-.44,.62-.2,.17-.48,.31-.73,.33-2.01,.14-3.77,.77-4.99,2.48-.08,.1-.13,.22-.31,.51l2.97-1.44,.1,.21c-.24,.12-.49,.23-.73,.36-.27,.14-.57,.25-.78,.45-.2,.19-.31,.47-.48,.75l-.1-.27-1.89,1.06v.22c.32,.05,.65,.19,.95,.13,.86-.17,1.65-.59,2.43-.89,.82-.32,.38-.79,.7-1.16l.09,.78,.15,.07,.55-1.21h.09l-.15,.95,2.32-2.69c.34,.62,.07,1.03-1.88,3.09l.92,.11c-1.36,.51-2.72,.82-3.87,1.5-1.16,.69-2.09,1.75-3.13,2.64l.16,.2,2.96-1.97,.09,.14-2.84,2.37c1.34,.06,2.35-.58,3.26-1.33,.92-.76,1.74-1.64,2.84-2.69-.13,.47-.12,.79-.28,.96-.87,.94-1.78,1.84-2.69,2.76l.57,.19c-2.51,.38-3.8,2.12-4.77,4.24,.33-.32,.66-.65,.99-.97,.33-.32,.67-.63,1-.95v1.81h-.16l-.1-.96-.24-.04-.41,1.11-.18-.31c-.27,.83-1.12,1.07-1.6,1.66-.09,.11-.19,.23-.28,.34l.16,.28c.74-.38,1.55-.67,2.22-1.16,1.31-.95,2.06-2.33,2.57-3.85,.08-.23,.32-.4,.49-.6,.03,.25,.14,.52,.06,.73-.28,.74-.64,1.45-.93,2.18-.08,.19-.09,.6-.04,.62,.79,.24,.5,.85,.38,1.28-.26,.92-.62,1.81-.95,2.75-.02-.02,.01,.04,.04,.04,1.33-.01,1.54,.26,1.28,1.69-.29,1.62-1.09,2.98-2.15,4.21-.17,.2-.34,.4-.63,.75,.46-.16,.73-.27,1.02-.34,.92-.24,1.46,.08,1.43,1.05-.03,1.07-.27,2.13-.42,3.17l1.65-.45-.23,4.26c.53,.07,.76,.24,.25,.82-.71,.8-1.46,1.61-1.95,2.54-.41,.76-.67,1.72-.65,2.57,.03,1.13,.4,2.24,.74,3.33,.05-1.07,.01-2.15,.17-3.21,.15-1.03,.49-2.04,.79-3.2l-.55,5.96,.49,.1c.3-1.04,.72-2.06,.85-3.12,.18-1.38,.11-2.8,.17-4.2,0-.22,.12-.43,.19-.64,.15,.19,.42,.38,.42,.57,.04,1.53,.02,3.06,.02,4.54,.38-.33,.83-.79,1.34-1.16,.19-.14,.51-.08,.77-.12-.12,.21-.19,.5-.37,.62-1.91,1.27-2.85,4.57-2.13,6.44l1.38-4.3c-.32,2.12-1.18,4.16-.79,6.41,1.75-.64,1.07-2.24,1.56-3.36v1.43c.7-1.29,.89-2.53,.8-3.81-.05-.79-.26-1.57-.36-2.36-.02-.2,.11-.42,.17-.63,.16,.15,.44,.28,.47,.45,.22,1.42,.4,2.85,.59,4.26,.66-.19,1.22,.05,1.49,.9,.36,1.13,.64,2.29,.97,3.48,.19-.2,.51-.46,.73-.78,.47-.68,.81-.46,1.17,.08,.71,1.06,1.05,2.23,1.04,3.51,0,.69,0,1.38,0,2.03l2.28-1.83,1.8,3.8c.71-.95,.92-1,1.69,.04,.9,1.23,1.68,2.56,2.52,3.86,.57-.52,1.3-.43,2.02,.05,1.41,.93,2.91,1.84,3.1,3.73,.09,.9-.07,1.85-.24,2.76-.14,.75-.91,.88-1.51,1.14-.21,.09-.44,.19-.6,.34-1.53,1.51-4.01,2.01-5.97,1.2-1.2-.5-1.75-1.27-1.68-2.32-.88-.18-1.78-.29-2.63-.57-1.44-.47-2.43-1.45-2.96-2.89-.06-.16-.24-.33-.41-.37-2.06-.56-3.67-1.53-3.72-3.98,0-.16-.35-.32-.56-.46-.98-.64-2.02-1.19-2.92-1.92-.75-.62-.72-1.6-.71-2.55-2.19-.98-3.31-3.41-2.86-4.3-1.29-.82-1.79-2.13-2.17-3.53-.13-.49-.37-.95-.47-1.45-.04-.19,.14-.44,.16-.48-.57-.66-1.19-1.33-1.75-2.04-.29-.36-.54-.77-.71-1.2-.55-1.36-.34-1.72,1.19-1.87-2.01-1.33-2.62-3.28-2.87-5.46-.08-.72-.03-1.14,.58-1.11-.45-1.13-1.01-2.28-1.34-3.49-.17-.64,.03-1.41,.16-2.11,.11-.62,.31-1.28,1.21-.91-.36-.98-.84-1.89-1-2.84-.17-1.01-.1-2.08-.04-3.11,.04-.78,.48-1.02,1.06-.5,.88,.8,1.62,1.76,2.4,2.67,.18,.22,.28,.51,.52,.95,.08-1.03,.09-1.67-.73-2.31-2.14-1.68-3.17-3.96-3.05-6.71,.06-1.35,.32-1.51,1.55-.98,.12,.05,.24,.09,.48,.19-.66-2.27-1.01-4.45-.21-6.65,.17-.47,.45-.91,.71-1.44l1.47,1.17c.12-2.09,.29-4.14,1.93-5.78l1.3,1.68c.25-2.39,.97-4.59,2.81-6.29-.59,1.3-1.33,2.56-1.72,3.92-.39,1.38-.43,2.86-.62,4.22,.53-.19,.72-.24,.62-1.35-.08-.85,.29-1.52,.4-2.28,.09-.63,.32-1.25,.67-1.83l-.62,3.92c1.33-1.75,1.53-3.81,1.17-5.99h.25l.51,.42c.95-2.91,1.73-3.97,2.86-3.99-.62,.95-1.46,1.87-1.84,2.95-.4,1.11-.35,2.38-.31,3.61l1.02-4.25,.23,.05-.59,2.95c.71-1.24,1.58-2.37,1.53-3.95-.03-1.04,1.45-3.19,2.5-3.31,.13-.01,.29,.26,.44,.41-.44,.33-.88,.66-1.32,.99-1.02,1.01-.91,2.37-.99,3.67l.98-3.68c.03,.35,.11,.7,.08,1.04-.06,.64-.18,1.27-.27,1.91l.24,.05c.09-.22,.2-.43,.27-.65,.34-1.11,.67-2.22,1-3.33,.23-.14,.51-.23,.69-.42,.56-.61,1.16-1.11,2.1-1.1-1.55,.76-2.24,2.08-2.53,3.67l1.18-2.18,.13,.06-.1,1.38c1.14-.68,.74-2.22,2.02-2.77,1.07-.46,2.03-1.12,3.45-.96l-1.55,2.94c-2.17,.25-2.38,.33-3.23,1.17l2.25-.58c-.74,.62-1.02,.87-1.05,1.42,.6-.46,1.04-.82,1.5-1.14,.19-.13,.43-.19,.65-.28-.07,.24-.06,.56-.22,.7-.62,.53-1.38,.93-1.92,1.53-.55,.6-.92,1.36-1.46,2-.22,.19,.88,.43-.08,.67-1.85-.65-4.83,.3-5.91,1.89,.85-.39,1.7-.74,2.51-1.15,.58-.3,1-.32,1.18,.44l2.22-1.19Zm-16.02,28.41l.14-.92-.44,.63c-.09-.49,.49-1.11-.33-1.28l-.89-2.7,.13-.03,2.71,4.77c.3-2.23-1.45-5.53-3.29-6.38-.59,2.21,.2,4.75,1.92,6.18l1.13,1.04c-.1-.49-.27-.88-.51-1.21-.08-.11-.37-.07-.56-.1Zm1.11,12.31l1.09,.56c.36-.98-.43-1.16-.79-1.63l-.3,1.09v-1.57l-.26,.02-.07,.53-.78-2.08,3.01,2.75c.12-2.74-2.16-4.99-4.59-4.69,.04,.35,.04,.71,.13,1.05,.42,1.6,.84,3.22,2.57,3.98Zm18.61,14.78c-2.38,1.96-2.57,6.34-.31,7.87v-4.61c.4,1.58,.03,3.25,.81,4.83,1.35-1.7,1.09-5.61-.49-8.09Zm6.46,12.04c-.2-1.08-.55-2.16-.57-3.24-.05-2.42-1.39-4.13-2.8-5.89-1.29,1.85-1.32,5.26-.11,6.24l.09-.89,.08,.02,.23,1.78,.44-.07-.7-3.86c.21,.26,.26,.3,.27,.35,.49,1.64,.98,3.28,2.51,4.32,.08,.05,.12,.26,.08,.36-.27,.66,.18,.8,.47,.89Zm-10.54-14.61l.36,.08c-.06,.32-.13,.64-.16,.96-.14,1.12-.66,2.23-.01,3.38,.16,.29,.11,.81-.04,1.13-.4,.85-.4,1.22,.2,1.79,1.51-1.77,1.48-7.19-.05-9.24-2.06,1.99-2.58,6.25-1.05,7.9l.76-5.99Zm-9.32-23.25c-2.99,.26-4.85,3.79-3.41,6.77,1.55-.75,2.43-1.91,2.46-3.68l.1,.96c.81-1.34,1.07-2.61,.84-4.05Zm21.55,34.55c.4,1.8,1.13,3.41,2.35,4.83,1.06-2.46-.36-5.59-2.82-6.26-.2-.06-.66,.24-.75,.47-.57,1.53,.05,3.57,1.33,4.62,.81-1.26-.55-2.41-.12-3.66Zm-20.11-7.33c.27,2,3.24,3.95,5.07,3.37,.21-.07,.35-.34,.58-.58l-1.06-.48-.17,.5-.88-1.27,2.73,1.13c-1.17-2.55-3.8-3.19-6.27-2.67Zm5.49-2.49c.67-2.36,.89-4.55-.32-6.65-2.15,1.64-2.82,5.48-1.41,6.89l.8-4.02,.07,.02v4.98l.33,.02,.25-1.96h.15l.13,.73Zm-14.92-23.85l.21-.13,2.94,4.22c.56-1.99-.77-4.25-3.33-5.76-1.27,2.24,.14,5.57,2.98,6.49l-1.15-2-.25,.75c.29-1.49-1.02-2.36-1.4-3.57Zm2.02-21.98c-1.35,1.62-.8,6.44,.92,8.43-.41-2.22-1.24-4.36-.66-6.61l.92,5.81c1.38-2.85,.87-5.37-1.18-7.62Zm6.47,14.71c-1.62,.01-3.85,2.66-3.93,4.57l1.29-1.49-.89,2.25-.09-.28-.9,1.95c1.53-.21,1.99-1.57,2.8-2.42,1.18-1.24,1.68-2.85,1.72-4.58Zm-.52,28.71l-.29-1.43,2.43,1.52c-.89-2.59-3.41-4.6-5.6-4.68-.03,2.21,1.29,4.04,3.46,4.59Zm16.75,15.11c-1.61-2.14-4.9-2.74-6.67-1.3,.75,1.64,2.81,2.72,4.69,2.35-.17-.24-.28-.53-.45-.58-.17-.05-.41,.15-.63,.23-.11-.51-.39-.65-.88,.05l.05-.76h3.89Zm-15.6-33.27c-1.6,.52-3.71,4.57-3.62,6.76l1.85-3.49,.12,.08-1.45,4.07c.4-.19,.66-.23,.72-.36,.21-.5,.36-1.03,.53-1.55h.09v.53c1.86-1.84,1.89-3.76,1.76-6.04Zm11.03,30.17c-1.3-2.26-3.94-3.33-6.21-2.75-.21,1.71,1.28,3.12,3.67,3.3l-.24-.98-.27,.06-.2,.69-.33-1.07-.25,.05-.24,.77c-.15-1.09-.02-1.18,.84-.92,.99,.3,2,.53,3.23,.86Zm-20.28-47.93c-.22,2.49,.66,4.47,2.28,6.15l.25-.11-.42-.89-.2,.1-.06-.93h-.15l-.2,.48-.14-.03v-1.5h-.17l-.17,.41-.39-2.53,2.52,5.04c.44-2.9-1-5.73-3.16-6.2Zm28.36,53.1c.16,.09,.34,.24,.54,.29,.08,.02,.21-.18,.32-.28-.19-.16-.35-.39-.57-.48-1.8-.73-3.71-.34-5,.98,.71,1.19,2.36,1.7,4.1,1.24,.23-.06,.4-.32,.6-.49-.1-.1-.25-.29-.3-.27-.23,.11-.43,.28-.62,.41l-.4-.36c-.5,.58-1.06-.07-1.64,.18l.19-.73,.09,.24,.85-.19v.03l1-.26s.22,.27,.36,.23c.21-.07,.34-.37,.49-.54Zm-23.07-58.62c.93-2.16,1.41-4.33,.13-6.65-1.84,2.85-1.29,5.75-.5,8.67,.02-.79-.06-1.58-.05-2.37,0-.85,.11-1.69,.15-2.54,.04-.81,0-1.64,.55-2.17l-.28,5.06Zm1.53,35.5l.17-.21c-.79-2.27-2.81-3.74-5.42-3.59,.24,1.32,1.13,2.15,2.04,2.97l.31-.11-.49-1.8,3.39,2.73Zm-.39-24.54l-.17,1.93c.96-1.32,1.99-2.59,2.02-4.4-2.2,.96-3.25,2.71-3.75,4.91l1.9-2.44Zm.4,31.47c.4,1.23,1.23,1.93,2.28,2.53l.11-.59,3.06,.57c-1.32-1.56-3.53-2.56-5.45-2.5Zm-3.1-33.92c.45-.7,.81-1.32,1.23-1.89,.44-.58,.94-1.11,1.54-1.81-.75,.08-1.71-.06-1.87,.23-.54,1-1.22,2.04-.9,3.46Zm15.06-22.05c-1.51-.06-2.41,.81-3.26,1.76l2.16-.7,.07,.17-1.84,.92c1.33-.03,2.36-.81,2.88-2.15Zm3.31-4.93c-1.52,.22-2.9,1.27-3.04,2.06l1.26-.59,.35,.78,1.43-2.25Zm-14.69,19.31l-1.29-.31-.91,2.34,2.2-2.02Zm-3.5,34.16l1.88,.9,.19-.26-1.83-1.62-.25,.99Zm6.47-40.02l-.11-.39c-.38,.19-.77,.38-1.15,.57,2.01,.29,2.42,.07,2.33-1.37l-.52,1.08-.24-.71-.31,.81Zm-4.3,30.77l-1.41,.66,.38,1.71,1.03-2.36Zm3.39,12.87l-.19-2.61q-.93,.78,.19,2.61Zm-5.53-27.96v1.82l1.01-2-1.01,.18Zm2.01,20.53l.55,1.88,.17-.05,.09-1.92-.8,.09Zm5.78,11.41l.09-1.82-.89,.5,.8,1.31Zm6.36,7.86l1.05,.86-.29-1.71-.76,.85Zm4.08,3.11l1.25,.67-.48-1.32-.77,.66Zm-18.31-38.08l.1,1.57,.71-1.83-.82,.27Zm14.16,37.75l-.08,.98,1.03-.38-.04-.23-.91-.36Zm-2.95-7.69l-.72,.62,.81,.92-.09-1.54Z"/><path class="m" d="M935.41,610.73c.05-.62,.36-.71,.81-.36,.49,.38,.95,.81,1.32,1.13,0-1.22,0-2.5,0-3.78,0-.16-.02-.35,.05-.49,.12-.27,.29-.52,.44-.78,.08,.26,.23,.53,.22,.79-.12,2.13-.02,4.24,.73,6.27,.11,.3,.26,.59,.49,.86,.28-1.92,.27-3.8-.47-5.78,.85,1.05,1.15,2.82,1.34,6.15,.19-1.07,.46-2.13,.56-3.21,.22-2.24-1.26-3.69-2.56-5.21-.13-.16-.21-.36-.31-.54l.55-.25-.24-4.24,1.71,.44c-.16-.85-.43-1.76-.48-2.69-.09-1.63,.36-1.92,1.9-1.38,.12,.04,.24,.08,.51,.17-.54-.69-1.09-1.21-1.41-1.85-.52-1.04-1.06-2.13-1.29-3.26-.29-1.48-.14-1.53,1.3-1.55-.31-.84-.7-1.67-.92-2.53-.12-.48-.55-1.18,.35-1.51,.05-.02,.02-.43-.06-.63-.3-.76-.66-1.5-.96-2.26-.08-.2,.01-.47,.02-.7l.25-.05,1.05,2.51,.13-.03v-.67c.3,2.36,2.01,3.15,3.87,3.78l.22-.26-1.44-1.16-.18,.2-.23-1.02-.23,.56-.38-1.31-.23,.02-.12,.96h-.12v-1.71c.39,.36,.72,.66,1.04,.97,.31,.29,.61,.58,.97,.81-1.03-2.04-2.3-3.78-4.84-4.14l.71-.26c-3.19-2.81-3.2-2.83-2.8-3.59,1.46,2.02,3.26,3.53,5.66,4.18l.17-.22-2.87-2.41,.08-.13,2.97,1.96,.17-.17c-1.03-.9-1.96-1.96-3.11-2.66-1.13-.68-2.49-.99-3.79-1.47l.82-.14c-.85-.91-1.74-1.75-2.18-2.87l.3-.22,2.21,2.57v-.94l.69,1.56,.18-.92c-.02,.56,.24,.82,.78,.98,.54,.16,1.01,.6,1.56,.75,.53,.15,1.12,.09,1.68,.13l.04-.28c-.31-.21-.61-.43-.93-.62-.28-.16-.58-.29-.91-.44l-.23,.39c-.06-1.29-1.27-1.2-1.81-1.94l2.98,1.44c-1.21-2.01-2.93-2.71-4.95-2.98-.38-.05-1.24,.4-1.03-.67,.01-.06-.32-.17-.47-.29-.59-.45-1.19-.88-1.74-1.37-.15-.14-.14-.46-.2-.69,.22,.08,.47,.11,.65,.25,.38,.28,.7,.62,1.08,.9,.13,.1,.36,.06,.42,.07l1.83,1.15-.11-1.21c.71,1.47,.81,1.52,2.58,1.3l-.98-.72-.16,.54-.34-.78-.17,.05,.03,.64c-.18-1.24-1.34-1.25-2.09-1.79l2.54,.82,.14-.22c-.62-.39-1.19-.89-1.86-1.13-.68-.25-1.45-.33-2.18-.33-.75,0-1.49,.16-2.24,.26l-.09-.26,1.54-.6-2.96-1.72,.17-.32c.88-.03,1.44,.82,2.29,.97l.42-.71,3.2,1.44,.09-.16c-.97-.56-1.89-1.31-2.93-1.64-1.04-.32-2.22-.23-3.36-.31l.4-.43c-.69-.63-1.56-1.11-1.54-2.22,0-.1-.34-.21-.52-.32-.52-.35-1.05-.67-1.52-1.07-.12-.1-.06-.41-.09-.63,.18,.08,.39,.12,.54,.24,.48,.36,.94,.75,1.57,1.26,.18-1.21-.77-.87-1.03-1.43l2.27,.56c-.95-.99-2.06-1.16-3.25-1.12l-1.58-3c1.43-.17,2.39,.51,3.47,.97,1.27,.54,.85,2.06,1.98,2.74l-.1-1.36,.13-.07,1.2,2.16,.12-.04c-.18-.45-.31-.93-.54-1.36-.24-.46-.5-.93-.86-1.29-.35-.35-.83-.57-1.2-.95,.86-.02,1.45,.48,2.01,1.05,.2,.2,.5,.3,.75,.45,.38,1.33,.77,2.67,1.15,4l.34-.08c-.09-.58-.21-1.15-.25-1.74-.03-.4,.05-.8,.09-1.21,.31,1.24,.63,2.48,.94,3.73l.41-.14c-.45-1.19-.91-2.38-1.36-3.57l-1.32-.98c-.01-.38,.09-.66,.51-.37,.49,.33,1.07,.65,1.37,1.12,.52,.83,1.08,1.6,1.16,2.72,.09,1.19,.74,2.33,1.15,3.5l.26-.08-.6-2.96,.22-.06,1.04,4.17c.02-2.43,.1-4.89-2.58-6.43,1.4-.16,2.09,.74,3.32,3.95,.14-.15,.28-.29,.55-.57,.07,.31,.14,.49,.15,.67,.03,1.01-.01,2.03,.09,3.03,.05,.48-.06,1.13,.71,1.36,.16,.05,.14,.72,.4,1.08-.2-1.31-.4-2.62-.63-4.17,1.07,1.94,.81,4.02,1.65,5.75-.06-.72-.13-1.44-.18-2.16-.13-1.97-.69-3.78-1.88-5.37-.13-.18-.22-.38-.39-.69,1.27,.38,2.3,2.6,3.03,6.24l1.28-1.58c1.63,1.59,1.8,3.62,1.95,5.72l1.43-1.11c1.67,2.63,1.27,5.3,.55,8,.06,.01,.12,.05,.15,.03,1.57-.75,1.87-.58,1.87,1.16,0,2.64-1.12,4.79-3.1,6.48-.8,.68-.93,.93-.69,2.16,.34-.59,.57-1.19,.96-1.65,.58-.69,1.21-1.35,1.91-1.91,.62-.49,.95-.29,1.1,.48,.4,2.09,.08,4.04-1.22,5.92,1.56-.25,1.38,.92,1.55,1.73,.32,1.5-.19,2.82-1.05,4.03-.17,.24-.36,.47-.59,.79,.92,0,.99,.43,.88,1.17-.29,2.13-.84,4.09-2.87,5.38,1.52,.19,1.85,.69,1.12,1.97-.64,1.12-1.58,2.07-2.41,3.11,.59,.61-.95,4.37-2.46,5.5,.56,.72-.72,3.34-2.85,4.27,.05,2.16-.96,3.54-3.36,4.38-.68,.24-.91,.52-.95,1.25-.09,1.57-1.19,2.43-2.53,2.95-.85,.33-1.53,.63-1.97,1.6-.65,1.43-2.05,2.09-3.6,2.34-.49,.08-.98,.11-1.48,.17,.11,1.13-.52,1.79-1.43,2.26-1.78,.92-4.35,.58-5.91-.71-.5-.41-1.08-.71-1.61-1.09-.32-.23-.75-.47-.86-.8-.66-1.97-.42-3.94,1.37-5.36,.45-.36,.94-.67,1.41-1.01,.75-.52,1.5-.66,2.11-.11,.84-1.29,1.61-2.61,2.52-3.84,.79-1.07,.99-1.02,1.72,0,.38-.88,.72-1.78,1.16-2.64,.57-1.12,.93-1.17,1.89-.31,.32,.29,.59,.65,.97,1.07,0-.55,0-1.02,0-1.48-.02-1.49,.21-2.91,1.06-4.17,.39-.57,.74-.81,1.22-.06,.21,.33,.56,.57,.72,.72,.31-1.13,.6-2.31,.97-3.47,.26-.83,.86-1.08,1.53-.87,.14-1.3,.23-2.64,.45-3.95,.05-.3,.49-.53,.76-.79-.03,.3-.01,.6-.09,.89-.52,2-.51,3.95,.55,6.06-.04-.48-.05-.72-.07-.96-.01-.21-.02-.43-.03-.64,.56,1.13-.19,2.75,1.59,3.39,.45-2.08-.4-3.97-.62-5.96,.41,1.27,.82,2.54,1.22,3.82,.15-.55,.26-1.09,.21-1.63-.04-.54-.29-1.06-.35-1.61-.19-1.58-1.1-2.61-2.43-3.34Zm3.44,12.62c.67-.46,.18,.49,.67,.4,.8-.55,1.7-1.15,1.97-2.38-1.84-.09-4.29,1.03-5.31,2.47l2.42-.45c-.05,.13-.08,.28-.17,.37-.12,.12-.29,.2-.45,.29,.2,.03,.42,.13,.6,.09,.49-.1,.6-.38,.26-.79Zm8.17-33.9c1.12-1.51,1.57-3.18,1.4-5.11-2.33,.84-3.86,3.92-3.09,6.09l2.38-4.7-.32,2.35-.15-.38h-.21l-.09,.94-.61,1.05s-.03-.05-.09-.13l-.42,.92,.28,.15,.91-1.18Zm-.35,7.55c1.68-1.3,2.53-4.04,1.89-6.16-1.9,1-3.64,4.34-3.19,6.26,.9-1.6,1.76-3.14,2.63-4.67l.13,.04-.93,2.86-.28-.22v1.3l-.49-.52c.12,.5,.19,.82,.26,1.13-.16-.15-.32-.29-.48-.44l-.81,1.41,.15,.13,1.13-1.11Zm-1.14,12.09c1.56-.77,2.79-3.19,2.56-5.05-2.47-.17-4.82,2.24-4.4,4.61,1.09-.96,2.13-1.88,2.88-2.54l-.73,2.13-.14-.66-.17,.02c0,.5,0,1.01,0,1.51l-.47-1.11-.94,1.36,.27,.27,1.13-.53Zm-14.87,12.24l.3-.04,.75,6.09c1.48-2.06,.83-6.62-1.12-7.97-1.46,2.59-1.4,7.79,.26,9.39,.46-1.31,.28-2.56,.24-3.77-.04-1.24-.28-2.47-.43-3.7Zm-3.45,10.44c2.1-1.57,2.21-6.25-.35-7.85-1.57,2.32-1.83,6.58-.27,8.18l.5-4.8h.12v4.47Zm-3.42,.06l.14,1.23c1.3-1.25,1.01-5.08-.15-6.22-2.05,2.14-3.14,4.63-2.76,7.79,1.56-1.16,2.04-2.85,2.72-4.46l-.73,3.74,.46,.08,.32-2.16Zm19.94-26.97c1.52-3.84-1.23-6.84-3.47-6.77-.22,1.4,.06,2.69,.86,3.98l.13-.95c-.04,1.82,.91,2.93,2.49,3.73Zm-25.13,31.42c1.3-1.04,1.93-3.27,1.35-4.72-.18-.45-.5-.62-.9-.33-.76,.54-1.56,1.05-2.21,1.7-.94,.94-1.11,3.35-.37,4.56,.49-.83,1-1.57,1.38-2.38,.37-.8,.6-1.67,.94-2.66,.32,1.41-.94,2.57-.2,3.84Zm16.17-12.99c1.7-1.88,1.04-5.62-1.11-7.15-1.21,2.13-.97,4.33-.3,6.71l.16-.77h.1l.28,1.96,.32-.03v-4.91c.25,1.46,1.27,2.68,.56,4.19Zm-.56,4.06l-.84,1.01c.36,.13,.73,.39,1.08,.35,1.4-.15,2.69-.63,3.63-1.72,.4-.46,.61-1.09,.92-1.67-2.51-.83-5.71,.5-6.39,2.62l2.6-1.06-.11,1.18h-.1l-.16-.71c-.21,.29-.25,.6-.3,.9,0,0-.03,.01-.08,.03l-.26-.91Zm11.78-48.7c.53,2.38-.25,4.58-.61,6.81,1.56-2.73,2.24-5.55,.94-8.62-2.03,2.33-2.75,4.84-1.31,7.96l.98-6.14Zm-5.55,41.7c2.01-.48,3.64-2.8,3.27-4.6-2.55,.4-5.13,2.56-5.42,4.63l2.04-1.26,.11,1.22Zm-12.3,11.98c.96-.22,1.73-.39,2.49-.58,.4-.1,.78-.31,1.18-.34,.14-.01,.33,.36,.47,.57,.04,.07-.04,.22-.09,.48l-.32-.8-.2-.02-.31,1.06-.24-.72-.22-.04-.35,.84c-.23-.84-.63-.48-1.07-.15,.52,.54,1.65,.49,2.91-.1,1.46-.67,2.09-1.6,1.96-2.89-2.17-.63-4.92,.47-6.2,2.68Zm11.7-40.66c-.04,1.42,.38,2.91,1.19,3.92,.27,.34,.88,.56,.94,.9,.16,.94,.88,1.36,1.48,1.88,.2,.18,.53,.21,.87,.33l-.91-1.94-.12,.43-.72-2.29,1.21,1.45c-.33-2.23-2.35-4.63-3.94-4.68Zm8.2,7.15l.17,.1-.98,2.4s-.07-.08-.27-.3v1.36l-.38-.56-1.1,2.02c2.88-1.2,4.3-4.45,2.8-6.81-1.04,1.21-2.07,2.34-2.99,3.54-.54,.7-.57,1.54-.16,2.45l2.91-4.2Zm-17.79,35.33c-2.21-1.33-5.27-.71-6.68,1.31h3.84v.71c-.45-.71-.68-.38-.81-.07-.27-.06-.54-.21-.7-.13-.16,.08-.2,.38-.31,.63,2.07,.17,3.81-.77,4.65-2.45Zm12.5-25.28c.05-2.31-2.12-6.34-3.68-6.62,0,2.13-.04,4.25,1.73,5.85l.2-.39c.44,.6-.14,1.74,1.18,1.79-.23-.55-.46-1.05-.64-1.56-.19-.54-.3-1.11-.51-1.63-.16-.41-.43-.77-.65-1.16l.23-.13,2.13,3.85Zm-21.93,29.02l2.07,.49s.03,.16,.06,.28l-1.22,.31,.35-.18c-.24-.06-.5-.2-.73-.17-.19,.02-.35,.25-.45,.32-.13-.1-.31-.28-.52-.39-.04-.02-.22,.21-.33,.32,.19,.15,.36,.32,.57,.44,.14,.08,.31,.09,.48,.12,1.46,.27,3.11-.38,3.63-1.42-1.71-1.5-3.77-1.72-5.62-.59,.23,.71,.58,.5,.45,.63,.3,.03,.61,.11,.91,.05,.21-.04,.38-.25,.35-.23Zm22.11-65.55c-1.2,2.23-.76,4.37,.15,6.5-.09-1.69-.18-3.38-.28-5.24,.91,2.46,.82,4.9,.67,7.33,1.26-4.22,.73-7.08-.54-8.59Zm3.91,38.28c-2.48-.19-5.13,1.64-5.4,3.74,.24-.13,.47-.21,.66-.36,.98-.77,1.94-1.57,2.86-2.31l-.52,1.74,.32,.14c.96-.75,1.75-1.62,2.08-2.96Zm-4.99-20.84l2.09,2.65c-.34-2.17-2.11-4.56-3.79-4.87-.12,1.43,1.17,3.46,2.04,4.32l-.33-2.1Zm2.76-2.55l.27-.08-1.01-3.29h-1.81c.85,1.13,1.7,2.25,2.55,3.37Zm-13.98-20.59q1.47,.25,1.79-.04c-.81-.68-1.62-1.34-2.83-1.15,.59,1.41,1.66,2.15,2.96,2.08l-1.92-.89Zm-2.98-4.08l.29-.19-.17-.59,1.62,.8c-.35-1-1.92-2.1-3.07-2.02l1.33,2Zm15.53,19.24l-.94-2.33-1.28,.29,2.21,2.04Zm.68,31.72c-.44,.21-.75,.31-.98,.49-.19,.15-.3,.41-.53,.76,1.81-.37,2.17-.76,1.82-2.05l-.31,.79Zm-.14-8.2l-1.41-.61,1.03,2.35,.38-1.73Zm-4.62,9.67l-.16,2.51q1.12-1.83,.16-2.51Zm5.31-23.66v-1.7l-.99-.22,.99,1.93Zm-2.81,18.68l.17,2.02c.75-1.53,.7-1.91-.17-2.02Zm-4.15,10.19l-.8-.42v1.73l.8-1.31Zm-7.91,8.33l-.3,1.74,1.02-.91-.72-.83Zm-6.01,7.57l1.83,.52q-.03-.66-1.83-.52Zm20.14-41.98l.77,1.82,.07-1.52-.84-.3Zm-18.7,39.08l1.24-.72-.79-.6-.45,1.33Zm8.38-8.65v1.4l.7-.9-.7-.5Z"/><path class="m" d="M905.57,646.7c-.53-.18-1-.3-1.44-.5-1.3-.59-2.57-1.23-3.88-1.8-.24-.1-.63-.05-.87,.08-1.18,.65-2.32,1.36-3.5,2.01-.28,.16-.65,.16-.98,.23-.03-.31-.13-.63-.08-.93,.25-1.43,.58-2.85,.79-4.29,.05-.36-.11-.89-.37-1.14-1.03-.98-2.15-1.88-3.21-2.83-.25-.22-.39-.55-.58-.83,.28-.14,.55-.35,.85-.41,1.51-.31,3.03-.54,4.52-.88,.32-.07,.67-.44,.83-.75,.66-1.27,1.22-2.58,1.88-3.85,.39-.76,.73-.76,1.13,0,.64,1.21,1.24,2.45,1.81,3.7,.23,.51,.58,.72,1.11,.81,1.67,.28,3.34,.59,5,.91,.13,.03,.34,.17,.34,.25,0,.16-.1,.36-.22,.48-1.1,1.12-2.22,2.21-3.3,3.35-.2,.21-.31,.61-.28,.91,.15,1.61,.36,3.21,.53,4.82,.02,.18-.05,.36-.11,.67Zm-6.12-10.22c.02-.21,.13-.49,.03-.62-.29-.42-.65-.78-1.16-1.37v.76c-.08,.16-.26,.41-.21,.47,.44,.54,.92,1.05,1.39,1.56l.21-.16-.26-.64Zm-1.43,6.12l1.34,1.17c.31-.89-.54-1.18-.73-1.97-.29,.39-.44,.6-.59,.81-.4,.66,.02,1.26,1,1.34l-1.01-1.36Zm4.16,1.18l.45,.98,.3-.12-.92-2.57-.74-1.04,.07,1.26-.57-1.93-.17,.05-.16,.81-.24-1.39c-.11,.87-.09,1.73-.12,2.58-.03,1,.33,1.67,1.44,1.83-.06-.66-.13-1.31-.19-1.96l.66,2.25,.15-.03,.05-.71Zm-5.15-4.68l.85,.52,.23-.42-1.71-.96-1.29-.22-.71-.39-.07,.11,1.86,2.54c.85-.27-.13-.72,0-1.08l.95,.7,.14-.18-.24-.65Zm6.49,.24c.82,1.08,.99,1.07,1.79-.05,.53-.19,.65-.59,.38-1.02-.24-.39-.62-.44-.95-.04l-1.53,.27c.11,.3,.22,.58,.32,.86l-.96-.9-.22,.24c.16,.24,.28,.55,.5,.71,.14,.1,.44-.03,.66-.06Zm-2.85-.14c1.46,1.98,2.78,3.77,4.2,5.7-.1-1.39-.16-2.62-.29-3.85-.02-.19-.24-.45-.43-.53-1.08-.44-2.19-.84-3.48-1.32Zm-.41-7.71v6.35c.78-.71,1.38-1.48,1.94-2.28,.08-.12,.01-.41-.07-.58-.58-1.12-1.18-2.22-1.87-3.49Zm6.76,5.42l-.02-.16c-1.14-.28-2.27-.59-3.43-.82-.32-.06-.83,0-1.02,.2-.58,.64-1.04,1.39-1.64,2.23l6.11-1.45Zm-8.1,3.11l-.17-.2c-.75,.29-1.51,.57-2.26,.87-.13,.05-.27,.22-.29,.35-.21,1.35-.4,2.7-.59,4.05l.16,.05c1.05-1.71,2.1-3.42,3.15-5.13Zm-5.24-3.35l-.03,.17,5.68,1.4,.13-.23c-.6-.66-1.2-1.33-1.81-1.98-.09-.09-.3-.14-.44-.11-1.18,.24-2.35,.5-3.53,.75Zm9.44,8.39l.32-.08-.43-1.79-.25,.06,.36,1.82Zm-3.48-9.88l-.8-1.34q-.34,.67,.8,1.34Zm-5.22,3.4l.17-.22-1.52-1.28-.17,.21,1.53,1.28Z"/><path class="m" d="M893.52,629.57l-.92-.52,.05-.15,1.54,.46,.06-.19-1.27-.6,.05-.14,1.97,.54,.1-.29-1.55-.64,.06-.17,2.09,.61,.07-.19-1.04-.54,.03-.09,1.78,.44,.06-.26-.96-.4,.04-.16,1.47,.37,.06-.14-.63-.3,.02-.13,1.24,.19,.03-.08-.55-.27c.8-.05,1.67,.28,2.26-.65-.1-.1-.18-.21-.29-.27-1.76-.9-3.53-1.79-5.29-2.68-.34-.17-.69-.36-1.05-.48-.63-.2-1.03-.01-1,.74,.01,.47,0,.93-.21,1.42-.03-.73-.16-1.48-.07-2.19,.08-.6,.68-.64,1.13-.47,.77,.29,1.5,.67,2.24,1.03,1.38,.67,2.77,1.34,4.13,2.06,.35,.19,.8,.56,.82,.87,.02,.29-.41,.73-.75,.91-1.51,.85-3.06,1.62-4.58,2.46-1.38,.76-1.85,.69-2.83-.49-.1-.12-.32-.18-.49-.19-3.96-.15-7.25-1.84-10.17-4.4-3.24-2.84-5.52-6.35-6.84-10.42-1.45-4.45-1.86-9-.39-13.54,.35-1.08,.96-2.08,1.47-3.13-.22-.16-.43-.29-.62-.44-.8-.67-.74-1.39,.14-1.92,1.76-1.06,3.52-2.13,5.28-3.19,.79-.48,1.38-.23,1.34,.64-.12,2.57-.28,5.14-.48,7.71-.07,.97-.4,1.07-1.2,.48-.5-.37-1-.74-1.52-1.13,1.01-.49,1.35,.72,2.22,.7l-1.57-1.31,.09-.15,1.31,.88,.09-.08-1.15-.98,.21-.22,1.19,.98c-.26-.98,.5-2.09-.73-2.74l.63,.36,.16-.14-.64-.87,.32,.02,.65-3.97c-.38,.18-.59,.27-.79,.38-1.62,.98-3.22,1.99-4.85,2.95-.93,.55-.97,.84-.1,1.46,.58,.41,.56,.41,.38,1.28-.02,.1,.2,.25,.3,.37-.86-.15-.89,.68-1.17,1.14-.31,.51-.48,1.12-.63,1.71-.91,3.51-.9,7.02,.08,10.52,.15,.52,.52,.97,.73,1.48,.12,.28,.13,.6,.21,1,.12-.05-.01,0-.25,.11l.78,.43-.67,.29,1.32,.6h-.79l-.05,.17,1.41,.58h-1.03l-.04,.15,1.23,.45-.02,.11-.83-.06-.08,.2,1.43,.58-.03,.11-.9-.06-.03,.15,1.33,.4-.02,.13h-.9l-.04,.18,1.43,.42v.09h-.93l-.05,.23,1.78,.47-.03,.15-1.15-.1-.06,.22,1.94,.53-1.23,.08-.03,.22,1.84,.27v.13l-1.16,.06-.03,.11,2.23,.4v.22l-1.76-.17-.05,.31,2.42,.27,.02,.12h-1.68c.71,.8,1.58,.42,2.57,.59l-.98-1.28,.1-.11c.39,.35,.77,.71,1.16,1.06,2.32,2.08,4.94,3.16,8.15,2.83,1.92-.2,3.87-.04,5.81,.07-3.17,.98-6.64-.07-9.71,1.48l.05,.25,2.15-.61-.98,.68,.07,.17,2.19-.68,.06,.15-1.15,.56,.05,.13,1.3-.5,.84,.66c-.06,.67,.08,1.27,1.25,1.16Zm-9.49-5.3c-.76-.89-1.73-.28-2.61-.35,.81,.64,1.75,.25,2.63,.34l-1.62,.56c.66,.71,1.47,.17,2.22,.26l.13-.23c-.25-.2-.49-.39-.74-.59Zm2.28,2.8l.07,.36,2.47-.5-.08-.41-2.45,.55Zm1.24-.56l-.03-.32-2.16,.42,.06,.34,2.14-.43Zm-1.13-.47l-.04-.31-2,.31,.04,.29,2-.29Zm-2.88-.54l.03,.25,1.91-.21-.02-.3-1.91,.26Z"/><path class="m" d="M893.59,552.13c1.25-.26,2.5-.57,3.76-.75,.55-.08,.8-.28,1.01-.76,.5-1.11,1.06-2.2,1.59-3.29h.31c.26,.5,.6,.97,.76,1.49,.5,1.58,1.37,2.65,3.17,2.78,.86,.06,1.71,.3,2.69,.48-.12,.17-.2,.35-.33,.49-.77,.79-1.57,1.54-2.3,2.36-.21,.24-.32,.67-.29,1,.09,1.15,.26,2.29,.39,3.44,.01,.13-.04,.26-.1,.55-1.3-.58-2.54-1.15-3.79-1.66-.27-.11-.69-.14-.94,0-.9,.46-1.76,1.02-2.65,1.51-.18,.1-.47,.12-.66,.05-.09-.03-.1-.39-.07-.59,.18-1.08,.43-2.15,.57-3.24,.04-.32-.11-.76-.34-.99-.67-.68-1.42-1.29-2.16-1.91-.25-.21-.54-.35-.82-.53l.19-.42Zm3.94,2.49h.57c-.35-.42-.56-.77-.87-1.01-.21-.17-.55-.18-.83-.26l-.71-.41,1.47,2.11,.37-.42Zm6.19,3.84c-.09-1.12-.15-2.01-.24-2.9-.01-.13-.15-.31-.28-.36-.79-.32-1.6-.61-2.58-.98l3.1,4.24Zm-3.45-10.05v4.71c1.57-1.3,1.66-1.73,.75-3.31-.23-.4-.43-.81-.75-1.41Zm5.12,4.03c-3.65-1.13-3.19-1.12-4.43,1.02l4.43-1.02Zm-6.19,2.39l-.14-.16c-.42,.16-.86,.29-1.26,.51-.26,.14-.6,.37-.64,.61-.19,.91-.27,1.84-.39,2.76l.11,.06,2.32-3.78Zm.37-1.38c-.99-1.9-2.25-2.17-4.15-1.03l4.15,1.03Zm1.77,4.52l-.64-2.91c-.22,.54-.26,1.02-.4,1.47-.24,.76-.01,1.21,1.04,1.44Zm1.07-4.05l1.12,.89c.14-.29,.46-.63,.39-.85-.25-.78-.84-.45-1.52-.04Zm-.65,2.55q-.09,1.3,.9,2.07l-.29-1.26-.28,.32-.33-1.14Z"/><path class="m" d="M918.45,557.57c-.92-.39-1.6-.6-2.19-.96-.53-.32-.92-.18-1.36,.09-.48,.29-.97,.58-1.45,.87l-.22-.15c.11-.6,.18-1.21,.33-1.79,.17-.66,.03-1.16-.52-1.57-.47-.35-.89-.76-1.51-1.29,.91-.19,1.62-.28,2.28-.51,.36-.12,.71-.42,.93-.74,.36-.53,.6-1.14,.97-1.86,.54,.94,.82,1.94,1.48,2.4,.67,.48,1.72,.43,2.9,.68-2.01,1.11-2.28,2.73-1.63,4.83Zm-2.26-3.37l1.63,2.21c.09-1.81-.08-2.03-1.63-2.21Zm-.4-.93c1.11-.97,1.1-1.22,0-2.6v2.6Zm2.96-.32c-1.55-.74-1.82-.68-2.45,.55l2.45-.55Zm-4.92,3.54l1.29-2.06c-1.25,.18-1.34,.33-1.29,2.06Zm1.48-2.98c-.64-1.17-1.03-1.27-2.29-.58l2.29,.58Zm3.3-.15l-1.99,.45c.73,.53,1.38,.68,1.99-.45Z"/><path class="m" d="M881.16,557.41c.07-.45,.05-.93,.21-1.35,.4-1.02,.06-1.73-.78-2.32-.35-.24-.65-.54-1.15-.96,.85-.19,1.48-.36,2.11-.45,.6-.08,.98-.31,1.19-.93,.19-.55,.53-1.06,.86-1.71,.56,.91,.87,1.91,1.54,2.39,.67,.47,1.71,.42,2.64,.61-.62,.71-1.46,1.29-1.72,2.07-.25,.75,.09,1.7,.18,2.76-.78-.34-1.42-.55-1.99-.89-.56-.33-1.01-.21-1.5,.1-.45,.29-.92,.55-1.38,.83l-.22-.16Zm4.59-.96c.08-1.77-.17-2.1-1.63-2.23l1.63,2.23Zm-2-3.17c1.06-1.04,1.06-1.13,0-2.53v2.53Zm.43,.25l2.46-.57c-1.5-.72-1.77-.66-2.46,.57Zm-1.15,.92c-1.14,.11-1.21,.06-1.29,2.08l1.29-2.08Zm.25-.92c-.75-1.17-1.13-1.26-2.34-.6l2.34,.6Zm.81,1.54q-.61,.86,1.01,1.12l-1.01-1.12Zm2.49-1.74l-1.81,.46c.84,.7,.9,.69,1.81-.46Z"/><path class="m" d="M877.41,613.6c-2.89-3.6-2.11-13.26,1.49-18.17-3.06,5.85-3.89,11.88-1.49,18.17Z"/><path class="m" d="M915.41,598.66l-.27,.91c-.35-.23-.59-.39-.83-.55-.35,.14-.69,.27-1.04,.41-.13-.33-.34-.6-.3-.83,.05-.24,.39-.63,.51-.6,.66,.16,1.3,.44,1.94,.67l-.02-.02Z"/><path class="m" d="M912.98,595.07c-.12,.11-.42,.47-.5,.42-.58-.31-1.11-.7-1.65-1.06,.26-.17,.5-.45,.77-.49,.7-.11,1.22,.17,1.38,1.12Z"/><path class="m" d="M892.83,600.06l-.53-.77,1.38-1.02-.85,1.79Z"/><path class="m" d="M900.05,571.44l2.43-.24c-.09,.19-.17,.51-.28,.52-.43,.04-.87-.01-1.31-.03l-.04-.28-.81,.87-.22-1.01,.12-.04c.06,.13,.12,.26,.1,.22Z"/><path class="m" d="M900.86,566.58c.64-.39,1.26-.49,1.93,.16-.52,.34-.91,.55-1.36,0-.11-.13-.39-.12-.59-.18v.02Z"/><path class="m" d="M857.94,600.73l-1,3.72-.26-.09c-.14-1.35,.48-2.46,1.26-3.64Z"/><path class="m" d="M942.29,600.75c.93,1.04,1.48,2.21,1.42,3.6l-.33,.1c-.12-.61-.18-1.22-.36-1.81-.19-.64-.48-1.26-.73-1.89Z"/></g><g><path class="m" d="M80.31,457.47c11.09,0,22.18,0,33.27,0,3.45,0,5.02,1.52,5.03,4.95,.01,20.89,.01,41.77,0,62.66,0,3.43-1.57,4.94-5.03,4.94-22.18,0-44.36,0-66.53,0-3.5,0-5.03-1.54-5.03-5.09,0-20.79,0-41.57,0-62.36,0-3.54,1.54-5.1,5.04-5.1,11.09,0,22.18,0,33.27,0Zm-.04,70.36c10.28,0,20.57,.02,30.85-.01,3.59-.01,5.21-1.65,5.21-5.17,0-19.23,0-38.45,0-57.68,0-3.41-1.72-5.13-5.13-5.13-20.62-.01-41.24-.01-61.86,0-3.46,0-5.08,1.67-5.08,5.12,0,9.84,0,19.68,0,29.52,0,9.54,0,19.07,0,28.61,0,2.86,1.57,4.52,4.39,4.7,.65,.04,1.31,.04,1.97,.04,9.88,0,19.76,0,29.64,0Z"/><path class="m" d="M62.26,520.74c1.75-5.5,3.51-11,5.23-16.51,.52-1.67,1.65-3.6,1.2-4.98-.43-1.31-2.55-2.09-3.95-3.06-4.67-3.24-9.36-6.46-14.36-9.92,.77-.08,1.18-.15,1.58-.16,6.65-.06,13.3-.14,19.95-.13,1.24,0,1.82-.32,2.2-1.58,1.91-6.36,3.94-12.69,5.93-19.02,.1-.33,.23-.66,.45-1.28,1.18,3.64,2.28,7.01,3.37,10.39,1.1,3.4,2.25,6.78,3.26,10.21,.34,1.15,.88,1.48,2.01,1.47,6.3-.04,12.6-.02,18.9-.02,.53,0,1.07,0,1.6,0l.09,.31c-.37,.29-.72,.61-1.11,.88-5.07,3.65-10.12,7.33-15.23,10.92-.99,.69-1.23,1.27-.83,2.45,2.22,6.68,4.33,13.39,6.61,20.52-.72-.47-1.15-.73-1.56-1.01-5.36-3.76-10.74-7.5-16.07-11.31-.88-.63-1.47-.65-2.36,0-5.16,3.78-10.38,7.49-15.57,11.23-.36,.26-.72,.52-1.09,.78l-.26-.18Zm40.04-31.78l-.09-.42h-1.6c-4.54,0-9.08-.08-13.61,.04-1.48,.04-1.99-.48-2.31-1.81-.76-3.13-1.67-6.22-2.53-9.33-.53-1.9-1.08-3.79-1.74-6.12-.28,.71-.41,.96-.49,1.23-1.32,4.86-2.65,9.71-3.92,14.58-.27,1.03-.67,1.45-1.82,1.42-4.53-.11-9.07-.11-13.61-.14-.5,0-.99,.05-1.49,.08,3.9,3.16,7.81,6,11.76,8.77,.88,.62,1.12,1.15,.76,2.23-1.47,4.44-2.82,8.93-4.21,13.4-.15,.49-.28,.99-.41,1.49l.28,.16c4.27-3.28,8.54-6.55,12.84-9.86,4.81,3.43,9.56,6.82,14.31,10.21l.28-.26c-1.95-5.27-3.9-10.53-5.88-15.86l13.48-9.82Z"/><path class="m" d="M96.55,490.72c-3.29,2.4-6.57,4.79-9.91,7.22l4.31,11.64-.22,.21-10.5-7.5-9.74,7.47c.36-1.25,.58-2.08,.83-2.91,.84-2.69,1.64-5.39,2.57-8.05,.37-1.05,.11-1.59-.77-2.19-2.81-1.93-5.55-3.95-8.66-6.19h12.43c1.15-4.22,2.27-8.33,3.39-12.43h.27c1.14,4.1,2.28,8.18,3.45,12.4h12.47l.09,.34Z"/></g></g></g></svg>