<?xml version="1.0" encoding="UTF-8"?><svg xmlns="http://www.w3.org/2000/svg" viewBox="0 0 833.36 408.24"><defs><style>.d{font-size:31.69px;}.d,.e{fill:#fcbf49;font-family:Roboto-Bold;}.e{font-size:23.96px;}.f{fill:#002a40;}.g{fill:#db2d2e;}</style></defs><g id="a"/><g id="b"><g id="c"><g><path class="f" d="M0,257.63C.1,115.09,115.98-.23,258.87,0c141.88,.23,257.28,116,257.14,258"/><path class="g" d="M602.95,257.53c.18-66.35,52.75-115.11,115.54-114.92,62.56,.19,114.86,48.81,114.87,115.13"/></g><text class="d" transform="translate(221.61 300.91)"><tspan x="0" y="0">2500</tspan></text><text class="d" transform="translate(681.77 300.91)"><tspan x="0" y="0">500</tspan></text><g><path class="f" d="M322.14,372.94c8.07,.13,14.51,6.78,14.38,14.86-.13,8.07-6.78,14.51-14.86,14.38s-14.51-6.78-14.38-14.86c0-.08,0-.15,0-.23,.26-7.98,6.87-14.28,14.85-14.16"/><path class="g" d="M454.51,387.48c.04,8.07-6.47,14.66-14.54,14.7-8.07,.04-14.66-6.47-14.7-14.54s6.47-14.66,14.54-14.7c.08,0,.15,0,.23,0,7.98,.08,14.43,6.56,14.47,14.54"/></g><text class="e" transform="translate(348.73 393.72)"><tspan x="0" y="0">1958</tspan></text><text class="e" transform="translate(464.19 393.72)"><tspan x="0" y="0">1963</tspan></text></g></g></svg>