<?xml version="1.0" encoding="UTF-8"?><svg id="a" xmlns="http://www.w3.org/2000/svg" xmlns:xlink="http://www.w3.org/1999/xlink" viewBox="0 0 1080 1920"><defs><style>.d{font-size:31.69px;}.d,.e{fill:#fcbf49;font-family:Poppins-Bold, Poppins;}.e{font-size:23.96px;}.f{fill:#002a40;}.g{clip-path:url(#b);}.h{clip-path:url(#c);}.i{fill:none;}.j{fill:#db2d2e;}</style><clipPath id="b"><rect class="i" width="1080" height="1920"/></clipPath><clipPath id="c"><rect class="i" width="1080" height="1920"/></clipPath></defs><g class="g"><g><path class="f" d="M123.32,1016.54c.1-142.54,115.98-257.86,258.87-257.63,141.88,.23,257.28,116,257.14,258"/><path class="j" d="M726.27,1016.44c.18-66.35,52.75-115.11,115.54-114.92,62.56,.19,114.86,48.81,114.87,115.13"/></g></g><text class="d" transform="translate(344.93 1059.82)"><tspan x="0" y="0">2500</tspan></text><text class="d" transform="translate(805.09 1059.82)"><tspan x="0" y="0">500</tspan></text><g class="h"><g><path class="f" d="M445.46,1131.85c8.07,.13,14.51,6.78,14.38,14.86-.13,8.07-6.78,14.51-14.86,14.38s-14.51-6.78-14.38-14.86c0-.08,0-.15,0-.23,.26-7.98,6.87-14.28,14.85-14.16"/><path class="j" d="M577.83,1146.39c.04,8.07-6.47,14.66-14.54,14.7-8.07,.04-14.66-6.47-14.7-14.54s6.47-14.66,14.54-14.7c.08,0,.15,0,.23,0,7.98,.08,14.43,6.56,14.47,14.54"/></g></g><text class="e" transform="translate(472.05 1152.63)"><tspan x="0" y="0">1958</tspan></text><text class="e" transform="translate(587.51 1152.63)"><tspan x="0" y="0">1963</tspan></text></svg>