<?xml version="1.0" encoding="utf-8"?>
<!-- Generator: Adobe Illustrator 26.2.1, SVG Export Plug-In . SVG Version: 6.00 Build 0)  -->
<svg version="1.1" id="Capa_1" xmlns="http://www.w3.org/2000/svg" xmlns:xlink="http://www.w3.org/1999/xlink" x="0px" y="0px"
	 viewBox="0 0 1080 554" style="enable-background:new 0 0 1080 554;" xml:space="preserve">
<style type="text/css">
	.st0{clip-path:url(#SVGID_00000075848140739805284930000011679560362866595249_);}
	.st1{fill:#002A40;}
	.st2{fill:#DB2D2E;}
	.st3{fill:#FCBF49;}
	.st4{font-family:'Poppins-Bold';}
	.st5{font-size:31.69px;}
	.st6{clip-path:url(#SVGID_00000132062847191222178950000007360944279865920943_);}
	.st7{font-size:23.96px;}
</style>
<g>
	<defs>
		<rect id="SVGID_1_" y="-662" width="1080" height="1920"/>
	</defs>
	<clipPath id="SVGID_00000061449514163019655270000018257906461261814944_">
		<use xlink:href="#SVGID_1_"  style="overflow:visible;"/>
	</clipPath>
	<g style="clip-path:url(#SVGID_00000061449514163019655270000018257906461261814944_);">
		<path class="st1" d="M123.3,354.5c0.1-142.5,116-257.9,258.9-257.6c141.9,0.2,257.3,116,257.1,258"/>
		<path class="st2" d="M726.3,354.4c0.2-66.4,52.8-115.1,115.5-114.9c62.6,0.2,114.9,48.8,114.9,115.1"/>
	</g>
</g>
<text transform="matrix(1 0 0 1 344.93 397.82)" class="st3 st4 st5">2500</text>
<text transform="matrix(1 0 0 1 805.09 397.82)" class="st3 st4 st5">500</text>
<g>
	<defs>
		<rect id="SVGID_00000139286454841659754440000006161582329583112877_" y="-662" width="1080" height="1920"/>
	</defs>
	<clipPath id="SVGID_00000011730881827018025600000007259483007919312823_">
		<use xlink:href="#SVGID_00000139286454841659754440000006161582329583112877_"  style="overflow:visible;"/>
	</clipPath>
	<g style="clip-path:url(#SVGID_00000011730881827018025600000007259483007919312823_);">
		<path class="st1" d="M445.5,469.9c8.1,0.1,14.5,6.8,14.4,14.9c-0.1,8.1-6.8,14.5-14.9,14.4s-14.5-6.8-14.4-14.9c0-0.1,0-0.2,0-0.2
			C430.9,476,437.5,469.7,445.5,469.9"/>
		<path class="st2" d="M577.8,484.4c0,8.1-6.5,14.7-14.5,14.7c-8.1,0-14.7-6.5-14.7-14.5s6.5-14.7,14.5-14.7c0.1,0,0.2,0,0.2,0
			C571.3,469.9,577.8,476.4,577.8,484.4"/>
	</g>
</g>
<text transform="matrix(1 0 0 1 472.05 490.63)" class="st3 st4 st7">1958</text>
<text transform="matrix(1 0 0 1 587.51 490.63)" class="st3 st4 st7">1963</text>
</svg>
