<svg id="Capa_1" data-name="Capa 1" xmlns="http://www.w3.org/2000/svg" xmlns:xlink="http://www.w3.org/1999/xlink" viewBox="0 0 1080 554"><defs><style>.cls-1{fill:none;}.cls-2{clip-path:url(#clip-path);}.cls-3{fill:#002a40;}.cls-4{fill:#db2d2e;}.cls-5{font-size:31.69px;}.cls-5,.cls-6{fill:#ece6be;font-family:Times Bold;font-weight:700;}.cls-6{font-size:23.96px;}</style><clipPath id="clip-path"><rect class="cls-1" y="-662" width="1080" height="1920"/></clipPath></defs><title>trabajadores</title><g class="cls-2"><path class="cls-3" d="M123.32,354.54C123.42,212,239.3,96.68,382.19,96.91c141.88,0.23,257.28,116,257.14,258"/><path class="cls-4" d="M726.27,354.44c0.18-66.35,52.75-115.11,115.54-114.92,62.56,0.19,114.86,48.81,114.87,115.13"/></g><text class="cls-5" transform="translate(344.93 397.82)">2500</text><text class="cls-5" transform="translate(805.09 397.82)">500</text><g class="cls-2"><path class="cls-3" d="M445.46,469.85A14.62,14.62,0,1,1,430.61,484a14.64,14.64,0,0,1,14.85-14.16"/><path class="cls-4" d="M577.83,484.39a14.62,14.62,0,1,1-14.47-14.54,14.62,14.62,0,0,1,14.47,14.54"/></g><text class="cls-6" transform="translate(465.05 490.63)">1958</text><text class="cls-6" transform="translate(580.51 490.63)">1963</text></svg>